M48
;Layer_Color=9474304
;FILE_FORMAT=2:5
INCH,LZ
;TYPE=PLATED
T1F00S00C0.01300
T2F00S00C0.01575
T4F00S00C0.04331
T5F00S00C0.04409
T6F00S00C0.04500
T7F00S00C0.04724
T8F00S00C0.05200
T9F00S00C0.05500
T10F00S00C0.05512
T11F00S00C0.06299
T12F00S00C0.07087
;TYPE=NON_PLATED
T13F00S00C0.02559
%
T01
X0139009Y03686
X0126984Y0383146
X0129543Y0394366
X01486Y03986
X01423Y04105
X0142445Y0418587
X01476Y0416
X0146Y04251
X01516Y04246
X0154Y04341
X01431Y04353
Y04399
X01405Y04459
X0136608Y044625
X0135725Y044365
X01317Y04445
X01305Y04399
X01311Y04347
X01245Y04353
X012Y04363
X012275Y044025
X01213Y04424
X01242Y04458
X0124Y04494
X0123723Y0452288
X0126969Y04561
X0128937Y0454337
X01338Y04542
X01351Y04567
X0138795Y0456189
X0139764Y0452724
X0135858Y04524
X01327Y04595
X01232Y04608
X0119095Y04611
X0115158Y0466815
X0109252
X011122Y04574
X0115158Y045428
X01108Y04441
X01186Y04294
X0117126Y0421382
X0105315Y0422382
X0129921Y0419399
X01329Y04193
X01341Y04151
X013489Y0424732
X01321Y04247
X01398Y04277
X01464Y04498
X015507Y04484
X0155085Y04598
X01436Y04603
Y04657
X0125Y0466815
X0154528Y0354405
X01672Y03467
X0161146Y0369094
X0159449Y0383146
X0170728Y03785
X0175728Y0378528
X0180828Y0380193
X0197835Y0378815
X02014Y0379101
X0209646Y0378815
X021063Y039087
X02122Y03952
X0213188
X02129Y04009
X02083Y0412161
X020519Y04116
X02092Y04205
X0211098Y042226
X0211043Y0426605
X02108Y04309
X0211098Y0433858
X0205522Y0439695
X02036Y04397
X0199213Y0449728
X0193036Y0461598
X0179012Y0463339
X0179Y04663
X0168865Y04598
X01641Y04537
X0168734Y04484
X016695Y04421
X01646Y0437008
X01586Y04341
X015765Y04421
X0158Y04246
X01628Y04256
X01626Y04158
X01635Y04079
X0174728Y0408661
X01772Y04071
X0177165Y0404528
X0181102
X01812Y04074
X01913Y04045
X0193Y0403543
X01946Y04044
X0198819Y0404528
X0199213Y0392791
X0193626Y0385827
X0192105Y0414356
X01974Y04172
X01802Y0424409
X0175909Y04256
X0174728Y042026
X01729Y0395765
X01871Y04383
X01893Y04384
X0221579Y044685
X0231422
Y0458661
X0221579
X02214Y0424409
X0224409Y0422957
X02244Y04137
X0221382Y0411811
X0221335Y0409449
X0231421Y0397638
X0226894Y0383858
X0250713
X0251106Y0372047
X0241264
X02349Y0364
X0251106Y0360236
X0193036Y0474409
X0182087Y0482406
X0170276
X01569Y0476
X0185841Y0493459
X01387Y04836
X0123937Y0477256
X0117126Y04896
T02
X0109055Y0469095
X011063Y047185
X011378
X0116929
X0115354Y0469095
X0118504
X0121654
X0124803
X0126378Y047185
X0129528
X0131102Y0469095
X0123228Y047185
T04
X0192913Y034252
X0202756
X0212598
X025689Y0423228
Y0433071
Y0442913
T05
X0107283Y0427165
Y0437165
X0255906Y0407638
Y0397638
Y0380079
Y0370079
Y035252
Y034252
X0240157
X0230157
T06
X0135669Y0392638
Y0402638
X0145669
Y0392638
X0155669
Y0402638
T07
X011122Y0374528
Y0384528
Y0394528
Y0404528
X0161575Y0487205
X0171575
X0181575
X0151575
T08
X0241142Y0400728
Y0415728
Y0430728
Y0445728
T09
X0152402Y0464567
X0162402
X0172402
X0194724Y0366142
X0204724
X0214724
T10
X0111575Y034252
X0131575
X0154882
X0174882
T11
X0094488Y0330709
X0263779
X02631Y04998
X0094488Y05
T12
X021063Y0469685
Y048622
X0227166
X0243701
Y0469685
X0227166
T13
X0105906Y0466536
M30
