M48
;Layer_Color=9474304
;FILE_FORMAT=4:3
METRIC,TZ
;TYPE=PLATED
T1F00S00C0.200
T2F00S00C0.250
T3F00S00C0.330
T4F00S00C0.350
T7F00S00C1.000
T10F00S00C2.700
%
T01
X-29125Y-18775
X-29225Y-18125
X-26200Y-16825
X-26850Y-15525
X-26200Y-19425
X-24900Y-19425
X-24900Y-18125
X-24900Y-17475
X-24250
X-24900Y-16825
X-25550Y-16825
X-24900Y-16175
X-24900Y-15525
X-23600Y-15525
X-22950Y-15525
X-23425Y-14000
X-23925Y-13625
X-23250Y-13300
X-25400Y-13525
X-22950Y-18125
X-22950Y-18775
X-20975Y-18125
X-24775Y-21525
T02
X-25000Y-134000
X-23000
X-21000
X-19000
X-17000
X-15000
X-13000
X-11000
X-9000
X-7000
X-5000
X-1000Y-129000
Y-127000
Y-125000
X-15850Y-129225
X-27000Y-134000
X-29000
X-31000
X-33000
X-35000
X-37000
X-39000
X-41000
X-43000
X-45000
X-47000
X-49000
X-51000
X-53000
X-55000
X-57000
X-59000
X-63000
X-65000
X-59700Y-128275
X-61325Y-126100
X-59750Y-124250
X-29600
X-67000Y-134000
X-69000
X-71000
X-73000
X-75000
X-77000
X-79000
X-81000
X-83000
X-85000
X-89000Y-129000
Y-127000
Y-125000
Y-123000
Y-121000
Y-119000
Y-117000
Y-115000
Y-113000
Y-111000
Y-109000
Y-107000
Y-105000
Y-103000
Y-101000
Y-99000
Y-97000
Y-95000
Y-91000
Y-89000
Y-87000
Y-85000
X-85100Y-84100
X-84433Y-83600
Y-84600
X-84625Y-88100
X-85175Y-87600
Y-89600
X-85025Y-90850
X-83200Y-90150
X-82875Y-87025
X-79250Y-86200
X-79225Y-89700
X-78000Y-90225
X-79125Y-101075
X-77025Y-101875
X-75925Y-101850
X-74025Y-101500
X-73325Y-103200
X-70400Y-103000
X-70100Y-104175
X-68875Y-104000
X-68295Y-105150
X-68525Y-106775
X-69625Y-106075
X-69425Y-108650
X-70525Y-108650
X-73100Y-108650
X-71075Y-111000
X-69175Y-110925
X-69225Y-112300
X-70300Y-113050
X-71950Y-112125
X-75400Y-111025
X-76600Y-110863
X-77664Y-110950
X-78850Y-110375
X-79600Y-109275
X-82550Y-109225
X-82525Y-110525
X-81725Y-112525
X-80425Y-112900
X-80900Y-116050
X-80875Y-117350
X-83925Y-117350
Y-116050
X-86900Y-116150
X-85675Y-111700
X-85075Y-107375
Y-105425
X-86050Y-106400
X-82025
X-82050Y-107950
X-82025Y-104374
X-83350Y-100975
X-78450Y-105625
X-76600Y-104700
X-71275Y-104680
X-70400Y-101050
X-69425Y-102025
X-68425Y-109750
X-66800Y-112925
X-67075Y-116200
X-67050Y-117500
X-70050
Y-116125
X-73225Y-117825
X-75175
X-74200Y-118800
X-73975Y-114875
X-76625Y-114300
X-77900Y-116150
X-60950Y-116050
X-55850Y-115600
X-54475Y-115705
X-53375
X-52250Y-115275
X-51888Y-120493
X-51800Y-122450
X-55575Y-120493
X-56250Y-118230
X-59800Y-111150
X-59700Y-106500
X-56400Y-105800
X-57377Y-102900
X-55377
X-53678
X-51248
X-46248
X-43748
X-41248
X-38748
X-36248Y-103000
X-40003Y-105750
X-46248Y-106770
X-44400Y-92700
X-44475Y-89675
Y-88525
Y-87375
X-40800Y-87350
X-39575Y-86925
X-36450
X-34925Y-87525
X-32900Y-88025
X-35750Y-89375
X-37325Y-90250
X-40450Y-90400
X-41375Y-89825
X-41400Y-88525
X-41100Y-84875
X-37325Y-85625
X-26819Y-85323
Y-84173
X-26825Y-86473
Y-87623
Y-88773
Y-89923
X-26825Y-91048
X-29069Y-91944
X-26025Y-94075
X-33425Y-96925
X-29600Y-106500
Y-111250
Y-119200
X-65025Y-109750
Y-108600
Y-107450
Y-106300
Y-105150
Y-104000
X-57763Y-93975
X-55550Y-92830
X-54400Y-90650
X-55627Y-89525
X-57275Y-88675
X-58225Y-86700
X-58800Y-84475
X-57175Y-84400
X-56200Y-84425
X-55100Y-84400
X-60825Y-84650
X-61675Y-89650
X-47250Y-90000
X-24594Y-85600
X-22225Y-94075
X-16861Y-94586
X-16350Y-93275
X-15175Y-94825
X-12000
X-12100Y-93725
X-10850Y-92400
X-8425Y-92525
X-7425
X-7925Y-91825
X-6500Y-92200
X-5325Y-93700
X-4275Y-93625
X-4475Y-95675
X-3425Y-95625
X-2750Y-94625
X-2025Y-95300
X-2000Y-96250
X-2825Y-97025
X-2950Y-97825
X-1000Y-97000
Y-95000
Y-93000
Y-91000
Y-89000
Y-87000
Y-85000
X-12075Y-87200
X-13425Y-87925
X-13800Y-86575
X-13150Y-91625
X-12425Y-96625
X-11900Y-96100
X-12225Y-97475
X-13425Y-98075
X-14300Y-98050
X-14326Y-100609
X-15494Y-102591
X-12126Y-102205
X-10500Y-104225
X-9450Y-105025
X-11305Y-105850
X-13175Y-106142
X-13875
X-16235
X-16935
X-20850Y-105825
X-23400Y-104575
X-24950Y-105800
X-19645Y-112320
X-16585Y-114665
X-12900Y-113025
X-1000Y-113000
Y-115000
Y-117000
X-1650Y-118075
X-1000Y-119000
Y-121000
Y-123000
Y-111000
Y-109000
Y-107000
Y-105000
Y-103000
Y-101000
X-1925Y-100425
X-1000Y-99000
X-5100Y-101150
X-6400Y-100750
Y-100050
X-8200Y-99750
Y-100450
X-9425Y-99250
X-5325Y-96125
X-7250Y-105775
X-17200Y-98650
X-17825Y-97175
X-14925Y-80800
X-16275Y-76200
X-13425Y-73175
X-17700Y-69650
X-25325Y-69675
X-24850Y-66575
X-25325Y-65325
X-25300Y-60184
X-13775Y-60700
X-17307Y-54362
X-18150Y-51850
X-16875Y-45775
X-15125Y-45125
X-23800Y-46875
X-24325Y-47475
X-1000Y-47000
Y-49000
Y-51000
Y-53000
Y-55000
X-2225Y-54475
X-2825Y-56750
X-1000Y-57000
Y-59000
Y-61000
Y-63000
Y-65000
Y-67000
Y-69000
Y-71000
Y-73000
Y-75000
Y-77000
Y-79000
Y-81000
Y-83000
X-24575Y-78531
X-24575Y-75975
Y-73425
X-1000Y-45000
X-29675Y-47250
X-32925
X-35827Y-48327
X-35952Y-45752
X-35950Y-44750
X-35925Y-43750
X-37227Y-45227
Y-46252
X-38200Y-47575
X-37477Y-51753
X-35925Y-52250
X-36325Y-54250
X-35750Y-54750
X-36050Y-55750
X-38400Y-54775
X-32850Y-55250
X-33000Y-56750
X-32875Y-58750
X-31025Y-61300
X-29925Y-60525
X-29300Y-61875
X-27475Y-60200
X-29300Y-57225
X-29675Y-55250
Y-54150
X-29150Y-53150
X-33075Y-52750
X-31800Y-50750
X-26009Y-55957
X-27250Y-65000
X-28650
X-30050
Y-66600
X-28650
X-27250
X-25800Y-66200
X-28015Y-69663
X-30100Y-69525
X-32875Y-69775
X-35350
X-36925Y-70375
X-37450Y-69650
X-36250Y-65325
X-36752Y-62403
X-36250Y-61900
X-37752Y-61978
X-37625Y-63100
X-41127Y-63128
X-41752Y-62178
X-42750Y-62675
X-43250Y-62125
X-44250Y-62025
X-45727Y-62278
X-45225Y-63850
X-44900Y-65825
X-46850Y-65350
X-50750Y-65325
X-50825Y-68075
X-51300Y-69650
X-51397Y-70975
X-50300Y-70475
X-49900Y-72925
X-50922Y-72925
X-48627Y-72204
X-53450Y-72275
X-54050Y-71625
X-53925Y-70550
X-53475Y-69228
X-52600Y-69875
X-56447Y-70025
Y-70975
X-56922Y-71625
X-56447Y-72275
Y-73575
X-56803Y-74229
X-56447Y-74875
X-58075Y-75200
X-57350Y-76175
X-56922Y-76825
X-57700Y-76925
X-56447Y-77475
X-54647Y-76825
X-53672
X-53197Y-77475
X-53672Y-78125
X-54647
Y-79425
X-53875Y-79150
X-53197Y-78775
X-54172Y-80075
X-56422
X-57987Y-80088
X-58416Y-78941
X-58850Y-80975
X-61425Y-80925
X-60300Y-79725
X-60925Y-77525
X-61525Y-76175
X-63300Y-76800
X-63550Y-78025
X-64178Y-79554
X-60325Y-74675
X-60825Y-74075
X-61325Y-73400
X-61825Y-72825
X-62050Y-69100
X-61450Y-65025
X-63750Y-61200
X-64400Y-60425
X-63800Y-59075
X-60750Y-59075
X-60325Y-57250
Y-55750
Y-54650
X-61256Y-54278
X-61200Y-56500
X-57350Y-55750
X-56800Y-56250
X-56850Y-54750
X-56925Y-53750
X-56850Y-50750
X-57875Y-51225
X-60125Y-51450
X-63028Y-50727
X-62500Y-49575
X-64225Y-51450
X-64400Y-54625
X-65050Y-48475
X-59550Y-47800
X-58700Y-47950
X-58771Y-47200
X-57005Y-48250
X-57003Y-44752
X-58250Y-44275
X-59350Y-44250
X-54300
X-53775Y-43750
X-52703Y-45727
X-53203Y-46252
X-49675Y-46750
X-49177Y-47252
X-50152Y-47752
X-50427Y-48752
X-51550Y-49750
X-50475Y-51250
X-46450Y-53250
X-45625Y-56250
X-45325Y-57250
X-46425Y-57300
X-45750Y-59275
X-44752Y-59203
X-43750Y-59200
X-44652Y-58203
X-41750Y-59300
X-41725Y-66800
X-42875Y-66800
X-44300Y-72800
X-44802Y-73779
X-46975Y-79425
X-49625
X-50275Y-78775
X-50621Y-78129
X-50922Y-77475
X-51397Y-76825
X-50922Y-76175
X-53325Y-75350
X-53328Y-74504
X-54172Y-74875
X-54647Y-75525
X-54500Y-72925
X-53922Y-73500
X-50922Y-80075
X-51672Y-81025
X-55575Y-82625
X-44775Y-82150
X-42925Y-81200
X-39600Y-82475
X-38550Y-81700
X-37325Y-81175
X-36475Y-82475
X-35350Y-77375
Y-76275
X-29075Y-80050
X-26825Y-81873
Y-83023
X-27276Y-71150
X-33050Y-63100
X-48950Y-61950
X-50750Y-62025
X-50250Y-59275
X-49360Y-58365
X-54275Y-55250
X-54328Y-54278
X-57078Y-57753
X-56303Y-62403
X-48202Y-46702
X-47600Y-47200
X-46475Y-47100
X-45475Y-46950
X-45025Y-47575
X-45752Y-44427
X-44150Y-44350
X-42925Y-43850
X-42752Y-44852
X-47100Y-45125
X-70800Y-46925
X-70653Y-51753
X-72125Y-54325
X-73694Y-54331
X-72950Y-58425
X-73625Y-60125
X-70653Y-59628
X-69303Y-56603
X-67175Y-54125
X-66425Y-53950
X-65875Y-54475
X-78647Y-54331
X-78659Y-51830
X-82425Y-51350
X-82422Y-50574
Y-49848
X-81550Y-44100
X-78659Y-44210
X-76375Y-44450
X-89000Y-45000
Y-47000
Y-49000
Y-51000
Y-53000
Y-55000
Y-57000
Y-59000
Y-61000
Y-63000
X-87850Y-63450
X-89000Y-67000
Y-69000
Y-71000
Y-73000
Y-75000
Y-77000
Y-79000
Y-81000
Y-83000
X-85100Y-83100
Y-76600
Y-75600
X-84433Y-76100
Y-77100
X-82975Y-77200
X-83900Y-74600
Y-73100
Y-71600
X-82700Y-72100
Y-73600
X-85100Y-74100
Y-71100
Y-69600
Y-68100
X-83900Y-68600
X-82700Y-69100
Y-70600
X-77675Y-65625
X-76600Y-64425
X-77176Y-62199
X-74775Y-67250
X-73375Y-77700
X-73425Y-78700
X-72450Y-79200
X-79350
X-79200Y-77675
X-78000
X-65725Y-82325
X-82438Y-56600
X-86775Y-59075
X-89000Y-43000
Y-41000
Y-39000
Y-37000
Y-35000
Y-33000
Y-31000
Y-29000
Y-27000
Y-25000
Y-23000
Y-21000
X-87850Y-21700
X-89000Y-19000
Y-17000
X-87850Y-16875
X-89000Y-15000
Y-13000
Y-11000
Y-9000
Y-7000
Y-5000
X-87200Y-12000
X-85775Y-13375
X-84300Y-16950
X-83850Y-21725
X-81250Y-21975
X-78903Y-21347
X-76250Y-23825
X-73467Y-23887
Y-21347
X-69925Y-20175
Y-19175
X-68925
Y-20175
X-67100Y-19425
X-66625Y-21475
X-66000Y-17750
X-72275Y-17100
X-76425Y-15525
X-74675Y-5200
X-72150Y-4675
X-70850Y-5525
X-68200Y-10900
X-69275Y-28100
X-73705Y-28970
X-73705Y-26430
X-76150Y-27700
X-78659Y-26430
X-81186Y-26411
X-82050Y-29725
X-84150Y-29975
X-83775Y-28350
X-87300Y-29700
X-76375Y-31700
X-78661Y-36587
X-80525
X-78659Y-39130
Y-41670
X-79475Y-41525
X-73708Y-41684
X-65875Y-39050
X-85725Y-41700
X-63250Y-40100
X-61000Y-35750
X-58225Y-33075
X-56600Y-37400
X-54456Y-38250
X-53475Y-36125
X-52450Y-33975
X-52400Y-32375
X-51300Y-31508
Y-34675
X-48618Y-34197
X-46250Y-34950
X-44750Y-35550
X-45350Y-36900
X-46775
X-47750Y-38150
X-48750Y-38162
X-51111Y-37966
X-50750Y-40850
X-48875Y-40925
X-47250Y-40950
X-45750Y-40900
X-44625Y-37975
X-42250Y-38075
X-41250
X-40750Y-37050
X-39750Y-37075
X-39250Y-38075
X-38250
X-36177Y-37102
X-33375Y-37300
X-31250Y-37375
X-32050Y-36125
X-33525Y-34950
X-34552Y-35552
X-36250Y-32000
X-35125Y-29750
X-33475Y-29825
X-31875Y-29950
X-28950Y-29625
X-27625
X-26009Y-30166
Y-26368
X-27625Y-26368
X-28950
X-30275Y-26368
X-31875Y-26375
X-33475Y-26375
X-35125
X-36477Y-23929
X-38300Y-25350
X-40750Y-26450
X-39702Y-27576
X-38368Y-29053
X-39100Y-30250
X-40299Y-33774
X-43765Y-33165
X-42530Y-25675
X-42230Y-23969
X-43500
X-44770
X-46040
X-40960Y-19893
X-39690
X-37150
X-35880
X-34610
X-30750Y-19875
X-29650Y-22675
X-30273Y-23929
X-28275Y-22100
X-26425Y-22200
X-29925Y-16225
X-32850Y-15600
X-33775Y-16700
X-33050Y-13775
X-32050Y-13000
X-29200Y-13200
X-30150Y-10525
X-29450Y-8650
X-26725Y-7950
X-26675Y-11800
X-34225Y-10525
X-35325Y-10100
X-36600Y-10075
X-35675Y-13825
X-36515Y-15568
X-39690
X-44770
X-48900Y-14731
X-49087Y-13731
Y-12713
X-48900Y-11713
X-49825Y-10500
X-50675
X-53525Y-10425
X-53550Y-11225
Y-12800
Y-13575
X-52750Y-14275
X-53675Y-15225
X-54425
X-54800Y-16125
X-54325Y-17225
X-53325Y-18850
X-53475Y-20825
X-55250Y-21800
X-56200
X-57350Y-22025
X-58075Y-21400
X-60175Y-24550
X-64825Y-23900
Y-23237
Y-22575
X-65325Y-27050
X-65275Y-17750
X-64550
Y-16800
X-65275
X-64225Y-14100
X-64600Y-12000
X-64425Y-9800
X-60775Y-9450
X-59800Y-10425
X-60525Y-11700
X-59127Y-11950
X-59875Y-12825
Y-13550
X-59928Y-14374
X-59127Y-14450
X-59750Y-15775
X-60625Y-16600
X-50675Y-15700
X-49775
X-52750Y-12125
X-55550Y-10425
X-55475Y-7800
X-52825Y-7475
X-54400Y-5250
X-55250Y-4600
X-56200
X-57600Y-4550
X-34000Y-5600
X-29875Y-5075
X-29575Y-36400
X-29675Y-41750
X-29775Y-43650
X-33075Y-43250
X-32975Y-42500
X-35825Y-41750
X-36452Y-42752
X-37750Y-41500
X-38750Y-40875
X-40250Y-41175
X-44125Y-43325
X-54200Y-43000
Y-42250
X-53600Y-41250
X-57025Y-41750
X-57250Y-42775
X-57128Y-43723
X-26325Y-41275
X-24450Y-39875
X-23825Y-39325
X-23300Y-38800
X-22725Y-38075
X-22450Y-41275
X-21725Y-40550
X-21750Y-43100
X-23459Y-31500
Y-30014
X-24734Y-30725
Y-26368
X-23459
X-22184Y-26368
X-20050Y-21925
X-20875Y-21000
X-20050Y-19450
X-19075Y-19250
X-18400Y-18000
X-18814Y-14414
X-19325Y-14925
X-17001Y-14726
X-18025Y-10500
X-19501Y-11951
X-21975Y-11800
X-22400Y-8950
X-21200Y-8700
X-19775Y-6800
X-17348Y-7442
X-22850Y-6775
X-22900Y-4650
X-24700Y-4425
X-25275Y-10050
X-13950Y-10500
X-11950Y-9575
X-10325Y-11450
X-11450Y-12650
X-11100Y-16100
X-14250Y-18350
X-13100Y-20750
X-16125Y-20275
X-9225Y-26500
X-4900
Y-25200
X-1000Y-25000
Y-23000
Y-21000
Y-19000
Y-17000
Y-15000
Y-13000
X-1800Y-12000
X-3300Y-12150
X-5050Y-9800
X-6850Y-10050
Y-8750
X-4375Y-7025
X-1800Y-7250
X-1000Y-5000
X-10800Y-5675
X-11200Y-6725
X-1000Y-27000
Y-29000
Y-31000
Y-33000
Y-35000
Y-37000
Y-39000
Y-41000
Y-43000
X-5000Y-1000
X-7600Y-1518
X-10000Y-1250
X-14300Y-3275
X-22000Y-1000
X-23000
X-24925Y-1500
X-27000Y-1000
X-29175Y-1650
X-30075Y-1525
X-34000Y-1000
X-34125Y-2150
X-37000Y-1000
X-40000
X-40500Y-1500
X-43051Y-1189
X-55000Y-1000
X-56000
X-56550Y-2050
X-57700Y-1050
X-59075
X-60250Y-1000
X-60000Y-2025
X-68375Y-1775
X-72000Y-1000
X-73000
X-73375Y-2075
X-76075Y-2725
X-76000Y-1000
X-79000
X-82000
X-85000
T03
X-77000Y-108275
Y-107075
X-75800
Y-108275
T04
X-9675Y-96875
Y-95875
Y-94875
X-8675
X-7675
Y-95875
Y-96875
X-8675
Y-95875
T07
X-60350Y-132945
Y-130405
X-67930Y-96294
Y-93754
Y-91214
Y-88674
Y-86134
Y-83594
X-62850Y-98834
X-60310
X-57770
X-55230
X-52690
X-50150
X-47610
Y-101374
X-45070
Y-98834
X-42530
Y-101374
X-39990
Y-98834
X-37450
Y-101374
X-34910
Y-98834
X-32370
Y-101374
X-29830
X-27290
Y-98834
X-29830
X-50150Y-101374
X-52690
X-55230
X-57770
X-60310
X-62850
X-24750
X-22210
X-19670
Y-98834
X-22210
X-24750
X-19670Y-91214
Y-88674
Y-86134
Y-83594
X-6970Y-84610
Y-87150
X-4430
Y-84610
Y-82070
X-6970
Y-79530
X-4430
Y-76990
Y-74450
Y-71910
Y-69370
Y-66830
Y-64290
X-6970
Y-66830
Y-69370
Y-71910
Y-74450
Y-76990
X-19670Y-75974
Y-78514
Y-81054
Y-73434
Y-68354
Y-65814
Y-63274
Y-60734
Y-58194
Y-55654
Y-53114
Y-50574
Y-46510
Y-43970
X-6970Y-43970
Y-46510
Y-49050
Y-51590
X-4430
Y-49050
Y-46510
Y-43970
X-27442Y-51755
Y-54295
X-39990Y-68481
Y-71021
X-42530
X-45070
Y-68481
X-42530
X-61550Y-45500
X-67930Y-45494
Y-48034
Y-50574
Y-55654
Y-58194
Y-60734
Y-63274
Y-65814
Y-68354
Y-70894
Y-73434
Y-78514
Y-81054
X-84440Y-55654
Y-53114
Y-50574
Y-48034
Y-45494
X-86980
Y-48034
Y-50574
Y-53114
Y-55654
Y-42954
Y-40414
X-84440
Y-37874
X-86980
Y-35334
X-84440
Y-32794
X-86980
X-84440Y-42954
X-67930Y-42954
Y-40414
Y-37874
Y-35334
Y-32794
X-61550Y-42960
X-41270Y-10950
X-38730
X-19670Y-23650
Y-26190
Y-28730
Y-31270
Y-33810
Y-36350
Y-38890
Y-41430
X-6970Y-41430
Y-38890
X-4430
Y-36350
Y-33810
Y-31270
Y-28730
X-6970
Y-31270
Y-33810
Y-36350
X-4430Y-41430
Y-16030
Y-13490
X-6970
Y-16030
T10
X-2350Y-132650
X-87650
X-2350Y-2350
X-87650
M30
