G04 Layer_Color=65280*
%FSLAX44Y44*%
%MOMM*%
G71*
G01*
G75*
%ADD29C,0.1270*%
%ADD32C,0.0500*%
%ADD33C,0.1000*%
%ADD68C,0.5080*%
%ADD69C,0.2500*%
%ADD70C,0.6000*%
%ADD72C,0.2000*%
%ADD73C,0.1250*%
%ADD74C,0.1500*%
%ADD108C,0.0508*%
%ADD109C,0.2032*%
%ADD110C,0.5000*%
%ADD111C,0.4000*%
%ADD112C,0.1280*%
G36*
X284792Y1264169D02*
X285074Y1264155D01*
X285328Y1264113D01*
X285539Y1264071D01*
X285723Y1264042D01*
X285849Y1264000D01*
X285934Y1263986D01*
X285962Y1263972D01*
X286188Y1263887D01*
X286399Y1263774D01*
X286582Y1263662D01*
X286752Y1263549D01*
X286878Y1263450D01*
X286977Y1263366D01*
X287048Y1263309D01*
X287062Y1263295D01*
X287245Y1263112D01*
X287386Y1262900D01*
X287513Y1262703D01*
X287612Y1262506D01*
X287682Y1262337D01*
X287738Y1262210D01*
X287752Y1262153D01*
X287767Y1262111D01*
X287781Y1262097D01*
Y1262083D01*
X287851Y1261787D01*
X287908Y1261491D01*
X287950Y1261209D01*
X287978Y1260941D01*
X287992Y1260701D01*
X288006Y1260603D01*
Y1260518D01*
Y1260447D01*
Y1260391D01*
Y1260363D01*
Y1260349D01*
Y1254893D01*
X286794D01*
Y1260433D01*
Y1260673D01*
X286780Y1260884D01*
X286766Y1261082D01*
X286737Y1261237D01*
X286723Y1261364D01*
X286695Y1261462D01*
X286681Y1261533D01*
Y1261547D01*
X286639Y1261716D01*
X286582Y1261857D01*
X286526Y1261998D01*
X286470Y1262111D01*
X286427Y1262210D01*
X286385Y1262294D01*
X286357Y1262337D01*
X286343Y1262351D01*
X286230Y1262492D01*
X286117Y1262604D01*
X285990Y1262717D01*
X285878Y1262788D01*
X285765Y1262858D01*
X285680Y1262900D01*
X285624Y1262929D01*
X285610Y1262943D01*
X285427Y1263013D01*
X285243Y1263055D01*
X285060Y1263098D01*
X284877Y1263112D01*
X284722Y1263126D01*
X284609Y1263140D01*
X284496D01*
X284256Y1263126D01*
X284045Y1263112D01*
X283862Y1263084D01*
X283692Y1263041D01*
X283566Y1262999D01*
X283467Y1262971D01*
X283411Y1262957D01*
X283382Y1262943D01*
X283213Y1262858D01*
X283072Y1262759D01*
X282945Y1262675D01*
X282847Y1262576D01*
X282762Y1262492D01*
X282706Y1262421D01*
X282663Y1262365D01*
X282649Y1262351D01*
X282494Y1262083D01*
X282438Y1261956D01*
X282396Y1261829D01*
X282353Y1261730D01*
X282325Y1261646D01*
X282311Y1261589D01*
Y1261575D01*
X282283Y1261406D01*
X282255Y1261209D01*
X282241Y1261011D01*
X282226Y1260828D01*
X282212Y1260659D01*
Y1260532D01*
Y1260476D01*
Y1260433D01*
Y1260419D01*
Y1260405D01*
Y1254893D01*
X281000D01*
Y1260349D01*
X281014Y1260715D01*
X281028Y1261054D01*
X281070Y1261350D01*
X281113Y1261603D01*
X281141Y1261815D01*
X281169Y1261899D01*
X281183Y1261970D01*
X281197Y1262026D01*
Y1262069D01*
X281211Y1262083D01*
Y1262097D01*
X281310Y1262351D01*
X281409Y1262576D01*
X281536Y1262788D01*
X281649Y1262957D01*
X281761Y1263098D01*
X281846Y1263211D01*
X281902Y1263267D01*
X281930Y1263295D01*
X282100Y1263450D01*
X282269Y1263577D01*
X282452Y1263690D01*
X282621Y1263789D01*
X282762Y1263859D01*
X282889Y1263915D01*
X282959Y1263944D01*
X282988Y1263958D01*
X283241Y1264028D01*
X283495Y1264085D01*
X283749Y1264127D01*
X283989Y1264155D01*
X284186Y1264169D01*
X284355Y1264183D01*
X284496D01*
X284792Y1264169D01*
D02*
G37*
G36*
X302442Y1263986D02*
X302752Y1263972D01*
X303020Y1263944D01*
X303245Y1263915D01*
X303428Y1263887D01*
X303555Y1263859D01*
X303640Y1263831D01*
X303668D01*
X303894Y1263760D01*
X304105Y1263676D01*
X304302Y1263577D01*
X304471Y1263478D01*
X304598Y1263394D01*
X304711Y1263337D01*
X304767Y1263281D01*
X304796Y1263267D01*
X304951Y1263126D01*
X305092Y1262985D01*
X305205Y1262844D01*
X305303Y1262703D01*
X305388Y1262590D01*
X305444Y1262492D01*
X305472Y1262435D01*
X305487Y1262407D01*
X305571Y1262210D01*
X305642Y1261998D01*
X305684Y1261801D01*
X305726Y1261618D01*
X305740Y1261448D01*
X305754Y1261322D01*
Y1261237D01*
Y1261223D01*
Y1261209D01*
X305726Y1260871D01*
X305670Y1260560D01*
X305585Y1260293D01*
X305487Y1260067D01*
X305388Y1259884D01*
X305303Y1259757D01*
X305247Y1259672D01*
X305219Y1259644D01*
X305007Y1259433D01*
X304767Y1259249D01*
X304528Y1259108D01*
X304288Y1258996D01*
X304091Y1258925D01*
X303922Y1258869D01*
X303851Y1258855D01*
X303809Y1258840D01*
X303781Y1258826D01*
X303767D01*
Y1258784D01*
X303964Y1258671D01*
X304133Y1258544D01*
X304288Y1258432D01*
X304415Y1258305D01*
X304514Y1258206D01*
X304584Y1258121D01*
X304627Y1258065D01*
X304641Y1258051D01*
X304753Y1257868D01*
X304838Y1257684D01*
X304894Y1257487D01*
X304937Y1257318D01*
X304965Y1257163D01*
X304979Y1257050D01*
Y1256966D01*
Y1256937D01*
X304965Y1256740D01*
X304937Y1256543D01*
X304909Y1256388D01*
X304866Y1256233D01*
X304810Y1256120D01*
X304782Y1256035D01*
X304753Y1255979D01*
X304739Y1255965D01*
X304641Y1255810D01*
X304528Y1255683D01*
X304415Y1255556D01*
X304302Y1255457D01*
X304190Y1255387D01*
X304105Y1255316D01*
X304049Y1255288D01*
X304020Y1255274D01*
X303851Y1255189D01*
X303682Y1255133D01*
X303513Y1255077D01*
X303372Y1255034D01*
X303245Y1255006D01*
X303146Y1254992D01*
X303090Y1254978D01*
X303062D01*
X302850Y1254950D01*
X302625Y1254921D01*
X302371Y1254907D01*
X302131D01*
X301920Y1254893D01*
X298889D01*
Y1264000D01*
X302103D01*
X302442Y1263986D01*
D02*
G37*
G36*
X293603Y1264155D02*
X293913Y1264141D01*
X294181Y1264099D01*
X294406Y1264056D01*
X294590Y1264028D01*
X294730Y1263986D01*
X294815Y1263972D01*
X294829Y1263958D01*
X294843D01*
X295083Y1263859D01*
X295294Y1263760D01*
X295492Y1263662D01*
X295661Y1263563D01*
X295802Y1263478D01*
X295900Y1263408D01*
X295957Y1263352D01*
X295985Y1263337D01*
X296140Y1263196D01*
X296281Y1263055D01*
X296394Y1262900D01*
X296493Y1262774D01*
X296577Y1262647D01*
X296634Y1262548D01*
X296662Y1262492D01*
X296676Y1262463D01*
X296760Y1262266D01*
X296817Y1262083D01*
X296873Y1261899D01*
X296901Y1261745D01*
X296915Y1261603D01*
X296930Y1261491D01*
Y1261434D01*
Y1261406D01*
X296901Y1261054D01*
X296845Y1260758D01*
X296760Y1260490D01*
X296676Y1260278D01*
X296577Y1260109D01*
X296493Y1259982D01*
X296436Y1259912D01*
X296408Y1259884D01*
X296197Y1259686D01*
X295957Y1259517D01*
X295703Y1259376D01*
X295464Y1259263D01*
X295238Y1259179D01*
X295139Y1259151D01*
X295055Y1259122D01*
X294984Y1259094D01*
X294928Y1259080D01*
X294900Y1259066D01*
X294886D01*
X294688Y1259024D01*
X294477Y1258967D01*
X294265Y1258925D01*
X294082Y1258897D01*
X293899Y1258855D01*
X293772Y1258840D01*
X293715Y1258826D01*
X293673Y1258812D01*
X293645D01*
X293391Y1258770D01*
X293166Y1258728D01*
X292982Y1258685D01*
X292827Y1258657D01*
X292701Y1258629D01*
X292616Y1258615D01*
X292560Y1258601D01*
X292545D01*
X292292Y1258530D01*
X292066Y1258446D01*
X291883Y1258375D01*
X291742Y1258291D01*
X291629Y1258220D01*
X291559Y1258164D01*
X291516Y1258121D01*
X291502Y1258107D01*
X291404Y1257981D01*
X291333Y1257825D01*
X291291Y1257684D01*
X291263Y1257530D01*
X291234Y1257403D01*
X291220Y1257304D01*
Y1257233D01*
Y1257205D01*
X291248Y1256980D01*
X291305Y1256768D01*
X291404Y1256599D01*
X291516Y1256444D01*
X291615Y1256331D01*
X291714Y1256233D01*
X291770Y1256176D01*
X291798Y1256162D01*
X292038Y1256021D01*
X292292Y1255922D01*
X292560Y1255852D01*
X292799Y1255810D01*
X293025Y1255767D01*
X293123D01*
X293208Y1255753D01*
X293363D01*
X293687Y1255767D01*
X294011Y1255796D01*
X294308Y1255852D01*
X294561Y1255894D01*
X294787Y1255951D01*
X294871Y1255979D01*
X294956Y1256007D01*
X295012Y1256021D01*
X295055Y1256035D01*
X295083Y1256049D01*
X295097D01*
X295407Y1256162D01*
X295675Y1256289D01*
X295915Y1256416D01*
X296098Y1256529D01*
X296253Y1256627D01*
X296366Y1256712D01*
X296436Y1256768D01*
X296464Y1256782D01*
X296563D01*
Y1255359D01*
X296323Y1255260D01*
X296084Y1255175D01*
X295844Y1255091D01*
X295619Y1255034D01*
X295421Y1254978D01*
X295280Y1254936D01*
X295224Y1254921D01*
X295182D01*
X295153Y1254907D01*
X295139D01*
X294829Y1254837D01*
X294519Y1254795D01*
X294223Y1254752D01*
X293955Y1254738D01*
X293730Y1254724D01*
X293631Y1254710D01*
X293377D01*
X293109Y1254724D01*
X292841Y1254738D01*
X292602Y1254781D01*
X292376Y1254823D01*
X292151Y1254879D01*
X291953Y1254936D01*
X291770Y1255006D01*
X291601Y1255077D01*
X291446Y1255147D01*
X291305Y1255218D01*
X291192Y1255274D01*
X291093Y1255330D01*
X291023Y1255373D01*
X290967Y1255415D01*
X290938Y1255429D01*
X290924Y1255443D01*
X290755Y1255584D01*
X290614Y1255739D01*
X290487Y1255894D01*
X290375Y1256049D01*
X290276Y1256204D01*
X290205Y1256359D01*
X290093Y1256655D01*
X290022Y1256923D01*
X289994Y1257036D01*
X289980Y1257135D01*
X289966Y1257219D01*
Y1257276D01*
Y1257318D01*
Y1257332D01*
X289994Y1257684D01*
X290050Y1258009D01*
X290149Y1258291D01*
X290262Y1258516D01*
X290360Y1258699D01*
X290459Y1258840D01*
X290515Y1258925D01*
X290544Y1258939D01*
Y1258953D01*
X290656Y1259066D01*
X290783Y1259165D01*
X291065Y1259348D01*
X291361Y1259503D01*
X291657Y1259616D01*
X291925Y1259715D01*
X292038Y1259743D01*
X292137Y1259771D01*
X292221Y1259799D01*
X292278Y1259813D01*
X292320Y1259827D01*
X292334D01*
X292560Y1259870D01*
X292771Y1259912D01*
X292968Y1259954D01*
X293137Y1259982D01*
X293279Y1260011D01*
X293377Y1260025D01*
X293448Y1260039D01*
X293476D01*
X293673Y1260067D01*
X293857Y1260095D01*
X294026Y1260137D01*
X294167Y1260166D01*
X294293Y1260194D01*
X294378Y1260208D01*
X294449Y1260236D01*
X294463D01*
X294674Y1260307D01*
X294857Y1260377D01*
X295012Y1260447D01*
X295139Y1260518D01*
X295238Y1260589D01*
X295308Y1260645D01*
X295351Y1260673D01*
X295365Y1260687D01*
X295464Y1260800D01*
X295548Y1260941D01*
X295604Y1261096D01*
X295633Y1261237D01*
X295661Y1261364D01*
X295675Y1261477D01*
Y1261547D01*
Y1261561D01*
Y1261575D01*
Y1261702D01*
X295647Y1261829D01*
X295576Y1262055D01*
X295478Y1262238D01*
X295365Y1262407D01*
X295238Y1262534D01*
X295139Y1262618D01*
X295069Y1262689D01*
X295055Y1262703D01*
X295041D01*
X294787Y1262844D01*
X294505Y1262943D01*
X294209Y1263027D01*
X293941Y1263070D01*
X293687Y1263098D01*
X293575Y1263112D01*
X293476D01*
X293405Y1263126D01*
X293293D01*
X292982Y1263112D01*
X292686Y1263084D01*
X292404Y1263027D01*
X292137Y1262971D01*
X291911Y1262915D01*
X291826Y1262886D01*
X291742Y1262858D01*
X291671Y1262844D01*
X291629Y1262830D01*
X291601Y1262816D01*
X291587D01*
X291263Y1262689D01*
X290952Y1262548D01*
X290685Y1262393D01*
X290459Y1262252D01*
X290262Y1262125D01*
X290121Y1262026D01*
X290064Y1261984D01*
X290022Y1261956D01*
X290008Y1261928D01*
X289909D01*
Y1263450D01*
X290205Y1263577D01*
X290501Y1263676D01*
X290769Y1263774D01*
X291009Y1263845D01*
X291206Y1263915D01*
X291361Y1263958D01*
X291418Y1263972D01*
X291474D01*
X291488Y1263986D01*
X291502D01*
X291812Y1264042D01*
X292108Y1264085D01*
X292419Y1264127D01*
X292686Y1264141D01*
X292926Y1264155D01*
X293025Y1264169D01*
X293279D01*
X293603Y1264155D01*
D02*
G37*
G36*
X329804Y1263070D02*
X327943D01*
Y1254851D01*
X326998D01*
X326984Y1254992D01*
X326956Y1255119D01*
X326928Y1255232D01*
X326886Y1255330D01*
X326857Y1255401D01*
X326829Y1255457D01*
X326815Y1255485D01*
X326801Y1255499D01*
X326674Y1255655D01*
X326519Y1255767D01*
X326463Y1255824D01*
X326406Y1255852D01*
X326378Y1255866D01*
X326364Y1255880D01*
X326265Y1255922D01*
X326167Y1255951D01*
X325941Y1256007D01*
X325843Y1256035D01*
X325758Y1256049D01*
X325702Y1256063D01*
X325687D01*
X325377Y1256092D01*
X325236Y1256106D01*
X325109D01*
X325011Y1256120D01*
X324870D01*
Y1256952D01*
X326773D01*
Y1263070D01*
X324870D01*
Y1264000D01*
X329804D01*
Y1263070D01*
D02*
G37*
G36*
X314635Y1264169D02*
X314903Y1264155D01*
X315129Y1264127D01*
X315326Y1264085D01*
X315495Y1264042D01*
X315622Y1264014D01*
X315707Y1264000D01*
X315735Y1263986D01*
X315961Y1263901D01*
X316158Y1263803D01*
X316341Y1263704D01*
X316510Y1263591D01*
X316637Y1263507D01*
X316722Y1263422D01*
X316792Y1263366D01*
X316806Y1263352D01*
X316947Y1263196D01*
X317074Y1263055D01*
X317187Y1262900D01*
X317272Y1262759D01*
X317342Y1262633D01*
X317398Y1262534D01*
X317427Y1262477D01*
X317441Y1262449D01*
X317525Y1262252D01*
X317582Y1262055D01*
X317624Y1261857D01*
X317652Y1261688D01*
X317666Y1261533D01*
X317680Y1261406D01*
Y1261336D01*
Y1261308D01*
X317666Y1261082D01*
X317652Y1260884D01*
X317624Y1260715D01*
X317582Y1260560D01*
X317539Y1260447D01*
X317511Y1260363D01*
X317497Y1260307D01*
X317483Y1260293D01*
X317412Y1260152D01*
X317328Y1260011D01*
X317257Y1259898D01*
X317173Y1259813D01*
X317102Y1259729D01*
X317060Y1259672D01*
X317018Y1259644D01*
X317004Y1259630D01*
X316792Y1259461D01*
X316581Y1259348D01*
X316496Y1259292D01*
X316426Y1259263D01*
X316369Y1259235D01*
X316355D01*
X316087Y1259137D01*
X315975Y1259108D01*
X315876Y1259080D01*
X315791Y1259052D01*
X315735D01*
X315693Y1259038D01*
X315679D01*
Y1258953D01*
X315947Y1258883D01*
X316186Y1258770D01*
X316398Y1258657D01*
X316595Y1258530D01*
X316736Y1258418D01*
X316849Y1258319D01*
X316919Y1258262D01*
X316947Y1258234D01*
X317131Y1258009D01*
X317272Y1257783D01*
X317370Y1257572D01*
X317427Y1257360D01*
X317469Y1257177D01*
X317483Y1257036D01*
X317497Y1256980D01*
Y1256937D01*
Y1256923D01*
Y1256909D01*
X317483Y1256712D01*
X317455Y1256529D01*
X317427Y1256359D01*
X317384Y1256218D01*
X317328Y1256106D01*
X317300Y1256021D01*
X317272Y1255965D01*
X317257Y1255951D01*
X317159Y1255796D01*
X317060Y1255655D01*
X316947Y1255542D01*
X316849Y1255429D01*
X316750Y1255344D01*
X316665Y1255288D01*
X316609Y1255246D01*
X316595Y1255232D01*
X316285Y1255062D01*
X316130Y1254992D01*
X315989Y1254936D01*
X315862Y1254893D01*
X315763Y1254865D01*
X315707Y1254837D01*
X315679D01*
X315481Y1254795D01*
X315284Y1254766D01*
X315086Y1254738D01*
X314903Y1254724D01*
X314748Y1254710D01*
X314509D01*
X314255Y1254724D01*
X314001Y1254738D01*
X313761Y1254766D01*
X313536Y1254795D01*
X313353Y1254837D01*
X313212Y1254865D01*
X313155Y1254879D01*
X313113D01*
X313099Y1254893D01*
X313085D01*
X312831Y1254964D01*
X312605Y1255034D01*
X312408Y1255105D01*
X312239Y1255161D01*
X312112Y1255218D01*
X312027Y1255246D01*
X311957Y1255274D01*
X311943Y1255288D01*
Y1256571D01*
X311999D01*
X312225Y1256430D01*
X312436Y1256317D01*
X312648Y1256218D01*
X312831Y1256134D01*
X312986Y1256063D01*
X313113Y1256021D01*
X313197Y1255993D01*
X313226Y1255979D01*
X313465Y1255908D01*
X313705Y1255852D01*
X313916Y1255824D01*
X314100Y1255796D01*
X314255Y1255781D01*
X314368Y1255767D01*
X314466D01*
X314734Y1255781D01*
X314847Y1255796D01*
X314946D01*
X315030Y1255810D01*
X315086Y1255824D01*
X315129Y1255838D01*
X315143D01*
X315368Y1255894D01*
X315467Y1255922D01*
X315552Y1255965D01*
X315622Y1255993D01*
X315679Y1256021D01*
X315707Y1256035D01*
X315721Y1256049D01*
X315890Y1256190D01*
X316017Y1256317D01*
X316059Y1256388D01*
X316087Y1256430D01*
X316116Y1256458D01*
Y1256472D01*
X316200Y1256655D01*
X316243Y1256839D01*
X316257Y1256923D01*
Y1256980D01*
Y1257022D01*
Y1257036D01*
X316228Y1257304D01*
X316172Y1257530D01*
X316073Y1257727D01*
X315975Y1257882D01*
X315876Y1258009D01*
X315777Y1258107D01*
X315721Y1258164D01*
X315693Y1258178D01*
X315467Y1258305D01*
X315228Y1258403D01*
X314974Y1258460D01*
X314734Y1258516D01*
X314523Y1258544D01*
X314438D01*
X314354Y1258559D01*
X313776D01*
Y1259574D01*
X314325D01*
X314650Y1259588D01*
X314790Y1259602D01*
X314917D01*
X315016Y1259616D01*
X315101Y1259630D01*
X315157Y1259644D01*
X315171D01*
X315312Y1259672D01*
X315439Y1259715D01*
X315566Y1259757D01*
X315665Y1259799D01*
X315735Y1259841D01*
X315791Y1259884D01*
X315834Y1259898D01*
X315848Y1259912D01*
X316031Y1260067D01*
X316158Y1260236D01*
X316214Y1260307D01*
X316243Y1260363D01*
X316271Y1260405D01*
Y1260419D01*
X316327Y1260546D01*
X316369Y1260673D01*
X316398Y1260814D01*
X316426Y1260941D01*
Y1261054D01*
X316440Y1261138D01*
Y1261195D01*
Y1261223D01*
Y1261406D01*
X316412Y1261561D01*
X316398Y1261702D01*
X316369Y1261815D01*
X316341Y1261914D01*
X316327Y1261984D01*
X316299Y1262026D01*
Y1262040D01*
X316172Y1262266D01*
X316101Y1262365D01*
X316031Y1262463D01*
X315975Y1262534D01*
X315918Y1262590D01*
X315890Y1262618D01*
X315876Y1262633D01*
X315763Y1262717D01*
X315650Y1262788D01*
X315425Y1262900D01*
X315326Y1262943D01*
X315242Y1262971D01*
X315185Y1262999D01*
X315171D01*
X314861Y1263070D01*
X314720Y1263098D01*
X314593Y1263112D01*
X314494D01*
X314424Y1263126D01*
X314354D01*
X314100Y1263112D01*
X313860Y1263084D01*
X313635Y1263055D01*
X313423Y1263013D01*
X313240Y1262971D01*
X313113Y1262929D01*
X313057Y1262915D01*
X313014D01*
X313000Y1262900D01*
X312986D01*
X312732Y1262816D01*
X312493Y1262717D01*
X312295Y1262618D01*
X312112Y1262520D01*
X311957Y1262449D01*
X311858Y1262379D01*
X311788Y1262337D01*
X311760Y1262322D01*
X311675D01*
Y1263619D01*
X311858Y1263690D01*
X312056Y1263774D01*
X312253Y1263831D01*
X312450Y1263887D01*
X312620Y1263930D01*
X312746Y1263972D01*
X312803Y1263986D01*
X312845D01*
X312859Y1264000D01*
X312873D01*
X313155Y1264056D01*
X313423Y1264099D01*
X313663Y1264141D01*
X313902Y1264155D01*
X314086Y1264169D01*
X314241Y1264183D01*
X314368D01*
X314635Y1264169D01*
D02*
G37*
G36*
X321642Y1262252D02*
X320176D01*
Y1264000D01*
X321642D01*
Y1262252D01*
D02*
G37*
G36*
X313326Y1251790D02*
X313347Y1251651D01*
X313370Y1246474D01*
X313351Y1246385D01*
X313262Y1246356D01*
X308184Y1246361D01*
X307953Y1246342D01*
X307887Y1246399D01*
X307901Y1248096D01*
X307887Y1248223D01*
X307722Y1248261D01*
X306982Y1248191D01*
X306228Y1248110D01*
X305605Y1248026D01*
X305183Y1247905D01*
X304554Y1247658D01*
X304115Y1247469D01*
X303585Y1247141D01*
X303177Y1246875D01*
X302611Y1246262D01*
X302248Y1245795D01*
X301984Y1245347D01*
X301758Y1244881D01*
X301399Y1244277D01*
X301253Y1244098D01*
X301263Y1244004D01*
X301381Y1243966D01*
X302521Y1243990D01*
X309066Y1244023D01*
X316831D01*
X316888Y1244093D01*
Y1244211D01*
X316881Y1244888D01*
X316878Y1246620D01*
X316954Y1246696D01*
X317039D01*
X317274Y1246550D01*
X317774Y1246267D01*
X318491Y1245814D01*
X319120Y1245425D01*
X320013Y1244937D01*
X320763Y1244527D01*
X321367Y1244107D01*
X323177Y1243112D01*
X323297Y1243016D01*
X323309Y1242966D01*
X323168Y1242858D01*
X321895Y1242155D01*
X320881Y1241585D01*
X320131Y1241170D01*
X319146Y1240590D01*
X318377Y1240161D01*
X317251Y1239501D01*
X316956Y1239329D01*
X316859Y1239360D01*
X316878Y1241062D01*
X316873Y1241689D01*
X316899Y1241993D01*
X316826Y1242047D01*
X315435Y1242000D01*
X313724Y1242005D01*
X312630Y1242000D01*
X308889Y1241993D01*
X301249Y1242000D01*
X298000D01*
X297694Y1242009D01*
X297649Y1241964D01*
X297633Y1241896D01*
X297682Y1241771D01*
X297800Y1241573D01*
X297896Y1241373D01*
X297988Y1241196D01*
X298137Y1240882D01*
X298255Y1240576D01*
X298415Y1240190D01*
X298596Y1239848D01*
X298731Y1239572D01*
X298986Y1239251D01*
X299226Y1238973D01*
X299471Y1238737D01*
X299735Y1238563D01*
X299966Y1238417D01*
X300390Y1238238D01*
X300772Y1238110D01*
X301489Y1237988D01*
X301975Y1237950D01*
X302441Y1237888D01*
X303337Y1237865D01*
X303677Y1237875D01*
X303823Y1237917D01*
X303941Y1238176D01*
X304063Y1238412D01*
X304304Y1238733D01*
X304655Y1239117D01*
X304888Y1239360D01*
X305157Y1239591D01*
X305699Y1239893D01*
X306100Y1240010D01*
X306656Y1240095D01*
X307236Y1240095D01*
X307717Y1240020D01*
X308010Y1239925D01*
X308328Y1239824D01*
X308641Y1239638D01*
X308931Y1239404D01*
X309118Y1239246D01*
X309316Y1238996D01*
X309518Y1238728D01*
X309740Y1238436D01*
X309886Y1238190D01*
X310027Y1237790D01*
X310091Y1237481D01*
X310117Y1237116D01*
X310103Y1236677D01*
X310089Y1236366D01*
X310051Y1236106D01*
X309938Y1235786D01*
X309759Y1235409D01*
X309617Y1235111D01*
X309452Y1234866D01*
X309158Y1234572D01*
X308849Y1234277D01*
X308434Y1234018D01*
X308095Y1233806D01*
X307529Y1233674D01*
X307057Y1233650D01*
X306484Y1233657D01*
X305999Y1233766D01*
X305591Y1233900D01*
X305303Y1234032D01*
X304959Y1234263D01*
X304646Y1234539D01*
X304323Y1234857D01*
X304087Y1235263D01*
X303912Y1235545D01*
X303860Y1235772D01*
X303785Y1235909D01*
X303700Y1235993D01*
X303120Y1235998D01*
X301489Y1236097D01*
X300857Y1236191D01*
X299740Y1236418D01*
X299315Y1236606D01*
X298717Y1236875D01*
X298062Y1237299D01*
X297623Y1237705D01*
X297095Y1238403D01*
X296826Y1238997D01*
X296567Y1239595D01*
X296114Y1240633D01*
X295862Y1241206D01*
X295638Y1241755D01*
X295553Y1241910D01*
X295449Y1241962D01*
X292866Y1241963D01*
X290453Y1241934D01*
X290394Y1241819D01*
X290260Y1241537D01*
X290094Y1241296D01*
X289890Y1241008D01*
X289718Y1240804D01*
X289436Y1240542D01*
X289087Y1240309D01*
X288778Y1240151D01*
X288452Y1240025D01*
X288081Y1239917D01*
X287725Y1239874D01*
X287310D01*
Y1239890D01*
X287073Y1239881D01*
X286435Y1239987D01*
X285888Y1240237D01*
X285506Y1240496D01*
X285128Y1240751D01*
X284737Y1241231D01*
X284516Y1241609D01*
X284318Y1242005D01*
X284200Y1242453D01*
X284148Y1242792D01*
X284153Y1243410D01*
X284219Y1243933D01*
X284407Y1244409D01*
X284568Y1244734D01*
X284855Y1245093D01*
X285270Y1245508D01*
X285577Y1245739D01*
X285845Y1245975D01*
X286345Y1246177D01*
X286689Y1246257D01*
X287052Y1246281D01*
X287571Y1246267D01*
X288080Y1246225D01*
X288467Y1246125D01*
X288801Y1246026D01*
X289219Y1245741D01*
X289452Y1245541D01*
X289678Y1245371D01*
X289886Y1245159D01*
X290060Y1244961D01*
X290261Y1244666D01*
X290376Y1244400D01*
X290452Y1244159D01*
X290508Y1244018D01*
X290574Y1243961D01*
X291819Y1243952D01*
X297229Y1243954D01*
X298504Y1243947D01*
X298820Y1244037D01*
X299103Y1244178D01*
X299396Y1244489D01*
X299655Y1244881D01*
X299803Y1245194D01*
X300129Y1245817D01*
X300513Y1246517D01*
X300923Y1247200D01*
X301583Y1247955D01*
X302229Y1248520D01*
X302701Y1248959D01*
X303498Y1249346D01*
X304186Y1249591D01*
X305009Y1249791D01*
X305397Y1249883D01*
X306161Y1249982D01*
X306944Y1250090D01*
X307682Y1250112D01*
X307852Y1250135D01*
X307887Y1250246D01*
X307866Y1251790D01*
X307908Y1251856D01*
X307984Y1251837D01*
X313083Y1251849D01*
X313281Y1251859D01*
X313326Y1251790D01*
D02*
G37*
%LPC*%
G36*
X301864Y1258559D02*
X300101D01*
Y1255937D01*
X301948D01*
X302131Y1255951D01*
X302272D01*
X302399Y1255965D01*
X302484D01*
X302540Y1255979D01*
X302554D01*
X302709Y1255993D01*
X302836Y1256035D01*
X302963Y1256063D01*
X303062Y1256106D01*
X303146Y1256134D01*
X303203Y1256162D01*
X303245Y1256176D01*
X303259Y1256190D01*
X303414Y1256303D01*
X303527Y1256430D01*
X303598Y1256515D01*
X303612Y1256543D01*
Y1256557D01*
X303682Y1256740D01*
X303710Y1256909D01*
X303724Y1256994D01*
Y1257050D01*
Y1257093D01*
Y1257107D01*
X303710Y1257374D01*
X303682Y1257501D01*
X303668Y1257600D01*
X303640Y1257684D01*
X303612Y1257741D01*
X303598Y1257783D01*
Y1257797D01*
X303541Y1257896D01*
X303485Y1257995D01*
X303358Y1258136D01*
X303287Y1258192D01*
X303231Y1258234D01*
X303203Y1258248D01*
X303189Y1258262D01*
X302977Y1258375D01*
X302780Y1258446D01*
X302695Y1258474D01*
X302625Y1258488D01*
X302582Y1258502D01*
X302568D01*
X302427Y1258516D01*
X302286Y1258530D01*
X302131Y1258544D01*
X301990D01*
X301864Y1258559D01*
D02*
G37*
G36*
X301976Y1262957D02*
X300101D01*
Y1259574D01*
X302202D01*
X302399Y1259588D01*
X302582D01*
X302724Y1259602D01*
X302850Y1259616D01*
X302935D01*
X302991Y1259630D01*
X303005D01*
X303160Y1259644D01*
X303302Y1259672D01*
X303414Y1259715D01*
X303527Y1259743D01*
X303612Y1259771D01*
X303668Y1259799D01*
X303710Y1259813D01*
X303724Y1259827D01*
X303879Y1259912D01*
X304006Y1260011D01*
X304105Y1260095D01*
X304190Y1260180D01*
X304260Y1260264D01*
X304302Y1260321D01*
X304316Y1260363D01*
X304331Y1260377D01*
X304387Y1260504D01*
X304429Y1260645D01*
X304457Y1260800D01*
X304486Y1260941D01*
Y1261054D01*
X304500Y1261167D01*
Y1261223D01*
Y1261251D01*
Y1261420D01*
X304471Y1261575D01*
X304443Y1261716D01*
X304415Y1261829D01*
X304387Y1261914D01*
X304359Y1261984D01*
X304345Y1262026D01*
X304331Y1262040D01*
X304260Y1262153D01*
X304190Y1262252D01*
X304020Y1262421D01*
X303950Y1262477D01*
X303894Y1262534D01*
X303851Y1262562D01*
X303837Y1262576D01*
X303710Y1262661D01*
X303569Y1262717D01*
X303428Y1262774D01*
X303302Y1262816D01*
X303189Y1262844D01*
X303090Y1262872D01*
X303034Y1262886D01*
X303005D01*
X302808Y1262915D01*
X302582Y1262929D01*
X302371Y1262943D01*
X302160D01*
X301976Y1262957D01*
D02*
G37*
%LPD*%
D29*
X436000Y901238D02*
Y918762D01*
X444000Y901238D02*
Y918762D01*
X622000Y992000D02*
Y995000D01*
X621000Y992000D02*
Y995000D01*
Y992000D02*
X623000D01*
X622000Y995000D02*
Y998000D01*
X621000Y995000D02*
Y998000D01*
X623000D01*
X622000Y955000D02*
Y958000D01*
X621000Y955000D02*
Y958000D01*
X623000D01*
X622000Y952000D02*
Y955000D01*
X621000Y952000D02*
Y955000D01*
Y952000D02*
X623000D01*
X553000Y995000D02*
X623000D01*
Y992000D02*
Y998000D01*
Y952000D02*
Y958000D01*
X553000Y955000D02*
X623000D01*
X514478Y1075117D02*
X532002D01*
X514478Y1067117D02*
X532002D01*
X468738Y1186000D02*
X486262D01*
X468738Y1194000D02*
X486262D01*
X324500Y1067500D02*
Y1077500D01*
Y1067500D02*
X332500D01*
X337500D02*
X345500D01*
Y1077500D01*
X337500D02*
X345500D01*
X324500D02*
X332500D01*
X521500Y966238D02*
Y983762D01*
X513500Y966238D02*
Y983762D01*
X394500Y954500D02*
Y957500D01*
X393500Y954500D02*
Y957500D01*
Y954500D02*
X395500D01*
X394500Y957500D02*
Y960500D01*
X393500Y957500D02*
Y960500D01*
X395500D01*
X394500Y917500D02*
Y920500D01*
X393500Y917500D02*
Y920500D01*
X395500D01*
X394500Y914500D02*
Y917500D01*
X393500Y914500D02*
Y917500D01*
Y914500D02*
X395500D01*
X325500Y957500D02*
X395500D01*
Y954500D02*
Y960500D01*
Y914500D02*
Y920500D01*
X325500Y917500D02*
X395500D01*
X468947Y1056514D02*
Y1074037D01*
X476948Y1056514D02*
Y1074037D01*
D32*
X610500Y1084450D02*
G03*
X608400Y1086550I-2100J0D01*
G01*
Y1063450D02*
G03*
X610500Y1065550I0J2100D01*
G01*
Y1122550D02*
G03*
X608400Y1124650I-2100J0D01*
G01*
X610500Y1008250D02*
G03*
X608400Y1010350I-2100J0D01*
G01*
X610500Y1046350D02*
G03*
X608400Y1048450I-2100J0D01*
G01*
Y1101550D02*
G03*
X610500Y1103650I0J2100D01*
G01*
X608400Y1139650D02*
G03*
X610500Y1141750I0J2100D01*
G01*
X608400Y1025350D02*
G03*
X610500Y1027450I0J2100D01*
G01*
X458377Y920000D02*
G03*
X458377Y920000I-3377J0D01*
G01*
X348377D02*
G03*
X348377Y920000I-3377J0D01*
G01*
X457000Y901000D02*
Y919000D01*
X452000Y901000D02*
Y919000D01*
X457000D01*
X452000Y901000D02*
X457000D01*
X423000D02*
Y919000D01*
X428000Y901000D02*
Y919000D01*
X423000D02*
X428000D01*
X423000Y901000D02*
X428000D01*
Y918800D02*
X452000D01*
X428000Y901200D02*
X452000D01*
X552000Y962500D02*
X553500D01*
X552000Y970000D02*
X553500D01*
X626500Y962500D02*
X628000D01*
X626500Y970000D02*
X628000D01*
X552000Y962500D02*
Y987500D01*
X553500D01*
X552000Y980000D02*
X553500D01*
X628000Y962500D02*
Y987500D01*
X626500D02*
X628000D01*
X626500Y980000D02*
X628000D01*
X626700Y970000D02*
Y980000D01*
X553300Y970000D02*
Y980000D01*
X553500Y994750D02*
X555990Y992260D01*
X553500Y955250D02*
Y994750D01*
Y955250D02*
X555990Y957739D01*
Y992260D01*
X610010Y992267D02*
X619068D01*
X624706Y992956D01*
X626500Y994750D01*
X553500D02*
X626500D01*
X555990Y992260D02*
X610010Y992267D01*
Y980753D02*
Y992267D01*
X555990Y957739D02*
X610010Y957732D01*
X553500Y955250D02*
X626500D01*
X624706Y957044D02*
X626500Y955250D01*
X619068Y957732D02*
X624706Y957044D01*
X610010Y957732D02*
X619068D01*
X610010D02*
Y969247D01*
X619011D02*
Y980753D01*
X610010Y969247D02*
X619068D01*
X610010Y980753D02*
X619068D01*
Y957732D02*
Y969247D01*
X624706Y957044D02*
Y992956D01*
X619068Y980753D02*
Y992267D01*
X626500Y955250D02*
Y994750D01*
X618500Y1119150D02*
Y1145150D01*
X600500Y1025350D02*
X608400D01*
X600500Y1063450D02*
X608400D01*
X610500Y1119150D02*
X618500D01*
X620600Y1117050D01*
X600500Y1124650D02*
X608400D01*
X610500Y1107050D02*
X618500D01*
X610500Y1103650D02*
Y1107050D01*
X608400Y1109150D02*
X610500Y1107050D01*
Y1004850D02*
X618500D01*
X600500Y1101550D02*
X608400D01*
X610500Y1042950D02*
X618500D01*
X600500Y1010350D02*
X608400D01*
X600500Y1139650D02*
X608400D01*
X618500Y1004850D02*
Y1030850D01*
Y1004850D02*
X620600Y1002750D01*
X618500Y1081050D02*
Y1107050D01*
X620600Y1109150D01*
X610500Y1030850D02*
X618500D01*
X620600Y1032950D01*
X610500Y1027450D02*
Y1030850D01*
X608400Y1032950D02*
X610500Y1030850D01*
Y1119150D02*
Y1122550D01*
X608400Y1117050D02*
X610500Y1119150D01*
X618500Y1042950D02*
Y1068950D01*
Y1042950D02*
X620600Y1040850D01*
X600500Y1048450D02*
X608400D01*
X610500Y1004850D02*
Y1008250D01*
X608400Y1002750D02*
X610500Y1004850D01*
Y1141750D02*
Y1145150D01*
X600500Y1086550D02*
X608400D01*
X610500Y1042950D02*
Y1046350D01*
X608400Y1040850D02*
X610500Y1042950D01*
Y1081050D02*
Y1084450D01*
Y1081050D02*
X618500D01*
X608400Y1078950D02*
X610500Y1081050D01*
X618500D02*
X620600Y1078950D01*
X610500Y1068950D02*
X618500D01*
X620600Y1071050D01*
X610500Y1065550D02*
Y1068950D01*
X608400Y1071050D02*
X610500Y1068950D01*
X608400Y1002750D02*
X620600D01*
X600500Y993750D02*
Y1156250D01*
Y993750D02*
X679500D01*
X687500Y987350D01*
X679500Y1156250D02*
X687500Y1162650D01*
X600500Y1156250D02*
X679500D01*
X620600Y1117050D02*
Y1147250D01*
X608400Y1117050D02*
X620600D01*
X608400Y1109150D02*
X620600D01*
Y1078950D02*
Y1109150D01*
X608400Y1078950D02*
X620600D01*
X608400Y1071050D02*
X620600D01*
Y1040850D02*
Y1071050D01*
X608400Y1040850D02*
X620600D01*
X608400Y1032950D02*
X620600D01*
Y1002750D02*
Y1032950D01*
X610500Y1145150D02*
X618500D01*
X620600Y1147250D01*
X608400D02*
X620600D01*
X608400D02*
X610500Y1145150D01*
X608400Y1078950D02*
Y1086550D01*
X600500Y1084450D02*
X610500D01*
X600500Y1065550D02*
X610500D01*
X608400Y1063450D02*
Y1071050D01*
Y1117050D02*
Y1124650D01*
X600500Y1122550D02*
X610500D01*
X608400Y1002750D02*
Y1010350D01*
X600500Y1008250D02*
X610500D01*
X608400Y1040850D02*
Y1048450D01*
X600500Y1046350D02*
X610500D01*
X600500Y1103650D02*
X610500D01*
X608400Y1101550D02*
Y1109150D01*
X600500Y1141750D02*
X610500D01*
X608400Y1139650D02*
Y1147250D01*
X600500Y1027450D02*
X610500D01*
X608400Y1025350D02*
Y1032950D01*
X692500Y987350D02*
Y1162650D01*
X687500Y1020350D02*
Y1162650D01*
X692500D01*
X682500Y1015350D02*
Y1020350D01*
Y1015350D02*
X687500D01*
Y987350D02*
Y1015350D01*
Y987350D02*
X692500D01*
X682500Y1020350D02*
X687500D01*
X566000Y1133000D02*
X584000D01*
X566000Y1138000D02*
X584000D01*
X566000Y1133000D02*
Y1138000D01*
X584000Y1133000D02*
Y1138000D01*
X566000Y1167000D02*
X584000D01*
X566000Y1162000D02*
X584000D01*
X566000D02*
Y1167000D01*
X584000Y1162000D02*
Y1167000D01*
X566200Y1138000D02*
Y1162000D01*
X583801Y1138000D02*
Y1162000D01*
X317250Y995250D02*
X320250D01*
Y989750D02*
Y995250D01*
X317250Y989750D02*
Y995250D01*
Y989750D02*
X320250D01*
X309750Y995250D02*
X312750D01*
Y989750D02*
Y995250D01*
X309750Y989750D02*
X312750D01*
X309750D02*
Y995250D01*
X312750Y989760D02*
X317250D01*
X312750D02*
X317250Y989765D01*
X312750Y995236D02*
X317250Y995240D01*
X312750Y995236D02*
X317250Y995240D01*
X537000Y971000D02*
Y989000D01*
X532000Y971000D02*
Y989000D01*
Y971000D02*
X537000D01*
X532000Y989000D02*
X537000D01*
X503000Y971000D02*
Y989000D01*
X508000Y971000D02*
Y989000D01*
X503000Y971000D02*
X508000D01*
X503000Y989000D02*
X508000D01*
Y971200D02*
X532000D01*
X508000Y988800D02*
X532000D01*
X514240Y1054118D02*
X532240D01*
X514240Y1059118D02*
X532240D01*
Y1054118D02*
Y1059118D01*
X514240Y1054118D02*
Y1059118D01*
Y1088118D02*
X532240D01*
X514240Y1083118D02*
X532240D01*
Y1088118D01*
X514240Y1083118D02*
Y1088118D01*
X532040Y1059118D02*
Y1083118D01*
X514440Y1059118D02*
Y1083118D01*
X468500Y1207000D02*
X486500D01*
X468500Y1202000D02*
X486500D01*
X468500D02*
Y1207000D01*
X486500Y1202000D02*
Y1207000D01*
X468500Y1173000D02*
X486500D01*
X468500Y1178000D02*
X486500D01*
X468500Y1173000D02*
Y1178000D01*
X486500Y1173000D02*
Y1178000D01*
X468700D02*
Y1202000D01*
X486300Y1178000D02*
Y1202000D01*
X329750Y1069750D02*
Y1075250D01*
X331750Y1069750D02*
Y1075250D01*
X329750Y1069750D02*
X331750D01*
X329750Y1075250D02*
X331750D01*
X338250Y1069750D02*
X340250D01*
X338250Y1075250D02*
X340250D01*
Y1069750D02*
Y1075250D01*
X338250Y1069750D02*
Y1075250D01*
X331750Y1069950D02*
X338250D01*
X331750Y1075050D02*
X338250D01*
X292250Y1090250D02*
X297750D01*
X292250Y1088250D02*
X297750D01*
Y1090250D01*
X292250Y1088250D02*
Y1090250D01*
X297750Y1079750D02*
Y1081750D01*
X292250Y1079750D02*
Y1081750D01*
Y1079750D02*
X297750D01*
X292250Y1081750D02*
X297750D01*
X297550D02*
Y1088250D01*
X292451Y1081750D02*
Y1088250D01*
X500500Y966000D02*
Y984000D01*
X505500Y966000D02*
Y984000D01*
X500500Y966000D02*
X505500D01*
X500500Y984000D02*
X505500D01*
X534500Y966000D02*
Y984000D01*
X529500Y966000D02*
Y984000D01*
Y966000D02*
X534500D01*
X529500Y984000D02*
X534500D01*
X505500Y966200D02*
X529500D01*
X505500Y983800D02*
X529500D01*
X271562Y1157165D02*
X276062Y1157170D01*
X271562Y1157165D02*
X276062Y1157170D01*
X271562Y1151690D02*
X276062Y1151695D01*
X271562Y1151690D02*
X276062D01*
X268562Y1151680D02*
Y1157180D01*
Y1151680D02*
X271562D01*
Y1157180D01*
X268562D02*
X271562D01*
X276062Y1151680D02*
X279062D01*
X276062D02*
Y1157180D01*
X279062Y1151680D02*
Y1157180D01*
X276062D02*
X279062D01*
X430500Y1203500D02*
Y1221500D01*
X435500Y1203500D02*
Y1221500D01*
X430500D02*
X435500D01*
X430500Y1203500D02*
X435500D01*
X464500D02*
Y1221500D01*
X459500Y1203500D02*
Y1221500D01*
X464500D01*
X459500Y1203500D02*
X464500D01*
X435500Y1221300D02*
X459500D01*
X435500Y1203700D02*
X459500D01*
X460031Y901425D02*
Y938575D01*
X464500Y939372D01*
Y900075D02*
Y939500D01*
X460031Y901425D02*
X464500Y900628D01*
X415500Y900075D02*
X416425Y899150D01*
X415500Y900075D02*
Y939500D01*
Y900628D02*
X419969Y901425D01*
X460031D01*
X463575Y899150D02*
X464500Y900075D01*
X454000Y899150D02*
X463575D01*
X446000Y899724D02*
X454000D01*
X434000Y899150D02*
X446000D01*
X426000Y899724D02*
X434000D01*
X416425Y899150D02*
X426000D01*
X415500Y939372D02*
X419969Y938575D01*
Y901425D02*
Y938575D01*
X415500Y939500D02*
X464500D01*
X419969Y938575D02*
X460031D01*
X418850Y942166D02*
X423050D01*
X418850Y945064D02*
X423050D01*
Y939500D02*
Y950000D01*
X418850Y939500D02*
Y950000D01*
X431550Y942166D02*
X435750D01*
X431550Y939500D02*
Y950000D01*
Y945064D02*
X435750D01*
Y939500D02*
Y950000D01*
X444250Y942166D02*
X448450D01*
X444250Y945064D02*
X448450D01*
X444250Y939500D02*
Y950000D01*
X448450Y939500D02*
Y950000D01*
X456950Y942166D02*
X461150D01*
X456950Y945064D02*
X461150D01*
Y939500D02*
Y950000D01*
X456950Y939500D02*
Y950000D01*
X418850Y945432D02*
X423050D01*
X431550D02*
X435750D01*
X444250D02*
X448450D01*
X456950D02*
X461150D01*
X418850Y946311D02*
X423050D01*
X431550D02*
X435750D01*
X444250D02*
X448450D01*
X456950D02*
X461150D01*
X434000Y899000D02*
Y899724D01*
Y899000D02*
X446000D01*
Y899724D01*
X454000Y897000D02*
Y899724D01*
Y897000D02*
X461000D01*
Y894500D02*
Y897000D01*
X456500Y890000D02*
X461000Y894500D01*
X423500Y890000D02*
X456500D01*
X419000Y894500D02*
X423500Y890000D01*
X419000Y894500D02*
Y897000D01*
X426000D02*
Y899724D01*
X419000Y897000D02*
X426000D01*
X418850Y950000D02*
X423050D01*
X431550D02*
X435750D01*
X444250D02*
X448450D01*
X456950D02*
X461150D01*
X350031Y901425D02*
Y938575D01*
X354500Y939372D01*
Y900075D02*
Y939500D01*
X350031Y901425D02*
X354500Y900628D01*
X305500Y900075D02*
X306425Y899150D01*
X305500Y900075D02*
Y939500D01*
Y900628D02*
X309969Y901425D01*
X350031D01*
X353576Y899150D02*
X354500Y900075D01*
X344000Y899150D02*
X353576D01*
X336000Y899724D02*
X344000D01*
X324000Y899150D02*
X336000D01*
X316000Y899724D02*
X324000D01*
X306425Y899150D02*
X316000D01*
X305500Y939372D02*
X309969Y938575D01*
Y901425D02*
Y938575D01*
X305500Y939500D02*
X354500D01*
X309969Y938575D02*
X350031D01*
X308850Y942166D02*
X313050D01*
X308850Y945064D02*
X313050D01*
Y939500D02*
Y950000D01*
X308850Y939500D02*
Y950000D01*
X321550Y942166D02*
X325750D01*
X321550Y939500D02*
Y950000D01*
Y945064D02*
X325750D01*
Y939500D02*
Y950000D01*
X334250Y942166D02*
X338450D01*
X334250Y945064D02*
X338450D01*
X334250Y939500D02*
Y950000D01*
X338450Y939500D02*
Y950000D01*
X346950Y942166D02*
X351150D01*
X346950Y945064D02*
X351150D01*
Y939500D02*
Y950000D01*
X346950Y939500D02*
Y950000D01*
X308850Y945432D02*
X313050D01*
X321550D02*
X325750D01*
X334250D02*
X338450D01*
X346950D02*
X351150D01*
X308850Y946311D02*
X313050D01*
X321550D02*
X325750D01*
X334250D02*
X338450D01*
X346950D02*
X351150D01*
X324000Y899000D02*
Y899724D01*
Y899000D02*
X336000D01*
Y899724D01*
X344000Y897000D02*
Y899724D01*
Y897000D02*
X351000D01*
Y894500D02*
Y897000D01*
X346500Y890000D02*
X351000Y894500D01*
X313500Y890000D02*
X346500D01*
X309000Y894500D02*
X313500Y890000D01*
X309000Y894500D02*
Y897000D01*
X316000D02*
Y899724D01*
X309000Y897000D02*
X316000D01*
X308850Y950000D02*
X313050D01*
X321550D02*
X325750D01*
X334250D02*
X338450D01*
X346950D02*
X351150D01*
X616000Y947000D02*
X634000D01*
X616000Y942000D02*
X634000D01*
Y947000D01*
X616000Y942000D02*
Y947000D01*
Y913000D02*
X634000D01*
X616000Y918000D02*
X634000D01*
Y913000D02*
Y918000D01*
X616000Y913000D02*
Y918000D01*
X633800D02*
Y942000D01*
X616200Y918000D02*
Y942000D01*
X591000Y947000D02*
X609000D01*
X591000Y942000D02*
X609000D01*
Y947000D01*
X591000Y942000D02*
Y947000D01*
Y913000D02*
X609000D01*
X591000Y918000D02*
X609000D01*
Y913000D02*
Y918000D01*
X591000Y913000D02*
Y918000D01*
X608800D02*
Y942000D01*
X591200Y918000D02*
Y942000D01*
X295500Y1213500D02*
Y1231500D01*
X300500Y1213500D02*
Y1231500D01*
X295500D02*
X300500D01*
X295500Y1213500D02*
X300500D01*
X329500D02*
Y1231500D01*
X324500Y1213500D02*
Y1231500D01*
X329500D01*
X324500Y1213500D02*
X329500D01*
X300500Y1231300D02*
X324500D01*
X300500Y1213700D02*
X324500D01*
X541000Y1167000D02*
X559000D01*
X541000Y1162000D02*
X559000D01*
Y1167000D01*
X541000Y1162000D02*
Y1167000D01*
Y1133000D02*
X559000D01*
X541000Y1138000D02*
X559000D01*
Y1133000D02*
Y1138000D01*
X541000Y1133000D02*
Y1138000D01*
X558800D02*
Y1162000D01*
X541200Y1138000D02*
Y1162000D01*
X271308Y1139385D02*
X275808Y1139390D01*
X271308Y1139385D02*
X275808Y1139390D01*
X271308Y1133910D02*
X275808Y1133915D01*
X271308Y1133910D02*
X275808D01*
X268308Y1133900D02*
Y1139400D01*
Y1133900D02*
X271308D01*
Y1139400D01*
X268308D02*
X271308D01*
X275808Y1133900D02*
X278808D01*
X275808D02*
Y1139400D01*
X278808Y1133900D02*
Y1139400D01*
X275808D02*
X278808D01*
X389750Y972250D02*
Y975250D01*
X395250D01*
X389750Y972250D02*
X395250D01*
Y975250D01*
X389750Y964750D02*
Y967750D01*
X395250D01*
Y964750D02*
Y967750D01*
X389750Y964750D02*
X395250D01*
X395240Y967750D02*
Y972250D01*
X395235D02*
X395240Y967750D01*
X389760Y972250D02*
X389765Y967750D01*
X389760Y972250D02*
X389765Y967750D01*
X404750Y977250D02*
X407750D01*
X404750D02*
Y982750D01*
X407750Y977250D02*
Y982750D01*
X404750D02*
X407750D01*
X412250Y977250D02*
X415250D01*
X412250D02*
Y982750D01*
X415250D01*
Y977250D02*
Y982750D01*
X407750Y982740D02*
X412250D01*
X407750Y982735D02*
X412250Y982740D01*
X407750Y977260D02*
X412250Y977265D01*
X407750Y977260D02*
X412250Y977265D01*
X395250Y944750D02*
Y947750D01*
X389750Y944750D02*
X395250D01*
X389750Y947750D02*
X395250D01*
X389750Y944750D02*
Y947750D01*
X395250Y952250D02*
Y955250D01*
X389750Y952250D02*
X395250D01*
X389750D02*
Y955250D01*
X395250D01*
X389760Y947750D02*
Y952250D01*
X389765Y947750D01*
X395235Y952250D02*
X395240Y947750D01*
X395235Y952250D02*
X395240Y947750D01*
X459260Y1180251D02*
X459264Y1159750D01*
X459260Y1180251D02*
X459264Y1159750D01*
X475735Y1180251D02*
X475740Y1159750D01*
Y1180251D01*
X459250Y1153750D02*
X475750D01*
Y1159750D01*
X459250D02*
X475750D01*
X459250Y1153750D02*
Y1159750D01*
X475750Y1180251D02*
Y1186251D01*
X459250Y1180251D02*
X475750D01*
X459250Y1186251D02*
X475750D01*
X459250Y1180251D02*
Y1186251D01*
X317250Y982750D02*
X320250D01*
Y977250D02*
Y982750D01*
X317250Y977250D02*
Y982750D01*
Y977250D02*
X320250D01*
X309750Y982750D02*
X312750D01*
Y977250D02*
Y982750D01*
X309750Y977250D02*
X312750D01*
X309750D02*
Y982750D01*
X312750Y977260D02*
X317250D01*
X312750D02*
X317250Y977265D01*
X312750Y982735D02*
X317250Y982740D01*
X312750Y982735D02*
X317250Y982740D01*
X309750Y962250D02*
X312750D01*
X309750D02*
Y967750D01*
X312750Y962250D02*
Y967750D01*
X309750D02*
X312750D01*
X317250Y962250D02*
X320250D01*
X317250D02*
Y967750D01*
X320250D01*
Y962250D02*
Y967750D01*
X312750Y967740D02*
X317250D01*
X312750Y967735D02*
X317250Y967740D01*
X312750Y962260D02*
X317250Y962265D01*
X312750Y962260D02*
X317250Y962265D01*
X474750Y977250D02*
Y982750D01*
X476750Y977250D02*
Y982750D01*
X474750D02*
X476750D01*
X474750Y977250D02*
X476750D01*
X483250Y982750D02*
X485250D01*
X483250Y977250D02*
X485250D01*
Y982750D01*
X483250Y977250D02*
Y982750D01*
X476750Y982550D02*
X483250D01*
X476750Y977450D02*
X483250D01*
X567250Y1067750D02*
X572750D01*
X567250Y1065750D02*
X572750D01*
Y1067750D01*
X567250Y1065750D02*
Y1067750D01*
X572750Y1057250D02*
Y1059250D01*
X567250Y1057250D02*
Y1059250D01*
Y1057250D02*
X572750D01*
X567250Y1059250D02*
X572750D01*
X572550D02*
Y1065750D01*
X567450Y1059250D02*
Y1065750D01*
X450249Y1157250D02*
Y1162750D01*
X448250Y1157250D02*
Y1162750D01*
Y1157250D02*
X450249D01*
X448250Y1162750D02*
X450249D01*
X439750Y1157250D02*
X441750D01*
X439750Y1162750D02*
X441750D01*
X439750Y1157250D02*
Y1162750D01*
X441750Y1157250D02*
Y1162750D01*
Y1157450D02*
X448250D01*
X441750Y1162550D02*
X448250D01*
X437250Y976760D02*
X457750Y976765D01*
X437250Y976760D02*
X457750Y976765D01*
X437250Y993235D02*
X457750Y993240D01*
X437250D02*
X457750D01*
X463750Y976750D02*
Y993250D01*
X457750D02*
X463750D01*
X457750Y976750D02*
Y993250D01*
Y976750D02*
X463750D01*
X431250Y993250D02*
X437250D01*
Y976750D02*
Y993250D01*
X431250Y976750D02*
Y993250D01*
Y976750D02*
X437250D01*
X404750Y1157250D02*
Y1162750D01*
X406750Y1157250D02*
Y1162750D01*
X404750D02*
X406750D01*
X404750Y1157250D02*
X406750D01*
X413250Y1162750D02*
X415250D01*
X413250Y1157250D02*
X415250D01*
Y1162750D01*
X413250Y1157250D02*
Y1162750D01*
X406750Y1162550D02*
X413250D01*
X406750Y1157450D02*
X413250D01*
X407250Y1139750D02*
Y1145250D01*
X409250Y1139750D02*
Y1145250D01*
X407250D02*
X409250D01*
X407250Y1139750D02*
X409250D01*
X415750Y1145250D02*
X417750D01*
X415750Y1139750D02*
X417750D01*
Y1145250D01*
X415750Y1139750D02*
Y1145250D01*
X409250Y1145050D02*
X415750D01*
X409250Y1139950D02*
X415750D01*
X406992Y1120184D02*
Y1125684D01*
X408992Y1120184D02*
Y1125684D01*
X406992D02*
X408992D01*
X406992Y1120184D02*
X408992D01*
X415492Y1125684D02*
X417492D01*
X415492Y1120184D02*
X417492D01*
Y1125684D01*
X415492Y1120184D02*
Y1125684D01*
X408992Y1125484D02*
X415492D01*
X408992Y1120384D02*
X415492D01*
X309760Y1077250D02*
X309765Y1072750D01*
X309760Y1077250D02*
X309765Y1072750D01*
X315235Y1077250D02*
X315240Y1072750D01*
Y1077250D01*
X309749Y1069750D02*
X315250D01*
Y1072750D01*
X309749D02*
X315250D01*
X309749Y1069750D02*
Y1072750D01*
X315250Y1077250D02*
Y1080250D01*
X309749Y1077250D02*
X315250D01*
X309749Y1080250D02*
X315250D01*
X309749Y1077250D02*
Y1080250D01*
X547250Y1009750D02*
Y1015250D01*
X549250Y1009750D02*
Y1015250D01*
X547250D02*
X549250D01*
X547250Y1009750D02*
X549250D01*
X555751Y1015250D02*
X557751D01*
X555751Y1009750D02*
X557751D01*
Y1015250D01*
X555751Y1009750D02*
Y1015250D01*
X549250Y1015050D02*
X555751D01*
X549250Y1009950D02*
X555751D01*
X324500Y925000D02*
X326000D01*
X324500Y932500D02*
X326000D01*
X399000Y925000D02*
X400500D01*
X399000Y932500D02*
X400500D01*
X324500Y925000D02*
Y950000D01*
X326000D01*
X324500Y942500D02*
X326000D01*
X400500Y925000D02*
Y950000D01*
X399000D02*
X400500D01*
X399000Y942500D02*
X400500D01*
X399200Y932500D02*
Y942500D01*
X325800Y932500D02*
Y942500D01*
X326000Y957250D02*
X328490Y954761D01*
X326000Y917750D02*
Y957250D01*
Y917750D02*
X328490Y920239D01*
Y954761D01*
X382510Y954768D02*
X391568D01*
X397206Y955457D01*
X399000Y957250D01*
X326000D02*
X399000D01*
X328490Y954761D02*
X382510Y954768D01*
Y943253D02*
Y954768D01*
X328490Y920239D02*
X382510Y920232D01*
X326000Y917750D02*
X399000D01*
X397206Y919544D02*
X399000Y917750D01*
X391568Y920232D02*
X397206Y919544D01*
X382510Y920232D02*
X391568D01*
X382510D02*
Y931747D01*
X391511D02*
Y943253D01*
X382510Y931747D02*
X391568D01*
X382510Y943253D02*
X391568D01*
Y920232D02*
Y931747D01*
X397206Y919544D02*
Y955457D01*
X391568Y943253D02*
Y954768D01*
X399000Y917750D02*
Y957250D01*
X566000Y1008000D02*
X584000D01*
X566000Y1013000D02*
X584000D01*
X566000Y1008000D02*
Y1013000D01*
X584000Y1008000D02*
Y1013000D01*
X566000Y1042001D02*
X584000D01*
X566000Y1037000D02*
X584000D01*
X566000D02*
Y1042001D01*
X584000Y1037000D02*
Y1042001D01*
X566200Y1013000D02*
Y1037000D01*
X583800Y1013000D02*
Y1037000D01*
X489948Y1056276D02*
Y1074276D01*
X484948Y1056276D02*
Y1074276D01*
X489948D01*
X484948Y1056276D02*
X489948D01*
X455947D02*
Y1074276D01*
X460947Y1056276D02*
Y1074276D01*
X455947D02*
X460947D01*
X455947Y1056276D02*
X460947D01*
Y1074076D02*
X484948D01*
X460947Y1056476D02*
X484948D01*
X265500Y1048500D02*
Y1066500D01*
X270500Y1048500D02*
Y1066500D01*
X265500D02*
X270500D01*
X265500Y1048500D02*
X270500D01*
X299500D02*
Y1066500D01*
X294500Y1048500D02*
Y1066500D01*
X299500D01*
X294500Y1048500D02*
X299500D01*
X270500Y1066300D02*
X294500D01*
X270500Y1048700D02*
X294500D01*
D33*
X336500Y1133500D02*
G03*
X336500Y1133500I-5000J0D01*
G01*
X536000Y1111000D02*
G03*
X536000Y1111000I-5000J0D01*
G01*
X385000Y1069000D02*
G03*
X385000Y1069000I-5000J0D01*
G01*
X421750Y1091000D02*
Y1154000D01*
X453250Y1091000D02*
Y1154000D01*
X421750D02*
X453250D01*
X421750Y1091000D02*
X453250D01*
X374250Y1091000D02*
Y1154000D01*
X405750Y1091000D02*
Y1154000D01*
X374250D02*
X405750D01*
X374250Y1091000D02*
X405750D01*
X322500Y1092500D02*
Y1142500D01*
X372500Y1092500D02*
Y1142500D01*
X322500D02*
X372500D01*
X322500Y1092500D02*
X372500D01*
X440000Y1020000D02*
Y1120000D01*
X540000Y1020000D02*
Y1120000D01*
X440000Y1020000D02*
X540000D01*
X440000Y1120000D02*
X540000D01*
X358000Y1047000D02*
X389000D01*
X358000Y1078000D02*
X389000D01*
X358000Y1047000D02*
Y1078000D01*
X389000Y1047000D02*
Y1078000D01*
D68*
X476820Y947780D02*
X563180D01*
X476820Y912220D02*
Y947780D01*
Y912220D02*
X563180D01*
Y947780D01*
X369321Y1162220D02*
X455681D01*
Y1197780D01*
X369321D02*
X455681D01*
X369321Y1162220D02*
Y1197780D01*
D69*
X397000Y1080250D02*
G03*
X397000Y1080250I-1250J0D01*
G01*
D70*
X378000Y1068000D02*
G03*
X378000Y1068000I-3000J0D01*
G01*
D72*
X421750Y1102500D02*
Y1142500D01*
X453250Y1102500D02*
Y1142500D01*
X374250Y1102500D02*
Y1142500D01*
X405750Y1102500D02*
Y1142500D01*
X362000Y1047000D02*
X385000D01*
X362000Y1078000D02*
X385000D01*
X362000Y1047000D02*
Y1078000D01*
X385000Y1047000D02*
Y1078000D01*
D73*
X445002Y931248D02*
X446251Y932498D01*
X448750D01*
X450000Y931248D01*
Y926250D01*
X448750Y925000D01*
X446251D01*
X445002Y926250D01*
X437504Y925000D02*
X442502D01*
X437504Y929998D01*
Y931248D01*
X438754Y932498D01*
X441253D01*
X442502Y931248D01*
X435005Y925000D02*
X432506D01*
X433755D01*
Y932498D01*
X435005Y931248D01*
X465000Y1125000D02*
X457502D01*
Y1121251D01*
X458752Y1120002D01*
X461251D01*
X462501Y1121251D01*
Y1125000D01*
Y1122501D02*
X465000Y1120002D01*
X458752Y1117502D02*
X457502Y1116253D01*
Y1113754D01*
X458752Y1112504D01*
X460002D01*
X461251Y1113754D01*
X462501Y1112504D01*
X463750D01*
X465000Y1113754D01*
Y1116253D01*
X463750Y1117502D01*
X462501D01*
X461251Y1116253D01*
X460002Y1117502D01*
X458752D01*
X461251Y1116253D02*
Y1113754D01*
X370000Y1130000D02*
X362502D01*
Y1126251D01*
X363752Y1125002D01*
X366251D01*
X367501Y1126251D01*
Y1130000D01*
Y1127501D02*
X370000Y1125002D01*
Y1122502D02*
Y1120003D01*
Y1121253D01*
X362502D01*
X363752Y1122502D01*
Y1116254D02*
X362502Y1115005D01*
Y1112506D01*
X363752Y1111256D01*
X368750D01*
X370000Y1112506D01*
Y1115005D01*
X368750Y1116254D01*
X363752D01*
X520002Y962498D02*
X522501D01*
X521251D01*
Y956250D01*
X522501Y955000D01*
X523750D01*
X525000Y956250D01*
X517502Y955000D02*
X515003D01*
X516253D01*
Y962498D01*
X517502Y961248D01*
X511254D02*
X510005Y962498D01*
X507506D01*
X506256Y961248D01*
Y959998D01*
X507506Y958749D01*
X508755D01*
X507506D01*
X506256Y957499D01*
Y956250D01*
X507506Y955000D01*
X510005D01*
X511254Y956250D01*
X525002Y902498D02*
X527501D01*
X526251D01*
Y896250D01*
X527501Y895000D01*
X528750D01*
X530000Y896250D01*
X522502Y895000D02*
X520003D01*
X521253D01*
Y902498D01*
X522502Y901248D01*
X512506Y895000D02*
Y902498D01*
X516254Y898749D01*
X511256D01*
X589998Y943752D02*
X588749Y942502D01*
X586250D01*
X585000Y943752D01*
Y948750D01*
X586250Y950000D01*
X588749D01*
X589998Y948750D01*
X597496Y950000D02*
X592498D01*
X597496Y945002D01*
Y943752D01*
X596246Y942502D01*
X593747D01*
X592498Y943752D01*
X631502Y1259998D02*
X634001D01*
X632751D01*
Y1253750D01*
X634001Y1252500D01*
X635250D01*
X636500Y1253750D01*
X629002Y1259998D02*
X624004D01*
Y1258748D01*
X629002Y1253750D01*
Y1252500D01*
X315000Y1219998D02*
X310002Y1212500D01*
Y1219998D02*
X315000Y1212500D01*
X307502D02*
X305003D01*
X306253D01*
Y1219998D01*
X307502Y1218748D01*
X378500Y1089997D02*
Y1083749D01*
X377251Y1082500D01*
X374752D01*
X373502Y1083749D01*
Y1089997D01*
X371003Y1088748D02*
X369753Y1089997D01*
X367254D01*
X366004Y1088748D01*
Y1087498D01*
X367254Y1086249D01*
X368504D01*
X367254D01*
X366004Y1084999D01*
Y1083749D01*
X367254Y1082500D01*
X369753D01*
X371003Y1083749D01*
X304998Y1094998D02*
Y1092499D01*
Y1093749D01*
X298750D01*
X297500Y1092499D01*
Y1091250D01*
X298750Y1090000D01*
X297500Y1097498D02*
Y1099997D01*
Y1098747D01*
X304998D01*
X303748Y1097498D01*
X304998Y1108744D02*
Y1103746D01*
X301249D01*
X302498Y1106245D01*
Y1107494D01*
X301249Y1108744D01*
X298750D01*
X297500Y1107494D01*
Y1104995D01*
X298750Y1103746D01*
X467498Y1180002D02*
Y1182501D01*
Y1181251D01*
X461250D01*
X460000Y1182501D01*
Y1183750D01*
X461250Y1185000D01*
X460000Y1177502D02*
Y1175003D01*
Y1176253D01*
X467498D01*
X466248Y1177502D01*
X460000Y1166256D02*
Y1171254D01*
X464998Y1166256D01*
X466248D01*
X467498Y1167506D01*
Y1170005D01*
X466248Y1171254D01*
X622502Y1039998D02*
Y1037499D01*
Y1038749D01*
X628750D01*
X630000Y1037499D01*
Y1036250D01*
X628750Y1035000D01*
X630000Y1042498D02*
Y1044997D01*
Y1043747D01*
X622502D01*
X623752Y1042498D01*
X630000Y1048746D02*
Y1051245D01*
Y1049995D01*
X622502D01*
X623752Y1048746D01*
X627498Y934998D02*
Y932499D01*
Y933749D01*
X621250D01*
X620000Y932499D01*
Y931250D01*
X621250Y930000D01*
X620000Y937498D02*
Y939997D01*
Y938747D01*
X627498D01*
X626248Y937498D01*
Y943746D02*
X627498Y944995D01*
Y947494D01*
X626248Y948744D01*
X621250D01*
X620000Y947494D01*
Y944995D01*
X621250Y943746D01*
X626248D01*
X661442Y929472D02*
X663941D01*
X662691D01*
Y923224D01*
X663941Y921974D01*
X665190D01*
X666440Y923224D01*
X658942D02*
X657693Y921974D01*
X655194D01*
X653944Y923224D01*
Y928222D01*
X655194Y929472D01*
X657693D01*
X658942Y928222D01*
Y926972D01*
X657693Y925723D01*
X653944D01*
X594998Y892502D02*
X592499D01*
X593749D01*
Y898750D01*
X592499Y900000D01*
X591250D01*
X590000Y898750D01*
X597498Y893752D02*
X598747Y892502D01*
X601246D01*
X602496Y893752D01*
Y895002D01*
X601246Y896251D01*
X602496Y897501D01*
Y898750D01*
X601246Y900000D01*
X598747D01*
X597498Y898750D01*
Y897501D01*
X598747Y896251D01*
X597498Y895002D01*
Y893752D01*
X598747Y896251D02*
X601246D01*
X661486Y1154002D02*
X663985D01*
X662735D01*
Y1147754D01*
X663985Y1146504D01*
X665234D01*
X666484Y1147754D01*
X653988Y1154002D02*
X656487Y1152752D01*
X658986Y1150253D01*
Y1147754D01*
X657737Y1146504D01*
X655238D01*
X653988Y1147754D01*
Y1149003D01*
X655238Y1150253D01*
X658986D01*
X301670Y1070488D02*
X299171D01*
X300421D01*
Y1064240D01*
X299171Y1062990D01*
X297922D01*
X296672Y1064240D01*
X309168Y1070488D02*
X304170D01*
Y1066739D01*
X306669Y1067988D01*
X307918D01*
X309168Y1066739D01*
Y1064240D01*
X307918Y1062990D01*
X305419D01*
X304170Y1064240D01*
X495002Y1232498D02*
X497501D01*
X496251D01*
Y1226250D01*
X497501Y1225000D01*
X498750D01*
X500000Y1226250D01*
X488754Y1225000D02*
Y1232498D01*
X492502Y1228749D01*
X487504D01*
X353802Y907498D02*
X356301D01*
X355051D01*
Y901250D01*
X356301Y900000D01*
X357550D01*
X358800Y901250D01*
X351302Y906248D02*
X350053Y907498D01*
X347554D01*
X346304Y906248D01*
Y904998D01*
X347554Y903749D01*
X348803D01*
X347554D01*
X346304Y902499D01*
Y901250D01*
X347554Y900000D01*
X350053D01*
X351302Y901250D01*
X422498Y1024998D02*
X419999D01*
X421249D01*
Y1018750D01*
X419999Y1017500D01*
X418750D01*
X417500Y1018750D01*
X429996Y1017500D02*
X424998D01*
X429996Y1022498D01*
Y1023748D01*
X428746Y1024998D01*
X426247D01*
X424998Y1023748D01*
X464140Y908944D02*
X466639D01*
X465389D01*
Y902696D01*
X466639Y901446D01*
X467888D01*
X469138Y902696D01*
X461640Y901446D02*
X459141D01*
X460391D01*
Y908944D01*
X461640Y907694D01*
X534820Y999054D02*
X536069Y1000304D01*
X538568D01*
X539818Y999054D01*
Y994056D01*
X538568Y992806D01*
X536069D01*
X534820Y994056D01*
X532320Y992806D02*
X529821D01*
X531071D01*
Y1000304D01*
X532320Y999054D01*
X526072Y994056D02*
X524823Y992806D01*
X522324D01*
X521074Y994056D01*
Y999054D01*
X522324Y1000304D01*
X524823D01*
X526072Y999054D01*
Y997804D01*
X524823Y996555D01*
X521074D01*
X481248Y1149998D02*
X482498Y1148749D01*
Y1146250D01*
X481248Y1145000D01*
X476250D01*
X475000Y1146250D01*
Y1148749D01*
X476250Y1149998D01*
X475000Y1152498D02*
Y1154997D01*
Y1153747D01*
X482498D01*
X481248Y1152498D01*
Y1158746D02*
X482498Y1159995D01*
Y1162494D01*
X481248Y1163744D01*
X479998D01*
X478749Y1162494D01*
X477499Y1163744D01*
X476250D01*
X475000Y1162494D01*
Y1159995D01*
X476250Y1158746D01*
X477499D01*
X478749Y1159995D01*
X479998Y1158746D01*
X481248D01*
X478749Y1159995D02*
Y1162494D01*
X436824Y1070424D02*
X435574Y1071673D01*
Y1074172D01*
X436824Y1075422D01*
X441822D01*
X443072Y1074172D01*
Y1071673D01*
X441822Y1070424D01*
X443072Y1067924D02*
Y1065425D01*
Y1066675D01*
X435574D01*
X436824Y1067924D01*
X443072Y1056678D02*
Y1061676D01*
X438074Y1056678D01*
X436824D01*
X435574Y1057928D01*
Y1060427D01*
X436824Y1061676D01*
X337502Y1086248D02*
X338752Y1087498D01*
X341251D01*
X342501Y1086248D01*
Y1081250D01*
X341251Y1080000D01*
X338752D01*
X337502Y1081250D01*
X335003Y1086248D02*
X333754Y1087498D01*
X331254D01*
X330005Y1086248D01*
Y1084998D01*
X331254Y1083749D01*
X330005Y1082499D01*
Y1081250D01*
X331254Y1080000D01*
X333754D01*
X335003Y1081250D01*
Y1082499D01*
X333754Y1083749D01*
X335003Y1084998D01*
Y1086248D01*
X333754Y1083749D02*
X331254D01*
X526988Y1101116D02*
X528238Y1099867D01*
Y1097368D01*
X526988Y1096118D01*
X521990D01*
X520740Y1097368D01*
Y1099867D01*
X521990Y1101116D01*
X528238Y1108614D02*
X526988Y1106115D01*
X524489Y1103616D01*
X521990D01*
X520740Y1104865D01*
Y1107364D01*
X521990Y1108614D01*
X523239D01*
X524489Y1107364D01*
Y1103616D01*
X360002Y938748D02*
X361251Y939998D01*
X363750D01*
X365000Y938748D01*
Y933750D01*
X363750Y932500D01*
X361251D01*
X360002Y933750D01*
X357502Y932500D02*
X355003D01*
X356253D01*
Y939998D01*
X357502Y938748D01*
D74*
X350900Y1265000D02*
Y1280900D01*
Y1178500D02*
Y1248000D01*
X336100Y1178500D02*
X350900D01*
X259100D02*
X273900D01*
X259100D02*
Y1248000D01*
Y1265000D02*
Y1280900D01*
X350900D01*
D108*
X475000Y860000D02*
Y885000D01*
X555000D01*
Y855000D02*
Y885000D01*
X480000Y855000D02*
X555000D01*
X475000Y860000D02*
X480000Y855000D01*
X637500Y1060000D02*
X662500D01*
X637500D02*
Y1140000D01*
X667500D01*
Y1065000D02*
Y1140000D01*
X662500Y1060000D02*
X667500Y1065000D01*
D109*
X408100Y989680D02*
Y1035400D01*
X403020Y984600D02*
X408100Y989680D01*
X331900Y984600D02*
X403020D01*
X331900Y1035400D02*
X408100D01*
X331900Y984600D02*
Y1035400D01*
X369400Y894000D02*
X469400D01*
Y774000D02*
Y894000D01*
X369400Y774000D02*
X469400D01*
X369400D02*
Y894000D01*
X259400Y774000D02*
Y894000D01*
Y774000D02*
X359400D01*
Y894000D01*
X259400D02*
X359400D01*
D110*
X307500Y1054100D02*
X307900Y1053700D01*
X266700Y1054100D02*
X307500D01*
X257100Y1044500D02*
X266700Y1054100D01*
X257100Y1027500D02*
Y1044500D01*
Y927500D02*
Y1027500D01*
Y927500D02*
X307900D01*
Y1052900D01*
X665240Y854760D02*
Y913180D01*
X634760D02*
X665240D01*
X634760Y857300D02*
Y913180D01*
Y857300D02*
X637300Y854760D01*
X665240D01*
X566820Y885240D02*
X625240D01*
X566820Y854760D02*
Y885240D01*
Y854760D02*
X622700D01*
X625240Y857300D01*
Y885240D01*
X665240Y994760D02*
Y1053180D01*
X634760D02*
X665240D01*
X634760Y997300D02*
Y1053180D01*
Y997300D02*
X637300Y994760D01*
X665240D01*
Y924760D02*
Y983180D01*
X634760D02*
X665240D01*
X634760Y927300D02*
Y983180D01*
Y927300D02*
X637300Y924760D01*
X665240D01*
X287740Y1069760D02*
Y1128180D01*
X257260D02*
X287740D01*
X257260Y1072300D02*
Y1128180D01*
Y1072300D02*
X259800Y1069760D01*
X287740D01*
X358400Y1262500D02*
X358800Y1262900D01*
X358400Y1221700D02*
Y1262500D01*
Y1221700D02*
X368000Y1212100D01*
X385000D01*
X485000D01*
Y1262900D01*
X359600D02*
X485000D01*
D111*
X493000Y1151000D02*
Y1265000D01*
Y1151000D02*
X661001D01*
Y1265000D01*
X493000D02*
X661001D01*
D112*
X590002Y1262498D02*
X595000D01*
Y1258749D01*
X592501D01*
X595000D01*
Y1255000D01*
X587502Y1259998D02*
Y1255000D01*
Y1257499D01*
X586253Y1258749D01*
X585003Y1259998D01*
X583754D01*
X578755Y1255000D02*
X576256D01*
X575006Y1256250D01*
Y1258749D01*
X576256Y1259998D01*
X578755D01*
X580005Y1258749D01*
Y1256250D01*
X578755Y1255000D01*
X572507D02*
Y1259998D01*
X568758D01*
X567509Y1258749D01*
Y1255000D01*
X563760Y1261248D02*
Y1259998D01*
X565010D01*
X562510D01*
X563760D01*
Y1256250D01*
X562510Y1255000D01*
M02*
