G04 Layer_Color=255*
%FSLAX44Y44*%
%MOMM*%
G71*
G01*
G75*
G04:AMPARAMS|DCode=10|XSize=1.8mm|YSize=1.15mm|CornerRadius=0.1437mm|HoleSize=0mm|Usage=FLASHONLY|Rotation=0.000|XOffset=0mm|YOffset=0mm|HoleType=Round|Shape=RoundedRectangle|*
%AMROUNDEDRECTD10*
21,1,1.8000,0.8625,0,0,0.0*
21,1,1.5125,1.1500,0,0,0.0*
1,1,0.2875,0.7562,-0.4313*
1,1,0.2875,-0.7562,-0.4313*
1,1,0.2875,-0.7562,0.4313*
1,1,0.2875,0.7562,0.4313*
%
%ADD10ROUNDEDRECTD10*%
%ADD11O,0.7500X0.2500*%
%ADD12O,0.2500X0.7500*%
G04:AMPARAMS|DCode=13|XSize=0.6mm|YSize=0.6mm|CornerRadius=0.06mm|HoleSize=0mm|Usage=FLASHONLY|Rotation=90.000|XOffset=0mm|YOffset=0mm|HoleType=Round|Shape=RoundedRectangle|*
%AMROUNDEDRECTD13*
21,1,0.6000,0.4800,0,0,90.0*
21,1,0.4800,0.6000,0,0,90.0*
1,1,0.1200,0.2400,0.2400*
1,1,0.1200,0.2400,-0.2400*
1,1,0.1200,-0.2400,-0.2400*
1,1,0.1200,-0.2400,0.2400*
%
%ADD13ROUNDEDRECTD13*%
G04:AMPARAMS|DCode=14|XSize=1.8mm|YSize=1.15mm|CornerRadius=0.1437mm|HoleSize=0mm|Usage=FLASHONLY|Rotation=90.000|XOffset=0mm|YOffset=0mm|HoleType=Round|Shape=RoundedRectangle|*
%AMROUNDEDRECTD14*
21,1,1.8000,0.8625,0,0,90.0*
21,1,1.5125,1.1500,0,0,90.0*
1,1,0.2875,0.4313,0.7562*
1,1,0.2875,0.4313,-0.7562*
1,1,0.2875,-0.4313,-0.7562*
1,1,0.2875,-0.4313,0.7562*
%
%ADD14ROUNDEDRECTD14*%
%ADD15R,0.9000X0.9000*%
%ADD16O,1.8500X0.5500*%
%ADD17O,0.5500X1.8500*%
G04:AMPARAMS|DCode=18|XSize=0.5mm|YSize=0.6mm|CornerRadius=0.05mm|HoleSize=0mm|Usage=FLASHONLY|Rotation=180.000|XOffset=0mm|YOffset=0mm|HoleType=Round|Shape=RoundedRectangle|*
%AMROUNDEDRECTD18*
21,1,0.5000,0.5000,0,0,180.0*
21,1,0.4000,0.6000,0,0,180.0*
1,1,0.1000,-0.2000,0.2500*
1,1,0.1000,0.2000,0.2500*
1,1,0.1000,0.2000,-0.2500*
1,1,0.1000,-0.2000,-0.2500*
%
%ADD18ROUNDEDRECTD18*%
%ADD19R,0.9000X0.9000*%
G04:AMPARAMS|DCode=20|XSize=4.6mm|YSize=4.4mm|CornerRadius=0.22mm|HoleSize=0mm|Usage=FLASHONLY|Rotation=270.000|XOffset=0mm|YOffset=0mm|HoleType=Round|Shape=RoundedRectangle|*
%AMROUNDEDRECTD20*
21,1,4.6000,3.9600,0,0,270.0*
21,1,4.1600,4.4000,0,0,270.0*
1,1,0.4400,-1.9800,-2.0800*
1,1,0.4400,-1.9800,2.0800*
1,1,0.4400,1.9800,2.0800*
1,1,0.4400,1.9800,-2.0800*
%
%ADD20ROUNDEDRECTD20*%
%ADD21O,0.6000X1.6000*%
G04:AMPARAMS|DCode=22|XSize=0.6mm|YSize=0.6mm|CornerRadius=0.06mm|HoleSize=0mm|Usage=FLASHONLY|Rotation=180.000|XOffset=0mm|YOffset=0mm|HoleType=Round|Shape=RoundedRectangle|*
%AMROUNDEDRECTD22*
21,1,0.6000,0.4800,0,0,180.0*
21,1,0.4800,0.6000,0,0,180.0*
1,1,0.1200,-0.2400,0.2400*
1,1,0.1200,0.2400,0.2400*
1,1,0.1200,0.2400,-0.2400*
1,1,0.1200,-0.2400,-0.2400*
%
%ADD22ROUNDEDRECTD22*%
G04:AMPARAMS|DCode=23|XSize=1.8mm|YSize=1.3mm|CornerRadius=0.1625mm|HoleSize=0mm|Usage=FLASHONLY|Rotation=180.000|XOffset=0mm|YOffset=0mm|HoleType=Round|Shape=RoundedRectangle|*
%AMROUNDEDRECTD23*
21,1,1.8000,0.9750,0,0,180.0*
21,1,1.4750,1.3000,0,0,180.0*
1,1,0.3250,-0.7375,0.4875*
1,1,0.3250,0.7375,0.4875*
1,1,0.3250,0.7375,-0.4875*
1,1,0.3250,-0.7375,-0.4875*
%
%ADD23ROUNDEDRECTD23*%
G04:AMPARAMS|DCode=24|XSize=0.5mm|YSize=0.6mm|CornerRadius=0.05mm|HoleSize=0mm|Usage=FLASHONLY|Rotation=270.000|XOffset=0mm|YOffset=0mm|HoleType=Round|Shape=RoundedRectangle|*
%AMROUNDEDRECTD24*
21,1,0.5000,0.5000,0,0,270.0*
21,1,0.4000,0.6000,0,0,270.0*
1,1,0.1000,-0.2500,-0.2000*
1,1,0.1000,-0.2500,0.2000*
1,1,0.1000,0.2500,0.2000*
1,1,0.1000,0.2500,-0.2000*
%
%ADD24ROUNDEDRECTD24*%
G04:AMPARAMS|DCode=25|XSize=1.8mm|YSize=1.3mm|CornerRadius=0.1625mm|HoleSize=0mm|Usage=FLASHONLY|Rotation=270.000|XOffset=0mm|YOffset=0mm|HoleType=Round|Shape=RoundedRectangle|*
%AMROUNDEDRECTD25*
21,1,1.8000,0.9750,0,0,270.0*
21,1,1.4750,1.3000,0,0,270.0*
1,1,0.3250,-0.4875,-0.7375*
1,1,0.3250,-0.4875,0.7375*
1,1,0.3250,0.4875,0.7375*
1,1,0.3250,0.4875,-0.7375*
%
%ADD25ROUNDEDRECTD25*%
%ADD32C,0.0500*%
%ADD33C,0.1000*%
%ADD34C,1.7780*%
%ADD35C,1.7000*%
%ADD36C,2.5400*%
G04:AMPARAMS|DCode=37|XSize=2.54mm|YSize=2.54mm|CornerRadius=0.3175mm|HoleSize=0mm|Usage=FLASHONLY|Rotation=0.000|XOffset=0mm|YOffset=0mm|HoleType=Round|Shape=RoundedRectangle|*
%AMROUNDEDRECTD37*
21,1,2.5400,1.9050,0,0,0.0*
21,1,1.9050,2.5400,0,0,0.0*
1,1,0.6350,0.9525,-0.9525*
1,1,0.6350,-0.9525,-0.9525*
1,1,0.6350,-0.9525,0.9525*
1,1,0.6350,0.9525,0.9525*
%
%ADD37ROUNDEDRECTD37*%
%ADD38C,2.0000*%
%ADD39O,0.8000X1.4000*%
%ADD40C,0.6500*%
%ADD41O,0.9500X0.6500*%
%ADD42C,1.6510*%
%ADD43R,1.6510X1.6510*%
%ADD44C,2.0000*%
%ADD45R,2.0000X2.0000*%
%ADD46R,2.8000X2.8000*%
%ADD47C,2.8000*%
D10*
X575001Y1135000D02*
D03*
Y1165000D02*
D03*
X625000Y945000D02*
D03*
Y915000D02*
D03*
X600000Y945000D02*
D03*
Y915000D02*
D03*
X550000Y1165000D02*
D03*
Y1135000D02*
D03*
X575000Y1010000D02*
D03*
Y1040001D02*
D03*
D11*
X324000Y1135000D02*
D03*
Y1130000D02*
D03*
Y1125000D02*
D03*
Y1120000D02*
D03*
Y1115000D02*
D03*
Y1110000D02*
D03*
Y1105000D02*
D03*
Y1100000D02*
D03*
X371000D02*
D03*
Y1105000D02*
D03*
Y1110000D02*
D03*
Y1115000D02*
D03*
Y1120000D02*
D03*
Y1125000D02*
D03*
Y1130000D02*
D03*
Y1135000D02*
D03*
D12*
X330000Y1094000D02*
D03*
X335000D02*
D03*
X340000D02*
D03*
X345000D02*
D03*
X350000D02*
D03*
X355000D02*
D03*
X360000D02*
D03*
X365000D02*
D03*
Y1141000D02*
D03*
X360000D02*
D03*
X355000D02*
D03*
X350000D02*
D03*
X345000D02*
D03*
X340000D02*
D03*
X335000D02*
D03*
X330000D02*
D03*
D13*
X320000Y992500D02*
D03*
X310000D02*
D03*
X268812Y1154430D02*
D03*
X278812D02*
D03*
X268558Y1136650D02*
D03*
X278558D02*
D03*
X405000Y980000D02*
D03*
X415000D02*
D03*
X320000D02*
D03*
X310000D02*
D03*
X310000Y965000D02*
D03*
X320000D02*
D03*
D14*
X535000Y980000D02*
D03*
X505000D02*
D03*
X432500Y1212500D02*
D03*
X462500D02*
D03*
X297500Y1222500D02*
D03*
X327500D02*
D03*
X267500Y1057499D02*
D03*
X297500D02*
D03*
D15*
X392500Y931500D02*
D03*
Y908500D02*
D03*
X292500Y1146000D02*
D03*
Y1169000D02*
D03*
X292500Y1103500D02*
D03*
Y1126500D02*
D03*
D16*
X549250Y1110000D02*
D03*
Y1102000D02*
D03*
Y1094000D02*
D03*
Y1086000D02*
D03*
Y1078000D02*
D03*
Y1070000D02*
D03*
Y1062000D02*
D03*
Y1054000D02*
D03*
Y1046000D02*
D03*
Y1038000D02*
D03*
Y1030000D02*
D03*
X430750D02*
D03*
Y1038000D02*
D03*
Y1046000D02*
D03*
Y1054000D02*
D03*
Y1062000D02*
D03*
Y1070000D02*
D03*
Y1078000D02*
D03*
Y1086000D02*
D03*
Y1094000D02*
D03*
Y1102000D02*
D03*
Y1110000D02*
D03*
D17*
X530000Y1010750D02*
D03*
X522000D02*
D03*
X514000D02*
D03*
X506000D02*
D03*
X498000D02*
D03*
X490000D02*
D03*
X482000D02*
D03*
X474000D02*
D03*
X466000D02*
D03*
X458000D02*
D03*
X450000D02*
D03*
Y1129250D02*
D03*
X458000D02*
D03*
X466000D02*
D03*
X474000D02*
D03*
X482000D02*
D03*
X490000D02*
D03*
X498000D02*
D03*
X506000D02*
D03*
X514000D02*
D03*
X522000D02*
D03*
X530000D02*
D03*
D18*
X295000Y1090000D02*
D03*
Y1080000D02*
D03*
X570000Y1067500D02*
D03*
Y1057500D02*
D03*
D19*
X303500Y1010000D02*
D03*
X326500D02*
D03*
D20*
X440000Y909000D02*
D03*
X330000D02*
D03*
D21*
X420950Y947000D02*
D03*
X433650D02*
D03*
X446350D02*
D03*
X459050D02*
D03*
X310950D02*
D03*
X323650D02*
D03*
X336350D02*
D03*
X349050D02*
D03*
D22*
X392500Y975000D02*
D03*
Y965000D02*
D03*
Y945000D02*
D03*
Y955000D02*
D03*
X312500Y1070000D02*
D03*
Y1080000D02*
D03*
D23*
X467500Y1184501D02*
D03*
Y1155500D02*
D03*
D24*
X475000Y980000D02*
D03*
X485000D02*
D03*
X450000Y1160000D02*
D03*
X440000D02*
D03*
X405000Y1160000D02*
D03*
X415000D02*
D03*
X407500Y1142500D02*
D03*
X417500D02*
D03*
X407242Y1122934D02*
D03*
X417242D02*
D03*
X547500Y1012500D02*
D03*
X557500D02*
D03*
D25*
X433000Y985000D02*
D03*
X462000D02*
D03*
D32*
X610500Y1084450D02*
G03*
X608400Y1086550I-2100J0D01*
G01*
Y1063450D02*
G03*
X610500Y1065550I0J2100D01*
G01*
Y1122550D02*
G03*
X608400Y1124650I-2100J0D01*
G01*
X610500Y1008250D02*
G03*
X608400Y1010350I-2100J0D01*
G01*
X610500Y1046350D02*
G03*
X608400Y1048450I-2100J0D01*
G01*
Y1101550D02*
G03*
X610500Y1103650I0J2100D01*
G01*
X608400Y1139650D02*
G03*
X610500Y1141750I0J2100D01*
G01*
X608400Y1025350D02*
G03*
X610500Y1027450I0J2100D01*
G01*
X458377Y920000D02*
G03*
X458377Y920000I-3377J0D01*
G01*
X348377D02*
G03*
X348377Y920000I-3377J0D01*
G01*
X457000Y901000D02*
Y919000D01*
X452000Y901000D02*
Y919000D01*
X457000D01*
X452000Y901000D02*
X457000D01*
X423000D02*
Y919000D01*
X428000Y901000D02*
Y919000D01*
X423000D02*
X428000D01*
X423000Y901000D02*
X428000D01*
Y918800D02*
X452000D01*
X428000Y901200D02*
X452000D01*
X552000Y962500D02*
X553500D01*
X552000Y970000D02*
X553500D01*
X626500Y962500D02*
X628000D01*
X626500Y970000D02*
X628000D01*
X552000Y962500D02*
Y987500D01*
X553500D01*
X552000Y980000D02*
X553500D01*
X628000Y962500D02*
Y987500D01*
X626500D02*
X628000D01*
X626500Y980000D02*
X628000D01*
X626700Y970000D02*
Y980000D01*
X553300Y970000D02*
Y980000D01*
X553500Y994750D02*
X555990Y992260D01*
X553500Y955250D02*
Y994750D01*
Y955250D02*
X555990Y957739D01*
Y992260D01*
X610010Y992267D02*
X619068D01*
X624706Y992956D01*
X626500Y994750D01*
X553500D02*
X626500D01*
X555990Y992260D02*
X610010Y992267D01*
Y980753D02*
Y992267D01*
X555990Y957739D02*
X610010Y957732D01*
X553500Y955250D02*
X626500D01*
X624706Y957044D02*
X626500Y955250D01*
X619068Y957732D02*
X624706Y957044D01*
X610010Y957732D02*
X619068D01*
X610010D02*
Y969247D01*
X619011D02*
Y980753D01*
X610010Y969247D02*
X619068D01*
X610010Y980753D02*
X619068D01*
Y957732D02*
Y969247D01*
X624706Y957044D02*
Y992956D01*
X619068Y980753D02*
Y992267D01*
X626500Y955250D02*
Y994750D01*
X618500Y1119150D02*
Y1145150D01*
X600500Y1025350D02*
X608400D01*
X600500Y1063450D02*
X608400D01*
X610500Y1119150D02*
X618500D01*
X620600Y1117050D01*
X600500Y1124650D02*
X608400D01*
X610500Y1107050D02*
X618500D01*
X610500Y1103650D02*
Y1107050D01*
X608400Y1109150D02*
X610500Y1107050D01*
Y1004850D02*
X618500D01*
X600500Y1101550D02*
X608400D01*
X610500Y1042950D02*
X618500D01*
X600500Y1010350D02*
X608400D01*
X600500Y1139650D02*
X608400D01*
X618500Y1004850D02*
Y1030850D01*
Y1004850D02*
X620600Y1002750D01*
X618500Y1081050D02*
Y1107050D01*
X620600Y1109150D01*
X610500Y1030850D02*
X618500D01*
X620600Y1032950D01*
X610500Y1027450D02*
Y1030850D01*
X608400Y1032950D02*
X610500Y1030850D01*
Y1119150D02*
Y1122550D01*
X608400Y1117050D02*
X610500Y1119150D01*
X618500Y1042950D02*
Y1068950D01*
Y1042950D02*
X620600Y1040850D01*
X600500Y1048450D02*
X608400D01*
X610500Y1004850D02*
Y1008250D01*
X608400Y1002750D02*
X610500Y1004850D01*
Y1141750D02*
Y1145150D01*
X600500Y1086550D02*
X608400D01*
X610500Y1042950D02*
Y1046350D01*
X608400Y1040850D02*
X610500Y1042950D01*
Y1081050D02*
Y1084450D01*
Y1081050D02*
X618500D01*
X608400Y1078950D02*
X610500Y1081050D01*
X618500D02*
X620600Y1078950D01*
X610500Y1068950D02*
X618500D01*
X620600Y1071050D01*
X610500Y1065550D02*
Y1068950D01*
X608400Y1071050D02*
X610500Y1068950D01*
X608400Y1002750D02*
X620600D01*
X600500Y993750D02*
Y1156250D01*
Y993750D02*
X679500D01*
X687500Y987350D01*
X679500Y1156250D02*
X687500Y1162650D01*
X600500Y1156250D02*
X679500D01*
X620600Y1117050D02*
Y1147250D01*
X608400Y1117050D02*
X620600D01*
X608400Y1109150D02*
X620600D01*
Y1078950D02*
Y1109150D01*
X608400Y1078950D02*
X620600D01*
X608400Y1071050D02*
X620600D01*
Y1040850D02*
Y1071050D01*
X608400Y1040850D02*
X620600D01*
X608400Y1032950D02*
X620600D01*
Y1002750D02*
Y1032950D01*
X610500Y1145150D02*
X618500D01*
X620600Y1147250D01*
X608400D02*
X620600D01*
X608400D02*
X610500Y1145150D01*
X608400Y1078950D02*
Y1086550D01*
X600500Y1084450D02*
X610500D01*
X600500Y1065550D02*
X610500D01*
X608400Y1063450D02*
Y1071050D01*
Y1117050D02*
Y1124650D01*
X600500Y1122550D02*
X610500D01*
X608400Y1002750D02*
Y1010350D01*
X600500Y1008250D02*
X610500D01*
X608400Y1040850D02*
Y1048450D01*
X600500Y1046350D02*
X610500D01*
X600500Y1103650D02*
X610500D01*
X608400Y1101550D02*
Y1109150D01*
X600500Y1141750D02*
X610500D01*
X608400Y1139650D02*
Y1147250D01*
X600500Y1027450D02*
X610500D01*
X608400Y1025350D02*
Y1032950D01*
X692500Y987350D02*
Y1162650D01*
X687500Y1020350D02*
Y1162650D01*
X692500D01*
X682500Y1015350D02*
Y1020350D01*
Y1015350D02*
X687500D01*
Y987350D02*
Y1015350D01*
Y987350D02*
X692500D01*
X682500Y1020350D02*
X687500D01*
X566000Y1133000D02*
X584000D01*
X566000Y1138000D02*
X584000D01*
X566000Y1133000D02*
Y1138000D01*
X584000Y1133000D02*
Y1138000D01*
X566000Y1167000D02*
X584000D01*
X566000Y1162000D02*
X584000D01*
X566000D02*
Y1167000D01*
X584000Y1162000D02*
Y1167000D01*
X566200Y1138000D02*
Y1162000D01*
X583801Y1138000D02*
Y1162000D01*
X317250Y995250D02*
X320250D01*
Y989750D02*
Y995250D01*
X317250Y989750D02*
Y995250D01*
Y989750D02*
X320250D01*
X309750Y995250D02*
X312750D01*
Y989750D02*
Y995250D01*
X309750Y989750D02*
X312750D01*
X309750D02*
Y995250D01*
X312750Y989760D02*
X317250D01*
X312750D02*
X317250Y989765D01*
X312750Y995236D02*
X317250Y995240D01*
X312750Y995236D02*
X317250Y995240D01*
X537000Y971000D02*
Y989000D01*
X532000Y971000D02*
Y989000D01*
Y971000D02*
X537000D01*
X532000Y989000D02*
X537000D01*
X503000Y971000D02*
Y989000D01*
X508000Y971000D02*
Y989000D01*
X503000Y971000D02*
X508000D01*
X503000Y989000D02*
X508000D01*
Y971200D02*
X532000D01*
X508000Y988800D02*
X532000D01*
X514240Y1054118D02*
X532240D01*
X514240Y1059118D02*
X532240D01*
Y1054118D02*
Y1059118D01*
X514240Y1054118D02*
Y1059118D01*
Y1088118D02*
X532240D01*
X514240Y1083118D02*
X532240D01*
Y1088118D01*
X514240Y1083118D02*
Y1088118D01*
X532040Y1059118D02*
Y1083118D01*
X514440Y1059118D02*
Y1083118D01*
X468500Y1207000D02*
X486500D01*
X468500Y1202000D02*
X486500D01*
X468500D02*
Y1207000D01*
X486500Y1202000D02*
Y1207000D01*
X468500Y1173000D02*
X486500D01*
X468500Y1178000D02*
X486500D01*
X468500Y1173000D02*
Y1178000D01*
X486500Y1173000D02*
Y1178000D01*
X468700D02*
Y1202000D01*
X486300Y1178000D02*
Y1202000D01*
X329750Y1069750D02*
Y1075250D01*
X331750Y1069750D02*
Y1075250D01*
X329750Y1069750D02*
X331750D01*
X329750Y1075250D02*
X331750D01*
X338250Y1069750D02*
X340250D01*
X338250Y1075250D02*
X340250D01*
Y1069750D02*
Y1075250D01*
X338250Y1069750D02*
Y1075250D01*
X331750Y1069950D02*
X338250D01*
X331750Y1075050D02*
X338250D01*
X292250Y1090250D02*
X297750D01*
X292250Y1088250D02*
X297750D01*
Y1090250D01*
X292250Y1088250D02*
Y1090250D01*
X297750Y1079750D02*
Y1081750D01*
X292250Y1079750D02*
Y1081750D01*
Y1079750D02*
X297750D01*
X292250Y1081750D02*
X297750D01*
X297550D02*
Y1088250D01*
X292451Y1081750D02*
Y1088250D01*
X500500Y966000D02*
Y984000D01*
X505500Y966000D02*
Y984000D01*
X500500Y966000D02*
X505500D01*
X500500Y984000D02*
X505500D01*
X534500Y966000D02*
Y984000D01*
X529500Y966000D02*
Y984000D01*
Y966000D02*
X534500D01*
X529500Y984000D02*
X534500D01*
X505500Y966200D02*
X529500D01*
X505500Y983800D02*
X529500D01*
X271562Y1157165D02*
X276062Y1157170D01*
X271562Y1157165D02*
X276062Y1157170D01*
X271562Y1151690D02*
X276062Y1151695D01*
X271562Y1151690D02*
X276062D01*
X268562Y1151680D02*
Y1157180D01*
Y1151680D02*
X271562D01*
Y1157180D01*
X268562D02*
X271562D01*
X276062Y1151680D02*
X279062D01*
X276062D02*
Y1157180D01*
X279062Y1151680D02*
Y1157180D01*
X276062D02*
X279062D01*
X430500Y1203500D02*
Y1221500D01*
X435500Y1203500D02*
Y1221500D01*
X430500D02*
X435500D01*
X430500Y1203500D02*
X435500D01*
X464500D02*
Y1221500D01*
X459500Y1203500D02*
Y1221500D01*
X464500D01*
X459500Y1203500D02*
X464500D01*
X435500Y1221300D02*
X459500D01*
X435500Y1203700D02*
X459500D01*
X460031Y901425D02*
Y938575D01*
X464500Y939372D01*
Y900075D02*
Y939500D01*
X460031Y901425D02*
X464500Y900628D01*
X415500Y900075D02*
X416425Y899150D01*
X415500Y900075D02*
Y939500D01*
Y900628D02*
X419969Y901425D01*
X460031D01*
X463575Y899150D02*
X464500Y900075D01*
X454000Y899150D02*
X463575D01*
X446000Y899724D02*
X454000D01*
X434000Y899150D02*
X446000D01*
X426000Y899724D02*
X434000D01*
X416425Y899150D02*
X426000D01*
X415500Y939372D02*
X419969Y938575D01*
Y901425D02*
Y938575D01*
X415500Y939500D02*
X464500D01*
X419969Y938575D02*
X460031D01*
X418850Y942166D02*
X423050D01*
X418850Y945064D02*
X423050D01*
Y939500D02*
Y950000D01*
X418850Y939500D02*
Y950000D01*
X431550Y942166D02*
X435750D01*
X431550Y939500D02*
Y950000D01*
Y945064D02*
X435750D01*
Y939500D02*
Y950000D01*
X444250Y942166D02*
X448450D01*
X444250Y945064D02*
X448450D01*
X444250Y939500D02*
Y950000D01*
X448450Y939500D02*
Y950000D01*
X456950Y942166D02*
X461150D01*
X456950Y945064D02*
X461150D01*
Y939500D02*
Y950000D01*
X456950Y939500D02*
Y950000D01*
X418850Y945432D02*
X423050D01*
X431550D02*
X435750D01*
X444250D02*
X448450D01*
X456950D02*
X461150D01*
X418850Y946311D02*
X423050D01*
X431550D02*
X435750D01*
X444250D02*
X448450D01*
X456950D02*
X461150D01*
X434000Y899000D02*
Y899724D01*
Y899000D02*
X446000D01*
Y899724D01*
X454000Y897000D02*
Y899724D01*
Y897000D02*
X461000D01*
Y894500D02*
Y897000D01*
X456500Y890000D02*
X461000Y894500D01*
X423500Y890000D02*
X456500D01*
X419000Y894500D02*
X423500Y890000D01*
X419000Y894500D02*
Y897000D01*
X426000D02*
Y899724D01*
X419000Y897000D02*
X426000D01*
X418850Y950000D02*
X423050D01*
X431550D02*
X435750D01*
X444250D02*
X448450D01*
X456950D02*
X461150D01*
X350031Y901425D02*
Y938575D01*
X354500Y939372D01*
Y900075D02*
Y939500D01*
X350031Y901425D02*
X354500Y900628D01*
X305500Y900075D02*
X306425Y899150D01*
X305500Y900075D02*
Y939500D01*
Y900628D02*
X309969Y901425D01*
X350031D01*
X353576Y899150D02*
X354500Y900075D01*
X344000Y899150D02*
X353576D01*
X336000Y899724D02*
X344000D01*
X324000Y899150D02*
X336000D01*
X316000Y899724D02*
X324000D01*
X306425Y899150D02*
X316000D01*
X305500Y939372D02*
X309969Y938575D01*
Y901425D02*
Y938575D01*
X305500Y939500D02*
X354500D01*
X309969Y938575D02*
X350031D01*
X308850Y942166D02*
X313050D01*
X308850Y945064D02*
X313050D01*
Y939500D02*
Y950000D01*
X308850Y939500D02*
Y950000D01*
X321550Y942166D02*
X325750D01*
X321550Y939500D02*
Y950000D01*
Y945064D02*
X325750D01*
Y939500D02*
Y950000D01*
X334250Y942166D02*
X338450D01*
X334250Y945064D02*
X338450D01*
X334250Y939500D02*
Y950000D01*
X338450Y939500D02*
Y950000D01*
X346950Y942166D02*
X351150D01*
X346950Y945064D02*
X351150D01*
Y939500D02*
Y950000D01*
X346950Y939500D02*
Y950000D01*
X308850Y945432D02*
X313050D01*
X321550D02*
X325750D01*
X334250D02*
X338450D01*
X346950D02*
X351150D01*
X308850Y946311D02*
X313050D01*
X321550D02*
X325750D01*
X334250D02*
X338450D01*
X346950D02*
X351150D01*
X324000Y899000D02*
Y899724D01*
Y899000D02*
X336000D01*
Y899724D01*
X344000Y897000D02*
Y899724D01*
Y897000D02*
X351000D01*
Y894500D02*
Y897000D01*
X346500Y890000D02*
X351000Y894500D01*
X313500Y890000D02*
X346500D01*
X309000Y894500D02*
X313500Y890000D01*
X309000Y894500D02*
Y897000D01*
X316000D02*
Y899724D01*
X309000Y897000D02*
X316000D01*
X308850Y950000D02*
X313050D01*
X321550D02*
X325750D01*
X334250D02*
X338450D01*
X346950D02*
X351150D01*
X616000Y947000D02*
X634000D01*
X616000Y942000D02*
X634000D01*
Y947000D01*
X616000Y942000D02*
Y947000D01*
Y913000D02*
X634000D01*
X616000Y918000D02*
X634000D01*
Y913000D02*
Y918000D01*
X616000Y913000D02*
Y918000D01*
X633800D02*
Y942000D01*
X616200Y918000D02*
Y942000D01*
X591000Y947000D02*
X609000D01*
X591000Y942000D02*
X609000D01*
Y947000D01*
X591000Y942000D02*
Y947000D01*
Y913000D02*
X609000D01*
X591000Y918000D02*
X609000D01*
Y913000D02*
Y918000D01*
X591000Y913000D02*
Y918000D01*
X608800D02*
Y942000D01*
X591200Y918000D02*
Y942000D01*
X295500Y1213500D02*
Y1231500D01*
X300500Y1213500D02*
Y1231500D01*
X295500D02*
X300500D01*
X295500Y1213500D02*
X300500D01*
X329500D02*
Y1231500D01*
X324500Y1213500D02*
Y1231500D01*
X329500D01*
X324500Y1213500D02*
X329500D01*
X300500Y1231300D02*
X324500D01*
X300500Y1213700D02*
X324500D01*
X541000Y1167000D02*
X559000D01*
X541000Y1162000D02*
X559000D01*
Y1167000D01*
X541000Y1162000D02*
Y1167000D01*
Y1133000D02*
X559000D01*
X541000Y1138000D02*
X559000D01*
Y1133000D02*
Y1138000D01*
X541000Y1133000D02*
Y1138000D01*
X558800D02*
Y1162000D01*
X541200Y1138000D02*
Y1162000D01*
X271308Y1139385D02*
X275808Y1139390D01*
X271308Y1139385D02*
X275808Y1139390D01*
X271308Y1133910D02*
X275808Y1133915D01*
X271308Y1133910D02*
X275808D01*
X268308Y1133900D02*
Y1139400D01*
Y1133900D02*
X271308D01*
Y1139400D01*
X268308D02*
X271308D01*
X275808Y1133900D02*
X278808D01*
X275808D02*
Y1139400D01*
X278808Y1133900D02*
Y1139400D01*
X275808D02*
X278808D01*
X389750Y972250D02*
Y975250D01*
X395250D01*
X389750Y972250D02*
X395250D01*
Y975250D01*
X389750Y964750D02*
Y967750D01*
X395250D01*
Y964750D02*
Y967750D01*
X389750Y964750D02*
X395250D01*
X395240Y967750D02*
Y972250D01*
X395235D02*
X395240Y967750D01*
X389760Y972250D02*
X389765Y967750D01*
X389760Y972250D02*
X389765Y967750D01*
X404750Y977250D02*
X407750D01*
X404750D02*
Y982750D01*
X407750Y977250D02*
Y982750D01*
X404750D02*
X407750D01*
X412250Y977250D02*
X415250D01*
X412250D02*
Y982750D01*
X415250D01*
Y977250D02*
Y982750D01*
X407750Y982740D02*
X412250D01*
X407750Y982735D02*
X412250Y982740D01*
X407750Y977260D02*
X412250Y977265D01*
X407750Y977260D02*
X412250Y977265D01*
X395250Y944750D02*
Y947750D01*
X389750Y944750D02*
X395250D01*
X389750Y947750D02*
X395250D01*
X389750Y944750D02*
Y947750D01*
X395250Y952250D02*
Y955250D01*
X389750Y952250D02*
X395250D01*
X389750D02*
Y955250D01*
X395250D01*
X389760Y947750D02*
Y952250D01*
X389765Y947750D01*
X395235Y952250D02*
X395240Y947750D01*
X395235Y952250D02*
X395240Y947750D01*
X459260Y1180251D02*
X459264Y1159750D01*
X459260Y1180251D02*
X459264Y1159750D01*
X475735Y1180251D02*
X475740Y1159750D01*
Y1180251D01*
X459250Y1153750D02*
X475750D01*
Y1159750D01*
X459250D02*
X475750D01*
X459250Y1153750D02*
Y1159750D01*
X475750Y1180251D02*
Y1186251D01*
X459250Y1180251D02*
X475750D01*
X459250Y1186251D02*
X475750D01*
X459250Y1180251D02*
Y1186251D01*
X317250Y982750D02*
X320250D01*
Y977250D02*
Y982750D01*
X317250Y977250D02*
Y982750D01*
Y977250D02*
X320250D01*
X309750Y982750D02*
X312750D01*
Y977250D02*
Y982750D01*
X309750Y977250D02*
X312750D01*
X309750D02*
Y982750D01*
X312750Y977260D02*
X317250D01*
X312750D02*
X317250Y977265D01*
X312750Y982735D02*
X317250Y982740D01*
X312750Y982735D02*
X317250Y982740D01*
X309750Y962250D02*
X312750D01*
X309750D02*
Y967750D01*
X312750Y962250D02*
Y967750D01*
X309750D02*
X312750D01*
X317250Y962250D02*
X320250D01*
X317250D02*
Y967750D01*
X320250D01*
Y962250D02*
Y967750D01*
X312750Y967740D02*
X317250D01*
X312750Y967735D02*
X317250Y967740D01*
X312750Y962260D02*
X317250Y962265D01*
X312750Y962260D02*
X317250Y962265D01*
X474750Y977250D02*
Y982750D01*
X476750Y977250D02*
Y982750D01*
X474750D02*
X476750D01*
X474750Y977250D02*
X476750D01*
X483250Y982750D02*
X485250D01*
X483250Y977250D02*
X485250D01*
Y982750D01*
X483250Y977250D02*
Y982750D01*
X476750Y982550D02*
X483250D01*
X476750Y977450D02*
X483250D01*
X567250Y1067750D02*
X572750D01*
X567250Y1065750D02*
X572750D01*
Y1067750D01*
X567250Y1065750D02*
Y1067750D01*
X572750Y1057250D02*
Y1059250D01*
X567250Y1057250D02*
Y1059250D01*
Y1057250D02*
X572750D01*
X567250Y1059250D02*
X572750D01*
X572550D02*
Y1065750D01*
X567450Y1059250D02*
Y1065750D01*
X450249Y1157250D02*
Y1162750D01*
X448250Y1157250D02*
Y1162750D01*
Y1157250D02*
X450249D01*
X448250Y1162750D02*
X450249D01*
X439750Y1157250D02*
X441750D01*
X439750Y1162750D02*
X441750D01*
X439750Y1157250D02*
Y1162750D01*
X441750Y1157250D02*
Y1162750D01*
Y1157450D02*
X448250D01*
X441750Y1162550D02*
X448250D01*
X437250Y976760D02*
X457750Y976765D01*
X437250Y976760D02*
X457750Y976765D01*
X437250Y993235D02*
X457750Y993240D01*
X437250D02*
X457750D01*
X463750Y976750D02*
Y993250D01*
X457750D02*
X463750D01*
X457750Y976750D02*
Y993250D01*
Y976750D02*
X463750D01*
X431250Y993250D02*
X437250D01*
Y976750D02*
Y993250D01*
X431250Y976750D02*
Y993250D01*
Y976750D02*
X437250D01*
X404750Y1157250D02*
Y1162750D01*
X406750Y1157250D02*
Y1162750D01*
X404750D02*
X406750D01*
X404750Y1157250D02*
X406750D01*
X413250Y1162750D02*
X415250D01*
X413250Y1157250D02*
X415250D01*
Y1162750D01*
X413250Y1157250D02*
Y1162750D01*
X406750Y1162550D02*
X413250D01*
X406750Y1157450D02*
X413250D01*
X407250Y1139750D02*
Y1145250D01*
X409250Y1139750D02*
Y1145250D01*
X407250D02*
X409250D01*
X407250Y1139750D02*
X409250D01*
X415750Y1145250D02*
X417750D01*
X415750Y1139750D02*
X417750D01*
Y1145250D01*
X415750Y1139750D02*
Y1145250D01*
X409250Y1145050D02*
X415750D01*
X409250Y1139950D02*
X415750D01*
X406992Y1120184D02*
Y1125684D01*
X408992Y1120184D02*
Y1125684D01*
X406992D02*
X408992D01*
X406992Y1120184D02*
X408992D01*
X415492Y1125684D02*
X417492D01*
X415492Y1120184D02*
X417492D01*
Y1125684D01*
X415492Y1120184D02*
Y1125684D01*
X408992Y1125484D02*
X415492D01*
X408992Y1120384D02*
X415492D01*
X309760Y1077250D02*
X309765Y1072750D01*
X309760Y1077250D02*
X309765Y1072750D01*
X315235Y1077250D02*
X315240Y1072750D01*
Y1077250D01*
X309749Y1069750D02*
X315250D01*
Y1072750D01*
X309749D02*
X315250D01*
X309749Y1069750D02*
Y1072750D01*
X315250Y1077250D02*
Y1080250D01*
X309749Y1077250D02*
X315250D01*
X309749Y1080250D02*
X315250D01*
X309749Y1077250D02*
Y1080250D01*
X547250Y1009750D02*
Y1015250D01*
X549250Y1009750D02*
Y1015250D01*
X547250D02*
X549250D01*
X547250Y1009750D02*
X549250D01*
X555751Y1015250D02*
X557751D01*
X555751Y1009750D02*
X557751D01*
Y1015250D01*
X555751Y1009750D02*
Y1015250D01*
X549250Y1015050D02*
X555751D01*
X549250Y1009950D02*
X555751D01*
X324500Y925000D02*
X326000D01*
X324500Y932500D02*
X326000D01*
X399000Y925000D02*
X400500D01*
X399000Y932500D02*
X400500D01*
X324500Y925000D02*
Y950000D01*
X326000D01*
X324500Y942500D02*
X326000D01*
X400500Y925000D02*
Y950000D01*
X399000D02*
X400500D01*
X399000Y942500D02*
X400500D01*
X399200Y932500D02*
Y942500D01*
X325800Y932500D02*
Y942500D01*
X326000Y957250D02*
X328490Y954761D01*
X326000Y917750D02*
Y957250D01*
Y917750D02*
X328490Y920239D01*
Y954761D01*
X382510Y954768D02*
X391568D01*
X397206Y955457D01*
X399000Y957250D01*
X326000D02*
X399000D01*
X328490Y954761D02*
X382510Y954768D01*
Y943253D02*
Y954768D01*
X328490Y920239D02*
X382510Y920232D01*
X326000Y917750D02*
X399000D01*
X397206Y919544D02*
X399000Y917750D01*
X391568Y920232D02*
X397206Y919544D01*
X382510Y920232D02*
X391568D01*
X382510D02*
Y931747D01*
X391511D02*
Y943253D01*
X382510Y931747D02*
X391568D01*
X382510Y943253D02*
X391568D01*
Y920232D02*
Y931747D01*
X397206Y919544D02*
Y955457D01*
X391568Y943253D02*
Y954768D01*
X399000Y917750D02*
Y957250D01*
X566000Y1008000D02*
X584000D01*
X566000Y1013000D02*
X584000D01*
X566000Y1008000D02*
Y1013000D01*
X584000Y1008000D02*
Y1013000D01*
X566000Y1042001D02*
X584000D01*
X566000Y1037000D02*
X584000D01*
X566000D02*
Y1042001D01*
X584000Y1037000D02*
Y1042001D01*
X566200Y1013000D02*
Y1037000D01*
X583800Y1013000D02*
Y1037000D01*
X489948Y1056276D02*
Y1074276D01*
X484948Y1056276D02*
Y1074276D01*
X489948D01*
X484948Y1056276D02*
X489948D01*
X455947D02*
Y1074276D01*
X460947Y1056276D02*
Y1074276D01*
X455947D02*
X460947D01*
X455947Y1056276D02*
X460947D01*
Y1074076D02*
X484948D01*
X460947Y1056476D02*
X484948D01*
X265500Y1048500D02*
Y1066500D01*
X270500Y1048500D02*
Y1066500D01*
X265500D02*
X270500D01*
X265500Y1048500D02*
X270500D01*
X299500D02*
Y1066500D01*
X294500Y1048500D02*
Y1066500D01*
X299500D01*
X294500Y1048500D02*
X299500D01*
X270500Y1066300D02*
X294500D01*
X270500Y1048700D02*
X294500D01*
D33*
X336500Y1133500D02*
G03*
X336500Y1133500I-5000J0D01*
G01*
X536000Y1111000D02*
G03*
X536000Y1111000I-5000J0D01*
G01*
X385000Y1069000D02*
G03*
X385000Y1069000I-5000J0D01*
G01*
X421750Y1091000D02*
Y1154000D01*
X453250Y1091000D02*
Y1154000D01*
X421750D02*
X453250D01*
X421750Y1091000D02*
X453250D01*
X374250Y1091000D02*
Y1154000D01*
X405750Y1091000D02*
Y1154000D01*
X374250D02*
X405750D01*
X374250Y1091000D02*
X405750D01*
X322500Y1092500D02*
Y1142500D01*
X372500Y1092500D02*
Y1142500D01*
X322500D02*
X372500D01*
X322500Y1092500D02*
X372500D01*
X440000Y1020000D02*
Y1120000D01*
X540000Y1020000D02*
Y1120000D01*
X440000Y1020000D02*
X540000D01*
X440000Y1120000D02*
X540000D01*
X358000Y1047000D02*
X389000D01*
X358000Y1078000D02*
X389000D01*
X358000Y1047000D02*
Y1078000D01*
X389000Y1047000D02*
Y1078000D01*
D34*
X545400Y930000D02*
D03*
X520000D02*
D03*
X494600D02*
D03*
X387101Y1180000D02*
D03*
X412501D02*
D03*
X437901D02*
D03*
D35*
X490000Y870000D02*
D03*
X515000D02*
D03*
X540000D02*
D03*
X282500Y976700D02*
D03*
Y1002100D02*
D03*
Y1027500D02*
D03*
Y951300D02*
D03*
X650000Y870000D02*
D03*
Y895400D02*
D03*
X610000Y870000D02*
D03*
X584600D02*
D03*
X652500Y1075000D02*
D03*
Y1100000D02*
D03*
Y1125000D02*
D03*
X650000Y1010000D02*
D03*
Y1035400D02*
D03*
Y940000D02*
D03*
Y965400D02*
D03*
X272500Y1085000D02*
D03*
Y1110400D02*
D03*
X435800Y1237500D02*
D03*
X410400D02*
D03*
X385000D02*
D03*
X461200D02*
D03*
D36*
X612500Y1132150D02*
D03*
Y1094050D02*
D03*
Y1055950D02*
D03*
D37*
Y1017850D02*
D03*
D38*
X240000Y840000D02*
D03*
X670000D02*
D03*
X668274Y1269492D02*
D03*
X240000Y1270000D02*
D03*
D39*
X349900Y1257000D02*
D03*
X260100D02*
D03*
X346300Y1197500D02*
D03*
X263700D02*
D03*
D40*
X277000Y1191500D02*
D03*
X333000D02*
D03*
X281000Y1198500D02*
D03*
X329000D02*
D03*
X321000D02*
D03*
X289000D02*
D03*
X297000D02*
D03*
X313000D02*
D03*
X293000Y1191500D02*
D03*
X317000D02*
D03*
X309000D02*
D03*
X301000D02*
D03*
X269000Y1185000D02*
D03*
D41*
X341000D02*
D03*
D42*
X344600Y1022700D02*
D03*
Y997300D02*
D03*
X370000Y1022700D02*
D03*
Y997300D02*
D03*
X395400Y1022700D02*
D03*
D43*
Y997300D02*
D03*
D44*
X444200Y870000D02*
D03*
X334200D02*
D03*
D45*
X393400D02*
D03*
X283400D02*
D03*
D46*
X535000Y1235000D02*
D03*
D47*
X577001D02*
D03*
X619001D02*
D03*
X535000Y1192999D02*
D03*
X577001D02*
D03*
X619001D02*
D03*
M02*
