G04 Layer_Physical_Order=2*
G04 Layer_Color=32768*
%FSLAX44Y44*%
%MOMM*%
G71*
G01*
G75*
%ADD32C,0.0500*%
%ADD33C,0.1000*%
%ADD49C,1.0160*%
%ADD50C,2.4130*%
%ADD51C,2.1160*%
%ADD52C,2.3368*%
%ADD53C,2.6160*%
%ADD54O,1.5160X2.1160*%
%ADD55C,1.4160*%
%ADD56C,1.6660*%
%ADD57O,1.9660X1.6660*%
%ADD58C,2.1590*%
%ADD59C,2.2160*%
%ADD60C,2.4160*%
%ADD61C,2.1360*%
%ADD62C,2.8160*%
%ADD63C,1.3462*%
D32*
X610500Y1084450D02*
G03*
X608400Y1086550I-2100J0D01*
G01*
Y1063450D02*
G03*
X610500Y1065550I0J2100D01*
G01*
Y1122550D02*
G03*
X608400Y1124650I-2100J0D01*
G01*
X610500Y1008250D02*
G03*
X608400Y1010350I-2100J0D01*
G01*
X610500Y1046350D02*
G03*
X608400Y1048450I-2100J0D01*
G01*
Y1101550D02*
G03*
X610500Y1103650I0J2100D01*
G01*
X608400Y1139650D02*
G03*
X610500Y1141750I0J2100D01*
G01*
X608400Y1025350D02*
G03*
X610500Y1027450I0J2100D01*
G01*
X458377Y920000D02*
G03*
X458377Y920000I-3377J0D01*
G01*
X348377D02*
G03*
X348377Y920000I-3377J0D01*
G01*
X457000Y901000D02*
Y919000D01*
X452000Y901000D02*
Y919000D01*
X457000D01*
X452000Y901000D02*
X457000D01*
X423000D02*
Y919000D01*
X428000Y901000D02*
Y919000D01*
X423000D02*
X428000D01*
X423000Y901000D02*
X428000D01*
Y918800D02*
X452000D01*
X428000Y901200D02*
X452000D01*
X552000Y962500D02*
X553500D01*
X552000Y970000D02*
X553500D01*
X626500Y962500D02*
X628000D01*
X626500Y970000D02*
X628000D01*
X552000Y962500D02*
Y987500D01*
X553500D01*
X552000Y980000D02*
X553500D01*
X628000Y962500D02*
Y987500D01*
X626500D02*
X628000D01*
X626500Y980000D02*
X628000D01*
X626700Y970000D02*
Y980000D01*
X553300Y970000D02*
Y980000D01*
X553500Y994750D02*
X555990Y992260D01*
X553500Y955250D02*
Y994750D01*
Y955250D02*
X555990Y957739D01*
Y992260D01*
X610010Y992267D02*
X619068D01*
X624706Y992956D01*
X626500Y994750D01*
X553500D02*
X626500D01*
X555990Y992260D02*
X610010Y992267D01*
Y980753D02*
Y992267D01*
X555990Y957739D02*
X610010Y957732D01*
X553500Y955250D02*
X626500D01*
X624706Y957044D02*
X626500Y955250D01*
X619068Y957732D02*
X624706Y957044D01*
X610010Y957732D02*
X619068D01*
X610010D02*
Y969247D01*
X619011D02*
Y980753D01*
X610010Y969247D02*
X619068D01*
X610010Y980753D02*
X619068D01*
Y957732D02*
Y969247D01*
X624706Y957044D02*
Y992956D01*
X619068Y980753D02*
Y992267D01*
X626500Y955250D02*
Y994750D01*
X618500Y1119150D02*
Y1145150D01*
X600500Y1025350D02*
X608400D01*
X600500Y1063450D02*
X608400D01*
X610500Y1119150D02*
X618500D01*
X620600Y1117050D01*
X600500Y1124650D02*
X608400D01*
X610500Y1107050D02*
X618500D01*
X610500Y1103650D02*
Y1107050D01*
X608400Y1109150D02*
X610500Y1107050D01*
Y1004850D02*
X618500D01*
X600500Y1101550D02*
X608400D01*
X610500Y1042950D02*
X618500D01*
X600500Y1010350D02*
X608400D01*
X600500Y1139650D02*
X608400D01*
X618500Y1004850D02*
Y1030850D01*
Y1004850D02*
X620600Y1002750D01*
X618500Y1081050D02*
Y1107050D01*
X620600Y1109150D01*
X610500Y1030850D02*
X618500D01*
X620600Y1032950D01*
X610500Y1027450D02*
Y1030850D01*
X608400Y1032950D02*
X610500Y1030850D01*
Y1119150D02*
Y1122550D01*
X608400Y1117050D02*
X610500Y1119150D01*
X618500Y1042950D02*
Y1068950D01*
Y1042950D02*
X620600Y1040850D01*
X600500Y1048450D02*
X608400D01*
X610500Y1004850D02*
Y1008250D01*
X608400Y1002750D02*
X610500Y1004850D01*
Y1141750D02*
Y1145150D01*
X600500Y1086550D02*
X608400D01*
X610500Y1042950D02*
Y1046350D01*
X608400Y1040850D02*
X610500Y1042950D01*
Y1081050D02*
Y1084450D01*
Y1081050D02*
X618500D01*
X608400Y1078950D02*
X610500Y1081050D01*
X618500D02*
X620600Y1078950D01*
X610500Y1068950D02*
X618500D01*
X620600Y1071050D01*
X610500Y1065550D02*
Y1068950D01*
X608400Y1071050D02*
X610500Y1068950D01*
X608400Y1002750D02*
X620600D01*
X600500Y993750D02*
Y1156250D01*
Y993750D02*
X679500D01*
X687500Y987350D01*
X679500Y1156250D02*
X687500Y1162650D01*
X600500Y1156250D02*
X679500D01*
X620600Y1117050D02*
Y1147250D01*
X608400Y1117050D02*
X620600D01*
X608400Y1109150D02*
X620600D01*
Y1078950D02*
Y1109150D01*
X608400Y1078950D02*
X620600D01*
X608400Y1071050D02*
X620600D01*
Y1040850D02*
Y1071050D01*
X608400Y1040850D02*
X620600D01*
X608400Y1032950D02*
X620600D01*
Y1002750D02*
Y1032950D01*
X610500Y1145150D02*
X618500D01*
X620600Y1147250D01*
X608400D02*
X620600D01*
X608400D02*
X610500Y1145150D01*
X608400Y1078950D02*
Y1086550D01*
X600500Y1084450D02*
X610500D01*
X600500Y1065550D02*
X610500D01*
X608400Y1063450D02*
Y1071050D01*
Y1117050D02*
Y1124650D01*
X600500Y1122550D02*
X610500D01*
X608400Y1002750D02*
Y1010350D01*
X600500Y1008250D02*
X610500D01*
X608400Y1040850D02*
Y1048450D01*
X600500Y1046350D02*
X610500D01*
X600500Y1103650D02*
X610500D01*
X608400Y1101550D02*
Y1109150D01*
X600500Y1141750D02*
X610500D01*
X608400Y1139650D02*
Y1147250D01*
X600500Y1027450D02*
X610500D01*
X608400Y1025350D02*
Y1032950D01*
X692500Y987350D02*
Y1162650D01*
X687500Y1020350D02*
Y1162650D01*
X692500D01*
X682500Y1015350D02*
Y1020350D01*
Y1015350D02*
X687500D01*
Y987350D02*
Y1015350D01*
Y987350D02*
X692500D01*
X682500Y1020350D02*
X687500D01*
X566000Y1133000D02*
X584000D01*
X566000Y1138000D02*
X584000D01*
X566000Y1133000D02*
Y1138000D01*
X584000Y1133000D02*
Y1138000D01*
X566000Y1167000D02*
X584000D01*
X566000Y1162000D02*
X584000D01*
X566000D02*
Y1167000D01*
X584000Y1162000D02*
Y1167000D01*
X566200Y1138000D02*
Y1162000D01*
X583801Y1138000D02*
Y1162000D01*
X317250Y995250D02*
X320250D01*
Y989750D02*
Y995250D01*
X317250Y989750D02*
Y995250D01*
Y989750D02*
X320250D01*
X309750Y995250D02*
X312750D01*
Y989750D02*
Y995250D01*
X309750Y989750D02*
X312750D01*
X309750D02*
Y995250D01*
X312750Y989760D02*
X317250D01*
X312750D02*
X317250Y989765D01*
X312750Y995236D02*
X317250Y995240D01*
X312750Y995236D02*
X317250Y995240D01*
X537000Y971000D02*
Y989000D01*
X532000Y971000D02*
Y989000D01*
Y971000D02*
X537000D01*
X532000Y989000D02*
X537000D01*
X503000Y971000D02*
Y989000D01*
X508000Y971000D02*
Y989000D01*
X503000Y971000D02*
X508000D01*
X503000Y989000D02*
X508000D01*
Y971200D02*
X532000D01*
X508000Y988800D02*
X532000D01*
X514240Y1054118D02*
X532240D01*
X514240Y1059118D02*
X532240D01*
Y1054118D02*
Y1059118D01*
X514240Y1054118D02*
Y1059118D01*
Y1088118D02*
X532240D01*
X514240Y1083118D02*
X532240D01*
Y1088118D01*
X514240Y1083118D02*
Y1088118D01*
X532040Y1059118D02*
Y1083118D01*
X514440Y1059118D02*
Y1083118D01*
X468500Y1207000D02*
X486500D01*
X468500Y1202000D02*
X486500D01*
X468500D02*
Y1207000D01*
X486500Y1202000D02*
Y1207000D01*
X468500Y1173000D02*
X486500D01*
X468500Y1178000D02*
X486500D01*
X468500Y1173000D02*
Y1178000D01*
X486500Y1173000D02*
Y1178000D01*
X468700D02*
Y1202000D01*
X486300Y1178000D02*
Y1202000D01*
X329750Y1069750D02*
Y1075250D01*
X331750Y1069750D02*
Y1075250D01*
X329750Y1069750D02*
X331750D01*
X329750Y1075250D02*
X331750D01*
X338250Y1069750D02*
X340250D01*
X338250Y1075250D02*
X340250D01*
Y1069750D02*
Y1075250D01*
X338250Y1069750D02*
Y1075250D01*
X331750Y1069950D02*
X338250D01*
X331750Y1075050D02*
X338250D01*
X292250Y1090250D02*
X297750D01*
X292250Y1088250D02*
X297750D01*
Y1090250D01*
X292250Y1088250D02*
Y1090250D01*
X297750Y1079750D02*
Y1081750D01*
X292250Y1079750D02*
Y1081750D01*
Y1079750D02*
X297750D01*
X292250Y1081750D02*
X297750D01*
X297550D02*
Y1088250D01*
X292451Y1081750D02*
Y1088250D01*
X500500Y966000D02*
Y984000D01*
X505500Y966000D02*
Y984000D01*
X500500Y966000D02*
X505500D01*
X500500Y984000D02*
X505500D01*
X534500Y966000D02*
Y984000D01*
X529500Y966000D02*
Y984000D01*
Y966000D02*
X534500D01*
X529500Y984000D02*
X534500D01*
X505500Y966200D02*
X529500D01*
X505500Y983800D02*
X529500D01*
X271562Y1157165D02*
X276062Y1157170D01*
X271562Y1157165D02*
X276062Y1157170D01*
X271562Y1151690D02*
X276062Y1151695D01*
X271562Y1151690D02*
X276062D01*
X268562Y1151680D02*
Y1157180D01*
Y1151680D02*
X271562D01*
Y1157180D01*
X268562D02*
X271562D01*
X276062Y1151680D02*
X279062D01*
X276062D02*
Y1157180D01*
X279062Y1151680D02*
Y1157180D01*
X276062D02*
X279062D01*
X430500Y1203500D02*
Y1221500D01*
X435500Y1203500D02*
Y1221500D01*
X430500D02*
X435500D01*
X430500Y1203500D02*
X435500D01*
X464500D02*
Y1221500D01*
X459500Y1203500D02*
Y1221500D01*
X464500D01*
X459500Y1203500D02*
X464500D01*
X435500Y1221300D02*
X459500D01*
X435500Y1203700D02*
X459500D01*
X460031Y901425D02*
Y938575D01*
X464500Y939372D01*
Y900075D02*
Y939500D01*
X460031Y901425D02*
X464500Y900628D01*
X415500Y900075D02*
X416425Y899150D01*
X415500Y900075D02*
Y939500D01*
Y900628D02*
X419969Y901425D01*
X460031D01*
X463575Y899150D02*
X464500Y900075D01*
X454000Y899150D02*
X463575D01*
X446000Y899724D02*
X454000D01*
X434000Y899150D02*
X446000D01*
X426000Y899724D02*
X434000D01*
X416425Y899150D02*
X426000D01*
X415500Y939372D02*
X419969Y938575D01*
Y901425D02*
Y938575D01*
X415500Y939500D02*
X464500D01*
X419969Y938575D02*
X460031D01*
X418850Y942166D02*
X423050D01*
X418850Y945064D02*
X423050D01*
Y939500D02*
Y950000D01*
X418850Y939500D02*
Y950000D01*
X431550Y942166D02*
X435750D01*
X431550Y939500D02*
Y950000D01*
Y945064D02*
X435750D01*
Y939500D02*
Y950000D01*
X444250Y942166D02*
X448450D01*
X444250Y945064D02*
X448450D01*
X444250Y939500D02*
Y950000D01*
X448450Y939500D02*
Y950000D01*
X456950Y942166D02*
X461150D01*
X456950Y945064D02*
X461150D01*
Y939500D02*
Y950000D01*
X456950Y939500D02*
Y950000D01*
X418850Y945432D02*
X423050D01*
X431550D02*
X435750D01*
X444250D02*
X448450D01*
X456950D02*
X461150D01*
X418850Y946311D02*
X423050D01*
X431550D02*
X435750D01*
X444250D02*
X448450D01*
X456950D02*
X461150D01*
X434000Y899000D02*
Y899724D01*
Y899000D02*
X446000D01*
Y899724D01*
X454000Y897000D02*
Y899724D01*
Y897000D02*
X461000D01*
Y894500D02*
Y897000D01*
X456500Y890000D02*
X461000Y894500D01*
X423500Y890000D02*
X456500D01*
X419000Y894500D02*
X423500Y890000D01*
X419000Y894500D02*
Y897000D01*
X426000D02*
Y899724D01*
X419000Y897000D02*
X426000D01*
X418850Y950000D02*
X423050D01*
X431550D02*
X435750D01*
X444250D02*
X448450D01*
X456950D02*
X461150D01*
X350031Y901425D02*
Y938575D01*
X354500Y939372D01*
Y900075D02*
Y939500D01*
X350031Y901425D02*
X354500Y900628D01*
X305500Y900075D02*
X306425Y899150D01*
X305500Y900075D02*
Y939500D01*
Y900628D02*
X309969Y901425D01*
X350031D01*
X353576Y899150D02*
X354500Y900075D01*
X344000Y899150D02*
X353576D01*
X336000Y899724D02*
X344000D01*
X324000Y899150D02*
X336000D01*
X316000Y899724D02*
X324000D01*
X306425Y899150D02*
X316000D01*
X305500Y939372D02*
X309969Y938575D01*
Y901425D02*
Y938575D01*
X305500Y939500D02*
X354500D01*
X309969Y938575D02*
X350031D01*
X308850Y942166D02*
X313050D01*
X308850Y945064D02*
X313050D01*
Y939500D02*
Y950000D01*
X308850Y939500D02*
Y950000D01*
X321550Y942166D02*
X325750D01*
X321550Y939500D02*
Y950000D01*
Y945064D02*
X325750D01*
Y939500D02*
Y950000D01*
X334250Y942166D02*
X338450D01*
X334250Y945064D02*
X338450D01*
X334250Y939500D02*
Y950000D01*
X338450Y939500D02*
Y950000D01*
X346950Y942166D02*
X351150D01*
X346950Y945064D02*
X351150D01*
Y939500D02*
Y950000D01*
X346950Y939500D02*
Y950000D01*
X308850Y945432D02*
X313050D01*
X321550D02*
X325750D01*
X334250D02*
X338450D01*
X346950D02*
X351150D01*
X308850Y946311D02*
X313050D01*
X321550D02*
X325750D01*
X334250D02*
X338450D01*
X346950D02*
X351150D01*
X324000Y899000D02*
Y899724D01*
Y899000D02*
X336000D01*
Y899724D01*
X344000Y897000D02*
Y899724D01*
Y897000D02*
X351000D01*
Y894500D02*
Y897000D01*
X346500Y890000D02*
X351000Y894500D01*
X313500Y890000D02*
X346500D01*
X309000Y894500D02*
X313500Y890000D01*
X309000Y894500D02*
Y897000D01*
X316000D02*
Y899724D01*
X309000Y897000D02*
X316000D01*
X308850Y950000D02*
X313050D01*
X321550D02*
X325750D01*
X334250D02*
X338450D01*
X346950D02*
X351150D01*
X616000Y947000D02*
X634000D01*
X616000Y942000D02*
X634000D01*
Y947000D01*
X616000Y942000D02*
Y947000D01*
Y913000D02*
X634000D01*
X616000Y918000D02*
X634000D01*
Y913000D02*
Y918000D01*
X616000Y913000D02*
Y918000D01*
X633800D02*
Y942000D01*
X616200Y918000D02*
Y942000D01*
X591000Y947000D02*
X609000D01*
X591000Y942000D02*
X609000D01*
Y947000D01*
X591000Y942000D02*
Y947000D01*
Y913000D02*
X609000D01*
X591000Y918000D02*
X609000D01*
Y913000D02*
Y918000D01*
X591000Y913000D02*
Y918000D01*
X608800D02*
Y942000D01*
X591200Y918000D02*
Y942000D01*
X295500Y1213500D02*
Y1231500D01*
X300500Y1213500D02*
Y1231500D01*
X295500D02*
X300500D01*
X295500Y1213500D02*
X300500D01*
X329500D02*
Y1231500D01*
X324500Y1213500D02*
Y1231500D01*
X329500D01*
X324500Y1213500D02*
X329500D01*
X300500Y1231300D02*
X324500D01*
X300500Y1213700D02*
X324500D01*
X541000Y1167000D02*
X559000D01*
X541000Y1162000D02*
X559000D01*
Y1167000D01*
X541000Y1162000D02*
Y1167000D01*
Y1133000D02*
X559000D01*
X541000Y1138000D02*
X559000D01*
Y1133000D02*
Y1138000D01*
X541000Y1133000D02*
Y1138000D01*
X558800D02*
Y1162000D01*
X541200Y1138000D02*
Y1162000D01*
X271308Y1139385D02*
X275808Y1139390D01*
X271308Y1139385D02*
X275808Y1139390D01*
X271308Y1133910D02*
X275808Y1133915D01*
X271308Y1133910D02*
X275808D01*
X268308Y1133900D02*
Y1139400D01*
Y1133900D02*
X271308D01*
Y1139400D01*
X268308D02*
X271308D01*
X275808Y1133900D02*
X278808D01*
X275808D02*
Y1139400D01*
X278808Y1133900D02*
Y1139400D01*
X275808D02*
X278808D01*
X389750Y972250D02*
Y975250D01*
X395250D01*
X389750Y972250D02*
X395250D01*
Y975250D01*
X389750Y964750D02*
Y967750D01*
X395250D01*
Y964750D02*
Y967750D01*
X389750Y964750D02*
X395250D01*
X395240Y967750D02*
Y972250D01*
X395235D02*
X395240Y967750D01*
X389760Y972250D02*
X389765Y967750D01*
X389760Y972250D02*
X389765Y967750D01*
X404750Y977250D02*
X407750D01*
X404750D02*
Y982750D01*
X407750Y977250D02*
Y982750D01*
X404750D02*
X407750D01*
X412250Y977250D02*
X415250D01*
X412250D02*
Y982750D01*
X415250D01*
Y977250D02*
Y982750D01*
X407750Y982740D02*
X412250D01*
X407750Y982735D02*
X412250Y982740D01*
X407750Y977260D02*
X412250Y977265D01*
X407750Y977260D02*
X412250Y977265D01*
X395250Y944750D02*
Y947750D01*
X389750Y944750D02*
X395250D01*
X389750Y947750D02*
X395250D01*
X389750Y944750D02*
Y947750D01*
X395250Y952250D02*
Y955250D01*
X389750Y952250D02*
X395250D01*
X389750D02*
Y955250D01*
X395250D01*
X389760Y947750D02*
Y952250D01*
X389765Y947750D01*
X395235Y952250D02*
X395240Y947750D01*
X395235Y952250D02*
X395240Y947750D01*
X459260Y1180251D02*
X459264Y1159750D01*
X459260Y1180251D02*
X459264Y1159750D01*
X475735Y1180251D02*
X475740Y1159750D01*
Y1180251D01*
X459250Y1153750D02*
X475750D01*
Y1159750D01*
X459250D02*
X475750D01*
X459250Y1153750D02*
Y1159750D01*
X475750Y1180251D02*
Y1186251D01*
X459250Y1180251D02*
X475750D01*
X459250Y1186251D02*
X475750D01*
X459250Y1180251D02*
Y1186251D01*
X317250Y982750D02*
X320250D01*
Y977250D02*
Y982750D01*
X317250Y977250D02*
Y982750D01*
Y977250D02*
X320250D01*
X309750Y982750D02*
X312750D01*
Y977250D02*
Y982750D01*
X309750Y977250D02*
X312750D01*
X309750D02*
Y982750D01*
X312750Y977260D02*
X317250D01*
X312750D02*
X317250Y977265D01*
X312750Y982735D02*
X317250Y982740D01*
X312750Y982735D02*
X317250Y982740D01*
X309750Y962250D02*
X312750D01*
X309750D02*
Y967750D01*
X312750Y962250D02*
Y967750D01*
X309750D02*
X312750D01*
X317250Y962250D02*
X320250D01*
X317250D02*
Y967750D01*
X320250D01*
Y962250D02*
Y967750D01*
X312750Y967740D02*
X317250D01*
X312750Y967735D02*
X317250Y967740D01*
X312750Y962260D02*
X317250Y962265D01*
X312750Y962260D02*
X317250Y962265D01*
X474750Y977250D02*
Y982750D01*
X476750Y977250D02*
Y982750D01*
X474750D02*
X476750D01*
X474750Y977250D02*
X476750D01*
X483250Y982750D02*
X485250D01*
X483250Y977250D02*
X485250D01*
Y982750D01*
X483250Y977250D02*
Y982750D01*
X476750Y982550D02*
X483250D01*
X476750Y977450D02*
X483250D01*
X567250Y1067750D02*
X572750D01*
X567250Y1065750D02*
X572750D01*
Y1067750D01*
X567250Y1065750D02*
Y1067750D01*
X572750Y1057250D02*
Y1059250D01*
X567250Y1057250D02*
Y1059250D01*
Y1057250D02*
X572750D01*
X567250Y1059250D02*
X572750D01*
X572550D02*
Y1065750D01*
X567450Y1059250D02*
Y1065750D01*
X450249Y1157250D02*
Y1162750D01*
X448250Y1157250D02*
Y1162750D01*
Y1157250D02*
X450249D01*
X448250Y1162750D02*
X450249D01*
X439750Y1157250D02*
X441750D01*
X439750Y1162750D02*
X441750D01*
X439750Y1157250D02*
Y1162750D01*
X441750Y1157250D02*
Y1162750D01*
Y1157450D02*
X448250D01*
X441750Y1162550D02*
X448250D01*
X437250Y976760D02*
X457750Y976765D01*
X437250Y976760D02*
X457750Y976765D01*
X437250Y993235D02*
X457750Y993240D01*
X437250D02*
X457750D01*
X463750Y976750D02*
Y993250D01*
X457750D02*
X463750D01*
X457750Y976750D02*
Y993250D01*
Y976750D02*
X463750D01*
X431250Y993250D02*
X437250D01*
Y976750D02*
Y993250D01*
X431250Y976750D02*
Y993250D01*
Y976750D02*
X437250D01*
X404750Y1157250D02*
Y1162750D01*
X406750Y1157250D02*
Y1162750D01*
X404750D02*
X406750D01*
X404750Y1157250D02*
X406750D01*
X413250Y1162750D02*
X415250D01*
X413250Y1157250D02*
X415250D01*
Y1162750D01*
X413250Y1157250D02*
Y1162750D01*
X406750Y1162550D02*
X413250D01*
X406750Y1157450D02*
X413250D01*
X407250Y1139750D02*
Y1145250D01*
X409250Y1139750D02*
Y1145250D01*
X407250D02*
X409250D01*
X407250Y1139750D02*
X409250D01*
X415750Y1145250D02*
X417750D01*
X415750Y1139750D02*
X417750D01*
Y1145250D01*
X415750Y1139750D02*
Y1145250D01*
X409250Y1145050D02*
X415750D01*
X409250Y1139950D02*
X415750D01*
X406992Y1120184D02*
Y1125684D01*
X408992Y1120184D02*
Y1125684D01*
X406992D02*
X408992D01*
X406992Y1120184D02*
X408992D01*
X415492Y1125684D02*
X417492D01*
X415492Y1120184D02*
X417492D01*
Y1125684D01*
X415492Y1120184D02*
Y1125684D01*
X408992Y1125484D02*
X415492D01*
X408992Y1120384D02*
X415492D01*
X309760Y1077250D02*
X309765Y1072750D01*
X309760Y1077250D02*
X309765Y1072750D01*
X315235Y1077250D02*
X315240Y1072750D01*
Y1077250D01*
X309749Y1069750D02*
X315250D01*
Y1072750D01*
X309749D02*
X315250D01*
X309749Y1069750D02*
Y1072750D01*
X315250Y1077250D02*
Y1080250D01*
X309749Y1077250D02*
X315250D01*
X309749Y1080250D02*
X315250D01*
X309749Y1077250D02*
Y1080250D01*
X547250Y1009750D02*
Y1015250D01*
X549250Y1009750D02*
Y1015250D01*
X547250D02*
X549250D01*
X547250Y1009750D02*
X549250D01*
X555751Y1015250D02*
X557751D01*
X555751Y1009750D02*
X557751D01*
Y1015250D01*
X555751Y1009750D02*
Y1015250D01*
X549250Y1015050D02*
X555751D01*
X549250Y1009950D02*
X555751D01*
X324500Y925000D02*
X326000D01*
X324500Y932500D02*
X326000D01*
X399000Y925000D02*
X400500D01*
X399000Y932500D02*
X400500D01*
X324500Y925000D02*
Y950000D01*
X326000D01*
X324500Y942500D02*
X326000D01*
X400500Y925000D02*
Y950000D01*
X399000D02*
X400500D01*
X399000Y942500D02*
X400500D01*
X399200Y932500D02*
Y942500D01*
X325800Y932500D02*
Y942500D01*
X326000Y957250D02*
X328490Y954761D01*
X326000Y917750D02*
Y957250D01*
Y917750D02*
X328490Y920239D01*
Y954761D01*
X382510Y954768D02*
X391568D01*
X397206Y955457D01*
X399000Y957250D01*
X326000D02*
X399000D01*
X328490Y954761D02*
X382510Y954768D01*
Y943253D02*
Y954768D01*
X328490Y920239D02*
X382510Y920232D01*
X326000Y917750D02*
X399000D01*
X397206Y919544D02*
X399000Y917750D01*
X391568Y920232D02*
X397206Y919544D01*
X382510Y920232D02*
X391568D01*
X382510D02*
Y931747D01*
X391511D02*
Y943253D01*
X382510Y931747D02*
X391568D01*
X382510Y943253D02*
X391568D01*
Y920232D02*
Y931747D01*
X397206Y919544D02*
Y955457D01*
X391568Y943253D02*
Y954768D01*
X399000Y917750D02*
Y957250D01*
X566000Y1008000D02*
X584000D01*
X566000Y1013000D02*
X584000D01*
X566000Y1008000D02*
Y1013000D01*
X584000Y1008000D02*
Y1013000D01*
X566000Y1042001D02*
X584000D01*
X566000Y1037000D02*
X584000D01*
X566000D02*
Y1042001D01*
X584000Y1037000D02*
Y1042001D01*
X566200Y1013000D02*
Y1037000D01*
X583800Y1013000D02*
Y1037000D01*
X489948Y1056276D02*
Y1074276D01*
X484948Y1056276D02*
Y1074276D01*
X489948D01*
X484948Y1056276D02*
X489948D01*
X455947D02*
Y1074276D01*
X460947Y1056276D02*
Y1074276D01*
X455947D02*
X460947D01*
X455947Y1056276D02*
X460947D01*
Y1074076D02*
X484948D01*
X460947Y1056476D02*
X484948D01*
X265500Y1048500D02*
Y1066500D01*
X270500Y1048500D02*
Y1066500D01*
X265500D02*
X270500D01*
X265500Y1048500D02*
X270500D01*
X299500D02*
Y1066500D01*
X294500Y1048500D02*
Y1066500D01*
X299500D01*
X294500Y1048500D02*
X299500D01*
X270500Y1066300D02*
X294500D01*
X270500Y1048700D02*
X294500D01*
D33*
X336500Y1133500D02*
G03*
X336500Y1133500I-5000J0D01*
G01*
X536000Y1111000D02*
G03*
X536000Y1111000I-5000J0D01*
G01*
X385000Y1069000D02*
G03*
X385000Y1069000I-5000J0D01*
G01*
X421750Y1091000D02*
Y1154000D01*
X453250Y1091000D02*
Y1154000D01*
X421750D02*
X453250D01*
X421750Y1091000D02*
X453250D01*
X374250Y1091000D02*
Y1154000D01*
X405750Y1091000D02*
Y1154000D01*
X374250D02*
X405750D01*
X374250Y1091000D02*
X405750D01*
X322500Y1092500D02*
Y1142500D01*
X372500Y1092500D02*
Y1142500D01*
X322500D02*
X372500D01*
X322500Y1092500D02*
X372500D01*
X440000Y1020000D02*
Y1120000D01*
X540000Y1020000D02*
Y1120000D01*
X440000Y1020000D02*
X540000D01*
X440000Y1120000D02*
X540000D01*
X358000Y1047000D02*
X389000D01*
X358000Y1078000D02*
X389000D01*
X358000Y1047000D02*
Y1078000D01*
X389000Y1047000D02*
Y1078000D01*
D49*
X230000Y830000D02*
X230000Y1280000D01*
X678098Y1280000D01*
X678098Y830000D02*
X678098Y1280000D01*
X230000Y830000D02*
X678098Y830000D01*
D50*
X545400Y930000D02*
D03*
X520000D02*
D03*
X494600D02*
D03*
X387101Y1180000D02*
D03*
X412501D02*
D03*
X437901D02*
D03*
D51*
X490000Y870000D02*
D03*
X540000D02*
D03*
X652500Y1100000D02*
D03*
Y1125000D02*
D03*
D52*
X612500Y1132150D02*
D03*
Y1094050D02*
D03*
Y1055950D02*
D03*
Y1017850D02*
D03*
D53*
X240000Y840000D02*
D03*
X670000D02*
D03*
X240000Y1270000D02*
D03*
D54*
X349900Y1257000D02*
D03*
X260100D02*
D03*
X346300Y1197500D02*
D03*
X263700D02*
D03*
D55*
X281000Y1198500D02*
D03*
X329000D02*
D03*
X321000D02*
D03*
X289000D02*
D03*
X297000D02*
D03*
X313000D02*
D03*
X293000Y1191500D02*
D03*
X317000D02*
D03*
X309000D02*
D03*
X301000D02*
D03*
D56*
X269000Y1185000D02*
D03*
D57*
X341000D02*
D03*
D58*
X344600Y997300D02*
D03*
X370000Y1022700D02*
D03*
Y997300D02*
D03*
X395400Y1022700D02*
D03*
Y997300D02*
D03*
D59*
X282500Y976700D02*
D03*
Y1002100D02*
D03*
Y1027500D02*
D03*
X435800Y1237500D02*
D03*
X410400D02*
D03*
X385000D02*
D03*
D60*
X444200Y870000D02*
D03*
X393400D02*
D03*
X283400D02*
D03*
X334200D02*
D03*
D61*
X650000D02*
D03*
X610000D02*
D03*
X650000Y1010000D02*
D03*
Y940000D02*
D03*
X272500Y1085000D02*
D03*
D62*
X535000Y1235000D02*
D03*
X577001D02*
D03*
X619001D02*
D03*
D63*
X494284Y1027176D02*
D03*
X505000Y1027500D02*
D03*
X485902Y1027430D02*
D03*
X450000Y1027500D02*
D03*
X450088Y1034034D02*
D03*
X460248Y1034796D02*
D03*
X460000Y1027500D02*
D03*
X522025Y1116825D02*
D03*
X480822Y1113536D02*
D03*
X475234Y1113282D02*
D03*
X517144Y1116838D02*
D03*
X529082Y1046890D02*
D03*
X490220Y1025000D02*
D03*
X540766Y1018286D02*
D03*
X330000Y1065274D02*
D03*
X536050Y1083578D02*
D03*
X538988Y1003808D02*
D03*
X391160Y1102614D02*
D03*
X402844D02*
D03*
X415290Y1036066D02*
D03*
X439166Y1005242D02*
D03*
X446808Y1081024D02*
D03*
X371856Y1142492D02*
D03*
X569976Y1050798D02*
D03*
X531368Y1068070D02*
D03*
X345080Y1149096D02*
D03*
X562356Y1078000D02*
D03*
X596646Y924560D02*
D03*
X363474Y1117346D02*
D03*
X304800Y1108202D02*
D03*
X521182Y1045464D02*
D03*
X331470Y1117346D02*
D03*
X363474Y1105662D02*
D03*
X370840Y1079754D02*
D03*
X374904Y1056640D02*
D03*
X337058Y1167130D02*
D03*
X352298Y1228344D02*
D03*
X343154Y1160018D02*
D03*
X315468Y1132332D02*
D03*
X311785Y1118235D02*
D03*
X587811Y1135000D02*
D03*
X490310Y1205000D02*
D03*
X562810Y1135000D02*
D03*
X432500Y1225310D02*
D03*
X506000Y1142310D02*
D03*
X636810Y975000D02*
D03*
X562190Y1040001D02*
D03*
X637810Y915000D02*
D03*
X562310Y1046000D02*
D03*
X428583Y1138936D02*
D03*
X317500Y1185711D02*
D03*
X292500D02*
D03*
X424052Y1122934D02*
D03*
X535000Y992810D02*
D03*
X532500Y962190D02*
D03*
X506000Y997690D02*
D03*
X491810Y980000D02*
D03*
X297500Y1070310D02*
D03*
X459304Y965691D02*
D03*
X409310Y937500D02*
D03*
X335534Y1078738D02*
D03*
X457708Y1078000D02*
D03*
X418084Y1110000D02*
D03*
X292500Y1153872D02*
D03*
X355000Y1149920D02*
D03*
X312928Y1170432D02*
D03*
X281432Y1128014D02*
D03*
X428917Y1167892D02*
D03*
X541497Y1003808D02*
D03*
X332994Y1104138D02*
D03*
X377444Y1012444D02*
D03*
X334518Y1129030D02*
D03*
X302500Y1171194D02*
D03*
X535432Y1094486D02*
D03*
X282500Y1161796D02*
D03*
X364744Y1182878D02*
D03*
Y1169162D02*
D03*
X308102Y1123696D02*
D03*
X356870Y1132586D02*
D03*
X340614Y1054354D02*
D03*
X337566Y1065022D02*
D03*
X472037Y1253385D02*
D03*
X501396Y1059688D02*
D03*
X361442Y1042670D02*
D03*
X316230Y1105662D02*
D03*
X385064Y1078484D02*
D03*
X401320D02*
D03*
X413004Y1056132D02*
D03*
X413512Y1081024D02*
D03*
X322500Y1158494D02*
D03*
X314256Y1148811D02*
D03*
X346985Y1133475D02*
D03*
X327500Y1154016D02*
D03*
X314960Y1141476D02*
D03*
X344741Y1126871D02*
D03*
X398526Y1209040D02*
D03*
X355092Y1086358D02*
D03*
X416814Y1152398D02*
D03*
X297500Y1243584D02*
D03*
M02*
