G04 Layer_Color=2752767*
%FSLAX44Y44*%
%MOMM*%
G71*
G01*
G75*
%ADD29C,0.1270*%
%ADD32C,0.0500*%
%ADD33C,0.1000*%
%ADD118C,0.1693*%
%ADD119C,0.1016*%
D29*
X540320Y924920D02*
Y935080D01*
X550480D01*
Y924920D01*
X540320D01*
X514920D02*
Y935080D01*
X525080D01*
Y924920D01*
X514920D01*
X489520D02*
Y935080D01*
X499680D01*
Y924920D01*
X489520D01*
X612500Y1127070D02*
X607420Y1137230D01*
X617580D01*
X612500Y1127070D01*
Y1088970D02*
X607420Y1099130D01*
X617580D01*
X612500Y1088970D01*
Y1050870D02*
X607420Y1061030D01*
X617580D01*
X612500Y1050870D01*
Y1012770D02*
X607420Y1022930D01*
X617580D01*
X612500Y1012770D01*
X240000Y834920D02*
X242540Y837460D01*
X245080D01*
X242540Y840000D01*
X245080Y842540D01*
X242540D01*
X240000Y845080D01*
X237460Y842540D01*
X234920D01*
X237460Y840000D01*
X234920Y837460D01*
X237460D01*
X240000Y834920D01*
X670000D02*
X672540Y837460D01*
X675080D01*
X672540Y840000D01*
X675080Y842540D01*
X672540D01*
X670000Y845080D01*
X667460Y842540D01*
X664920D01*
X667460Y840000D01*
X664920Y837460D01*
X667460D01*
X670000Y834920D01*
X668274Y1264412D02*
X670814Y1266952D01*
X673354D01*
X670814Y1269492D01*
X673354Y1272032D01*
X670814D01*
X668274Y1274572D01*
X665734Y1272032D01*
X663194D01*
X665734Y1269492D01*
X663194Y1266952D01*
X665734D01*
X668274Y1264412D01*
X240000Y1264920D02*
X242540Y1267460D01*
X245080D01*
X242540Y1270000D01*
X245080Y1272540D01*
X242540D01*
X240000Y1275080D01*
X237460Y1272540D01*
X234920D01*
X237460Y1270000D01*
X234920Y1267460D01*
X237460D01*
X240000Y1264920D01*
X344820Y1251920D02*
X347360Y1257000D01*
X344820Y1262080D01*
X349900Y1259540D01*
X354980Y1262080D01*
X352440Y1257000D01*
X354980Y1251920D01*
X349900Y1254460D01*
X344820Y1251920D01*
X255020D02*
X257560Y1257000D01*
X255020Y1262080D01*
X260100Y1259540D01*
X265180Y1262080D01*
X262640Y1257000D01*
X265180Y1251920D01*
X260100Y1254460D01*
X255020Y1251920D01*
X341220Y1192420D02*
X343760Y1197500D01*
X341220Y1202580D01*
X346300Y1200040D01*
X351380Y1202580D01*
X348840Y1197500D01*
X351380Y1192420D01*
X346300Y1194960D01*
X341220Y1192420D01*
X258620D02*
X261160Y1197500D01*
X258620Y1202580D01*
X263700Y1200040D01*
X268780Y1202580D01*
X266240Y1197500D01*
X268780Y1192420D01*
X263700Y1194960D01*
X258620Y1192420D01*
X274460Y1188960D02*
Y1186420D01*
X279540D01*
Y1188960D01*
X282080D01*
Y1194040D01*
X279540D01*
Y1196580D01*
X274460D01*
Y1194040D01*
X271920D01*
Y1188960D01*
X274460D01*
X330460D02*
Y1186420D01*
X335540D01*
Y1188960D01*
X338080D01*
Y1194040D01*
X335540D01*
Y1196580D01*
X330460D01*
Y1194040D01*
X327920D01*
Y1188960D01*
X330460D01*
X278460Y1195960D02*
Y1193420D01*
X283540D01*
Y1195960D01*
X286080D01*
Y1201040D01*
X283540D01*
Y1203580D01*
X278460D01*
Y1201040D01*
X275920D01*
Y1195960D01*
X278460D01*
X326460D02*
Y1193420D01*
X331540D01*
Y1195960D01*
X334080D01*
Y1201040D01*
X331540D01*
Y1203580D01*
X326460D01*
Y1201040D01*
X323920D01*
Y1195960D01*
X326460D01*
X318460D02*
Y1193420D01*
X323540D01*
Y1195960D01*
X326080D01*
Y1201040D01*
X323540D01*
Y1203580D01*
X318460D01*
Y1201040D01*
X315920D01*
Y1195960D01*
X318460D01*
X286460D02*
Y1193420D01*
X291540D01*
Y1195960D01*
X294080D01*
Y1201040D01*
X291540D01*
Y1203580D01*
X286460D01*
Y1201040D01*
X283920D01*
Y1195960D01*
X286460D01*
X294460D02*
Y1193420D01*
X299540D01*
Y1195960D01*
X302080D01*
Y1201040D01*
X299540D01*
Y1203580D01*
X294460D01*
Y1201040D01*
X291920D01*
Y1195960D01*
X294460D01*
X310460D02*
Y1193420D01*
X315540D01*
Y1195960D01*
X318080D01*
Y1201040D01*
X315540D01*
Y1203580D01*
X310460D01*
Y1201040D01*
X307920D01*
Y1195960D01*
X310460D01*
X290460Y1188960D02*
Y1186420D01*
X295540D01*
Y1188960D01*
X298080D01*
Y1194040D01*
X295540D01*
Y1196580D01*
X290460D01*
Y1194040D01*
X287920D01*
Y1188960D01*
X290460D01*
X314460D02*
Y1186420D01*
X319540D01*
Y1188960D01*
X322080D01*
Y1194040D01*
X319540D01*
Y1196580D01*
X314460D01*
Y1194040D01*
X311920D01*
Y1188960D01*
X314460D01*
X306460D02*
Y1186420D01*
X311540D01*
Y1188960D01*
X314080D01*
Y1194040D01*
X311540D01*
Y1196580D01*
X306460D01*
Y1194040D01*
X303920D01*
Y1188960D01*
X306460D01*
X298460D02*
Y1186420D01*
X303540D01*
Y1188960D01*
X306080D01*
Y1194040D01*
X303540D01*
Y1196580D01*
X298460D01*
Y1194040D01*
X295920D01*
Y1188960D01*
X298460D01*
X263920Y1179920D02*
X266460D01*
X269000Y1182460D01*
X271540Y1179920D01*
X274080D01*
Y1182460D01*
X271540Y1185000D01*
X274080Y1187540D01*
Y1190080D01*
X271540D01*
X269000Y1187540D01*
X266460Y1190080D01*
X263920D01*
Y1187540D01*
X266460Y1185000D01*
X263920Y1182460D01*
Y1179920D01*
X335920Y1185000D02*
X341000Y1190080D01*
X346080Y1185000D01*
X341000Y1179920D01*
X335920Y1185000D01*
X339520Y1017620D02*
Y1027780D01*
X349680D01*
Y1017620D01*
X339520D01*
X341552Y1019652D02*
Y1025748D01*
X347648D01*
Y1019652D01*
X341552D01*
X339520Y992220D02*
Y1002380D01*
X349680D01*
Y992220D01*
X339520D01*
X341552Y994252D02*
Y1000348D01*
X347648D01*
Y994252D01*
X341552D01*
X364920Y1017620D02*
Y1027780D01*
X375080D01*
Y1017620D01*
X364920D01*
X366952Y1019652D02*
Y1025748D01*
X373048D01*
Y1019652D01*
X366952D01*
X364920Y992220D02*
Y1002380D01*
X375080D01*
Y992220D01*
X364920D01*
X366952Y994252D02*
Y1000348D01*
X373048D01*
Y994252D01*
X366952D01*
X390320Y1017620D02*
Y1027780D01*
X400480D01*
Y1017620D01*
X390320D01*
X392352Y1019652D02*
Y1025748D01*
X398448D01*
Y1019652D01*
X392352D01*
X390320Y992220D02*
Y1002380D01*
X400480D01*
Y992220D01*
X390320D01*
X392352Y994252D02*
Y1000348D01*
X398448D01*
Y994252D01*
X392352D01*
X444200Y864920D02*
X439120Y875080D01*
X449280D01*
X444200Y864920D01*
Y866952D02*
X441152Y873048D01*
X447248D01*
X444200Y866952D01*
X393400Y864920D02*
X388320Y875080D01*
X398480D01*
X393400Y864920D01*
Y866952D02*
X390352Y873048D01*
X396448D01*
X393400Y866952D01*
X283400Y864920D02*
X278320Y875080D01*
X288480D01*
X283400Y864920D01*
Y866952D02*
X280352Y873048D01*
X286448D01*
X283400Y866952D01*
X334200Y864920D02*
X329120Y875080D01*
X339280D01*
X334200Y864920D01*
Y866952D02*
X331152Y873048D01*
X337248D01*
X334200Y866952D01*
X650000Y864920D02*
X652540Y867460D01*
X655080D01*
X652540Y870000D01*
X655080Y872540D01*
X652540D01*
X650000Y875080D01*
X647460Y872540D01*
X644920D01*
X647460Y870000D01*
X644920Y867460D01*
X647460D01*
X650000Y864920D01*
Y866952D02*
X651524Y868476D01*
X653048D01*
X651524Y870000D01*
X653048Y871524D01*
X651524D01*
X650000Y873048D01*
X648476Y871524D01*
X646952D01*
X648476Y870000D01*
X646952Y868476D01*
X648476D01*
X650000Y866952D01*
Y890320D02*
X652540Y892860D01*
X655080D01*
X652540Y895400D01*
X655080Y897940D01*
X652540D01*
X650000Y900480D01*
X647460Y897940D01*
X644920D01*
X647460Y895400D01*
X644920Y892860D01*
X647460D01*
X650000Y890320D01*
Y892352D02*
X651524Y893876D01*
X653048D01*
X651524Y895400D01*
X653048Y896924D01*
X651524D01*
X650000Y898448D01*
X648476Y896924D01*
X646952D01*
X648476Y895400D01*
X646952Y893876D01*
X648476D01*
X650000Y892352D01*
X610000Y864920D02*
X612540Y867460D01*
X615080D01*
X612540Y870000D01*
X615080Y872540D01*
X612540D01*
X610000Y875080D01*
X607460Y872540D01*
X604920D01*
X607460Y870000D01*
X604920Y867460D01*
X607460D01*
X610000Y864920D01*
Y866952D02*
X611524Y868476D01*
X613048D01*
X611524Y870000D01*
X613048Y871524D01*
X611524D01*
X610000Y873048D01*
X608476Y871524D01*
X606952D01*
X608476Y870000D01*
X606952Y868476D01*
X608476D01*
X610000Y866952D01*
X584600Y864920D02*
X587140Y867460D01*
X589680D01*
X587140Y870000D01*
X589680Y872540D01*
X587140D01*
X584600Y875080D01*
X582060Y872540D01*
X579520D01*
X582060Y870000D01*
X579520Y867460D01*
X582060D01*
X584600Y864920D01*
Y866952D02*
X586124Y868476D01*
X587648D01*
X586124Y870000D01*
X587648Y871524D01*
X586124D01*
X584600Y873048D01*
X583076Y871524D01*
X581552D01*
X583076Y870000D01*
X581552Y868476D01*
X583076D01*
X584600Y866952D01*
X650000Y1004920D02*
X652540Y1007460D01*
X655080D01*
X652540Y1010000D01*
X655080Y1012540D01*
X652540D01*
X650000Y1015080D01*
X647460Y1012540D01*
X644920D01*
X647460Y1010000D01*
X644920Y1007460D01*
X647460D01*
X650000Y1004920D01*
Y1006952D02*
X651524Y1008476D01*
X653048D01*
X651524Y1010000D01*
X653048Y1011524D01*
X651524D01*
X650000Y1013048D01*
X648476Y1011524D01*
X646952D01*
X648476Y1010000D01*
X646952Y1008476D01*
X648476D01*
X650000Y1006952D01*
Y1030320D02*
X652540Y1032860D01*
X655080D01*
X652540Y1035400D01*
X655080Y1037940D01*
X652540D01*
X650000Y1040480D01*
X647460Y1037940D01*
X644920D01*
X647460Y1035400D01*
X644920Y1032860D01*
X647460D01*
X650000Y1030320D01*
Y1032352D02*
X651524Y1033876D01*
X653048D01*
X651524Y1035400D01*
X653048Y1036924D01*
X651524D01*
X650000Y1038448D01*
X648476Y1036924D01*
X646952D01*
X648476Y1035400D01*
X646952Y1033876D01*
X648476D01*
X650000Y1032352D01*
Y934920D02*
X652540Y937460D01*
X655080D01*
X652540Y940000D01*
X655080Y942540D01*
X652540D01*
X650000Y945080D01*
X647460Y942540D01*
X644920D01*
X647460Y940000D01*
X644920Y937460D01*
X647460D01*
X650000Y934920D01*
Y936952D02*
X651524Y938476D01*
X653048D01*
X651524Y940000D01*
X653048Y941524D01*
X651524D01*
X650000Y943048D01*
X648476Y941524D01*
X646952D01*
X648476Y940000D01*
X646952Y938476D01*
X648476D01*
X650000Y936952D01*
Y960320D02*
X652540Y962860D01*
X655080D01*
X652540Y965400D01*
X655080Y967940D01*
X652540D01*
X650000Y970480D01*
X647460Y967940D01*
X644920D01*
X647460Y965400D01*
X644920Y962860D01*
X647460D01*
X650000Y960320D01*
Y962352D02*
X651524Y963876D01*
X653048D01*
X651524Y965400D01*
X653048Y966924D01*
X651524D01*
X650000Y968448D01*
X648476Y966924D01*
X646952D01*
X648476Y965400D01*
X646952Y963876D01*
X648476D01*
X650000Y962352D01*
X382021Y1174920D02*
Y1185080D01*
X392181D01*
Y1174920D01*
X382021D01*
X407421D02*
Y1185080D01*
X417581D01*
Y1174920D01*
X407421D01*
X432821D02*
Y1185080D01*
X442981D01*
Y1174920D01*
X432821D01*
X272500Y1079920D02*
X275040Y1082460D01*
X277580D01*
X275040Y1085000D01*
X277580Y1087540D01*
X275040D01*
X272500Y1090080D01*
X269960Y1087540D01*
X267420D01*
X269960Y1085000D01*
X267420Y1082460D01*
X269960D01*
X272500Y1079920D01*
Y1081952D02*
X274024Y1083476D01*
X275548D01*
X274024Y1085000D01*
X275548Y1086524D01*
X274024D01*
X272500Y1088048D01*
X270976Y1086524D01*
X269452D01*
X270976Y1085000D01*
X269452Y1083476D01*
X270976D01*
X272500Y1081952D01*
Y1105320D02*
X275040Y1107860D01*
X277580D01*
X275040Y1110400D01*
X277580Y1112940D01*
X275040D01*
X272500Y1115480D01*
X269960Y1112940D01*
X267420D01*
X269960Y1110400D01*
X267420Y1107860D01*
X269960D01*
X272500Y1105320D01*
Y1107352D02*
X274024Y1108876D01*
X275548D01*
X274024Y1110400D01*
X275548Y1111924D01*
X274024D01*
X272500Y1113448D01*
X270976Y1111924D01*
X269452D01*
X270976Y1110400D01*
X269452Y1108876D01*
X270976D01*
X272500Y1107352D01*
X529920Y1229920D02*
X532460Y1235000D01*
X529920Y1240080D01*
X535000Y1237540D01*
X540080Y1240080D01*
X537540Y1235000D01*
X540080Y1229920D01*
X535000Y1232460D01*
X529920Y1229920D01*
X531952Y1231952D02*
X533476Y1235000D01*
X531952Y1238048D01*
X535000Y1236524D01*
X538048Y1238048D01*
X536524Y1235000D01*
X538048Y1231952D01*
X535000Y1233476D01*
X531952Y1231952D01*
X571921Y1229920D02*
X574461Y1235000D01*
X571921Y1240080D01*
X577001Y1237540D01*
X582081Y1240080D01*
X579541Y1235000D01*
X582081Y1229920D01*
X577001Y1232460D01*
X571921Y1229920D01*
X573953Y1231952D02*
X575477Y1235000D01*
X573953Y1238048D01*
X577001Y1236524D01*
X580049Y1238048D01*
X578525Y1235000D01*
X580049Y1231952D01*
X577001Y1233476D01*
X573953Y1231952D01*
X613921Y1229920D02*
X616460Y1235000D01*
X613921Y1240080D01*
X619001Y1237540D01*
X624081Y1240080D01*
X621540Y1235000D01*
X624081Y1229920D01*
X619001Y1232460D01*
X613921Y1229920D01*
X615952Y1231952D02*
X617477Y1235000D01*
X615952Y1238048D01*
X619001Y1236524D01*
X622048Y1238048D01*
X620524Y1235000D01*
X622048Y1231952D01*
X619001Y1233476D01*
X615952Y1231952D01*
X529920Y1187919D02*
X532460Y1192999D01*
X529920Y1198079D01*
X535000Y1195539D01*
X540080Y1198079D01*
X537540Y1192999D01*
X540080Y1187919D01*
X535000Y1190459D01*
X529920Y1187919D01*
X531952Y1189951D02*
X533476Y1192999D01*
X531952Y1196047D01*
X535000Y1194523D01*
X538048Y1196047D01*
X536524Y1192999D01*
X538048Y1189951D01*
X535000Y1191475D01*
X531952Y1189951D01*
X571921Y1187919D02*
X574461Y1192999D01*
X571921Y1198079D01*
X577001Y1195539D01*
X582081Y1198079D01*
X579541Y1192999D01*
X582081Y1187919D01*
X577001Y1190459D01*
X571921Y1187919D01*
X573953Y1189951D02*
X575477Y1192999D01*
X573953Y1196047D01*
X577001Y1194523D01*
X580049Y1196047D01*
X578525Y1192999D01*
X580049Y1189951D01*
X577001Y1191475D01*
X573953Y1189951D01*
X613921Y1187919D02*
X616460Y1192999D01*
X613921Y1198079D01*
X619001Y1195539D01*
X624081Y1198079D01*
X621540Y1192999D01*
X624081Y1187919D01*
X619001Y1190459D01*
X613921Y1187919D01*
X615952Y1189951D02*
X617477Y1192999D01*
X615952Y1196047D01*
X619001Y1194523D01*
X622048Y1196047D01*
X620524Y1192999D01*
X622048Y1189951D01*
X619001Y1191475D01*
X615952Y1189951D01*
X491744Y1024636D02*
Y1022096D01*
X496824D01*
Y1024636D01*
X499364D01*
Y1029716D01*
X496824D01*
Y1032256D01*
X491744D01*
Y1029716D01*
X489204D01*
Y1024636D01*
X491744D01*
X492760Y1025652D02*
Y1024128D01*
X495808D01*
Y1025652D01*
X497332D01*
Y1028700D01*
X495808D01*
Y1030224D01*
X492760D01*
Y1028700D01*
X491236D01*
Y1025652D01*
X492760D01*
X502460Y1024960D02*
Y1022420D01*
X507540D01*
Y1024960D01*
X510080D01*
Y1030040D01*
X507540D01*
Y1032580D01*
X502460D01*
Y1030040D01*
X499920D01*
Y1024960D01*
X502460D01*
X503476Y1025976D02*
Y1024452D01*
X506524D01*
Y1025976D01*
X508048D01*
Y1029024D01*
X506524D01*
Y1030548D01*
X503476D01*
Y1029024D01*
X501952D01*
Y1025976D01*
X503476D01*
X483362Y1024890D02*
Y1022350D01*
X488442D01*
Y1024890D01*
X490982D01*
Y1029970D01*
X488442D01*
Y1032510D01*
X483362D01*
Y1029970D01*
X480822D01*
Y1024890D01*
X483362D01*
X484378Y1025906D02*
Y1024382D01*
X487426D01*
Y1025906D01*
X488950D01*
Y1028954D01*
X487426D01*
Y1030478D01*
X484378D01*
Y1028954D01*
X482854D01*
Y1025906D01*
X484378D01*
X447460Y1024960D02*
Y1022420D01*
X452540D01*
Y1024960D01*
X455080D01*
Y1030040D01*
X452540D01*
Y1032580D01*
X447460D01*
Y1030040D01*
X444920D01*
Y1024960D01*
X447460D01*
X448476Y1025976D02*
Y1024452D01*
X451524D01*
Y1025976D01*
X453048D01*
Y1029024D01*
X451524D01*
Y1030548D01*
X448476D01*
Y1029024D01*
X446952D01*
Y1025976D01*
X448476D01*
X447548Y1031494D02*
Y1028954D01*
X452628D01*
Y1031494D01*
X455168D01*
Y1036574D01*
X452628D01*
Y1039114D01*
X447548D01*
Y1036574D01*
X445008D01*
Y1031494D01*
X447548D01*
X448564Y1032510D02*
Y1030986D01*
X451612D01*
Y1032510D01*
X453136D01*
Y1035558D01*
X451612D01*
Y1037082D01*
X448564D01*
Y1035558D01*
X447040D01*
Y1032510D01*
X448564D01*
X457708Y1032256D02*
Y1029716D01*
X462788D01*
Y1032256D01*
X465328D01*
Y1037336D01*
X462788D01*
Y1039876D01*
X457708D01*
Y1037336D01*
X455168D01*
Y1032256D01*
X457708D01*
X458724Y1033272D02*
Y1031748D01*
X461772D01*
Y1033272D01*
X463296D01*
Y1036320D01*
X461772D01*
Y1037844D01*
X458724D01*
Y1036320D01*
X457200D01*
Y1033272D01*
X458724D01*
X457460Y1024960D02*
Y1022420D01*
X462540D01*
Y1024960D01*
X465080D01*
Y1030040D01*
X462540D01*
Y1032580D01*
X457460D01*
Y1030040D01*
X454920D01*
Y1024960D01*
X457460D01*
X458476Y1025976D02*
Y1024452D01*
X461524D01*
Y1025976D01*
X463048D01*
Y1029024D01*
X461524D01*
Y1030548D01*
X458476D01*
Y1029024D01*
X456952D01*
Y1025976D01*
X458476D01*
X519485Y1114285D02*
Y1111745D01*
X524565D01*
Y1114285D01*
X527105D01*
Y1119365D01*
X524565D01*
Y1121905D01*
X519485D01*
Y1119365D01*
X516945D01*
Y1114285D01*
X519485D01*
X520501Y1115301D02*
Y1113777D01*
X523549D01*
Y1115301D01*
X525073D01*
Y1118349D01*
X523549D01*
Y1119873D01*
X520501D01*
Y1118349D01*
X518977D01*
Y1115301D01*
X520501D01*
X478282Y1110996D02*
Y1108456D01*
X483362D01*
Y1110996D01*
X485902D01*
Y1116076D01*
X483362D01*
Y1118616D01*
X478282D01*
Y1116076D01*
X475742D01*
Y1110996D01*
X478282D01*
X479298Y1112012D02*
Y1110488D01*
X482346D01*
Y1112012D01*
X483870D01*
Y1115060D01*
X482346D01*
Y1116584D01*
X479298D01*
Y1115060D01*
X477774D01*
Y1112012D01*
X479298D01*
X472694Y1110742D02*
Y1108202D01*
X477774D01*
Y1110742D01*
X480314D01*
Y1115822D01*
X477774D01*
Y1118362D01*
X472694D01*
Y1115822D01*
X470154D01*
Y1110742D01*
X472694D01*
X473710Y1111758D02*
Y1110234D01*
X476758D01*
Y1111758D01*
X478282D01*
Y1114806D01*
X476758D01*
Y1116330D01*
X473710D01*
Y1114806D01*
X472186D01*
Y1111758D01*
X473710D01*
X514604Y1114298D02*
Y1111758D01*
X519684D01*
Y1114298D01*
X522224D01*
Y1119378D01*
X519684D01*
Y1121918D01*
X514604D01*
Y1119378D01*
X512064D01*
Y1114298D01*
X514604D01*
X515620Y1115314D02*
Y1113790D01*
X518668D01*
Y1115314D01*
X520192D01*
Y1118362D01*
X518668D01*
Y1119886D01*
X515620D01*
Y1118362D01*
X514096D01*
Y1115314D01*
X515620D01*
X452120Y1181862D02*
Y1179322D01*
X457200D01*
Y1181862D01*
X459740D01*
Y1186942D01*
X457200D01*
Y1189482D01*
X452120D01*
Y1186942D01*
X449580D01*
Y1181862D01*
X452120D01*
X453136Y1182878D02*
Y1181354D01*
X456184D01*
Y1182878D01*
X457708D01*
Y1185926D01*
X456184D01*
Y1187450D01*
X453136D01*
Y1185926D01*
X451612D01*
Y1182878D01*
X453136D01*
X452150Y1174341D02*
Y1171801D01*
X457229D01*
Y1174341D01*
X459770D01*
Y1179421D01*
X457229D01*
Y1181961D01*
X452150D01*
Y1179421D01*
X449609D01*
Y1174341D01*
X452150D01*
X453166Y1175357D02*
Y1173833D01*
X456213D01*
Y1175357D01*
X457738D01*
Y1178405D01*
X456213D01*
Y1179929D01*
X453166D01*
Y1178405D01*
X451642D01*
Y1175357D01*
X453166D01*
X320000Y970650D02*
Y968110D01*
X325080D01*
Y970650D01*
X327620D01*
Y975730D01*
X325080D01*
Y978270D01*
X320000D01*
Y975730D01*
X317460D01*
Y970650D01*
X320000D01*
X321016Y971666D02*
Y970142D01*
X324064D01*
Y971666D01*
X325588D01*
Y974714D01*
X324064D01*
Y976238D01*
X321016D01*
Y974714D01*
X319492D01*
Y971666D01*
X321016D01*
X526542Y1044350D02*
Y1041810D01*
X531622D01*
Y1044350D01*
X534162D01*
Y1049430D01*
X531622D01*
Y1051970D01*
X526542D01*
Y1049430D01*
X524002D01*
Y1044350D01*
X526542D01*
X527558Y1045366D02*
Y1043842D01*
X530606D01*
Y1045366D01*
X532130D01*
Y1048414D01*
X530606D01*
Y1049938D01*
X527558D01*
Y1048414D01*
X526034D01*
Y1045366D01*
X527558D01*
X487680Y1022460D02*
Y1019920D01*
X492760D01*
Y1022460D01*
X495300D01*
Y1027540D01*
X492760D01*
Y1030080D01*
X487680D01*
Y1027540D01*
X485140D01*
Y1022460D01*
X487680D01*
X488696Y1023476D02*
Y1021952D01*
X491744D01*
Y1023476D01*
X493268D01*
Y1026524D01*
X491744D01*
Y1028048D01*
X488696D01*
Y1026524D01*
X487172D01*
Y1023476D01*
X488696D01*
X538226Y1015746D02*
Y1013206D01*
X543306D01*
Y1015746D01*
X545846D01*
Y1020826D01*
X543306D01*
Y1023366D01*
X538226D01*
Y1020826D01*
X535686D01*
Y1015746D01*
X538226D01*
X539242Y1016762D02*
Y1015238D01*
X542290D01*
Y1016762D01*
X543814D01*
Y1019810D01*
X542290D01*
Y1021334D01*
X539242D01*
Y1019810D01*
X537718D01*
Y1016762D01*
X539242D01*
X326500Y999150D02*
Y996610D01*
X331580D01*
Y999150D01*
X334120D01*
Y1004230D01*
X331580D01*
Y1006770D01*
X326500D01*
Y1004230D01*
X323960D01*
Y999150D01*
X326500D01*
X327516Y1000166D02*
Y998642D01*
X330564D01*
Y1000166D01*
X332088D01*
Y1003214D01*
X330564D01*
Y1004738D01*
X327516D01*
Y1003214D01*
X325992D01*
Y1000166D01*
X327516D01*
X359270Y1060670D02*
Y1058130D01*
X364350D01*
Y1060670D01*
X366890D01*
Y1065750D01*
X364350D01*
Y1068290D01*
X359270D01*
Y1065750D01*
X356730D01*
Y1060670D01*
X359270D01*
X360286Y1061686D02*
Y1060162D01*
X363334D01*
Y1061686D01*
X364858D01*
Y1064734D01*
X363334D01*
Y1066258D01*
X360286D01*
Y1064734D01*
X358762D01*
Y1061686D01*
X360286D01*
X327460Y1062734D02*
Y1060194D01*
X332540D01*
Y1062734D01*
X335080D01*
Y1067814D01*
X332540D01*
Y1070354D01*
X327460D01*
Y1067814D01*
X324920D01*
Y1062734D01*
X327460D01*
X328476Y1063750D02*
Y1062226D01*
X331524D01*
Y1063750D01*
X333048D01*
Y1066798D01*
X331524D01*
Y1068322D01*
X328476D01*
Y1066798D01*
X326952D01*
Y1063750D01*
X328476D01*
X487770Y1169920D02*
Y1167380D01*
X492850D01*
Y1169920D01*
X495390D01*
Y1175000D01*
X492850D01*
Y1177540D01*
X487770D01*
Y1175000D01*
X485230D01*
Y1169920D01*
X487770D01*
X488786Y1170936D02*
Y1169412D01*
X491834D01*
Y1170936D01*
X493358D01*
Y1173984D01*
X491834D01*
Y1175508D01*
X488786D01*
Y1173984D01*
X487262D01*
Y1170936D01*
X488786D01*
X350000Y1156180D02*
Y1153640D01*
X355080D01*
Y1156180D01*
X357620D01*
Y1161260D01*
X355080D01*
Y1163800D01*
X350000D01*
Y1161260D01*
X347460D01*
Y1156180D01*
X350000D01*
X351016Y1157196D02*
Y1155672D01*
X354064D01*
Y1157196D01*
X355588D01*
Y1160244D01*
X354064D01*
Y1161768D01*
X351016D01*
Y1160244D01*
X349492D01*
Y1157196D01*
X351016D01*
X312260Y1209690D02*
Y1207150D01*
X317340D01*
Y1209690D01*
X319880D01*
Y1214770D01*
X317340D01*
Y1217310D01*
X312260D01*
Y1214770D01*
X309720D01*
Y1209690D01*
X312260D01*
X313276Y1210706D02*
Y1209182D01*
X316324D01*
Y1210706D01*
X317848D01*
Y1213754D01*
X316324D01*
Y1215278D01*
X313276D01*
Y1213754D01*
X311752D01*
Y1210706D01*
X313276D01*
X533510Y1081038D02*
Y1078498D01*
X538590D01*
Y1081038D01*
X541130D01*
Y1086118D01*
X538590D01*
Y1088658D01*
X533510D01*
Y1086118D01*
X530970D01*
Y1081038D01*
X533510D01*
X534526Y1082054D02*
Y1080530D01*
X537574D01*
Y1082054D01*
X539098D01*
Y1085102D01*
X537574D01*
Y1086626D01*
X534526D01*
Y1085102D01*
X533002D01*
Y1082054D01*
X534526D01*
X536448Y1001268D02*
Y998728D01*
X541528D01*
Y1001268D01*
X544068D01*
Y1006348D01*
X541528D01*
Y1008888D01*
X536448D01*
Y1006348D01*
X533908D01*
Y1001268D01*
X536448D01*
X537464Y1002284D02*
Y1000760D01*
X540512D01*
Y1002284D01*
X542036D01*
Y1005332D01*
X540512D01*
Y1006856D01*
X537464D01*
Y1005332D01*
X535940D01*
Y1002284D01*
X537464D01*
X388620Y1100074D02*
Y1097534D01*
X393700D01*
Y1100074D01*
X396240D01*
Y1105154D01*
X393700D01*
Y1107694D01*
X388620D01*
Y1105154D01*
X386080D01*
Y1100074D01*
X388620D01*
X389636Y1101090D02*
Y1099566D01*
X392684D01*
Y1101090D01*
X394208D01*
Y1104138D01*
X392684D01*
Y1105662D01*
X389636D01*
Y1104138D01*
X388112D01*
Y1101090D01*
X389636D01*
X400304Y1100074D02*
Y1097534D01*
X405384D01*
Y1100074D01*
X407924D01*
Y1105154D01*
X405384D01*
Y1107694D01*
X400304D01*
Y1105154D01*
X397764D01*
Y1100074D01*
X400304D01*
X401320Y1101090D02*
Y1099566D01*
X404368D01*
Y1101090D01*
X405892D01*
Y1104138D01*
X404368D01*
Y1105662D01*
X401320D01*
Y1104138D01*
X399796D01*
Y1101090D01*
X401320D01*
X412750Y1033526D02*
Y1030986D01*
X417830D01*
Y1033526D01*
X420370D01*
Y1038606D01*
X417830D01*
Y1041146D01*
X412750D01*
Y1038606D01*
X410210D01*
Y1033526D01*
X412750D01*
X413766Y1034542D02*
Y1033018D01*
X416814D01*
Y1034542D01*
X418338D01*
Y1037590D01*
X416814D01*
Y1039114D01*
X413766D01*
Y1037590D01*
X412242D01*
Y1034542D01*
X413766D01*
X441270Y1064920D02*
Y1062380D01*
X446350D01*
Y1064920D01*
X448890D01*
Y1070000D01*
X446350D01*
Y1072540D01*
X441270D01*
Y1070000D01*
X438730D01*
Y1064920D01*
X441270D01*
X442286Y1065936D02*
Y1064412D01*
X445334D01*
Y1065936D01*
X446858D01*
Y1068984D01*
X445334D01*
Y1070508D01*
X442286D01*
Y1068984D01*
X440762D01*
Y1065936D01*
X442286D01*
X436626Y1002702D02*
Y1000162D01*
X441706D01*
Y1002702D01*
X444246D01*
Y1007782D01*
X441706D01*
Y1010322D01*
X436626D01*
Y1007782D01*
X434086D01*
Y1002702D01*
X436626D01*
X437642Y1003718D02*
Y1002194D01*
X440690D01*
Y1003718D01*
X442214D01*
Y1006766D01*
X440690D01*
Y1008290D01*
X437642D01*
Y1006766D01*
X436118D01*
Y1003718D01*
X437642D01*
X444268Y1078484D02*
Y1075944D01*
X449348D01*
Y1078484D01*
X451888D01*
Y1083564D01*
X449348D01*
Y1086104D01*
X444268D01*
Y1083564D01*
X441728D01*
Y1078484D01*
X444268D01*
X445284Y1079500D02*
Y1077976D01*
X448332D01*
Y1079500D01*
X449856D01*
Y1082548D01*
X448332D01*
Y1084072D01*
X445284D01*
Y1082548D01*
X443760D01*
Y1079500D01*
X445284D01*
X369316Y1139952D02*
Y1137412D01*
X374396D01*
Y1139952D01*
X376936D01*
Y1145032D01*
X374396D01*
Y1147572D01*
X369316D01*
Y1145032D01*
X366776D01*
Y1139952D01*
X369316D01*
X370332Y1140968D02*
Y1139444D01*
X373380D01*
Y1140968D01*
X374904D01*
Y1144016D01*
X373380D01*
Y1145540D01*
X370332D01*
Y1144016D01*
X368808D01*
Y1140968D01*
X370332D01*
X567436Y1048258D02*
Y1045718D01*
X572516D01*
Y1048258D01*
X575056D01*
Y1053338D01*
X572516D01*
Y1055878D01*
X567436D01*
Y1053338D01*
X564896D01*
Y1048258D01*
X567436D01*
X568452Y1049274D02*
Y1047750D01*
X571500D01*
Y1049274D01*
X573024D01*
Y1052322D01*
X571500D01*
Y1053846D01*
X568452D01*
Y1052322D01*
X566928D01*
Y1049274D01*
X568452D01*
X528828Y1065530D02*
Y1062990D01*
X533908D01*
Y1065530D01*
X536448D01*
Y1070610D01*
X533908D01*
Y1073150D01*
X528828D01*
Y1070610D01*
X526288D01*
Y1065530D01*
X528828D01*
X529844Y1066546D02*
Y1065022D01*
X532892D01*
Y1066546D01*
X534416D01*
Y1069594D01*
X532892D01*
Y1071118D01*
X529844D01*
Y1069594D01*
X528320D01*
Y1066546D01*
X529844D01*
X342540Y1146556D02*
Y1144016D01*
X347620D01*
Y1146556D01*
X350160D01*
Y1151636D01*
X347620D01*
Y1154176D01*
X342540D01*
Y1151636D01*
X340000D01*
Y1146556D01*
X342540D01*
X343556Y1147572D02*
Y1146048D01*
X346604D01*
Y1147572D01*
X348128D01*
Y1150620D01*
X346604D01*
Y1152144D01*
X343556D01*
Y1150620D01*
X342032D01*
Y1147572D01*
X343556D01*
X559816Y1075460D02*
Y1072920D01*
X564896D01*
Y1075460D01*
X567436D01*
Y1080540D01*
X564896D01*
Y1083080D01*
X559816D01*
Y1080540D01*
X557276D01*
Y1075460D01*
X559816D01*
X560832Y1076476D02*
Y1074952D01*
X563880D01*
Y1076476D01*
X565404D01*
Y1079524D01*
X563880D01*
Y1081048D01*
X560832D01*
Y1079524D01*
X559308D01*
Y1076476D01*
X560832D01*
X594106Y922020D02*
Y919480D01*
X599186D01*
Y922020D01*
X601726D01*
Y927100D01*
X599186D01*
Y929640D01*
X594106D01*
Y927100D01*
X591566D01*
Y922020D01*
X594106D01*
X595122Y923036D02*
Y921512D01*
X598170D01*
Y923036D01*
X599694D01*
Y926084D01*
X598170D01*
Y927608D01*
X595122D01*
Y926084D01*
X593598D01*
Y923036D01*
X595122D01*
X360934Y1114806D02*
Y1112266D01*
X366014D01*
Y1114806D01*
X368554D01*
Y1119886D01*
X366014D01*
Y1122426D01*
X360934D01*
Y1119886D01*
X358394D01*
Y1114806D01*
X360934D01*
X361950Y1115822D02*
Y1114298D01*
X364998D01*
Y1115822D01*
X366522D01*
Y1118870D01*
X364998D01*
Y1120394D01*
X361950D01*
Y1118870D01*
X360426D01*
Y1115822D01*
X361950D01*
X302260Y1105662D02*
Y1103122D01*
X307340D01*
Y1105662D01*
X309880D01*
Y1110742D01*
X307340D01*
Y1113282D01*
X302260D01*
Y1110742D01*
X299720D01*
Y1105662D01*
X302260D01*
X303276Y1106678D02*
Y1105154D01*
X306324D01*
Y1106678D01*
X307848D01*
Y1109726D01*
X306324D01*
Y1111250D01*
X303276D01*
Y1109726D01*
X301752D01*
Y1106678D01*
X303276D01*
X518642Y1042924D02*
Y1040384D01*
X523722D01*
Y1042924D01*
X526262D01*
Y1048004D01*
X523722D01*
Y1050544D01*
X518642D01*
Y1048004D01*
X516102D01*
Y1042924D01*
X518642D01*
X519658Y1043940D02*
Y1042416D01*
X522706D01*
Y1043940D01*
X524230D01*
Y1046988D01*
X522706D01*
Y1048512D01*
X519658D01*
Y1046988D01*
X518134D01*
Y1043940D01*
X519658D01*
X328930Y1114806D02*
Y1112266D01*
X334010D01*
Y1114806D01*
X336550D01*
Y1119886D01*
X334010D01*
Y1122426D01*
X328930D01*
Y1119886D01*
X326390D01*
Y1114806D01*
X328930D01*
X329946Y1115822D02*
Y1114298D01*
X332994D01*
Y1115822D01*
X334518D01*
Y1118870D01*
X332994D01*
Y1120394D01*
X329946D01*
Y1118870D01*
X328422D01*
Y1115822D01*
X329946D01*
X360934Y1103122D02*
Y1100582D01*
X366014D01*
Y1103122D01*
X368554D01*
Y1108202D01*
X366014D01*
Y1110742D01*
X360934D01*
Y1108202D01*
X358394D01*
Y1103122D01*
X360934D01*
X361950Y1104138D02*
Y1102614D01*
X364998D01*
Y1104138D01*
X366522D01*
Y1107186D01*
X364998D01*
Y1108710D01*
X361950D01*
Y1107186D01*
X360426D01*
Y1104138D01*
X361950D01*
X368300Y1077214D02*
Y1074674D01*
X373380D01*
Y1077214D01*
X375920D01*
Y1082294D01*
X373380D01*
Y1084834D01*
X368300D01*
Y1082294D01*
X365760D01*
Y1077214D01*
X368300D01*
X369316Y1078230D02*
Y1076706D01*
X372364D01*
Y1078230D01*
X373888D01*
Y1081278D01*
X372364D01*
Y1082802D01*
X369316D01*
Y1081278D01*
X367792D01*
Y1078230D01*
X369316D01*
X372364Y1054100D02*
Y1051560D01*
X377444D01*
Y1054100D01*
X379984D01*
Y1059180D01*
X377444D01*
Y1061720D01*
X372364D01*
Y1059180D01*
X369824D01*
Y1054100D01*
X372364D01*
X373380Y1055116D02*
Y1053592D01*
X376428D01*
Y1055116D01*
X377952D01*
Y1058164D01*
X376428D01*
Y1059688D01*
X373380D01*
Y1058164D01*
X371856D01*
Y1055116D01*
X373380D01*
X334518Y1164590D02*
Y1162050D01*
X339598D01*
Y1164590D01*
X342138D01*
Y1169670D01*
X339598D01*
Y1172210D01*
X334518D01*
Y1169670D01*
X331978D01*
Y1164590D01*
X334518D01*
X335534Y1165606D02*
Y1164082D01*
X338582D01*
Y1165606D01*
X340106D01*
Y1168654D01*
X338582D01*
Y1170178D01*
X335534D01*
Y1168654D01*
X334010D01*
Y1165606D01*
X335534D01*
X349758Y1225804D02*
Y1223264D01*
X354838D01*
Y1225804D01*
X357378D01*
Y1230884D01*
X354838D01*
Y1233424D01*
X349758D01*
Y1230884D01*
X347218D01*
Y1225804D01*
X349758D01*
X350774Y1226820D02*
Y1225296D01*
X353822D01*
Y1226820D01*
X355346D01*
Y1229868D01*
X353822D01*
Y1231392D01*
X350774D01*
Y1229868D01*
X349250D01*
Y1226820D01*
X350774D01*
X340614Y1157478D02*
Y1154938D01*
X345694D01*
Y1157478D01*
X348234D01*
Y1162558D01*
X345694D01*
Y1165098D01*
X340614D01*
Y1162558D01*
X338074D01*
Y1157478D01*
X340614D01*
X341630Y1158494D02*
Y1156970D01*
X344678D01*
Y1158494D01*
X346202D01*
Y1161542D01*
X344678D01*
Y1163066D01*
X341630D01*
Y1161542D01*
X340106D01*
Y1158494D01*
X341630D01*
X312928Y1129792D02*
Y1127252D01*
X318008D01*
Y1129792D01*
X320548D01*
Y1134872D01*
X318008D01*
Y1137412D01*
X312928D01*
Y1134872D01*
X310388D01*
Y1129792D01*
X312928D01*
X313944Y1130808D02*
Y1129284D01*
X316992D01*
Y1130808D01*
X318516D01*
Y1133856D01*
X316992D01*
Y1135380D01*
X313944D01*
Y1133856D01*
X312420D01*
Y1130808D01*
X313944D01*
X309245Y1115695D02*
Y1113155D01*
X314325D01*
Y1115695D01*
X316865D01*
Y1120775D01*
X314325D01*
Y1123315D01*
X309245D01*
Y1120775D01*
X306705D01*
Y1115695D01*
X309245D01*
X310261Y1116711D02*
Y1115187D01*
X313309D01*
Y1116711D01*
X314833D01*
Y1119759D01*
X313309D01*
Y1121283D01*
X310261D01*
Y1119759D01*
X308737D01*
Y1116711D01*
X310261D01*
X585271Y1132460D02*
Y1129920D01*
X590351D01*
Y1132460D01*
X592891D01*
Y1137540D01*
X590351D01*
Y1140080D01*
X585271D01*
Y1137540D01*
X582731D01*
Y1132460D01*
X585271D01*
X586287Y1133476D02*
Y1131952D01*
X589335D01*
Y1133476D01*
X590859D01*
Y1136524D01*
X589335D01*
Y1138048D01*
X586287D01*
Y1136524D01*
X584763D01*
Y1133476D01*
X586287D01*
X487770Y1202460D02*
Y1199920D01*
X492850D01*
Y1202460D01*
X495390D01*
Y1207540D01*
X492850D01*
Y1210080D01*
X487770D01*
Y1207540D01*
X485230D01*
Y1202460D01*
X487770D01*
X488786Y1203476D02*
Y1201952D01*
X491834D01*
Y1203476D01*
X493358D01*
Y1206524D01*
X491834D01*
Y1208048D01*
X488786D01*
Y1206524D01*
X487262D01*
Y1203476D01*
X488786D01*
X560270Y1132460D02*
Y1129920D01*
X565350D01*
Y1132460D01*
X567890D01*
Y1137540D01*
X565350D01*
Y1140080D01*
X560270D01*
Y1137540D01*
X557730D01*
Y1132460D01*
X560270D01*
X561286Y1133476D02*
Y1131952D01*
X564334D01*
Y1133476D01*
X565858D01*
Y1136524D01*
X564334D01*
Y1138048D01*
X561286D01*
Y1136524D01*
X559762D01*
Y1133476D01*
X561286D01*
X429960Y1222770D02*
Y1220230D01*
X435040D01*
Y1222770D01*
X437580D01*
Y1227850D01*
X435040D01*
Y1230390D01*
X429960D01*
Y1227850D01*
X427420D01*
Y1222770D01*
X429960D01*
X430976Y1223786D02*
Y1222262D01*
X434024D01*
Y1223786D01*
X435548D01*
Y1226834D01*
X434024D01*
Y1228358D01*
X430976D01*
Y1226834D01*
X429452D01*
Y1223786D01*
X430976D01*
X503460Y1139770D02*
Y1137230D01*
X508540D01*
Y1139770D01*
X511080D01*
Y1144850D01*
X508540D01*
Y1147390D01*
X503460D01*
Y1144850D01*
X500920D01*
Y1139770D01*
X503460D01*
X504476Y1140786D02*
Y1139262D01*
X507524D01*
Y1140786D01*
X509048D01*
Y1143834D01*
X507524D01*
Y1145358D01*
X504476D01*
Y1143834D01*
X502952D01*
Y1140786D01*
X504476D01*
X634271Y972460D02*
Y969920D01*
X639351D01*
Y972460D01*
X641890D01*
Y977540D01*
X639351D01*
Y980080D01*
X634271D01*
Y977540D01*
X631730D01*
Y972460D01*
X634271D01*
X635286Y973476D02*
Y971952D01*
X638335D01*
Y973476D01*
X639859D01*
Y976524D01*
X638335D01*
Y978048D01*
X635286D01*
Y976524D01*
X633763D01*
Y973476D01*
X635286D01*
X559650Y1037460D02*
Y1034921D01*
X564730D01*
Y1037460D01*
X567270D01*
Y1042541D01*
X564730D01*
Y1045080D01*
X559650D01*
Y1042541D01*
X557110D01*
Y1037460D01*
X559650D01*
X560666Y1038476D02*
Y1036953D01*
X563714D01*
Y1038476D01*
X565238D01*
Y1041525D01*
X563714D01*
Y1043048D01*
X560666D01*
Y1041525D01*
X559142D01*
Y1038476D01*
X560666D01*
X635270Y912460D02*
Y909920D01*
X640350D01*
Y912460D01*
X642890D01*
Y917540D01*
X640350D01*
Y920080D01*
X635270D01*
Y917540D01*
X632730D01*
Y912460D01*
X635270D01*
X636286Y913476D02*
Y911952D01*
X639334D01*
Y913476D01*
X640858D01*
Y916524D01*
X639334D01*
Y918048D01*
X636286D01*
Y916524D01*
X634762D01*
Y913476D01*
X636286D01*
X559770Y1043460D02*
Y1040920D01*
X564850D01*
Y1043460D01*
X567390D01*
Y1048540D01*
X564850D01*
Y1051080D01*
X559770D01*
Y1048540D01*
X557230D01*
Y1043460D01*
X559770D01*
X560786Y1044476D02*
Y1042952D01*
X563834D01*
Y1044476D01*
X565358D01*
Y1047524D01*
X563834D01*
Y1049048D01*
X560786D01*
Y1047524D01*
X559262D01*
Y1044476D01*
X560786D01*
X426043Y1136396D02*
Y1133856D01*
X431123D01*
Y1136396D01*
X433663D01*
Y1141476D01*
X431123D01*
Y1144016D01*
X426043D01*
Y1141476D01*
X423503D01*
Y1136396D01*
X426043D01*
X427059Y1137412D02*
Y1135888D01*
X430107D01*
Y1137412D01*
X431631D01*
Y1140460D01*
X430107D01*
Y1141984D01*
X427059D01*
Y1140460D01*
X425535D01*
Y1137412D01*
X427059D01*
X314960Y1183171D02*
Y1180631D01*
X320040D01*
Y1183171D01*
X322580D01*
Y1188251D01*
X320040D01*
Y1190791D01*
X314960D01*
Y1188251D01*
X312420D01*
Y1183171D01*
X314960D01*
X315976Y1184187D02*
Y1182663D01*
X319024D01*
Y1184187D01*
X320548D01*
Y1187235D01*
X319024D01*
Y1188759D01*
X315976D01*
Y1187235D01*
X314452D01*
Y1184187D01*
X315976D01*
X289960Y1183171D02*
Y1180631D01*
X295040D01*
Y1183171D01*
X297580D01*
Y1188251D01*
X295040D01*
Y1190791D01*
X289960D01*
Y1188251D01*
X287420D01*
Y1183171D01*
X289960D01*
X290976Y1184187D02*
Y1182663D01*
X294024D01*
Y1184187D01*
X295548D01*
Y1187235D01*
X294024D01*
Y1188759D01*
X290976D01*
Y1187235D01*
X289452D01*
Y1184187D01*
X290976D01*
X421512Y1120394D02*
Y1117854D01*
X426592D01*
Y1120394D01*
X429132D01*
Y1125474D01*
X426592D01*
Y1128014D01*
X421512D01*
Y1125474D01*
X418972D01*
Y1120394D01*
X421512D01*
X422528Y1121410D02*
Y1119886D01*
X425576D01*
Y1121410D01*
X427100D01*
Y1124458D01*
X425576D01*
Y1125982D01*
X422528D01*
Y1124458D01*
X421004D01*
Y1121410D01*
X422528D01*
X532460Y990270D02*
Y987730D01*
X537540D01*
Y990270D01*
X540080D01*
Y995350D01*
X537540D01*
Y997890D01*
X532460D01*
Y995350D01*
X529920D01*
Y990270D01*
X532460D01*
X533476Y991286D02*
Y989762D01*
X536524D01*
Y991286D01*
X538048D01*
Y994334D01*
X536524D01*
Y995858D01*
X533476D01*
Y994334D01*
X531952D01*
Y991286D01*
X533476D01*
X529960Y959650D02*
Y957110D01*
X535040D01*
Y959650D01*
X537580D01*
Y964730D01*
X535040D01*
Y967270D01*
X529960D01*
Y964730D01*
X527420D01*
Y959650D01*
X529960D01*
X530976Y960666D02*
Y959142D01*
X534024D01*
Y960666D01*
X535548D01*
Y963714D01*
X534024D01*
Y965238D01*
X530976D01*
Y963714D01*
X529452D01*
Y960666D01*
X530976D01*
X503460Y995150D02*
Y992610D01*
X508540D01*
Y995150D01*
X511080D01*
Y1000230D01*
X508540D01*
Y1002770D01*
X503460D01*
Y1000230D01*
X500920D01*
Y995150D01*
X503460D01*
X504476Y996166D02*
Y994642D01*
X507524D01*
Y996166D01*
X509048D01*
Y999214D01*
X507524D01*
Y1000738D01*
X504476D01*
Y999214D01*
X502952D01*
Y996166D01*
X504476D01*
X489270Y977460D02*
Y974920D01*
X494350D01*
Y977460D01*
X496890D01*
Y982540D01*
X494350D01*
Y985080D01*
X489270D01*
Y982540D01*
X486730D01*
Y977460D01*
X489270D01*
X490286Y978476D02*
Y976952D01*
X493334D01*
Y978476D01*
X494858D01*
Y981524D01*
X493334D01*
Y983048D01*
X490286D01*
Y981524D01*
X488762D01*
Y978476D01*
X490286D01*
X294960Y1067770D02*
Y1065230D01*
X300040D01*
Y1067770D01*
X302580D01*
Y1072850D01*
X300040D01*
Y1075390D01*
X294960D01*
Y1072850D01*
X292420D01*
Y1067770D01*
X294960D01*
X295976Y1068786D02*
Y1067262D01*
X299024D01*
Y1068786D01*
X300548D01*
Y1071834D01*
X299024D01*
Y1073358D01*
X295976D01*
Y1071834D01*
X294452D01*
Y1068786D01*
X295976D01*
X456764Y963151D02*
Y960611D01*
X461844D01*
Y963151D01*
X464384D01*
Y968231D01*
X461844D01*
Y970771D01*
X456764D01*
Y968231D01*
X454224D01*
Y963151D01*
X456764D01*
X457780Y964167D02*
Y962643D01*
X460828D01*
Y964167D01*
X462352D01*
Y967215D01*
X460828D01*
Y968739D01*
X457780D01*
Y967215D01*
X456256D01*
Y964167D01*
X457780D01*
X406770Y934960D02*
Y932420D01*
X411850D01*
Y934960D01*
X414390D01*
Y940040D01*
X411850D01*
Y942580D01*
X406770D01*
Y940040D01*
X404230D01*
Y934960D01*
X406770D01*
X407786Y935976D02*
Y934452D01*
X410834D01*
Y935976D01*
X412358D01*
Y939024D01*
X410834D01*
Y940548D01*
X407786D01*
Y939024D01*
X406262D01*
Y935976D01*
X407786D01*
X332994Y1076198D02*
Y1073658D01*
X338074D01*
Y1076198D01*
X340614D01*
Y1081278D01*
X338074D01*
Y1083818D01*
X332994D01*
Y1081278D01*
X330454D01*
Y1076198D01*
X332994D01*
X334010Y1077214D02*
Y1075690D01*
X337058D01*
Y1077214D01*
X338582D01*
Y1080262D01*
X337058D01*
Y1081786D01*
X334010D01*
Y1080262D01*
X332486D01*
Y1077214D01*
X334010D01*
X455168Y1075460D02*
Y1072920D01*
X460248D01*
Y1075460D01*
X462788D01*
Y1080540D01*
X460248D01*
Y1083080D01*
X455168D01*
Y1080540D01*
X452628D01*
Y1075460D01*
X455168D01*
X456184Y1076476D02*
Y1074952D01*
X459232D01*
Y1076476D01*
X460756D01*
Y1079524D01*
X459232D01*
Y1081048D01*
X456184D01*
Y1079524D01*
X454660D01*
Y1076476D01*
X456184D01*
X415544Y1107460D02*
Y1104920D01*
X420624D01*
Y1107460D01*
X423164D01*
Y1112540D01*
X420624D01*
Y1115080D01*
X415544D01*
Y1112540D01*
X413004D01*
Y1107460D01*
X415544D01*
X416560Y1108476D02*
Y1106952D01*
X419608D01*
Y1108476D01*
X421132D01*
Y1111524D01*
X419608D01*
Y1113048D01*
X416560D01*
Y1111524D01*
X415036D01*
Y1108476D01*
X416560D01*
X289960Y1151332D02*
Y1148792D01*
X295040D01*
Y1151332D01*
X297580D01*
Y1156412D01*
X295040D01*
Y1158952D01*
X289960D01*
Y1156412D01*
X287420D01*
Y1151332D01*
X289960D01*
X290976Y1152348D02*
Y1150824D01*
X294024D01*
Y1152348D01*
X295548D01*
Y1155396D01*
X294024D01*
Y1156920D01*
X290976D01*
Y1155396D01*
X289452D01*
Y1152348D01*
X290976D01*
X352460Y1147380D02*
Y1144840D01*
X357540D01*
Y1147380D01*
X360080D01*
Y1152460D01*
X357540D01*
Y1155000D01*
X352460D01*
Y1152460D01*
X349920D01*
Y1147380D01*
X352460D01*
X353476Y1148396D02*
Y1146872D01*
X356524D01*
Y1148396D01*
X358048D01*
Y1151444D01*
X356524D01*
Y1152968D01*
X353476D01*
Y1151444D01*
X351952D01*
Y1148396D01*
X353476D01*
X310388Y1167892D02*
Y1165352D01*
X315468D01*
Y1167892D01*
X318008D01*
Y1172972D01*
X315468D01*
Y1175512D01*
X310388D01*
Y1172972D01*
X307848D01*
Y1167892D01*
X310388D01*
X311404Y1168908D02*
Y1167384D01*
X314452D01*
Y1168908D01*
X315976D01*
Y1171956D01*
X314452D01*
Y1173480D01*
X311404D01*
Y1171956D01*
X309880D01*
Y1168908D01*
X311404D01*
X278892Y1125474D02*
Y1122934D01*
X283972D01*
Y1125474D01*
X286512D01*
Y1130554D01*
X283972D01*
Y1133094D01*
X278892D01*
Y1130554D01*
X276352D01*
Y1125474D01*
X278892D01*
X279908Y1126490D02*
Y1124966D01*
X282956D01*
Y1126490D01*
X284480D01*
Y1129538D01*
X282956D01*
Y1131062D01*
X279908D01*
Y1129538D01*
X278384D01*
Y1126490D01*
X279908D01*
X585271Y1162460D02*
Y1159920D01*
X590351D01*
Y1162460D01*
X592891D01*
Y1167540D01*
X590351D01*
Y1170080D01*
X585271D01*
Y1167540D01*
X582731D01*
Y1162460D01*
X585271D01*
X586287Y1163476D02*
Y1161952D01*
X589335D01*
Y1163476D01*
X590859D01*
Y1166524D01*
X589335D01*
Y1168048D01*
X586287D01*
Y1166524D01*
X584763D01*
Y1163476D01*
X586287D01*
X560270Y1162460D02*
Y1159920D01*
X565350D01*
Y1162460D01*
X567890D01*
Y1167540D01*
X565350D01*
Y1170080D01*
X560270D01*
Y1167540D01*
X557730D01*
Y1162460D01*
X560270D01*
X561286Y1163476D02*
Y1161952D01*
X564334D01*
Y1163476D01*
X565858D01*
Y1166524D01*
X564334D01*
Y1168048D01*
X561286D01*
Y1166524D01*
X559762D01*
Y1163476D01*
X561286D01*
X459960Y1222770D02*
Y1220230D01*
X465040D01*
Y1222770D01*
X467580D01*
Y1227850D01*
X465040D01*
Y1230390D01*
X459960D01*
Y1227850D01*
X457420D01*
Y1222770D01*
X459960D01*
X460976Y1223786D02*
Y1222262D01*
X464024D01*
Y1223786D01*
X465548D01*
Y1226834D01*
X464024D01*
Y1228358D01*
X460976D01*
Y1226834D01*
X459452D01*
Y1223786D01*
X460976D01*
X533650Y1099460D02*
Y1096920D01*
X538730D01*
Y1099460D01*
X541270D01*
Y1104540D01*
X538730D01*
Y1107080D01*
X533650D01*
Y1104540D01*
X531110D01*
Y1099460D01*
X533650D01*
X534666Y1100476D02*
Y1098952D01*
X537714D01*
Y1100476D01*
X539238D01*
Y1103524D01*
X537714D01*
Y1105048D01*
X534666D01*
Y1103524D01*
X533142D01*
Y1100476D01*
X534666D01*
X567460Y1071770D02*
Y1069230D01*
X572540D01*
Y1071770D01*
X575080D01*
Y1076850D01*
X572540D01*
Y1079390D01*
X567460D01*
Y1076850D01*
X564920D01*
Y1071770D01*
X567460D01*
X568476Y1072786D02*
Y1071262D01*
X571524D01*
Y1072786D01*
X573048D01*
Y1075834D01*
X571524D01*
Y1077358D01*
X568476D01*
Y1075834D01*
X566952D01*
Y1072786D01*
X568476D01*
X635270Y942460D02*
Y939920D01*
X640350D01*
Y942460D01*
X642890D01*
Y947540D01*
X640350D01*
Y950080D01*
X635270D01*
Y947540D01*
X632730D01*
Y942460D01*
X635270D01*
X636286Y943476D02*
Y941952D01*
X639334D01*
Y943476D01*
X640858D01*
Y946524D01*
X639334D01*
Y948048D01*
X636286D01*
Y946524D01*
X634762D01*
Y943476D01*
X636286D01*
X585270Y1007460D02*
Y1004920D01*
X590350D01*
Y1007460D01*
X592890D01*
Y1012540D01*
X590350D01*
Y1015080D01*
X585270D01*
Y1012540D01*
X582730D01*
Y1007460D01*
X585270D01*
X586286Y1008476D02*
Y1006952D01*
X589334D01*
Y1008476D01*
X590858D01*
Y1011524D01*
X589334D01*
Y1013048D01*
X586286D01*
Y1011524D01*
X584762D01*
Y1008476D01*
X586286D01*
X391377Y1165352D02*
Y1162812D01*
X396457D01*
Y1165352D01*
X398997D01*
Y1170432D01*
X396457D01*
Y1172972D01*
X391377D01*
Y1170432D01*
X388837D01*
Y1165352D01*
X391377D01*
X392393Y1166368D02*
Y1164844D01*
X395441D01*
Y1166368D01*
X396965D01*
Y1169416D01*
X395441D01*
Y1170940D01*
X392393D01*
Y1169416D01*
X390869D01*
Y1166368D01*
X392393D01*
X610270Y942460D02*
Y939920D01*
X615350D01*
Y942460D01*
X617890D01*
Y947540D01*
X615350D01*
Y950080D01*
X610270D01*
Y947540D01*
X607730D01*
Y942460D01*
X610270D01*
X611286Y943476D02*
Y941952D01*
X614334D01*
Y943476D01*
X615858D01*
Y946524D01*
X614334D01*
Y948048D01*
X611286D01*
Y946524D01*
X609762D01*
Y943476D01*
X611286D01*
X391337Y1136396D02*
Y1133856D01*
X396417D01*
Y1136396D01*
X398957D01*
Y1141476D01*
X396417D01*
Y1144016D01*
X391337D01*
Y1141476D01*
X388797D01*
Y1136396D01*
X391337D01*
X392353Y1137412D02*
Y1135888D01*
X395401D01*
Y1137412D01*
X396925D01*
Y1140460D01*
X395401D01*
Y1141984D01*
X392353D01*
Y1140460D01*
X390829D01*
Y1137412D01*
X392353D01*
X274960Y1183171D02*
Y1180631D01*
X280040D01*
Y1183171D01*
X282580D01*
Y1188251D01*
X280040D01*
Y1190791D01*
X274960D01*
Y1188251D01*
X272420D01*
Y1183171D01*
X274960D01*
X275976Y1184187D02*
Y1182663D01*
X279024D01*
Y1184187D01*
X280548D01*
Y1187235D01*
X279024D01*
Y1188759D01*
X275976D01*
Y1187235D01*
X274452D01*
Y1184187D01*
X275976D01*
X573770Y972460D02*
Y969920D01*
X578850D01*
Y972460D01*
X581390D01*
Y977540D01*
X578850D01*
Y980080D01*
X573770D01*
Y977540D01*
X571230D01*
Y972460D01*
X573770D01*
X574786Y973476D02*
Y971952D01*
X577834D01*
Y973476D01*
X579358D01*
Y976524D01*
X577834D01*
Y978048D01*
X574786D01*
Y976524D01*
X573262D01*
Y973476D01*
X574786D01*
X485408Y1049925D02*
Y1047385D01*
X490488D01*
Y1049925D01*
X493028D01*
Y1055005D01*
X490488D01*
Y1057545D01*
X485408D01*
Y1055005D01*
X482868D01*
Y1049925D01*
X485408D01*
X486424Y1050941D02*
Y1049417D01*
X489472D01*
Y1050941D01*
X490996D01*
Y1053989D01*
X489472D01*
Y1055513D01*
X486424D01*
Y1053989D01*
X484900D01*
Y1050941D01*
X486424D01*
X397892Y1120394D02*
Y1117854D01*
X402971D01*
Y1120394D01*
X405512D01*
Y1125474D01*
X402971D01*
Y1128014D01*
X397892D01*
Y1125474D01*
X395351D01*
Y1120394D01*
X397892D01*
X398908Y1121410D02*
Y1119886D01*
X401955D01*
Y1121410D01*
X403479D01*
Y1124458D01*
X401955D01*
Y1125982D01*
X398908D01*
Y1124458D01*
X397383D01*
Y1121410D01*
X398908D01*
X509016Y960377D02*
Y957837D01*
X514096D01*
Y960377D01*
X516636D01*
Y965457D01*
X514096D01*
Y967997D01*
X509016D01*
Y965457D01*
X506476D01*
Y960377D01*
X509016D01*
X510032Y961393D02*
Y959869D01*
X513080D01*
Y961393D01*
X514604D01*
Y964441D01*
X513080D01*
Y965965D01*
X510032D01*
Y964441D01*
X508508D01*
Y961393D01*
X510032D01*
X499960Y959650D02*
Y957110D01*
X505040D01*
Y959650D01*
X507580D01*
Y964730D01*
X505040D01*
Y967270D01*
X499960D01*
Y964730D01*
X497420D01*
Y959650D01*
X499960D01*
X500976Y960666D02*
Y959142D01*
X504024D01*
Y960666D01*
X505548D01*
Y963714D01*
X504024D01*
Y965238D01*
X500976D01*
Y963714D01*
X499452D01*
Y960666D01*
X500976D01*
X340080Y1076280D02*
Y1073740D01*
X345160D01*
Y1076280D01*
X347700D01*
Y1081360D01*
X345160D01*
Y1083900D01*
X340080D01*
Y1081360D01*
X337540D01*
Y1076280D01*
X340080D01*
X341096Y1077296D02*
Y1075772D01*
X344144D01*
Y1077296D01*
X345668D01*
Y1080344D01*
X344144D01*
Y1081868D01*
X341096D01*
Y1080344D01*
X339572D01*
Y1077296D01*
X341096D01*
X441270Y1035460D02*
Y1032920D01*
X446350D01*
Y1035460D01*
X448890D01*
Y1040540D01*
X446350D01*
Y1043080D01*
X441270D01*
Y1040540D01*
X438730D01*
Y1035460D01*
X441270D01*
X442286Y1036476D02*
Y1034952D01*
X445334D01*
Y1036476D01*
X446858D01*
Y1039524D01*
X445334D01*
Y1041048D01*
X442286D01*
Y1039524D01*
X440762D01*
Y1036476D01*
X442286D01*
X264960Y1070310D02*
Y1067770D01*
X270040D01*
Y1070310D01*
X272580D01*
Y1075390D01*
X270040D01*
Y1077930D01*
X264960D01*
Y1075390D01*
X262420D01*
Y1070310D01*
X264960D01*
X265976Y1071326D02*
Y1069802D01*
X269024D01*
Y1071326D01*
X270548D01*
Y1074374D01*
X269024D01*
Y1075898D01*
X265976D01*
Y1074374D01*
X264452D01*
Y1071326D01*
X265976D01*
X402460Y970650D02*
Y968110D01*
X407540D01*
Y970650D01*
X410080D01*
Y975730D01*
X407540D01*
Y978270D01*
X402460D01*
Y975730D01*
X399920D01*
Y970650D01*
X402460D01*
X403476Y971666D02*
Y970142D01*
X406524D01*
Y971666D01*
X408048D01*
Y974714D01*
X406524D01*
Y976238D01*
X403476D01*
Y974714D01*
X401952D01*
Y971666D01*
X403476D01*
X422148Y878078D02*
Y875538D01*
X427228D01*
Y878078D01*
X429768D01*
Y883158D01*
X427228D01*
Y885698D01*
X422148D01*
Y883158D01*
X419608D01*
Y878078D01*
X422148D01*
X423164Y879094D02*
Y877570D01*
X426212D01*
Y879094D01*
X427736D01*
Y882142D01*
X426212D01*
Y883666D01*
X423164D01*
Y882142D01*
X421640D01*
Y879094D01*
X423164D01*
X389960Y897650D02*
Y895110D01*
X395040D01*
Y897650D01*
X397580D01*
Y902730D01*
X395040D01*
Y905270D01*
X389960D01*
Y902730D01*
X387420D01*
Y897650D01*
X389960D01*
X390976Y898666D02*
Y897142D01*
X394024D01*
Y898666D01*
X395548D01*
Y901714D01*
X394024D01*
Y903238D01*
X390976D01*
Y901714D01*
X389452D01*
Y898666D01*
X390976D01*
X350542Y933704D02*
Y931164D01*
X355622D01*
Y933704D01*
X358162D01*
Y938784D01*
X355622D01*
Y941324D01*
X350542D01*
Y938784D01*
X348002D01*
Y933704D01*
X350542D01*
X351558Y934720D02*
Y933196D01*
X354606D01*
Y934720D01*
X356130D01*
Y937768D01*
X354606D01*
Y939292D01*
X351558D01*
Y937768D01*
X350034D01*
Y934720D01*
X351558D01*
X426377Y1165352D02*
Y1162812D01*
X431457D01*
Y1165352D01*
X433997D01*
Y1170432D01*
X431457D01*
Y1172972D01*
X426377D01*
Y1170432D01*
X423837D01*
Y1165352D01*
X426377D01*
X427393Y1166368D02*
Y1164844D01*
X430441D01*
Y1166368D01*
X431965D01*
Y1169416D01*
X430441D01*
Y1170940D01*
X427393D01*
Y1169416D01*
X425869D01*
Y1166368D01*
X427393D01*
X538957Y1001268D02*
Y998728D01*
X544037D01*
Y1001268D01*
X546577D01*
Y1006348D01*
X544037D01*
Y1008888D01*
X538957D01*
Y1006348D01*
X536417D01*
Y1001268D01*
X538957D01*
X539973Y1002284D02*
Y1000760D01*
X543021D01*
Y1002284D01*
X544545D01*
Y1005332D01*
X543021D01*
Y1006856D01*
X539973D01*
Y1005332D01*
X538449D01*
Y1002284D01*
X539973D01*
X330454Y1101598D02*
Y1099058D01*
X335534D01*
Y1101598D01*
X338074D01*
Y1106678D01*
X335534D01*
Y1109218D01*
X330454D01*
Y1106678D01*
X327914D01*
Y1101598D01*
X330454D01*
X331470Y1102614D02*
Y1101090D01*
X334518D01*
Y1102614D01*
X336042D01*
Y1105662D01*
X334518D01*
Y1107186D01*
X331470D01*
Y1105662D01*
X329946D01*
Y1102614D01*
X331470D01*
X374904Y1009904D02*
Y1007364D01*
X379984D01*
Y1009904D01*
X382524D01*
Y1014984D01*
X379984D01*
Y1017524D01*
X374904D01*
Y1014984D01*
X372364D01*
Y1009904D01*
X374904D01*
X375920Y1010920D02*
Y1009396D01*
X378968D01*
Y1010920D01*
X380492D01*
Y1013968D01*
X378968D01*
Y1015492D01*
X375920D01*
Y1013968D01*
X374396D01*
Y1010920D01*
X375920D01*
X331978Y1126490D02*
Y1123950D01*
X337058D01*
Y1126490D01*
X339598D01*
Y1131570D01*
X337058D01*
Y1134110D01*
X331978D01*
Y1131570D01*
X329438D01*
Y1126490D01*
X331978D01*
X332994Y1127506D02*
Y1125982D01*
X336042D01*
Y1127506D01*
X337566D01*
Y1130554D01*
X336042D01*
Y1132078D01*
X332994D01*
Y1130554D01*
X331470D01*
Y1127506D01*
X332994D01*
X299960Y1168654D02*
Y1166114D01*
X305040D01*
Y1168654D01*
X307580D01*
Y1173734D01*
X305040D01*
Y1176274D01*
X299960D01*
Y1173734D01*
X297420D01*
Y1168654D01*
X299960D01*
X300976Y1169670D02*
Y1168146D01*
X304024D01*
Y1169670D01*
X305548D01*
Y1172718D01*
X304024D01*
Y1174242D01*
X300976D01*
Y1172718D01*
X299452D01*
Y1169670D01*
X300976D01*
X532892Y1091946D02*
Y1089406D01*
X537972D01*
Y1091946D01*
X540512D01*
Y1097026D01*
X537972D01*
Y1099566D01*
X532892D01*
Y1097026D01*
X530352D01*
Y1091946D01*
X532892D01*
X533908Y1092962D02*
Y1091438D01*
X536956D01*
Y1092962D01*
X538480D01*
Y1096010D01*
X536956D01*
Y1097534D01*
X533908D01*
Y1096010D01*
X532384D01*
Y1092962D01*
X533908D01*
X279960Y1159256D02*
Y1156716D01*
X285040D01*
Y1159256D01*
X287580D01*
Y1164336D01*
X285040D01*
Y1166876D01*
X279960D01*
Y1164336D01*
X277420D01*
Y1159256D01*
X279960D01*
X280976Y1160272D02*
Y1158748D01*
X284024D01*
Y1160272D01*
X285548D01*
Y1163320D01*
X284024D01*
Y1164844D01*
X280976D01*
Y1163320D01*
X279452D01*
Y1160272D01*
X280976D01*
X362204Y1180338D02*
Y1177798D01*
X367284D01*
Y1180338D01*
X369824D01*
Y1185418D01*
X367284D01*
Y1187958D01*
X362204D01*
Y1185418D01*
X359664D01*
Y1180338D01*
X362204D01*
X363220Y1181354D02*
Y1179830D01*
X366268D01*
Y1181354D01*
X367792D01*
Y1184402D01*
X366268D01*
Y1185926D01*
X363220D01*
Y1184402D01*
X361696D01*
Y1181354D01*
X363220D01*
X362204Y1166622D02*
Y1164082D01*
X367284D01*
Y1166622D01*
X369824D01*
Y1171702D01*
X367284D01*
Y1174242D01*
X362204D01*
Y1171702D01*
X359664D01*
Y1166622D01*
X362204D01*
X363220Y1167638D02*
Y1166114D01*
X366268D01*
Y1167638D01*
X367792D01*
Y1170686D01*
X366268D01*
Y1172210D01*
X363220D01*
Y1170686D01*
X361696D01*
Y1167638D01*
X363220D01*
X305562Y1121156D02*
Y1118616D01*
X310642D01*
Y1121156D01*
X313182D01*
Y1126236D01*
X310642D01*
Y1128776D01*
X305562D01*
Y1126236D01*
X303022D01*
Y1121156D01*
X305562D01*
X306578Y1122172D02*
Y1120648D01*
X309626D01*
Y1122172D01*
X311150D01*
Y1125220D01*
X309626D01*
Y1126744D01*
X306578D01*
Y1125220D01*
X305054D01*
Y1122172D01*
X306578D01*
X354330Y1130046D02*
Y1127506D01*
X359410D01*
Y1130046D01*
X361950D01*
Y1135126D01*
X359410D01*
Y1137666D01*
X354330D01*
Y1135126D01*
X351790D01*
Y1130046D01*
X354330D01*
X355346Y1131062D02*
Y1129538D01*
X358394D01*
Y1131062D01*
X359918D01*
Y1134110D01*
X358394D01*
Y1135634D01*
X355346D01*
Y1134110D01*
X353822D01*
Y1131062D01*
X355346D01*
X533650Y1070000D02*
Y1067460D01*
X538730D01*
Y1070000D01*
X541270D01*
Y1075080D01*
X538730D01*
Y1077620D01*
X533650D01*
Y1075080D01*
X531110D01*
Y1070000D01*
X533650D01*
X534666Y1071016D02*
Y1069492D01*
X537714D01*
Y1071016D01*
X539238D01*
Y1074064D01*
X537714D01*
Y1075588D01*
X534666D01*
Y1074064D01*
X533142D01*
Y1071016D01*
X534666D01*
X337312Y1151128D02*
Y1148588D01*
X342392D01*
Y1151128D01*
X344932D01*
Y1156208D01*
X342392D01*
Y1158748D01*
X337312D01*
Y1156208D01*
X334772D01*
Y1151128D01*
X337312D01*
X338328Y1152144D02*
Y1150620D01*
X341376D01*
Y1152144D01*
X342900D01*
Y1155192D01*
X341376D01*
Y1156716D01*
X338328D01*
Y1155192D01*
X336804D01*
Y1152144D01*
X338328D01*
X298704Y1088136D02*
Y1085596D01*
X303784D01*
Y1088136D01*
X306324D01*
Y1093216D01*
X303784D01*
Y1095756D01*
X298704D01*
Y1093216D01*
X296164D01*
Y1088136D01*
X298704D01*
X299720Y1089152D02*
Y1087628D01*
X302768D01*
Y1089152D01*
X304292D01*
Y1092200D01*
X302768D01*
Y1093724D01*
X299720D01*
Y1092200D01*
X298196D01*
Y1089152D01*
X299720D01*
X338074Y1051814D02*
Y1049274D01*
X343154D01*
Y1051814D01*
X345694D01*
Y1056894D01*
X343154D01*
Y1059434D01*
X338074D01*
Y1056894D01*
X335534D01*
Y1051814D01*
X338074D01*
X339090Y1052830D02*
Y1051306D01*
X342138D01*
Y1052830D01*
X343662D01*
Y1055878D01*
X342138D01*
Y1057402D01*
X339090D01*
Y1055878D01*
X337566D01*
Y1052830D01*
X339090D01*
X335026Y1062482D02*
Y1059942D01*
X340106D01*
Y1062482D01*
X342646D01*
Y1067562D01*
X340106D01*
Y1070102D01*
X335026D01*
Y1067562D01*
X332486D01*
Y1062482D01*
X335026D01*
X336042Y1063498D02*
Y1061974D01*
X339090D01*
Y1063498D01*
X340614D01*
Y1066546D01*
X339090D01*
Y1068070D01*
X336042D01*
Y1066546D01*
X334518D01*
Y1063498D01*
X336042D01*
X469497Y1250845D02*
Y1248305D01*
X474577D01*
Y1250845D01*
X477117D01*
Y1255925D01*
X474577D01*
Y1258465D01*
X469497D01*
Y1255925D01*
X466957D01*
Y1250845D01*
X469497D01*
X470513Y1251861D02*
Y1250337D01*
X473561D01*
Y1251861D01*
X475085D01*
Y1254909D01*
X473561D01*
Y1256433D01*
X470513D01*
Y1254909D01*
X468989D01*
Y1251861D01*
X470513D01*
X498856Y1057148D02*
Y1054608D01*
X503936D01*
Y1057148D01*
X506476D01*
Y1062228D01*
X503936D01*
Y1064768D01*
X498856D01*
Y1062228D01*
X496316D01*
Y1057148D01*
X498856D01*
X499872Y1058164D02*
Y1056640D01*
X502920D01*
Y1058164D01*
X504444D01*
Y1061212D01*
X502920D01*
Y1062736D01*
X499872D01*
Y1061212D01*
X498348D01*
Y1058164D01*
X499872D01*
X358902Y1040130D02*
Y1037590D01*
X363982D01*
Y1040130D01*
X366522D01*
Y1045210D01*
X363982D01*
Y1047750D01*
X358902D01*
Y1045210D01*
X356362D01*
Y1040130D01*
X358902D01*
X359918Y1041146D02*
Y1039622D01*
X362966D01*
Y1041146D01*
X364490D01*
Y1044194D01*
X362966D01*
Y1045718D01*
X359918D01*
Y1044194D01*
X358394D01*
Y1041146D01*
X359918D01*
X313690Y1103122D02*
Y1100582D01*
X318770D01*
Y1103122D01*
X321310D01*
Y1108202D01*
X318770D01*
Y1110742D01*
X313690D01*
Y1108202D01*
X311150D01*
Y1103122D01*
X313690D01*
X314706Y1104138D02*
Y1102614D01*
X317754D01*
Y1104138D01*
X319278D01*
Y1107186D01*
X317754D01*
Y1108710D01*
X314706D01*
Y1107186D01*
X313182D01*
Y1104138D01*
X314706D01*
X382524Y1075944D02*
Y1073404D01*
X387604D01*
Y1075944D01*
X390144D01*
Y1081024D01*
X387604D01*
Y1083564D01*
X382524D01*
Y1081024D01*
X379984D01*
Y1075944D01*
X382524D01*
X383540Y1076960D02*
Y1075436D01*
X386588D01*
Y1076960D01*
X388112D01*
Y1080008D01*
X386588D01*
Y1081532D01*
X383540D01*
Y1080008D01*
X382016D01*
Y1076960D01*
X383540D01*
X398780Y1075944D02*
Y1073404D01*
X403860D01*
Y1075944D01*
X406400D01*
Y1081024D01*
X403860D01*
Y1083564D01*
X398780D01*
Y1081024D01*
X396240D01*
Y1075944D01*
X398780D01*
X399796Y1076960D02*
Y1075436D01*
X402844D01*
Y1076960D01*
X404368D01*
Y1080008D01*
X402844D01*
Y1081532D01*
X399796D01*
Y1080008D01*
X398272D01*
Y1076960D01*
X399796D01*
X410464Y1053592D02*
Y1051052D01*
X415544D01*
Y1053592D01*
X418084D01*
Y1058672D01*
X415544D01*
Y1061212D01*
X410464D01*
Y1058672D01*
X407924D01*
Y1053592D01*
X410464D01*
X411480Y1054608D02*
Y1053084D01*
X414528D01*
Y1054608D01*
X416052D01*
Y1057656D01*
X414528D01*
Y1059180D01*
X411480D01*
Y1057656D01*
X409956D01*
Y1054608D01*
X411480D01*
X410972Y1078484D02*
Y1075944D01*
X416052D01*
Y1078484D01*
X418592D01*
Y1083564D01*
X416052D01*
Y1086104D01*
X410972D01*
Y1083564D01*
X408432D01*
Y1078484D01*
X410972D01*
X411988Y1079500D02*
Y1077976D01*
X415036D01*
Y1079500D01*
X416560D01*
Y1082548D01*
X415036D01*
Y1084072D01*
X411988D01*
Y1082548D01*
X410464D01*
Y1079500D01*
X411988D01*
X319960Y1155954D02*
Y1153414D01*
X325040D01*
Y1155954D01*
X327580D01*
Y1161034D01*
X325040D01*
Y1163574D01*
X319960D01*
Y1161034D01*
X317420D01*
Y1155954D01*
X319960D01*
X320976Y1156970D02*
Y1155446D01*
X324024D01*
Y1156970D01*
X325548D01*
Y1160018D01*
X324024D01*
Y1161542D01*
X320976D01*
Y1160018D01*
X319452D01*
Y1156970D01*
X320976D01*
X311716Y1146271D02*
Y1143731D01*
X316796D01*
Y1146271D01*
X319336D01*
Y1151351D01*
X316796D01*
Y1153891D01*
X311716D01*
Y1151351D01*
X309176D01*
Y1146271D01*
X311716D01*
X312732Y1147287D02*
Y1145763D01*
X315780D01*
Y1147287D01*
X317304D01*
Y1150335D01*
X315780D01*
Y1151859D01*
X312732D01*
Y1150335D01*
X311208D01*
Y1147287D01*
X312732D01*
X344445Y1130935D02*
Y1128395D01*
X349525D01*
Y1130935D01*
X352065D01*
Y1136015D01*
X349525D01*
Y1138555D01*
X344445D01*
Y1136015D01*
X341905D01*
Y1130935D01*
X344445D01*
X345461Y1131951D02*
Y1130427D01*
X348509D01*
Y1131951D01*
X350033D01*
Y1134999D01*
X348509D01*
Y1136523D01*
X345461D01*
Y1134999D01*
X343937D01*
Y1131951D01*
X345461D01*
X324960Y1151476D02*
Y1148936D01*
X330040D01*
Y1151476D01*
X332580D01*
Y1156556D01*
X330040D01*
Y1159096D01*
X324960D01*
Y1156556D01*
X322420D01*
Y1151476D01*
X324960D01*
X325976Y1152492D02*
Y1150968D01*
X329024D01*
Y1152492D01*
X330548D01*
Y1155540D01*
X329024D01*
Y1157064D01*
X325976D01*
Y1155540D01*
X324452D01*
Y1152492D01*
X325976D01*
X312420Y1138936D02*
Y1136396D01*
X317500D01*
Y1138936D01*
X320040D01*
Y1144016D01*
X317500D01*
Y1146556D01*
X312420D01*
Y1144016D01*
X309880D01*
Y1138936D01*
X312420D01*
X313436Y1139952D02*
Y1138428D01*
X316484D01*
Y1139952D01*
X318008D01*
Y1143000D01*
X316484D01*
Y1144524D01*
X313436D01*
Y1143000D01*
X311912D01*
Y1139952D01*
X313436D01*
X342201Y1124331D02*
Y1121791D01*
X347281D01*
Y1124331D01*
X349821D01*
Y1129411D01*
X347281D01*
Y1131951D01*
X342201D01*
Y1129411D01*
X339661D01*
Y1124331D01*
X342201D01*
X343217Y1125347D02*
Y1123823D01*
X346265D01*
Y1125347D01*
X347789D01*
Y1128395D01*
X346265D01*
Y1129919D01*
X343217D01*
Y1128395D01*
X341693D01*
Y1125347D01*
X343217D01*
X395986Y1206500D02*
Y1203960D01*
X401066D01*
Y1206500D01*
X403606D01*
Y1211580D01*
X401066D01*
Y1214120D01*
X395986D01*
Y1211580D01*
X393446D01*
Y1206500D01*
X395986D01*
X397002Y1207516D02*
Y1205992D01*
X400050D01*
Y1207516D01*
X401574D01*
Y1210564D01*
X400050D01*
Y1212088D01*
X397002D01*
Y1210564D01*
X395478D01*
Y1207516D01*
X397002D01*
X352552Y1083818D02*
Y1081278D01*
X357632D01*
Y1083818D01*
X360172D01*
Y1088898D01*
X357632D01*
Y1091438D01*
X352552D01*
Y1088898D01*
X350012D01*
Y1083818D01*
X352552D01*
X353568Y1084834D02*
Y1083310D01*
X356616D01*
Y1084834D01*
X358140D01*
Y1087882D01*
X356616D01*
Y1089406D01*
X353568D01*
Y1087882D01*
X352044D01*
Y1084834D01*
X353568D01*
X414274Y1149858D02*
Y1147318D01*
X419354D01*
Y1149858D01*
X421894D01*
Y1154938D01*
X419354D01*
Y1157478D01*
X414274D01*
Y1154938D01*
X411734D01*
Y1149858D01*
X414274D01*
X415290Y1150874D02*
Y1149350D01*
X418338D01*
Y1150874D01*
X419862D01*
Y1153922D01*
X418338D01*
Y1155446D01*
X415290D01*
Y1153922D01*
X413766D01*
Y1150874D01*
X415290D01*
X294960Y1241044D02*
Y1238504D01*
X300040D01*
Y1241044D01*
X302580D01*
Y1246124D01*
X300040D01*
Y1248664D01*
X294960D01*
Y1246124D01*
X292420D01*
Y1241044D01*
X294960D01*
X295976Y1242060D02*
Y1240536D01*
X299024D01*
Y1242060D01*
X300548D01*
Y1245108D01*
X299024D01*
Y1246632D01*
X295976D01*
Y1245108D01*
X294452D01*
Y1242060D01*
X295976D01*
X431110Y958850D02*
Y956310D01*
X436190D01*
Y958850D01*
X438730D01*
Y963930D01*
X436190D01*
Y966470D01*
X431110D01*
Y963930D01*
X428570D01*
Y958850D01*
X431110D01*
X432126Y959866D02*
Y958342D01*
X435174D01*
Y959866D01*
X436698D01*
Y962914D01*
X435174D01*
Y964438D01*
X432126D01*
Y962914D01*
X430602D01*
Y959866D01*
X432126D01*
X443810Y958922D02*
Y956382D01*
X448890D01*
Y958922D01*
X451430D01*
Y964002D01*
X448890D01*
Y966542D01*
X443810D01*
Y964002D01*
X441270D01*
Y958922D01*
X443810D01*
X444826Y959938D02*
Y958414D01*
X447874D01*
Y959938D01*
X449398D01*
Y962986D01*
X447874D01*
Y964510D01*
X444826D01*
Y962986D01*
X443302D01*
Y959938D01*
X444826D01*
D32*
X610500Y1084450D02*
G03*
X608400Y1086550I-2100J0D01*
G01*
Y1063450D02*
G03*
X610500Y1065550I0J2100D01*
G01*
Y1122550D02*
G03*
X608400Y1124650I-2100J0D01*
G01*
X610500Y1008250D02*
G03*
X608400Y1010350I-2100J0D01*
G01*
X610500Y1046350D02*
G03*
X608400Y1048450I-2100J0D01*
G01*
Y1101550D02*
G03*
X610500Y1103650I0J2100D01*
G01*
X608400Y1139650D02*
G03*
X610500Y1141750I0J2100D01*
G01*
X608400Y1025350D02*
G03*
X610500Y1027450I0J2100D01*
G01*
X458377Y920000D02*
G03*
X458377Y920000I-3377J0D01*
G01*
X348377D02*
G03*
X348377Y920000I-3377J0D01*
G01*
X457000Y901000D02*
Y919000D01*
X452000Y901000D02*
Y919000D01*
X457000D01*
X452000Y901000D02*
X457000D01*
X423000D02*
Y919000D01*
X428000Y901000D02*
Y919000D01*
X423000D02*
X428000D01*
X423000Y901000D02*
X428000D01*
Y918800D02*
X452000D01*
X428000Y901200D02*
X452000D01*
X552000Y962500D02*
X553500D01*
X552000Y970000D02*
X553500D01*
X626500Y962500D02*
X628000D01*
X626500Y970000D02*
X628000D01*
X552000Y962500D02*
Y987500D01*
X553500D01*
X552000Y980000D02*
X553500D01*
X628000Y962500D02*
Y987500D01*
X626500D02*
X628000D01*
X626500Y980000D02*
X628000D01*
X626700Y970000D02*
Y980000D01*
X553300Y970000D02*
Y980000D01*
X553500Y994750D02*
X555990Y992260D01*
X553500Y955250D02*
Y994750D01*
Y955250D02*
X555990Y957739D01*
Y992260D01*
X610010Y992267D02*
X619068D01*
X624706Y992956D01*
X626500Y994750D01*
X553500D02*
X626500D01*
X555990Y992260D02*
X610010Y992267D01*
Y980753D02*
Y992267D01*
X555990Y957739D02*
X610010Y957732D01*
X553500Y955250D02*
X626500D01*
X624706Y957044D02*
X626500Y955250D01*
X619068Y957732D02*
X624706Y957044D01*
X610010Y957732D02*
X619068D01*
X610010D02*
Y969247D01*
X619011D02*
Y980753D01*
X610010Y969247D02*
X619068D01*
X610010Y980753D02*
X619068D01*
Y957732D02*
Y969247D01*
X624706Y957044D02*
Y992956D01*
X619068Y980753D02*
Y992267D01*
X626500Y955250D02*
Y994750D01*
X618500Y1119150D02*
Y1145150D01*
X600500Y1025350D02*
X608400D01*
X600500Y1063450D02*
X608400D01*
X610500Y1119150D02*
X618500D01*
X620600Y1117050D01*
X600500Y1124650D02*
X608400D01*
X610500Y1107050D02*
X618500D01*
X610500Y1103650D02*
Y1107050D01*
X608400Y1109150D02*
X610500Y1107050D01*
Y1004850D02*
X618500D01*
X600500Y1101550D02*
X608400D01*
X610500Y1042950D02*
X618500D01*
X600500Y1010350D02*
X608400D01*
X600500Y1139650D02*
X608400D01*
X618500Y1004850D02*
Y1030850D01*
Y1004850D02*
X620600Y1002750D01*
X618500Y1081050D02*
Y1107050D01*
X620600Y1109150D01*
X610500Y1030850D02*
X618500D01*
X620600Y1032950D01*
X610500Y1027450D02*
Y1030850D01*
X608400Y1032950D02*
X610500Y1030850D01*
Y1119150D02*
Y1122550D01*
X608400Y1117050D02*
X610500Y1119150D01*
X618500Y1042950D02*
Y1068950D01*
Y1042950D02*
X620600Y1040850D01*
X600500Y1048450D02*
X608400D01*
X610500Y1004850D02*
Y1008250D01*
X608400Y1002750D02*
X610500Y1004850D01*
Y1141750D02*
Y1145150D01*
X600500Y1086550D02*
X608400D01*
X610500Y1042950D02*
Y1046350D01*
X608400Y1040850D02*
X610500Y1042950D01*
Y1081050D02*
Y1084450D01*
Y1081050D02*
X618500D01*
X608400Y1078950D02*
X610500Y1081050D01*
X618500D02*
X620600Y1078950D01*
X610500Y1068950D02*
X618500D01*
X620600Y1071050D01*
X610500Y1065550D02*
Y1068950D01*
X608400Y1071050D02*
X610500Y1068950D01*
X608400Y1002750D02*
X620600D01*
X600500Y993750D02*
Y1156250D01*
Y993750D02*
X679500D01*
X687500Y987350D01*
X679500Y1156250D02*
X687500Y1162650D01*
X600500Y1156250D02*
X679500D01*
X620600Y1117050D02*
Y1147250D01*
X608400Y1117050D02*
X620600D01*
X608400Y1109150D02*
X620600D01*
Y1078950D02*
Y1109150D01*
X608400Y1078950D02*
X620600D01*
X608400Y1071050D02*
X620600D01*
Y1040850D02*
Y1071050D01*
X608400Y1040850D02*
X620600D01*
X608400Y1032950D02*
X620600D01*
Y1002750D02*
Y1032950D01*
X610500Y1145150D02*
X618500D01*
X620600Y1147250D01*
X608400D02*
X620600D01*
X608400D02*
X610500Y1145150D01*
X608400Y1078950D02*
Y1086550D01*
X600500Y1084450D02*
X610500D01*
X600500Y1065550D02*
X610500D01*
X608400Y1063450D02*
Y1071050D01*
Y1117050D02*
Y1124650D01*
X600500Y1122550D02*
X610500D01*
X608400Y1002750D02*
Y1010350D01*
X600500Y1008250D02*
X610500D01*
X608400Y1040850D02*
Y1048450D01*
X600500Y1046350D02*
X610500D01*
X600500Y1103650D02*
X610500D01*
X608400Y1101550D02*
Y1109150D01*
X600500Y1141750D02*
X610500D01*
X608400Y1139650D02*
Y1147250D01*
X600500Y1027450D02*
X610500D01*
X608400Y1025350D02*
Y1032950D01*
X692500Y987350D02*
Y1162650D01*
X687500Y1020350D02*
Y1162650D01*
X692500D01*
X682500Y1015350D02*
Y1020350D01*
Y1015350D02*
X687500D01*
Y987350D02*
Y1015350D01*
Y987350D02*
X692500D01*
X682500Y1020350D02*
X687500D01*
X566000Y1133000D02*
X584000D01*
X566000Y1138000D02*
X584000D01*
X566000Y1133000D02*
Y1138000D01*
X584000Y1133000D02*
Y1138000D01*
X566000Y1167000D02*
X584000D01*
X566000Y1162000D02*
X584000D01*
X566000D02*
Y1167000D01*
X584000Y1162000D02*
Y1167000D01*
X566200Y1138000D02*
Y1162000D01*
X583801Y1138000D02*
Y1162000D01*
X317250Y995250D02*
X320250D01*
Y989750D02*
Y995250D01*
X317250Y989750D02*
Y995250D01*
Y989750D02*
X320250D01*
X309750Y995250D02*
X312750D01*
Y989750D02*
Y995250D01*
X309750Y989750D02*
X312750D01*
X309750D02*
Y995250D01*
X312750Y989760D02*
X317250D01*
X312750D02*
X317250Y989765D01*
X312750Y995236D02*
X317250Y995240D01*
X312750Y995236D02*
X317250Y995240D01*
X537000Y971000D02*
Y989000D01*
X532000Y971000D02*
Y989000D01*
Y971000D02*
X537000D01*
X532000Y989000D02*
X537000D01*
X503000Y971000D02*
Y989000D01*
X508000Y971000D02*
Y989000D01*
X503000Y971000D02*
X508000D01*
X503000Y989000D02*
X508000D01*
Y971200D02*
X532000D01*
X508000Y988800D02*
X532000D01*
X514240Y1054118D02*
X532240D01*
X514240Y1059118D02*
X532240D01*
Y1054118D02*
Y1059118D01*
X514240Y1054118D02*
Y1059118D01*
Y1088118D02*
X532240D01*
X514240Y1083118D02*
X532240D01*
Y1088118D01*
X514240Y1083118D02*
Y1088118D01*
X532040Y1059118D02*
Y1083118D01*
X514440Y1059118D02*
Y1083118D01*
X468500Y1207000D02*
X486500D01*
X468500Y1202000D02*
X486500D01*
X468500D02*
Y1207000D01*
X486500Y1202000D02*
Y1207000D01*
X468500Y1173000D02*
X486500D01*
X468500Y1178000D02*
X486500D01*
X468500Y1173000D02*
Y1178000D01*
X486500Y1173000D02*
Y1178000D01*
X468700D02*
Y1202000D01*
X486300Y1178000D02*
Y1202000D01*
X329750Y1069750D02*
Y1075250D01*
X331750Y1069750D02*
Y1075250D01*
X329750Y1069750D02*
X331750D01*
X329750Y1075250D02*
X331750D01*
X338250Y1069750D02*
X340250D01*
X338250Y1075250D02*
X340250D01*
Y1069750D02*
Y1075250D01*
X338250Y1069750D02*
Y1075250D01*
X331750Y1069950D02*
X338250D01*
X331750Y1075050D02*
X338250D01*
X292250Y1090250D02*
X297750D01*
X292250Y1088250D02*
X297750D01*
Y1090250D01*
X292250Y1088250D02*
Y1090250D01*
X297750Y1079750D02*
Y1081750D01*
X292250Y1079750D02*
Y1081750D01*
Y1079750D02*
X297750D01*
X292250Y1081750D02*
X297750D01*
X297550D02*
Y1088250D01*
X292451Y1081750D02*
Y1088250D01*
X500500Y966000D02*
Y984000D01*
X505500Y966000D02*
Y984000D01*
X500500Y966000D02*
X505500D01*
X500500Y984000D02*
X505500D01*
X534500Y966000D02*
Y984000D01*
X529500Y966000D02*
Y984000D01*
Y966000D02*
X534500D01*
X529500Y984000D02*
X534500D01*
X505500Y966200D02*
X529500D01*
X505500Y983800D02*
X529500D01*
X271562Y1157165D02*
X276062Y1157170D01*
X271562Y1157165D02*
X276062Y1157170D01*
X271562Y1151690D02*
X276062Y1151695D01*
X271562Y1151690D02*
X276062D01*
X268562Y1151680D02*
Y1157180D01*
Y1151680D02*
X271562D01*
Y1157180D01*
X268562D02*
X271562D01*
X276062Y1151680D02*
X279062D01*
X276062D02*
Y1157180D01*
X279062Y1151680D02*
Y1157180D01*
X276062D02*
X279062D01*
X430500Y1203500D02*
Y1221500D01*
X435500Y1203500D02*
Y1221500D01*
X430500D02*
X435500D01*
X430500Y1203500D02*
X435500D01*
X464500D02*
Y1221500D01*
X459500Y1203500D02*
Y1221500D01*
X464500D01*
X459500Y1203500D02*
X464500D01*
X435500Y1221300D02*
X459500D01*
X435500Y1203700D02*
X459500D01*
X460031Y901425D02*
Y938575D01*
X464500Y939372D01*
Y900075D02*
Y939500D01*
X460031Y901425D02*
X464500Y900628D01*
X415500Y900075D02*
X416425Y899150D01*
X415500Y900075D02*
Y939500D01*
Y900628D02*
X419969Y901425D01*
X460031D01*
X463575Y899150D02*
X464500Y900075D01*
X454000Y899150D02*
X463575D01*
X446000Y899724D02*
X454000D01*
X434000Y899150D02*
X446000D01*
X426000Y899724D02*
X434000D01*
X416425Y899150D02*
X426000D01*
X415500Y939372D02*
X419969Y938575D01*
Y901425D02*
Y938575D01*
X415500Y939500D02*
X464500D01*
X419969Y938575D02*
X460031D01*
X418850Y942166D02*
X423050D01*
X418850Y945064D02*
X423050D01*
Y939500D02*
Y950000D01*
X418850Y939500D02*
Y950000D01*
X431550Y942166D02*
X435750D01*
X431550Y939500D02*
Y950000D01*
Y945064D02*
X435750D01*
Y939500D02*
Y950000D01*
X444250Y942166D02*
X448450D01*
X444250Y945064D02*
X448450D01*
X444250Y939500D02*
Y950000D01*
X448450Y939500D02*
Y950000D01*
X456950Y942166D02*
X461150D01*
X456950Y945064D02*
X461150D01*
Y939500D02*
Y950000D01*
X456950Y939500D02*
Y950000D01*
X418850Y945432D02*
X423050D01*
X431550D02*
X435750D01*
X444250D02*
X448450D01*
X456950D02*
X461150D01*
X418850Y946311D02*
X423050D01*
X431550D02*
X435750D01*
X444250D02*
X448450D01*
X456950D02*
X461150D01*
X434000Y899000D02*
Y899724D01*
Y899000D02*
X446000D01*
Y899724D01*
X454000Y897000D02*
Y899724D01*
Y897000D02*
X461000D01*
Y894500D02*
Y897000D01*
X456500Y890000D02*
X461000Y894500D01*
X423500Y890000D02*
X456500D01*
X419000Y894500D02*
X423500Y890000D01*
X419000Y894500D02*
Y897000D01*
X426000D02*
Y899724D01*
X419000Y897000D02*
X426000D01*
X418850Y950000D02*
X423050D01*
X431550D02*
X435750D01*
X444250D02*
X448450D01*
X456950D02*
X461150D01*
X350031Y901425D02*
Y938575D01*
X354500Y939372D01*
Y900075D02*
Y939500D01*
X350031Y901425D02*
X354500Y900628D01*
X305500Y900075D02*
X306425Y899150D01*
X305500Y900075D02*
Y939500D01*
Y900628D02*
X309969Y901425D01*
X350031D01*
X353576Y899150D02*
X354500Y900075D01*
X344000Y899150D02*
X353576D01*
X336000Y899724D02*
X344000D01*
X324000Y899150D02*
X336000D01*
X316000Y899724D02*
X324000D01*
X306425Y899150D02*
X316000D01*
X305500Y939372D02*
X309969Y938575D01*
Y901425D02*
Y938575D01*
X305500Y939500D02*
X354500D01*
X309969Y938575D02*
X350031D01*
X308850Y942166D02*
X313050D01*
X308850Y945064D02*
X313050D01*
Y939500D02*
Y950000D01*
X308850Y939500D02*
Y950000D01*
X321550Y942166D02*
X325750D01*
X321550Y939500D02*
Y950000D01*
Y945064D02*
X325750D01*
Y939500D02*
Y950000D01*
X334250Y942166D02*
X338450D01*
X334250Y945064D02*
X338450D01*
X334250Y939500D02*
Y950000D01*
X338450Y939500D02*
Y950000D01*
X346950Y942166D02*
X351150D01*
X346950Y945064D02*
X351150D01*
Y939500D02*
Y950000D01*
X346950Y939500D02*
Y950000D01*
X308850Y945432D02*
X313050D01*
X321550D02*
X325750D01*
X334250D02*
X338450D01*
X346950D02*
X351150D01*
X308850Y946311D02*
X313050D01*
X321550D02*
X325750D01*
X334250D02*
X338450D01*
X346950D02*
X351150D01*
X324000Y899000D02*
Y899724D01*
Y899000D02*
X336000D01*
Y899724D01*
X344000Y897000D02*
Y899724D01*
Y897000D02*
X351000D01*
Y894500D02*
Y897000D01*
X346500Y890000D02*
X351000Y894500D01*
X313500Y890000D02*
X346500D01*
X309000Y894500D02*
X313500Y890000D01*
X309000Y894500D02*
Y897000D01*
X316000D02*
Y899724D01*
X309000Y897000D02*
X316000D01*
X308850Y950000D02*
X313050D01*
X321550D02*
X325750D01*
X334250D02*
X338450D01*
X346950D02*
X351150D01*
X616000Y947000D02*
X634000D01*
X616000Y942000D02*
X634000D01*
Y947000D01*
X616000Y942000D02*
Y947000D01*
Y913000D02*
X634000D01*
X616000Y918000D02*
X634000D01*
Y913000D02*
Y918000D01*
X616000Y913000D02*
Y918000D01*
X633800D02*
Y942000D01*
X616200Y918000D02*
Y942000D01*
X591000Y947000D02*
X609000D01*
X591000Y942000D02*
X609000D01*
Y947000D01*
X591000Y942000D02*
Y947000D01*
Y913000D02*
X609000D01*
X591000Y918000D02*
X609000D01*
Y913000D02*
Y918000D01*
X591000Y913000D02*
Y918000D01*
X608800D02*
Y942000D01*
X591200Y918000D02*
Y942000D01*
X295500Y1213500D02*
Y1231500D01*
X300500Y1213500D02*
Y1231500D01*
X295500D02*
X300500D01*
X295500Y1213500D02*
X300500D01*
X329500D02*
Y1231500D01*
X324500Y1213500D02*
Y1231500D01*
X329500D01*
X324500Y1213500D02*
X329500D01*
X300500Y1231300D02*
X324500D01*
X300500Y1213700D02*
X324500D01*
X541000Y1167000D02*
X559000D01*
X541000Y1162000D02*
X559000D01*
Y1167000D01*
X541000Y1162000D02*
Y1167000D01*
Y1133000D02*
X559000D01*
X541000Y1138000D02*
X559000D01*
Y1133000D02*
Y1138000D01*
X541000Y1133000D02*
Y1138000D01*
X558800D02*
Y1162000D01*
X541200Y1138000D02*
Y1162000D01*
X271308Y1139385D02*
X275808Y1139390D01*
X271308Y1139385D02*
X275808Y1139390D01*
X271308Y1133910D02*
X275808Y1133915D01*
X271308Y1133910D02*
X275808D01*
X268308Y1133900D02*
Y1139400D01*
Y1133900D02*
X271308D01*
Y1139400D01*
X268308D02*
X271308D01*
X275808Y1133900D02*
X278808D01*
X275808D02*
Y1139400D01*
X278808Y1133900D02*
Y1139400D01*
X275808D02*
X278808D01*
X389750Y972250D02*
Y975250D01*
X395250D01*
X389750Y972250D02*
X395250D01*
Y975250D01*
X389750Y964750D02*
Y967750D01*
X395250D01*
Y964750D02*
Y967750D01*
X389750Y964750D02*
X395250D01*
X395240Y967750D02*
Y972250D01*
X395235D02*
X395240Y967750D01*
X389760Y972250D02*
X389765Y967750D01*
X389760Y972250D02*
X389765Y967750D01*
X404750Y977250D02*
X407750D01*
X404750D02*
Y982750D01*
X407750Y977250D02*
Y982750D01*
X404750D02*
X407750D01*
X412250Y977250D02*
X415250D01*
X412250D02*
Y982750D01*
X415250D01*
Y977250D02*
Y982750D01*
X407750Y982740D02*
X412250D01*
X407750Y982735D02*
X412250Y982740D01*
X407750Y977260D02*
X412250Y977265D01*
X407750Y977260D02*
X412250Y977265D01*
X395250Y944750D02*
Y947750D01*
X389750Y944750D02*
X395250D01*
X389750Y947750D02*
X395250D01*
X389750Y944750D02*
Y947750D01*
X395250Y952250D02*
Y955250D01*
X389750Y952250D02*
X395250D01*
X389750D02*
Y955250D01*
X395250D01*
X389760Y947750D02*
Y952250D01*
X389765Y947750D01*
X395235Y952250D02*
X395240Y947750D01*
X395235Y952250D02*
X395240Y947750D01*
X459260Y1180251D02*
X459264Y1159750D01*
X459260Y1180251D02*
X459264Y1159750D01*
X475735Y1180251D02*
X475740Y1159750D01*
Y1180251D01*
X459250Y1153750D02*
X475750D01*
Y1159750D01*
X459250D02*
X475750D01*
X459250Y1153750D02*
Y1159750D01*
X475750Y1180251D02*
Y1186251D01*
X459250Y1180251D02*
X475750D01*
X459250Y1186251D02*
X475750D01*
X459250Y1180251D02*
Y1186251D01*
X317250Y982750D02*
X320250D01*
Y977250D02*
Y982750D01*
X317250Y977250D02*
Y982750D01*
Y977250D02*
X320250D01*
X309750Y982750D02*
X312750D01*
Y977250D02*
Y982750D01*
X309750Y977250D02*
X312750D01*
X309750D02*
Y982750D01*
X312750Y977260D02*
X317250D01*
X312750D02*
X317250Y977265D01*
X312750Y982735D02*
X317250Y982740D01*
X312750Y982735D02*
X317250Y982740D01*
X309750Y962250D02*
X312750D01*
X309750D02*
Y967750D01*
X312750Y962250D02*
Y967750D01*
X309750D02*
X312750D01*
X317250Y962250D02*
X320250D01*
X317250D02*
Y967750D01*
X320250D01*
Y962250D02*
Y967750D01*
X312750Y967740D02*
X317250D01*
X312750Y967735D02*
X317250Y967740D01*
X312750Y962260D02*
X317250Y962265D01*
X312750Y962260D02*
X317250Y962265D01*
X474750Y977250D02*
Y982750D01*
X476750Y977250D02*
Y982750D01*
X474750D02*
X476750D01*
X474750Y977250D02*
X476750D01*
X483250Y982750D02*
X485250D01*
X483250Y977250D02*
X485250D01*
Y982750D01*
X483250Y977250D02*
Y982750D01*
X476750Y982550D02*
X483250D01*
X476750Y977450D02*
X483250D01*
X567250Y1067750D02*
X572750D01*
X567250Y1065750D02*
X572750D01*
Y1067750D01*
X567250Y1065750D02*
Y1067750D01*
X572750Y1057250D02*
Y1059250D01*
X567250Y1057250D02*
Y1059250D01*
Y1057250D02*
X572750D01*
X567250Y1059250D02*
X572750D01*
X572550D02*
Y1065750D01*
X567450Y1059250D02*
Y1065750D01*
X450249Y1157250D02*
Y1162750D01*
X448250Y1157250D02*
Y1162750D01*
Y1157250D02*
X450249D01*
X448250Y1162750D02*
X450249D01*
X439750Y1157250D02*
X441750D01*
X439750Y1162750D02*
X441750D01*
X439750Y1157250D02*
Y1162750D01*
X441750Y1157250D02*
Y1162750D01*
Y1157450D02*
X448250D01*
X441750Y1162550D02*
X448250D01*
X437250Y976760D02*
X457750Y976765D01*
X437250Y976760D02*
X457750Y976765D01*
X437250Y993235D02*
X457750Y993240D01*
X437250D02*
X457750D01*
X463750Y976750D02*
Y993250D01*
X457750D02*
X463750D01*
X457750Y976750D02*
Y993250D01*
Y976750D02*
X463750D01*
X431250Y993250D02*
X437250D01*
Y976750D02*
Y993250D01*
X431250Y976750D02*
Y993250D01*
Y976750D02*
X437250D01*
X404750Y1157250D02*
Y1162750D01*
X406750Y1157250D02*
Y1162750D01*
X404750D02*
X406750D01*
X404750Y1157250D02*
X406750D01*
X413250Y1162750D02*
X415250D01*
X413250Y1157250D02*
X415250D01*
Y1162750D01*
X413250Y1157250D02*
Y1162750D01*
X406750Y1162550D02*
X413250D01*
X406750Y1157450D02*
X413250D01*
X407250Y1139750D02*
Y1145250D01*
X409250Y1139750D02*
Y1145250D01*
X407250D02*
X409250D01*
X407250Y1139750D02*
X409250D01*
X415750Y1145250D02*
X417750D01*
X415750Y1139750D02*
X417750D01*
Y1145250D01*
X415750Y1139750D02*
Y1145250D01*
X409250Y1145050D02*
X415750D01*
X409250Y1139950D02*
X415750D01*
X406992Y1120184D02*
Y1125684D01*
X408992Y1120184D02*
Y1125684D01*
X406992D02*
X408992D01*
X406992Y1120184D02*
X408992D01*
X415492Y1125684D02*
X417492D01*
X415492Y1120184D02*
X417492D01*
Y1125684D01*
X415492Y1120184D02*
Y1125684D01*
X408992Y1125484D02*
X415492D01*
X408992Y1120384D02*
X415492D01*
X309760Y1077250D02*
X309765Y1072750D01*
X309760Y1077250D02*
X309765Y1072750D01*
X315235Y1077250D02*
X315240Y1072750D01*
Y1077250D01*
X309749Y1069750D02*
X315250D01*
Y1072750D01*
X309749D02*
X315250D01*
X309749Y1069750D02*
Y1072750D01*
X315250Y1077250D02*
Y1080250D01*
X309749Y1077250D02*
X315250D01*
X309749Y1080250D02*
X315250D01*
X309749Y1077250D02*
Y1080250D01*
X547250Y1009750D02*
Y1015250D01*
X549250Y1009750D02*
Y1015250D01*
X547250D02*
X549250D01*
X547250Y1009750D02*
X549250D01*
X555751Y1015250D02*
X557751D01*
X555751Y1009750D02*
X557751D01*
Y1015250D01*
X555751Y1009750D02*
Y1015250D01*
X549250Y1015050D02*
X555751D01*
X549250Y1009950D02*
X555751D01*
X324500Y925000D02*
X326000D01*
X324500Y932500D02*
X326000D01*
X399000Y925000D02*
X400500D01*
X399000Y932500D02*
X400500D01*
X324500Y925000D02*
Y950000D01*
X326000D01*
X324500Y942500D02*
X326000D01*
X400500Y925000D02*
Y950000D01*
X399000D02*
X400500D01*
X399000Y942500D02*
X400500D01*
X399200Y932500D02*
Y942500D01*
X325800Y932500D02*
Y942500D01*
X326000Y957250D02*
X328490Y954761D01*
X326000Y917750D02*
Y957250D01*
Y917750D02*
X328490Y920239D01*
Y954761D01*
X382510Y954768D02*
X391568D01*
X397206Y955457D01*
X399000Y957250D01*
X326000D02*
X399000D01*
X328490Y954761D02*
X382510Y954768D01*
Y943253D02*
Y954768D01*
X328490Y920239D02*
X382510Y920232D01*
X326000Y917750D02*
X399000D01*
X397206Y919544D02*
X399000Y917750D01*
X391568Y920232D02*
X397206Y919544D01*
X382510Y920232D02*
X391568D01*
X382510D02*
Y931747D01*
X391511D02*
Y943253D01*
X382510Y931747D02*
X391568D01*
X382510Y943253D02*
X391568D01*
Y920232D02*
Y931747D01*
X397206Y919544D02*
Y955457D01*
X391568Y943253D02*
Y954768D01*
X399000Y917750D02*
Y957250D01*
X566000Y1008000D02*
X584000D01*
X566000Y1013000D02*
X584000D01*
X566000Y1008000D02*
Y1013000D01*
X584000Y1008000D02*
Y1013000D01*
X566000Y1042001D02*
X584000D01*
X566000Y1037000D02*
X584000D01*
X566000D02*
Y1042001D01*
X584000Y1037000D02*
Y1042001D01*
X566200Y1013000D02*
Y1037000D01*
X583800Y1013000D02*
Y1037000D01*
X489948Y1056276D02*
Y1074276D01*
X484948Y1056276D02*
Y1074276D01*
X489948D01*
X484948Y1056276D02*
X489948D01*
X455947D02*
Y1074276D01*
X460947Y1056276D02*
Y1074276D01*
X455947D02*
X460947D01*
X455947Y1056276D02*
X460947D01*
Y1074076D02*
X484948D01*
X460947Y1056476D02*
X484948D01*
X265500Y1048500D02*
Y1066500D01*
X270500Y1048500D02*
Y1066500D01*
X265500D02*
X270500D01*
X265500Y1048500D02*
X270500D01*
X299500D02*
Y1066500D01*
X294500Y1048500D02*
Y1066500D01*
X299500D01*
X294500Y1048500D02*
X299500D01*
X270500Y1066300D02*
X294500D01*
X270500Y1048700D02*
X294500D01*
D33*
X336500Y1133500D02*
G03*
X336500Y1133500I-5000J0D01*
G01*
X536000Y1111000D02*
G03*
X536000Y1111000I-5000J0D01*
G01*
X385000Y1069000D02*
G03*
X385000Y1069000I-5000J0D01*
G01*
X421750Y1091000D02*
Y1154000D01*
X453250Y1091000D02*
Y1154000D01*
X421750D02*
X453250D01*
X421750Y1091000D02*
X453250D01*
X374250Y1091000D02*
Y1154000D01*
X405750Y1091000D02*
Y1154000D01*
X374250D02*
X405750D01*
X374250Y1091000D02*
X405750D01*
X322500Y1092500D02*
Y1142500D01*
X372500Y1092500D02*
Y1142500D01*
X322500D02*
X372500D01*
X322500Y1092500D02*
X372500D01*
X440000Y1020000D02*
Y1120000D01*
X540000Y1020000D02*
Y1120000D01*
X440000Y1020000D02*
X540000D01*
X440000Y1120000D02*
X540000D01*
X358000Y1047000D02*
X389000D01*
X358000Y1078000D02*
X389000D01*
X358000Y1047000D02*
Y1078000D01*
X389000Y1047000D02*
Y1078000D01*
D118*
X495080Y870000D02*
G03*
X495080Y870000I-5080J0D01*
G01*
X520080D02*
G03*
X520080Y870000I-5080J0D01*
G01*
X545080D02*
G03*
X545080Y870000I-5080J0D01*
G01*
X287580Y976700D02*
G03*
X287580Y976700I-5080J0D01*
G01*
Y1002100D02*
G03*
X287580Y1002100I-5080J0D01*
G01*
Y1027500D02*
G03*
X287580Y1027500I-5080J0D01*
G01*
Y951300D02*
G03*
X287580Y951300I-5080J0D01*
G01*
X657580Y1075000D02*
G03*
X657580Y1075000I-5080J0D01*
G01*
Y1100000D02*
G03*
X657580Y1100000I-5080J0D01*
G01*
Y1125000D02*
G03*
X657580Y1125000I-5080J0D01*
G01*
X440880Y1237500D02*
G03*
X440880Y1237500I-5080J0D01*
G01*
X415480D02*
G03*
X415480Y1237500I-5080J0D01*
G01*
X390080D02*
G03*
X390080Y1237500I-5080J0D01*
G01*
X466280D02*
G03*
X466280Y1237500I-5080J0D01*
G01*
D119*
X285548Y976700D02*
G03*
X285548Y976700I-3048J0D01*
G01*
Y1002100D02*
G03*
X285548Y1002100I-3048J0D01*
G01*
Y1027500D02*
G03*
X285548Y1027500I-3048J0D01*
G01*
Y951300D02*
G03*
X285548Y951300I-3048J0D01*
G01*
X438848Y1237500D02*
G03*
X438848Y1237500I-3048J0D01*
G01*
X413448D02*
G03*
X413448Y1237500I-3048J0D01*
G01*
X388048D02*
G03*
X388048Y1237500I-3048J0D01*
G01*
X464248D02*
G03*
X464248Y1237500I-3048J0D01*
G01*
M02*
