G04 Layer_Physical_Order=4*
G04 Layer_Color=16711680*
%FSLAX44Y44*%
%MOMM*%
G71*
G01*
G75*
G04:AMPARAMS|DCode=10|XSize=1.8mm|YSize=1.15mm|CornerRadius=0.1437mm|HoleSize=0mm|Usage=FLASHONLY|Rotation=0.000|XOffset=0mm|YOffset=0mm|HoleType=Round|Shape=RoundedRectangle|*
%AMROUNDEDRECTD10*
21,1,1.8000,0.8625,0,0,0.0*
21,1,1.5125,1.1500,0,0,0.0*
1,1,0.2875,0.7562,-0.4313*
1,1,0.2875,-0.7562,-0.4313*
1,1,0.2875,-0.7562,0.4313*
1,1,0.2875,0.7562,0.4313*
%
%ADD10ROUNDEDRECTD10*%
G04:AMPARAMS|DCode=14|XSize=1.8mm|YSize=1.15mm|CornerRadius=0.1437mm|HoleSize=0mm|Usage=FLASHONLY|Rotation=90.000|XOffset=0mm|YOffset=0mm|HoleType=Round|Shape=RoundedRectangle|*
%AMROUNDEDRECTD14*
21,1,1.8000,0.8625,0,0,90.0*
21,1,1.5125,1.1500,0,0,90.0*
1,1,0.2875,0.4313,0.7562*
1,1,0.2875,0.4313,-0.7562*
1,1,0.2875,-0.4313,-0.7562*
1,1,0.2875,-0.4313,0.7562*
%
%ADD14ROUNDEDRECTD14*%
G04:AMPARAMS|DCode=24|XSize=0.5mm|YSize=0.6mm|CornerRadius=0.05mm|HoleSize=0mm|Usage=FLASHONLY|Rotation=270.000|XOffset=0mm|YOffset=0mm|HoleType=Round|Shape=RoundedRectangle|*
%AMROUNDEDRECTD24*
21,1,0.5000,0.5000,0,0,270.0*
21,1,0.4000,0.6000,0,0,270.0*
1,1,0.1000,-0.2500,-0.2000*
1,1,0.1000,-0.2500,0.2000*
1,1,0.1000,0.2500,0.2000*
1,1,0.1000,0.2500,-0.2000*
%
%ADD24ROUNDEDRECTD24*%
%ADD26C,0.3810*%
%ADD28C,0.2540*%
%ADD29C,0.1270*%
%ADD30C,0.7620*%
%ADD32C,0.0500*%
%ADD33C,0.1000*%
%ADD34C,1.7780*%
%ADD35C,1.7000*%
%ADD36C,2.5400*%
G04:AMPARAMS|DCode=37|XSize=2.54mm|YSize=2.54mm|CornerRadius=0.3175mm|HoleSize=0mm|Usage=FLASHONLY|Rotation=0.000|XOffset=0mm|YOffset=0mm|HoleType=Round|Shape=RoundedRectangle|*
%AMROUNDEDRECTD37*
21,1,2.5400,1.9050,0,0,0.0*
21,1,1.9050,2.5400,0,0,0.0*
1,1,0.6350,0.9525,-0.9525*
1,1,0.6350,-0.9525,-0.9525*
1,1,0.6350,-0.9525,0.9525*
1,1,0.6350,0.9525,0.9525*
%
%ADD37ROUNDEDRECTD37*%
%ADD38C,2.0000*%
%ADD39O,0.8000X1.4000*%
%ADD40C,0.6500*%
%ADD41O,0.9500X0.6500*%
%ADD42C,1.6510*%
%ADD43R,1.6510X1.6510*%
%ADD44C,2.0000*%
%ADD45R,2.0000X2.0000*%
%ADD46R,2.8000X2.8000*%
%ADD47C,2.8000*%
%ADD48C,0.5080*%
G04:AMPARAMS|DCode=64|XSize=3.35mm|YSize=1.25mm|CornerRadius=0.1563mm|HoleSize=0mm|Usage=FLASHONLY|Rotation=0.000|XOffset=0mm|YOffset=0mm|HoleType=Round|Shape=RoundedRectangle|*
%AMROUNDEDRECTD64*
21,1,3.3500,0.9375,0,0,0.0*
21,1,3.0375,1.2500,0,0,0.0*
1,1,0.3125,1.5188,-0.4688*
1,1,0.3125,-1.5188,-0.4688*
1,1,0.3125,-1.5188,0.4688*
1,1,0.3125,1.5188,0.4688*
%
%ADD64ROUNDEDRECTD64*%
G04:AMPARAMS|DCode=65|XSize=2.45mm|YSize=2.55mm|CornerRadius=0.245mm|HoleSize=0mm|Usage=FLASHONLY|Rotation=90.000|XOffset=0mm|YOffset=0mm|HoleType=Round|Shape=RoundedRectangle|*
%AMROUNDEDRECTD65*
21,1,2.4500,2.0600,0,0,90.0*
21,1,1.9600,2.5500,0,0,90.0*
1,1,0.4900,1.0300,0.9800*
1,1,0.4900,1.0300,-0.9800*
1,1,0.4900,-1.0300,-0.9800*
1,1,0.4900,-1.0300,0.9800*
%
%ADD65ROUNDEDRECTD65*%
%ADD66O,1.3500X0.5000*%
%ADD67R,0.3000X0.7000*%
%ADD68C,0.5080*%
G36*
X670306Y1268476D02*
Y851636D01*
X670000Y851367D01*
X667058Y850980D01*
X665639Y850392D01*
X254000D01*
Y1251532D01*
X254384Y1251671D01*
X255270Y1251743D01*
X256301Y1250201D01*
X258044Y1249036D01*
X260100Y1248627D01*
X262156Y1249036D01*
X263899Y1250201D01*
X265064Y1251944D01*
X265473Y1254000D01*
Y1260000D01*
X265064Y1262057D01*
X263899Y1263800D01*
X262156Y1264965D01*
X260100Y1265374D01*
X258044Y1264965D01*
X256301Y1263800D01*
X255270Y1262257D01*
X254384Y1262329D01*
X254000Y1262469D01*
Y1269746D01*
X254105Y1270000D01*
X668782D01*
X670306Y1268476D01*
D02*
G37*
%LPC*%
G36*
X652500Y1134854D02*
X649950Y1134519D01*
X647573Y1133534D01*
X645532Y1131968D01*
X643966Y1129927D01*
X642982Y1127551D01*
X642646Y1125000D01*
X642982Y1122450D01*
X643966Y1120073D01*
X645532Y1118032D01*
X647573Y1116466D01*
X649950Y1115481D01*
X652500Y1115146D01*
X655051Y1115481D01*
X657427Y1116466D01*
X659468Y1118032D01*
X661034Y1120073D01*
X662019Y1122450D01*
X662354Y1125000D01*
X662019Y1127551D01*
X661034Y1129927D01*
X659468Y1131968D01*
X657427Y1133534D01*
X655051Y1134519D01*
X652500Y1134854D01*
D02*
G37*
G36*
X637810Y918885D02*
X636324Y918589D01*
X635063Y917747D01*
X634221Y916487D01*
X633926Y915000D01*
X634221Y913513D01*
X635063Y912253D01*
X636324Y911411D01*
X637810Y911115D01*
X639297Y911411D01*
X640557Y912253D01*
X641399Y913513D01*
X641695Y915000D01*
X641399Y916487D01*
X640557Y917747D01*
X639297Y918589D01*
X637810Y918885D01*
D02*
G37*
G36*
X652500Y1109854D02*
X649950Y1109518D01*
X647573Y1108534D01*
X645532Y1106968D01*
X643966Y1104927D01*
X642982Y1102550D01*
X642646Y1100000D01*
X642982Y1097449D01*
X643966Y1095073D01*
X645532Y1093032D01*
X647573Y1091466D01*
X649950Y1090481D01*
X652500Y1090145D01*
X655051Y1090481D01*
X657427Y1091466D01*
X659468Y1093032D01*
X661034Y1095073D01*
X662019Y1097449D01*
X662354Y1100000D01*
X662019Y1102550D01*
X661034Y1104927D01*
X659468Y1106968D01*
X657427Y1108534D01*
X655051Y1109518D01*
X652500Y1109854D01*
D02*
G37*
G36*
X562810Y1138885D02*
X561324Y1138589D01*
X560063Y1137747D01*
X559221Y1136487D01*
X558926Y1135000D01*
X559221Y1133513D01*
X560063Y1132253D01*
X561324Y1131411D01*
X562810Y1131115D01*
X564297Y1131411D01*
X565557Y1132253D01*
X566399Y1133513D01*
X566695Y1135000D01*
X566399Y1136487D01*
X565557Y1137747D01*
X564297Y1138589D01*
X562810Y1138885D01*
D02*
G37*
G36*
X522500Y1121912D02*
X521261Y1121666D01*
X520211Y1120964D01*
X519267Y1120021D01*
X518564Y1120491D01*
X517325Y1120737D01*
X482000D01*
X480761Y1120491D01*
X479711Y1119789D01*
X479009Y1118739D01*
X478763Y1117500D01*
X478896Y1116831D01*
X478075Y1116283D01*
X477710Y1116210D01*
X476721Y1116871D01*
X475234Y1117167D01*
X473747Y1116871D01*
X472487Y1116029D01*
X471645Y1114769D01*
X471349Y1113282D01*
X471645Y1111795D01*
X472487Y1110535D01*
X473747Y1109693D01*
X475234Y1109397D01*
X476721Y1109693D01*
X477981Y1110535D01*
X478346Y1110608D01*
X479335Y1109947D01*
X480822Y1109651D01*
X482309Y1109947D01*
X483569Y1110789D01*
X484411Y1112049D01*
X484707Y1113536D01*
X485303Y1114263D01*
X514282D01*
X514397Y1114091D01*
X515657Y1113249D01*
X517144Y1112953D01*
X517358Y1112996D01*
X518086Y1112509D01*
X519325Y1112263D01*
X520564Y1112509D01*
X521396Y1113065D01*
X522025Y1112940D01*
X523511Y1113236D01*
X524772Y1114078D01*
X525614Y1115338D01*
X525910Y1116825D01*
X525737Y1117692D01*
Y1118675D01*
X525491Y1119914D01*
X524789Y1120964D01*
X523739Y1121666D01*
X522500Y1121912D01*
D02*
G37*
G36*
X612500Y1146241D02*
X608853Y1145760D01*
X605455Y1144353D01*
X602537Y1142114D01*
X600297Y1139195D01*
X598890Y1135797D01*
X598410Y1132150D01*
X598890Y1128503D01*
X600297Y1125105D01*
X602537Y1122187D01*
X605455Y1119947D01*
X608853Y1118540D01*
X612500Y1118060D01*
X616147Y1118540D01*
X619545Y1119947D01*
X622464Y1122187D01*
X624703Y1125105D01*
X626111Y1128503D01*
X626591Y1132150D01*
X626111Y1135797D01*
X624703Y1139195D01*
X622464Y1142114D01*
X619545Y1144353D01*
X616147Y1145760D01*
X612500Y1146241D01*
D02*
G37*
G36*
Y1070041D02*
X608853Y1069560D01*
X605455Y1068153D01*
X602537Y1065914D01*
X600297Y1062995D01*
X598890Y1059597D01*
X598410Y1055950D01*
X598890Y1052303D01*
X600297Y1048905D01*
X602537Y1045987D01*
X605455Y1043747D01*
X608853Y1042340D01*
X612500Y1041860D01*
X616147Y1042340D01*
X619545Y1043747D01*
X622464Y1045987D01*
X624703Y1048905D01*
X626111Y1052303D01*
X626591Y1055950D01*
X626111Y1059597D01*
X624703Y1062995D01*
X622464Y1065914D01*
X619545Y1068153D01*
X616147Y1069560D01*
X612500Y1070041D01*
D02*
G37*
G36*
X650000Y1019854D02*
X647450Y1019519D01*
X645073Y1018534D01*
X643032Y1016968D01*
X641466Y1014927D01*
X640482Y1012551D01*
X640146Y1010000D01*
X640482Y1007449D01*
X641466Y1005073D01*
X643032Y1003032D01*
X645073Y1001466D01*
X647450Y1000481D01*
X650000Y1000146D01*
X652551Y1000481D01*
X654927Y1001466D01*
X656968Y1003032D01*
X658534Y1005073D01*
X659519Y1007449D01*
X659855Y1010000D01*
X659519Y1012551D01*
X658534Y1014927D01*
X656968Y1016968D01*
X654927Y1018534D01*
X652551Y1019519D01*
X650000Y1019854D01*
D02*
G37*
G36*
X622025Y1031907D02*
X602975D01*
X601241Y1031562D01*
X599771Y1030580D01*
X598788Y1029109D01*
X598443Y1027375D01*
Y1008325D01*
X598788Y1006591D01*
X599771Y1005120D01*
X601241Y1004138D01*
X602975Y1003793D01*
X622025D01*
X623759Y1004138D01*
X625230Y1005120D01*
X626212Y1006591D01*
X626557Y1008325D01*
Y1027375D01*
X626212Y1029109D01*
X625230Y1030580D01*
X623759Y1031562D01*
X622025Y1031907D01*
D02*
G37*
G36*
X612500Y1108141D02*
X608853Y1107661D01*
X605455Y1106253D01*
X602537Y1104014D01*
X600297Y1101095D01*
X598890Y1097697D01*
X598410Y1094050D01*
X598890Y1090403D01*
X600297Y1087005D01*
X602537Y1084087D01*
X605455Y1081847D01*
X608853Y1080440D01*
X612500Y1079960D01*
X616147Y1080440D01*
X619545Y1081847D01*
X622464Y1084087D01*
X624703Y1087005D01*
X626111Y1090403D01*
X626591Y1094050D01*
X626111Y1097697D01*
X624703Y1101095D01*
X622464Y1104014D01*
X619545Y1106253D01*
X616147Y1107661D01*
X612500Y1108141D01*
D02*
G37*
G36*
X650000Y949854D02*
X647450Y949519D01*
X645073Y948534D01*
X643032Y946968D01*
X641466Y944927D01*
X640482Y942551D01*
X640146Y940000D01*
X640482Y937450D01*
X641466Y935073D01*
X643032Y933032D01*
X645073Y931466D01*
X647450Y930482D01*
X650000Y930146D01*
X652551Y930482D01*
X654927Y931466D01*
X656968Y933032D01*
X658534Y935073D01*
X659519Y937450D01*
X659855Y940000D01*
X659519Y942551D01*
X658534Y944927D01*
X656968Y946968D01*
X654927Y948534D01*
X652551Y949519D01*
X650000Y949854D01*
D02*
G37*
G36*
X630550Y988593D02*
X609950D01*
X608499Y988304D01*
X607268Y987482D01*
X606446Y986251D01*
X606157Y984800D01*
Y965200D01*
X606446Y963748D01*
X607268Y962518D01*
X608499Y961696D01*
X609950Y961407D01*
X630550D01*
X632002Y961696D01*
X633232Y962518D01*
X634054Y963748D01*
X634343Y965200D01*
Y970655D01*
X635613Y971353D01*
X636810Y971115D01*
X638297Y971411D01*
X639557Y972253D01*
X640399Y973513D01*
X640695Y975000D01*
X640399Y976486D01*
X639557Y977747D01*
X638297Y978589D01*
X636810Y978885D01*
X635613Y978646D01*
X634343Y979344D01*
Y984800D01*
X634054Y986251D01*
X633232Y987482D01*
X632002Y988304D01*
X630550Y988593D01*
D02*
G37*
G36*
X587811Y1138885D02*
X586324Y1138589D01*
X585064Y1137747D01*
X584222Y1136487D01*
X583926Y1135000D01*
X584222Y1133513D01*
X585064Y1132253D01*
X586324Y1131411D01*
X587811Y1131115D01*
X589297Y1131411D01*
X590558Y1132253D01*
X591400Y1133513D01*
X591696Y1135000D01*
X591400Y1136487D01*
X590558Y1137747D01*
X589297Y1138589D01*
X587811Y1138885D01*
D02*
G37*
G36*
X550270Y1250270D02*
X519730D01*
Y1219730D01*
X550270D01*
Y1250270D01*
D02*
G37*
G36*
X619001Y1250344D02*
X616007Y1250049D01*
X613129Y1249176D01*
X610476Y1247758D01*
X608151Y1245850D01*
X606243Y1243524D01*
X604825Y1240872D01*
X603951Y1237993D01*
X603657Y1235000D01*
X603951Y1232006D01*
X604825Y1229128D01*
X606243Y1226475D01*
X608151Y1224150D01*
X610476Y1222242D01*
X613129Y1220824D01*
X616007Y1219951D01*
X619001Y1219656D01*
X621994Y1219951D01*
X624872Y1220824D01*
X627525Y1222242D01*
X629850Y1224150D01*
X631758Y1226475D01*
X633176Y1229128D01*
X634050Y1232006D01*
X634344Y1235000D01*
X634050Y1237993D01*
X633176Y1240872D01*
X631758Y1243524D01*
X629850Y1245850D01*
X627525Y1247758D01*
X624872Y1249176D01*
X621994Y1250049D01*
X619001Y1250344D01*
D02*
G37*
G36*
X577001D02*
X574007Y1250049D01*
X571129Y1249176D01*
X568476Y1247758D01*
X566151Y1245850D01*
X564243Y1243524D01*
X562825Y1240872D01*
X561952Y1237993D01*
X561657Y1235000D01*
X561952Y1232006D01*
X562825Y1229128D01*
X564243Y1226475D01*
X566151Y1224150D01*
X568476Y1222242D01*
X571129Y1220824D01*
X574007Y1219951D01*
X577001Y1219656D01*
X579994Y1219951D01*
X582873Y1220824D01*
X585525Y1222242D01*
X587850Y1224150D01*
X589759Y1226475D01*
X591176Y1229128D01*
X592050Y1232006D01*
X592345Y1235000D01*
X592050Y1237993D01*
X591176Y1240872D01*
X589759Y1243524D01*
X587850Y1245850D01*
X585525Y1247758D01*
X582873Y1249176D01*
X579994Y1250049D01*
X577001Y1250344D01*
D02*
G37*
G36*
X349900Y1265374D02*
X347844Y1264965D01*
X346101Y1263800D01*
X344936Y1262057D01*
X344527Y1260000D01*
Y1254000D01*
X344936Y1251944D01*
X346101Y1250201D01*
X347844Y1249036D01*
X349900Y1248627D01*
X351956Y1249036D01*
X353700Y1250201D01*
X354865Y1251944D01*
X355274Y1254000D01*
Y1260000D01*
X354865Y1262057D01*
X353700Y1263800D01*
X351956Y1264965D01*
X349900Y1265374D01*
D02*
G37*
G36*
X297500Y1247469D02*
X296014Y1247173D01*
X294753Y1246331D01*
X293911Y1245071D01*
X293615Y1243584D01*
X293911Y1242097D01*
X294753Y1240837D01*
X296014Y1239995D01*
X297500Y1239699D01*
X298987Y1239995D01*
X300247Y1240837D01*
X301089Y1242097D01*
X301385Y1243584D01*
X301089Y1245071D01*
X300247Y1246331D01*
X298987Y1247173D01*
X297500Y1247469D01*
D02*
G37*
G36*
X334200Y881367D02*
X331258Y880980D01*
X328516Y879844D01*
X326162Y878038D01*
X324356Y875683D01*
X323220Y872942D01*
X322833Y870000D01*
X323220Y867058D01*
X324356Y864316D01*
X326162Y861962D01*
X328516Y860155D01*
X331258Y859020D01*
X334200Y858633D01*
X337142Y859020D01*
X339884Y860155D01*
X342238Y861962D01*
X344044Y864316D01*
X345180Y867058D01*
X345567Y870000D01*
X345180Y872942D01*
X344044Y875683D01*
X342238Y878038D01*
X339884Y879844D01*
X337142Y880980D01*
X334200Y881367D01*
D02*
G37*
G36*
X472037Y1257270D02*
X470550Y1256974D01*
X469290Y1256132D01*
X468448Y1254872D01*
X468152Y1253385D01*
X468448Y1251899D01*
X469290Y1250639D01*
X470550Y1249796D01*
X472037Y1249501D01*
X472986Y1249689D01*
X514440Y1208235D01*
Y1172972D01*
X514588Y1172229D01*
X515009Y1171599D01*
X541364Y1145244D01*
Y1133295D01*
X540190Y1132809D01*
X487478Y1185521D01*
X486847Y1185943D01*
X486104Y1186090D01*
X482337D01*
X471674Y1196753D01*
X472160Y1197927D01*
X485063D01*
X486119Y1198137D01*
X487015Y1198735D01*
X487613Y1199631D01*
X487799Y1200568D01*
X488161Y1200866D01*
X489093Y1201357D01*
X490310Y1201115D01*
X491797Y1201411D01*
X493057Y1202253D01*
X493899Y1203513D01*
X494195Y1205000D01*
X493899Y1206487D01*
X493057Y1207747D01*
X491797Y1208589D01*
X490310Y1208885D01*
X489093Y1208642D01*
X488161Y1209134D01*
X487799Y1209432D01*
X487613Y1210369D01*
X487015Y1211264D01*
X486119Y1211863D01*
X485063Y1212073D01*
X469938D01*
X468881Y1211863D01*
X467986Y1211264D01*
X467387Y1210369D01*
X467177Y1209312D01*
Y1203231D01*
X465989Y1202711D01*
X465238Y1203317D01*
Y1210004D01*
X465090Y1210748D01*
X464669Y1211378D01*
X464669Y1211378D01*
X443961Y1232086D01*
X444334Y1232573D01*
X445318Y1234950D01*
X445654Y1237500D01*
X445318Y1240051D01*
X444334Y1242427D01*
X442768Y1244468D01*
X440727Y1246034D01*
X438350Y1247019D01*
X435800Y1247355D01*
X433250Y1247019D01*
X430873Y1246034D01*
X428832Y1244468D01*
X427645Y1242921D01*
X427532Y1242885D01*
X426235Y1242973D01*
X426180Y1243001D01*
X426061Y1243179D01*
X426061Y1243179D01*
X415793Y1253448D01*
X415163Y1253869D01*
X414420Y1254017D01*
X384702D01*
X383958Y1253869D01*
X383328Y1253448D01*
X383328Y1253448D01*
X357319Y1227439D01*
X357246Y1227436D01*
X356122Y1228037D01*
X356183Y1228344D01*
X355887Y1229831D01*
X355045Y1231091D01*
X353785Y1231933D01*
X352298Y1232229D01*
X350811Y1231933D01*
X349551Y1231091D01*
X348709Y1229831D01*
X348413Y1228344D01*
X348709Y1226857D01*
X349551Y1225597D01*
X350811Y1224755D01*
X352298Y1224459D01*
X352803Y1224045D01*
Y1206914D01*
X351630Y1206428D01*
X350185Y1207873D01*
X349554Y1208295D01*
X348811Y1208442D01*
X305000D01*
X305000Y1208442D01*
X304257Y1208295D01*
X303627Y1207873D01*
X298553Y1202800D01*
X297000Y1203109D01*
X295236Y1202758D01*
X293741Y1201759D01*
X293635Y1201600D01*
X292365D01*
X292259Y1201759D01*
X290764Y1202758D01*
X289000Y1203109D01*
X287237Y1202758D01*
X285741Y1201759D01*
X285635Y1201600D01*
X284365D01*
X284259Y1201759D01*
X282764Y1202758D01*
X281000Y1203109D01*
X279237Y1202758D01*
X277742Y1201759D01*
X276742Y1200264D01*
X276392Y1198500D01*
X276742Y1196736D01*
X277742Y1195241D01*
X279237Y1194242D01*
X281000Y1193892D01*
X282764Y1194242D01*
X284259Y1195241D01*
X284365Y1195400D01*
X285635D01*
X285741Y1195241D01*
X287237Y1194242D01*
X287794Y1194131D01*
X288742Y1193264D01*
X288392Y1191500D01*
X288742Y1189737D01*
X289675Y1188341D01*
X288911Y1187197D01*
X288616Y1185711D01*
X288868Y1184441D01*
X288204Y1183170D01*
X279730D01*
Y1173631D01*
X280557D01*
Y1165080D01*
X279753Y1164543D01*
X278911Y1163283D01*
X278615Y1161796D01*
X278911Y1160309D01*
X279753Y1159049D01*
X281013Y1158207D01*
X282500Y1157911D01*
X283986Y1158207D01*
X284288Y1158408D01*
X285558Y1157730D01*
Y1130983D01*
X284288Y1130598D01*
X284179Y1130761D01*
X282919Y1131603D01*
X281432Y1131899D01*
X279945Y1131603D01*
X278685Y1130761D01*
X278148Y1129956D01*
X267208D01*
X266465Y1129809D01*
X265835Y1129387D01*
X259993Y1123545D01*
X259571Y1122915D01*
X259424Y1122172D01*
Y1023234D01*
X259571Y1022491D01*
X259993Y1021861D01*
X274339Y1007514D01*
X273966Y1007027D01*
X272981Y1004651D01*
X272645Y1002100D01*
X272981Y999550D01*
X273966Y997173D01*
X275532Y995132D01*
X277573Y993566D01*
X279949Y992582D01*
X282500Y992246D01*
X285050Y992582D01*
X287427Y993566D01*
X289468Y995132D01*
X291034Y997173D01*
X292018Y999550D01*
X292354Y1002100D01*
X292018Y1004651D01*
X291034Y1007027D01*
X289468Y1009068D01*
X287427Y1010634D01*
X285050Y1011619D01*
X282500Y1011954D01*
X279949Y1011619D01*
X277573Y1010634D01*
X277086Y1010261D01*
X263308Y1024038D01*
Y1078844D01*
X264578Y1079275D01*
X265532Y1078032D01*
X267573Y1076466D01*
X269949Y1075482D01*
X272500Y1075146D01*
X275050Y1075482D01*
X277427Y1076466D01*
X279468Y1078032D01*
X281034Y1080073D01*
X282018Y1082450D01*
X282354Y1085000D01*
X282018Y1087551D01*
X281034Y1089927D01*
X280660Y1090414D01*
X289140Y1098894D01*
X309499D01*
X310242Y1099042D01*
X310872Y1099463D01*
X313158Y1101749D01*
X314702Y1102086D01*
X314717Y1102082D01*
X314743Y1102073D01*
X314743Y1102073D01*
X316230Y1101777D01*
X316830Y1101897D01*
X318098Y1101023D01*
X318196Y1100233D01*
X270153Y1052189D01*
X269732Y1051559D01*
X269584Y1050816D01*
Y1023620D01*
X269732Y1022877D01*
X270153Y1022247D01*
X277011Y1015389D01*
X277641Y1014967D01*
X278384Y1014820D01*
X278384Y1014820D01*
X286469D01*
X341513Y959776D01*
X341198Y958722D01*
X341039Y958506D01*
X303440D01*
X290660Y971286D01*
X291034Y971773D01*
X292018Y974150D01*
X292354Y976700D01*
X292018Y979251D01*
X291034Y981627D01*
X289468Y983668D01*
X287427Y985234D01*
X285050Y986219D01*
X282500Y986554D01*
X279949Y986219D01*
X277573Y985234D01*
X275532Y983668D01*
X273966Y981627D01*
X272981Y979251D01*
X272645Y976700D01*
X272981Y974150D01*
X273966Y971773D01*
X275532Y969732D01*
X277573Y968166D01*
X279949Y967182D01*
X282500Y966846D01*
X285050Y967182D01*
X287427Y968166D01*
X287914Y968540D01*
X301262Y955191D01*
X301893Y954770D01*
X302636Y954622D01*
X346922D01*
X370422Y931122D01*
Y913892D01*
X370569Y913149D01*
X370991Y912519D01*
X401066Y882443D01*
X400580Y881270D01*
X382130D01*
Y858730D01*
X404670D01*
Y877180D01*
X405843Y877666D01*
X416457Y867053D01*
X417087Y866631D01*
X417830Y866484D01*
X425958D01*
X426701Y866631D01*
X427331Y867053D01*
X431744Y871466D01*
X432947Y870872D01*
X432832Y870000D01*
X433220Y867058D01*
X434355Y864316D01*
X436162Y861962D01*
X438516Y860155D01*
X441258Y859020D01*
X444200Y858633D01*
X447142Y859020D01*
X449883Y860155D01*
X452238Y861962D01*
X454044Y864316D01*
X455180Y867058D01*
X455567Y870000D01*
X455180Y872942D01*
X455128Y873067D01*
X456204Y873787D01*
X472337Y857655D01*
X472967Y857234D01*
X473710Y857086D01*
X498856D01*
X499599Y857234D01*
X500229Y857655D01*
X505309Y862735D01*
X505731Y863365D01*
X505878Y864108D01*
X505878Y864108D01*
Y877782D01*
X508297Y880200D01*
X522435D01*
X527394Y875241D01*
Y865948D01*
X527542Y865205D01*
X527963Y864575D01*
X534628Y857909D01*
X535259Y857487D01*
X536002Y857340D01*
X546100D01*
X546843Y857487D01*
X547473Y857909D01*
X551791Y862227D01*
X552212Y862857D01*
X552360Y863600D01*
Y895096D01*
X552212Y895839D01*
X551791Y896469D01*
X547342Y900919D01*
Y920008D01*
X548052Y920102D01*
X550524Y921125D01*
X552646Y922754D01*
X554275Y924876D01*
X555299Y927348D01*
X555648Y930000D01*
X555299Y932653D01*
X554275Y935124D01*
X552646Y937246D01*
X550524Y938875D01*
X548052Y939899D01*
X547342Y939992D01*
Y949198D01*
X547194Y949941D01*
X546773Y950571D01*
X544740Y952605D01*
Y997670D01*
X571349Y1024278D01*
X571349Y1024279D01*
X571771Y1024909D01*
X571918Y1025652D01*
X571918Y1025652D01*
Y1047514D01*
X572723Y1048051D01*
X573565Y1049311D01*
X573853Y1050760D01*
X574022Y1050876D01*
X575042Y1051367D01*
X590386Y1036023D01*
Y928878D01*
X590533Y928135D01*
X590955Y927505D01*
X592950Y925509D01*
X592761Y924560D01*
X593057Y923073D01*
X593899Y921813D01*
X595159Y920971D01*
X596646Y920675D01*
X598133Y920971D01*
X599393Y921813D01*
X600235Y923073D01*
X600531Y924560D01*
X600235Y926047D01*
X599393Y927307D01*
X598133Y928149D01*
X596646Y928445D01*
X595697Y928256D01*
X594270Y929682D01*
Y1036828D01*
X594123Y1037571D01*
X593701Y1038201D01*
X564298Y1067605D01*
Y1074715D01*
X565103Y1075253D01*
X565945Y1076513D01*
X566241Y1078000D01*
X565945Y1079486D01*
X565103Y1080747D01*
X563843Y1081589D01*
X562356Y1081885D01*
X560869Y1081589D01*
X559609Y1080747D01*
X558767Y1079486D01*
X558471Y1078000D01*
X558767Y1076513D01*
X559609Y1075253D01*
X560414Y1074715D01*
Y1066800D01*
X560561Y1066057D01*
X560983Y1065427D01*
X570545Y1055864D01*
X570054Y1054844D01*
X569938Y1054675D01*
X568489Y1054387D01*
X567229Y1053545D01*
X566692Y1052740D01*
X549445D01*
X535064Y1067121D01*
X535253Y1068070D01*
X534957Y1069557D01*
X534115Y1070817D01*
X532855Y1071659D01*
X531368Y1071955D01*
X529881Y1071659D01*
X528621Y1070817D01*
X527779Y1069557D01*
X527483Y1068070D01*
X527779Y1066583D01*
X528621Y1065323D01*
X529881Y1064481D01*
X529983Y1064461D01*
X529858Y1063191D01*
X515677D01*
X514621Y1062981D01*
X513726Y1062382D01*
X513127Y1061487D01*
X512917Y1060430D01*
Y1051805D01*
X513127Y1050749D01*
X513726Y1049853D01*
X514621Y1049255D01*
X515677Y1049045D01*
X516463D01*
X517155Y1047775D01*
X516917Y1047406D01*
X455930D01*
X455187Y1047259D01*
X454557Y1046837D01*
X454557Y1046837D01*
X452106Y1044387D01*
X441969D01*
X441108Y1045511D01*
Y1077426D01*
X442400Y1078717D01*
X443839Y1078610D01*
X444062Y1078277D01*
X445322Y1077435D01*
X446808Y1077139D01*
X448295Y1077435D01*
X449555Y1078277D01*
X450397Y1079537D01*
X450693Y1081024D01*
X450397Y1082511D01*
X449633Y1083654D01*
X449767Y1084208D01*
X450115Y1084924D01*
X452687D01*
X453792Y1085144D01*
X454729Y1085770D01*
X454735Y1085778D01*
X456005Y1085393D01*
Y1081444D01*
X454961Y1080747D01*
X454119Y1079486D01*
X453823Y1078000D01*
X454048Y1076869D01*
X453902Y1076420D01*
X453567Y1075881D01*
X453254Y1075523D01*
X452578Y1075388D01*
X451683Y1074790D01*
X451084Y1073894D01*
X450874Y1072838D01*
Y1057713D01*
X451084Y1056657D01*
X451683Y1055761D01*
X452578Y1055163D01*
X453635Y1054952D01*
X462260D01*
X463316Y1055163D01*
X464212Y1055761D01*
X464810Y1056657D01*
X465020Y1057713D01*
Y1072838D01*
X464810Y1073894D01*
X464212Y1074790D01*
X463316Y1075388D01*
X462260Y1075599D01*
X462097D01*
X461368Y1076869D01*
X461593Y1078000D01*
X461297Y1079486D01*
X460455Y1080747D01*
X459890Y1081124D01*
Y1097549D01*
X459890Y1097549D01*
X459742Y1098292D01*
X459321Y1098922D01*
X459321Y1098922D01*
X447204Y1111039D01*
Y1137370D01*
X449622Y1139788D01*
X451612D01*
X452355Y1139936D01*
X452985Y1140357D01*
X460859Y1148231D01*
X461281Y1148861D01*
X461428Y1149604D01*
Y1185926D01*
X461428Y1185926D01*
X461281Y1186669D01*
X460859Y1187299D01*
X460859Y1187299D01*
X426630Y1221528D01*
Y1231315D01*
X427900Y1231746D01*
X428832Y1230532D01*
X429921Y1229697D01*
X429870Y1228135D01*
X429753Y1228057D01*
X428911Y1226797D01*
X428615Y1225310D01*
X428911Y1223824D01*
X429753Y1222563D01*
X431013Y1221721D01*
X432500Y1221426D01*
X433987Y1221721D01*
X435247Y1222563D01*
X436089Y1223824D01*
X436385Y1225310D01*
X436165Y1226413D01*
X436713Y1227524D01*
X436948Y1227797D01*
X438350Y1227982D01*
X440727Y1228966D01*
X441214Y1229340D01*
X461354Y1209200D01*
Y1202384D01*
X461502Y1201641D01*
X461923Y1201011D01*
X480159Y1182775D01*
X480789Y1182354D01*
X481532Y1182206D01*
X481532Y1182206D01*
X485300D01*
X538824Y1128682D01*
Y1100624D01*
X536381Y1098182D01*
X535432Y1098371D01*
X533945Y1098075D01*
X532685Y1097233D01*
X531843Y1095973D01*
X531547Y1094486D01*
X531578Y1094331D01*
X531191Y1093763D01*
X530510Y1093191D01*
X515677D01*
X514621Y1092981D01*
X513726Y1092382D01*
X513127Y1091487D01*
X512917Y1090430D01*
Y1081805D01*
X513127Y1080749D01*
X513726Y1079853D01*
X514621Y1079255D01*
X515677Y1079045D01*
X516210D01*
X516736Y1077775D01*
X502345Y1063384D01*
X501396Y1063573D01*
X499909Y1063277D01*
X498649Y1062435D01*
X497807Y1061175D01*
X497511Y1059688D01*
X497807Y1058201D01*
X498649Y1056941D01*
X499909Y1056099D01*
X501396Y1055803D01*
X502883Y1056099D01*
X504143Y1056941D01*
X504985Y1058201D01*
X505281Y1059688D01*
X505092Y1060637D01*
X519726Y1075272D01*
X538480D01*
X539223Y1075419D01*
X539853Y1075841D01*
X544679Y1080667D01*
X544679Y1080667D01*
X545101Y1081297D01*
X545248Y1082040D01*
X545248Y1082040D01*
Y1146048D01*
X545101Y1146791D01*
X544679Y1147421D01*
X544679Y1147421D01*
X518324Y1173776D01*
Y1209040D01*
X518176Y1209783D01*
X517755Y1210413D01*
X475732Y1252436D01*
X475921Y1253385D01*
X475626Y1254872D01*
X474784Y1256132D01*
X473523Y1256974D01*
X472037Y1257270D01*
D02*
G37*
G36*
X650000Y879854D02*
X647450Y879518D01*
X645073Y878534D01*
X643032Y876968D01*
X641466Y874927D01*
X640482Y872550D01*
X640146Y870000D01*
X640482Y867449D01*
X641466Y865073D01*
X643032Y863032D01*
X645073Y861466D01*
X647450Y860481D01*
X650000Y860145D01*
X652551Y860481D01*
X654927Y861466D01*
X656968Y863032D01*
X658534Y865073D01*
X659519Y867449D01*
X659855Y870000D01*
X659519Y872550D01*
X658534Y874927D01*
X656968Y876968D01*
X654927Y878534D01*
X652551Y879518D01*
X650000Y879854D01*
D02*
G37*
G36*
X506000Y1146195D02*
X504513Y1145899D01*
X503253Y1145057D01*
X502411Y1143797D01*
X502115Y1142310D01*
X502411Y1140824D01*
X503253Y1139563D01*
X504513Y1138721D01*
X506000Y1138426D01*
X507487Y1138721D01*
X508747Y1139563D01*
X509589Y1140824D01*
X509885Y1142310D01*
X509589Y1143797D01*
X508747Y1145057D01*
X507487Y1145899D01*
X506000Y1146195D01*
D02*
G37*
G36*
X610000Y879854D02*
X607449Y879518D01*
X605073Y878534D01*
X603032Y876968D01*
X601466Y874927D01*
X600481Y872550D01*
X600145Y870000D01*
X600481Y867449D01*
X601466Y865073D01*
X603032Y863032D01*
X605073Y861466D01*
X607449Y860481D01*
X610000Y860145D01*
X612550Y860481D01*
X614927Y861466D01*
X616968Y863032D01*
X618534Y865073D01*
X619518Y867449D01*
X619854Y870000D01*
X619518Y872550D01*
X618534Y874927D01*
X616968Y876968D01*
X614927Y878534D01*
X612550Y879518D01*
X610000Y879854D01*
D02*
G37*
G36*
X294670Y881270D02*
X272130D01*
Y858730D01*
X294670D01*
Y881270D01*
D02*
G37*
G36*
X263700Y1205873D02*
X261644Y1205464D01*
X259901Y1204300D01*
X258736Y1202557D01*
X258327Y1200500D01*
Y1194500D01*
X258736Y1192444D01*
X259901Y1190701D01*
X261644Y1189536D01*
X263700Y1189127D01*
X265201Y1189426D01*
X265700Y1188349D01*
X265725Y1188235D01*
X264743Y1186764D01*
X264392Y1185000D01*
X264743Y1183237D01*
X265742Y1181742D01*
X267237Y1180743D01*
X269000Y1180392D01*
X270764Y1180743D01*
X272259Y1181742D01*
X273258Y1183237D01*
X273609Y1185000D01*
X273258Y1186764D01*
X272259Y1188259D01*
X270764Y1189258D01*
X269000Y1189609D01*
X267792Y1189369D01*
X267296Y1190565D01*
X267500Y1190701D01*
X268664Y1192444D01*
X269074Y1194500D01*
Y1200500D01*
X268664Y1202557D01*
X267500Y1204300D01*
X265756Y1205464D01*
X263700Y1205873D01*
D02*
G37*
%LPD*%
G36*
X338987Y1011071D02*
X339617Y1010649D01*
X340360Y1010502D01*
X374160D01*
X374697Y1009697D01*
X375957Y1008855D01*
X376837Y1008680D01*
X377284Y1007331D01*
X375239Y1005286D01*
X374803Y1005620D01*
X372486Y1006580D01*
X370000Y1006907D01*
X367513Y1006580D01*
X365196Y1005620D01*
X363206Y1004093D01*
X361680Y1002104D01*
X360720Y999787D01*
X360393Y997300D01*
X360720Y994814D01*
X361680Y992496D01*
X363206Y990507D01*
X365196Y988980D01*
X367513Y988020D01*
X370000Y987693D01*
X372486Y988020D01*
X374803Y988980D01*
X376793Y990507D01*
X378320Y992496D01*
X379280Y994814D01*
X379607Y997300D01*
X379280Y999787D01*
X378320Y1002104D01*
X377986Y1002539D01*
X381948Y1006502D01*
X383122Y1006016D01*
Y987316D01*
X383270Y986572D01*
X383691Y985942D01*
X383949Y985684D01*
X383634Y984630D01*
X383475Y984414D01*
X335069D01*
X318934Y1000548D01*
Y1029464D01*
X320108Y1029949D01*
X338987Y1011071D01*
D02*
G37*
G36*
X401601Y952266D02*
X401115Y951093D01*
X382450D01*
X380999Y950804D01*
X379768Y949982D01*
X378946Y948751D01*
X378657Y947300D01*
Y927700D01*
X378946Y926248D01*
X379768Y925018D01*
X380999Y924196D01*
X382450Y923907D01*
X403050D01*
X404501Y924196D01*
X405732Y925018D01*
X406554Y926248D01*
X406843Y927700D01*
Y933615D01*
X409310D01*
X410797Y933911D01*
X412057Y934753D01*
X412899Y936013D01*
X413195Y937500D01*
X412899Y938986D01*
X412526Y939545D01*
X413512Y940355D01*
X440526Y913342D01*
Y899160D01*
X440673Y898417D01*
X441095Y897787D01*
X470255Y868626D01*
X470885Y868205D01*
X471628Y868057D01*
X471628Y868057D01*
X480401D01*
X480481Y867449D01*
X481466Y865073D01*
X483032Y863032D01*
X484063Y862240D01*
X483632Y860970D01*
X474515D01*
X450191Y885293D01*
X449561Y885714D01*
X448818Y885862D01*
X441198D01*
X440455Y885714D01*
X439825Y885293D01*
X429919Y875387D01*
X429497Y874757D01*
X429486Y874701D01*
X425154Y870368D01*
X418634D01*
X374306Y914697D01*
Y931926D01*
X374159Y932669D01*
X373737Y933299D01*
X349367Y957670D01*
X349682Y958724D01*
X349841Y958940D01*
X394927D01*
X401601Y952266D01*
D02*
G37*
G36*
X547267Y1049425D02*
X547897Y1049004D01*
X548640Y1048856D01*
X558109D01*
X558788Y1047586D01*
X558721Y1047486D01*
X558426Y1046000D01*
X558721Y1044513D01*
X559054Y1044015D01*
X559443Y1042747D01*
X558601Y1041487D01*
X558305Y1040001D01*
X558601Y1038514D01*
X559443Y1037254D01*
X560703Y1036412D01*
X562190Y1036116D01*
X563676Y1036412D01*
X564937Y1037254D01*
X565779Y1038514D01*
X566074Y1040001D01*
X565779Y1041487D01*
X565446Y1041985D01*
X565057Y1043253D01*
X565899Y1044513D01*
X566195Y1046000D01*
X566018Y1046887D01*
X566980Y1047857D01*
X568034Y1046881D01*
Y1026457D01*
X546462Y1004885D01*
X545086Y1005295D01*
X544244Y1006555D01*
X542984Y1007397D01*
X541497Y1007693D01*
X540243Y1007443D01*
X538988Y1007693D01*
X537501Y1007397D01*
X536241Y1006555D01*
X535399Y1005295D01*
X535103Y1003808D01*
X535399Y1002321D01*
X536241Y1001061D01*
X537501Y1000219D01*
X538988Y999923D01*
X540095Y1000144D01*
X540629Y999687D01*
X541003Y999217D01*
X540856Y998474D01*
Y951800D01*
X541003Y951057D01*
X541425Y950426D01*
X543458Y948393D01*
Y939992D01*
X542748Y939899D01*
X540276Y938875D01*
X538154Y937246D01*
X536525Y935124D01*
X535502Y932653D01*
X535152Y930000D01*
X535502Y927348D01*
X536525Y924876D01*
X538154Y922754D01*
X540276Y921125D01*
X542748Y920102D01*
X543458Y920008D01*
Y900114D01*
X543605Y899371D01*
X544026Y898741D01*
X548476Y894292D01*
Y876978D01*
X547273Y876570D01*
X546968Y876968D01*
X544927Y878534D01*
X542550Y879518D01*
X540000Y879854D01*
X537449Y879518D01*
X535073Y878534D01*
X534586Y878160D01*
X521942Y890804D01*
Y920008D01*
X522652Y920102D01*
X525124Y921125D01*
X527246Y922754D01*
X528875Y924876D01*
X529898Y927348D01*
X530248Y930000D01*
X529898Y932653D01*
X528875Y935124D01*
X527246Y937246D01*
X525124Y938875D01*
X522652Y939899D01*
X520000Y940248D01*
X517348Y939899D01*
X514876Y938875D01*
X512754Y937246D01*
X511125Y935124D01*
X510102Y932653D01*
X509752Y930000D01*
X510102Y927348D01*
X511125Y924876D01*
X512754Y922754D01*
X514876Y921125D01*
X517348Y920102D01*
X518058Y920008D01*
Y890000D01*
X518205Y889256D01*
X518627Y888626D01*
X521995Y885258D01*
X521509Y884084D01*
X507492D01*
X506749Y883936D01*
X506119Y883515D01*
X502563Y879959D01*
X502141Y879329D01*
X501994Y878586D01*
Y864912D01*
X498051Y860970D01*
X496368D01*
X495937Y862240D01*
X496968Y863032D01*
X498534Y865073D01*
X499519Y867449D01*
X499854Y870000D01*
X499519Y872550D01*
X498534Y874927D01*
X496968Y876968D01*
X494927Y878534D01*
X492551Y879518D01*
X490000Y879854D01*
X487450Y879518D01*
X485073Y878534D01*
X483032Y876968D01*
X481466Y874927D01*
X480481Y872550D01*
X480401Y871942D01*
X472433D01*
X444410Y899965D01*
Y914146D01*
X444263Y914889D01*
X443841Y915519D01*
X397105Y962255D01*
X396475Y962676D01*
X395732Y962824D01*
X343959D01*
X288647Y1018135D01*
X288532Y1018213D01*
X288370Y1019622D01*
X288400Y1019712D01*
X289468Y1020532D01*
X291034Y1022573D01*
X292018Y1024950D01*
X292354Y1027500D01*
X292018Y1030051D01*
X291034Y1032427D01*
X290660Y1032914D01*
X313876Y1056130D01*
X315050Y1055644D01*
Y999744D01*
X315198Y999001D01*
X315619Y998371D01*
X332891Y981099D01*
X333521Y980677D01*
X334264Y980530D01*
X437388D01*
X438131Y980677D01*
X438761Y981099D01*
X446381Y988719D01*
X446802Y989349D01*
X446950Y990092D01*
Y1023428D01*
X448220Y1024107D01*
X448513Y1023911D01*
X450000Y1023615D01*
X451487Y1023911D01*
X452747Y1024753D01*
X453589Y1026013D01*
X453885Y1027500D01*
X453589Y1028987D01*
X452747Y1030247D01*
X453033Y1031583D01*
X453677Y1032547D01*
X453973Y1034034D01*
X453677Y1035521D01*
X452835Y1036781D01*
X451575Y1037623D01*
X450088Y1037919D01*
X448601Y1037623D01*
X447341Y1036781D01*
X446499Y1035521D01*
X446203Y1034034D01*
X446246Y1033821D01*
X445075Y1033195D01*
X441307Y1036963D01*
Y1039037D01*
X442774Y1040503D01*
X452911D01*
X453654Y1040650D01*
X454284Y1041071D01*
X456735Y1043522D01*
X517898D01*
X518435Y1042717D01*
X519696Y1041875D01*
X521182Y1041579D01*
X522669Y1041875D01*
X523929Y1042717D01*
X524771Y1043977D01*
X524805Y1044147D01*
X526153Y1044416D01*
X526335Y1044143D01*
X527595Y1043301D01*
X529082Y1043005D01*
X530569Y1043301D01*
X531829Y1044143D01*
X532671Y1045403D01*
X532967Y1046890D01*
X532671Y1048376D01*
X532509Y1048619D01*
X532755Y1049853D01*
X533353Y1050749D01*
X533563Y1051805D01*
Y1060430D01*
X533353Y1061487D01*
X533241Y1061654D01*
X534228Y1062464D01*
X547267Y1049425D01*
D02*
G37*
G36*
X523202Y1120371D02*
X523798Y1119973D01*
X524196Y1119377D01*
X524362Y1118540D01*
Y1117692D01*
X524416Y1117562D01*
X524389Y1117424D01*
X524508Y1116825D01*
X524319Y1115875D01*
X523781Y1115069D01*
X522975Y1114531D01*
X522025Y1114342D01*
X521664Y1114414D01*
X521664Y1114414D01*
X520632Y1114208D01*
X520027Y1113804D01*
X519325Y1113664D01*
X518622Y1113804D01*
X518121Y1114139D01*
D01*
X518121Y1114139D01*
X517708Y1114221D01*
X517458Y1114271D01*
X517412Y1114302D01*
X516194Y1114544D01*
X515291Y1115147D01*
X515255Y1115235D01*
X514884Y1115388D01*
X514551Y1115611D01*
X514412Y1115583D01*
X514282Y1115637D01*
X485303D01*
X485237Y1115610D01*
X485168Y1115631D01*
X484759Y1115412D01*
X484331Y1115235D01*
X484304Y1115169D01*
X484240Y1115135D01*
X483644Y1114408D01*
X483546Y1114085D01*
X483358Y1113804D01*
X483116Y1112586D01*
X482578Y1111780D01*
X481772Y1111242D01*
X480822Y1111053D01*
X479872Y1111242D01*
X479110Y1111751D01*
X479110D01*
X479110Y1111751D01*
X478593Y1111854D01*
X478078Y1111956D01*
X478078Y1111956D01*
X478078D01*
X477713Y1111883D01*
X477485Y1111731D01*
X477217Y1111678D01*
X476184Y1110988D01*
X475234Y1110799D01*
X474284Y1110988D01*
X473478Y1111526D01*
X472940Y1112332D01*
X472751Y1113282D01*
X472940Y1114232D01*
X473478Y1115038D01*
X474284Y1115576D01*
X475234Y1115765D01*
X476184Y1115576D01*
X476946Y1115067D01*
X476946D01*
X476946Y1115067D01*
X477463Y1114964D01*
X477978Y1114862D01*
X477978Y1114862D01*
X477978D01*
X478343Y1114935D01*
X478571Y1115087D01*
X478839Y1115140D01*
X479660Y1115688D01*
X479812Y1115916D01*
X480039Y1116068D01*
X480092Y1116336D01*
X480244Y1116563D01*
X480191Y1116831D01*
X480244Y1117099D01*
X480164Y1117500D01*
X480304Y1118202D01*
X480702Y1118798D01*
X481298Y1119196D01*
X482135Y1119362D01*
X517189D01*
X518027Y1119196D01*
X518504Y1118878D01*
X518897Y1118799D01*
X519267Y1118646D01*
X519397Y1118700D01*
X519536Y1118672D01*
X519869Y1118895D01*
X520239Y1119048D01*
X521087Y1119896D01*
X521797Y1120371D01*
X522500Y1120511D01*
X523202Y1120371D01*
D02*
G37*
G36*
X346988Y1078000D02*
X347618Y1077579D01*
X348361Y1077431D01*
X350477D01*
X350522Y1077364D01*
X349843Y1076094D01*
X347000D01*
X345529Y1075801D01*
X344282Y1074968D01*
X343449Y1073721D01*
X343156Y1072250D01*
X343449Y1070779D01*
X344282Y1069532D01*
X345529Y1068699D01*
X347000Y1068406D01*
X355500D01*
X356971Y1068699D01*
X358218Y1069532D01*
X358736Y1070307D01*
X368188D01*
X377441Y1061055D01*
X376631Y1060068D01*
X376391Y1060229D01*
X374904Y1060525D01*
X373417Y1060229D01*
X372157Y1059387D01*
X371315Y1058127D01*
X371019Y1056640D01*
X371315Y1055153D01*
X372157Y1053893D01*
X373417Y1053051D01*
X374904Y1052755D01*
X375853Y1052944D01*
X380074Y1048724D01*
Y1026588D01*
X378804Y1026336D01*
X378320Y1027504D01*
X376793Y1029493D01*
X374803Y1031020D01*
X372486Y1031980D01*
X370000Y1032307D01*
X367513Y1031980D01*
X365196Y1031020D01*
X363206Y1029493D01*
X361680Y1027504D01*
X361134Y1026185D01*
X359636Y1025887D01*
X345969Y1039554D01*
X346455Y1040728D01*
X358158D01*
X358695Y1039923D01*
X359955Y1039081D01*
X361442Y1038785D01*
X362929Y1039081D01*
X364189Y1039923D01*
X365031Y1041183D01*
X365327Y1042670D01*
X365031Y1044157D01*
X364189Y1045417D01*
X362929Y1046259D01*
X361442Y1046555D01*
X359955Y1046259D01*
X358695Y1045417D01*
X358158Y1044612D01*
X345444D01*
X340826Y1049231D01*
X341256Y1050597D01*
X342101Y1050765D01*
X342294Y1050894D01*
X342342Y1050910D01*
X343975Y1050490D01*
X344282Y1050032D01*
X345529Y1049199D01*
X347000Y1048906D01*
X355500D01*
X356971Y1049199D01*
X358218Y1050032D01*
X359051Y1051279D01*
X359344Y1052750D01*
X359051Y1054221D01*
X358218Y1055468D01*
Y1056532D01*
X359051Y1057779D01*
X359344Y1059250D01*
X359051Y1060721D01*
X358218Y1061968D01*
X356971Y1062801D01*
X355500Y1063094D01*
X347000D01*
X345529Y1062801D01*
X344282Y1061968D01*
X343449Y1060721D01*
X343156Y1059250D01*
X343267Y1058691D01*
X342124Y1057927D01*
X342101Y1057943D01*
X340614Y1058239D01*
X339508Y1059314D01*
Y1061738D01*
X340313Y1062275D01*
X341155Y1063535D01*
X341451Y1065022D01*
X341155Y1066509D01*
X340313Y1067769D01*
X339053Y1068611D01*
X338251Y1068771D01*
Y1075971D01*
X338281Y1075991D01*
X339123Y1077251D01*
X339419Y1078738D01*
X339309Y1079287D01*
X341390Y1081368D01*
X343619D01*
X346988Y1078000D01*
D02*
G37*
G36*
X278685Y1125267D02*
X279945Y1124425D01*
X281432Y1124129D01*
X282919Y1124425D01*
X284179Y1125267D01*
X284288Y1125430D01*
X285558Y1125045D01*
Y1118390D01*
X285706Y1117647D01*
X286127Y1117017D01*
X299191Y1103952D01*
X298706Y1102778D01*
X288336D01*
X288336Y1102778D01*
X287592Y1102630D01*
X286962Y1102209D01*
X286962Y1102209D01*
X277914Y1093161D01*
X277427Y1093534D01*
X275050Y1094519D01*
X272500Y1094854D01*
X269949Y1094519D01*
X267573Y1093534D01*
X265532Y1091968D01*
X264578Y1090726D01*
X263308Y1091157D01*
Y1121367D01*
X268013Y1126072D01*
X278148D01*
X278685Y1125267D01*
D02*
G37*
G36*
X408014Y1144832D02*
Y1101264D01*
X406939Y1100558D01*
X406433Y1101127D01*
X406729Y1102614D01*
X406433Y1104101D01*
X405591Y1105361D01*
X404331Y1106203D01*
X402844Y1106499D01*
X401357Y1106203D01*
X400097Y1105361D01*
X399560Y1104556D01*
X394444D01*
X393907Y1105361D01*
X392647Y1106203D01*
X391160Y1106499D01*
X389673Y1106203D01*
X388413Y1105361D01*
X387571Y1104101D01*
X387275Y1102614D01*
X387528Y1101346D01*
X386863Y1100076D01*
X374813D01*
X374052Y1099924D01*
X372782Y1100649D01*
Y1109980D01*
X372635Y1110723D01*
X372213Y1111353D01*
X367170Y1116397D01*
X367359Y1117346D01*
X367063Y1118833D01*
X366221Y1120093D01*
X364961Y1120935D01*
X364889Y1120949D01*
X364471Y1122327D01*
X367133Y1124990D01*
X367555Y1125620D01*
X367702Y1126363D01*
X367702Y1126363D01*
Y1139565D01*
X368972Y1139950D01*
X369109Y1139745D01*
X370369Y1138903D01*
X371856Y1138607D01*
X373343Y1138903D01*
X374603Y1139745D01*
X375445Y1141005D01*
X375741Y1142492D01*
X375509Y1143655D01*
X376224Y1144925D01*
X405188D01*
X406293Y1145144D01*
X406744Y1145446D01*
X408014Y1144832D01*
D02*
G37*
G36*
X422746Y1241002D02*
Y1220724D01*
X422893Y1219981D01*
X423315Y1219351D01*
X457544Y1185122D01*
Y1150478D01*
X456726Y1149811D01*
X455575Y1150308D01*
Y1157187D01*
X455355Y1158292D01*
X454729Y1159229D01*
X453792Y1159855D01*
X452687Y1160075D01*
X422312D01*
X421207Y1159855D01*
X420270Y1159229D01*
X419644Y1158292D01*
X419424Y1157187D01*
Y1156583D01*
X418568Y1156126D01*
X418154Y1156016D01*
X416814Y1156283D01*
X415327Y1155987D01*
X414067Y1155145D01*
X413225Y1153885D01*
X413168Y1153599D01*
X411898Y1153724D01*
Y1169224D01*
X412501Y1169753D01*
X415153Y1170102D01*
X417624Y1171125D01*
X419747Y1172754D01*
X421375Y1174876D01*
X422399Y1177348D01*
X422748Y1180000D01*
X422399Y1182653D01*
X421375Y1185124D01*
X419747Y1187246D01*
X417624Y1188875D01*
X415153Y1189899D01*
X412501Y1190248D01*
X409848Y1189899D01*
X407377Y1188875D01*
X405254Y1187246D01*
X403626Y1185124D01*
X402602Y1182653D01*
X402253Y1180000D01*
X402602Y1177348D01*
X403626Y1174876D01*
X405254Y1172754D01*
X407377Y1171125D01*
X408014Y1170862D01*
Y1160169D01*
X406744Y1159555D01*
X406293Y1159856D01*
X405188Y1160076D01*
X397148D01*
X396662Y1161249D01*
X399899Y1164487D01*
X400321Y1165117D01*
X400468Y1165860D01*
X400468Y1165860D01*
Y1205756D01*
X401273Y1206293D01*
X402115Y1207553D01*
X402411Y1209040D01*
X402115Y1210527D01*
X401273Y1211787D01*
X400013Y1212629D01*
X398526Y1212925D01*
X397039Y1212629D01*
X395779Y1211787D01*
X394937Y1210527D01*
X394641Y1209040D01*
X394937Y1207553D01*
X395779Y1206293D01*
X396584Y1205756D01*
Y1186417D01*
X395314Y1185986D01*
X394347Y1187246D01*
X392224Y1188875D01*
X389753Y1189899D01*
X387101Y1190248D01*
X384448Y1189899D01*
X381977Y1188875D01*
X379854Y1187246D01*
X378226Y1185124D01*
X377202Y1182653D01*
X376853Y1180000D01*
X377202Y1177348D01*
X378226Y1174876D01*
X378662Y1174308D01*
X363288Y1158934D01*
X362114Y1159420D01*
Y1164990D01*
X363033Y1165481D01*
X363384Y1165548D01*
X364744Y1165277D01*
X366231Y1165573D01*
X367491Y1166415D01*
X368333Y1167675D01*
X368629Y1169162D01*
X368333Y1170649D01*
X367491Y1171909D01*
X366686Y1172446D01*
Y1179594D01*
X367491Y1180131D01*
X368333Y1181391D01*
X368629Y1182878D01*
X368333Y1184365D01*
X367491Y1185625D01*
X366231Y1186467D01*
X364744Y1186763D01*
X364072Y1186629D01*
X363446Y1187799D01*
X404986Y1229340D01*
X405473Y1228966D01*
X407850Y1227982D01*
X410400Y1227646D01*
X412951Y1227982D01*
X415327Y1228966D01*
X417368Y1230532D01*
X418934Y1232573D01*
X419919Y1234950D01*
X420254Y1237500D01*
X419919Y1240051D01*
X418934Y1242427D01*
X417368Y1244468D01*
X415327Y1246034D01*
X412951Y1247019D01*
X410400Y1247355D01*
X407850Y1247019D01*
X405473Y1246034D01*
X403432Y1244468D01*
X401866Y1242427D01*
X400882Y1240051D01*
X400546Y1237500D01*
X400882Y1234950D01*
X401866Y1232573D01*
X402239Y1232086D01*
X360494Y1190341D01*
X359320Y1190827D01*
Y1223946D01*
X374015Y1238641D01*
X375218Y1238047D01*
X375146Y1237500D01*
X375481Y1234950D01*
X376466Y1232573D01*
X378032Y1230532D01*
X380073Y1228966D01*
X382449Y1227982D01*
X385000Y1227646D01*
X387551Y1227982D01*
X389927Y1228966D01*
X391968Y1230532D01*
X393534Y1232573D01*
X394519Y1234950D01*
X394854Y1237500D01*
X394519Y1240051D01*
X393534Y1242427D01*
X391968Y1244468D01*
X389927Y1246034D01*
X387551Y1247019D01*
X385000Y1247355D01*
X384453Y1247282D01*
X383859Y1248485D01*
X385506Y1250132D01*
X413615D01*
X422746Y1241002D01*
D02*
G37*
G36*
X358703Y1021327D02*
X358703Y1021327D01*
X359333Y1020906D01*
X360076Y1020758D01*
X360648D01*
X360720Y1020213D01*
X361680Y1017896D01*
X363206Y1015907D01*
X363621Y1015589D01*
X363212Y1014386D01*
X341165D01*
X321691Y1033860D01*
Y1056679D01*
X322864Y1057165D01*
X358703Y1021327D01*
D02*
G37*
G36*
X341824Y1203288D02*
X341336Y1202557D01*
X340927Y1200500D01*
Y1194500D01*
X341336Y1192444D01*
X342382Y1190879D01*
X342179Y1190162D01*
X341849Y1189609D01*
X339500D01*
X337737Y1189258D01*
X336241Y1188259D01*
X335242Y1186764D01*
X334892Y1185000D01*
X335242Y1183237D01*
X336241Y1181742D01*
X337737Y1180743D01*
X339500Y1180392D01*
X342500D01*
X344264Y1180743D01*
X345759Y1181742D01*
X346758Y1183237D01*
X347109Y1185000D01*
X346758Y1186764D01*
X346005Y1187891D01*
X346127Y1188401D01*
X346457Y1189064D01*
X346556Y1189178D01*
X348356Y1189536D01*
X348993Y1189962D01*
X350263Y1189283D01*
Y1183082D01*
X338007Y1170826D01*
X337058Y1171015D01*
X335571Y1170719D01*
X334311Y1169877D01*
X333469Y1168617D01*
X333173Y1167130D01*
X333469Y1165643D01*
X334311Y1164383D01*
X335571Y1163541D01*
X337058Y1163245D01*
X338545Y1163541D01*
X339376Y1164096D01*
X340634Y1163645D01*
X340710Y1163577D01*
X340772Y1163009D01*
X340407Y1162765D01*
X339565Y1161505D01*
X339269Y1160018D01*
X339565Y1158531D01*
X340407Y1157271D01*
X341667Y1156429D01*
X343154Y1156133D01*
X344514Y1156404D01*
X344865Y1156337D01*
X345784Y1155846D01*
Y1153558D01*
X345080Y1152981D01*
X343594Y1152685D01*
X342333Y1151843D01*
X341491Y1150583D01*
X341196Y1149096D01*
X341491Y1147609D01*
X341576Y1147482D01*
X340897Y1146212D01*
X329815D01*
X327114Y1148913D01*
X327338Y1149622D01*
X327660Y1150163D01*
X328987Y1150427D01*
X330247Y1151269D01*
X331089Y1152529D01*
X331385Y1154016D01*
X331089Y1155503D01*
X330247Y1156763D01*
X329442Y1157300D01*
Y1173631D01*
X330270D01*
Y1183170D01*
X321796D01*
X321132Y1184441D01*
X321385Y1185711D01*
X321089Y1187197D01*
X320325Y1188341D01*
X321258Y1189737D01*
X321609Y1191500D01*
X321258Y1193264D01*
X322206Y1194131D01*
X322764Y1194242D01*
X324259Y1195241D01*
X324365Y1195400D01*
X325635D01*
X325741Y1195241D01*
X327237Y1194242D01*
X329000Y1193892D01*
X330764Y1194242D01*
X332259Y1195241D01*
X333258Y1196736D01*
X333609Y1198500D01*
X333258Y1200264D01*
X332259Y1201759D01*
X330764Y1202758D01*
X329000Y1203109D01*
X327237Y1202758D01*
X325741Y1201759D01*
X325635Y1201600D01*
X324365D01*
X324259Y1201759D01*
X322764Y1202758D01*
X321000Y1203109D01*
X319237Y1202758D01*
X317741Y1201759D01*
X317635Y1201600D01*
X316365D01*
X316259Y1201759D01*
X314764Y1202758D01*
X313000Y1203109D01*
X311236Y1202758D01*
X309741Y1201759D01*
X308742Y1200264D01*
X308392Y1198500D01*
X308742Y1196736D01*
X307794Y1195869D01*
X307236Y1195758D01*
X305741Y1194759D01*
X305635Y1194600D01*
X304365D01*
X304259Y1194759D01*
X302764Y1195758D01*
X302206Y1195869D01*
X301258Y1196736D01*
X301609Y1198500D01*
X301300Y1200053D01*
X305805Y1204558D01*
X341146D01*
X341824Y1203288D01*
D02*
G37*
%LPC*%
G36*
X437901Y1190248D02*
X435248Y1189899D01*
X432777Y1188875D01*
X430654Y1187246D01*
X429026Y1185124D01*
X428002Y1182653D01*
X427653Y1180000D01*
X428002Y1177348D01*
X429026Y1174876D01*
X430654Y1172754D01*
X430186Y1171553D01*
X430166Y1171528D01*
X428917Y1171777D01*
X427430Y1171481D01*
X426170Y1170639D01*
X425328Y1169379D01*
X425032Y1167892D01*
X425328Y1166405D01*
X426170Y1165145D01*
X427430Y1164303D01*
X428917Y1164007D01*
X430403Y1164303D01*
X431663Y1165145D01*
X432505Y1166405D01*
X432801Y1167892D01*
X432505Y1169379D01*
X432288Y1169704D01*
X432377Y1169938D01*
X433970Y1170631D01*
X435248Y1170102D01*
X437901Y1169753D01*
X440553Y1170102D01*
X443024Y1171125D01*
X445147Y1172754D01*
X446775Y1174876D01*
X447799Y1177348D01*
X448148Y1180000D01*
X447799Y1182653D01*
X446775Y1185124D01*
X445147Y1187246D01*
X443024Y1188875D01*
X440553Y1189899D01*
X437901Y1190248D01*
D02*
G37*
G36*
X459304Y970871D02*
X457322Y970477D01*
X455642Y969354D01*
X454519Y967673D01*
X454125Y965691D01*
Y946272D01*
X451337Y943484D01*
X450215Y941804D01*
X449820Y939822D01*
Y920151D01*
X449631Y920113D01*
X448735Y919515D01*
X448137Y918619D01*
X447927Y917563D01*
Y902438D01*
X448137Y901381D01*
X448735Y900486D01*
X449631Y899887D01*
X450687Y899677D01*
X459312D01*
X460369Y899887D01*
X461264Y900486D01*
X461863Y901381D01*
X462073Y902438D01*
Y917563D01*
X461863Y918619D01*
X461264Y919515D01*
X460369Y920113D01*
X460179Y920151D01*
Y937676D01*
X462967Y940464D01*
X464089Y942144D01*
X464484Y944126D01*
X464484Y944126D01*
Y965691D01*
X464089Y967673D01*
X462967Y969354D01*
X461286Y970477D01*
X459304Y970871D01*
D02*
G37*
G36*
X494600Y940248D02*
X491948Y939899D01*
X489476Y938875D01*
X487354Y937246D01*
X485725Y935124D01*
X484701Y932653D01*
X484352Y930000D01*
X484701Y927348D01*
X485725Y924876D01*
X487354Y922754D01*
X489476Y921125D01*
X491948Y920102D01*
X494600Y919753D01*
X497252Y920102D01*
X499724Y921125D01*
X501846Y922754D01*
X503475Y924876D01*
X504498Y927348D01*
X504848Y930000D01*
X504498Y932653D01*
X503475Y935124D01*
X501846Y937246D01*
X499724Y938875D01*
X497252Y939899D01*
X494600Y940248D01*
D02*
G37*
G36*
X535000Y996695D02*
X533514Y996399D01*
X532253Y995557D01*
X531411Y994297D01*
X531115Y992810D01*
X531411Y991324D01*
X532253Y990063D01*
X533514Y989221D01*
X535000Y988926D01*
X536487Y989221D01*
X537747Y990063D01*
X538589Y991324D01*
X538885Y992810D01*
X538589Y994297D01*
X537747Y995557D01*
X536487Y996399D01*
X535000Y996695D01*
D02*
G37*
G36*
X506000Y1001574D02*
X504513Y1001279D01*
X503253Y1000436D01*
X502411Y999176D01*
X502115Y997690D01*
X502411Y996203D01*
X503253Y994943D01*
X504513Y994101D01*
X506000Y993805D01*
X507487Y994101D01*
X508747Y994943D01*
X509589Y996203D01*
X509885Y997690D01*
X509589Y999176D01*
X508747Y1000436D01*
X507487Y1001279D01*
X506000Y1001574D01*
D02*
G37*
G36*
X460248Y1038681D02*
X458761Y1038385D01*
X457501Y1037543D01*
X456659Y1036283D01*
X456363Y1034796D01*
X456659Y1033309D01*
X457501Y1032049D01*
X457583Y1031995D01*
Y1030467D01*
X457253Y1030247D01*
X456411Y1028987D01*
X456115Y1027500D01*
X456411Y1026013D01*
X457253Y1024753D01*
X458513Y1023911D01*
X460000Y1023615D01*
X461487Y1023911D01*
X462013Y1024263D01*
X483784D01*
X484415Y1023841D01*
X485902Y1023545D01*
X486597Y1023684D01*
X486631Y1023514D01*
X487473Y1022253D01*
X488733Y1021411D01*
X490220Y1021116D01*
X491707Y1021411D01*
X492967Y1022253D01*
X493504Y1023058D01*
X533247D01*
X537070Y1019235D01*
X536881Y1018286D01*
X537177Y1016799D01*
X538019Y1015539D01*
X539279Y1014697D01*
X540766Y1014401D01*
X542253Y1014697D01*
X543513Y1015539D01*
X544355Y1016799D01*
X544651Y1018286D01*
X544355Y1019773D01*
X543513Y1021033D01*
X542253Y1021875D01*
X540766Y1022171D01*
X539817Y1021982D01*
X535425Y1026374D01*
X534795Y1026795D01*
X534052Y1026943D01*
X531824D01*
X531366Y1027500D01*
X531120Y1028739D01*
X530418Y1029789D01*
X529368Y1030491D01*
X528129Y1030737D01*
X507013D01*
X506486Y1031089D01*
X505000Y1031385D01*
X503513Y1031089D01*
X502253Y1030247D01*
X501411Y1028987D01*
X501115Y1027500D01*
X500658Y1026943D01*
X498360D01*
X498169Y1027176D01*
X497873Y1028663D01*
X497031Y1029923D01*
X495771Y1030765D01*
X494284Y1031061D01*
X492797Y1030765D01*
X491537Y1029923D01*
X490770Y1028775D01*
X490220Y1028885D01*
X489525Y1028747D01*
X489491Y1028917D01*
X488649Y1030177D01*
X487389Y1031019D01*
X485902Y1031315D01*
X484415Y1031019D01*
X483994Y1030737D01*
X463317D01*
X462932Y1032007D01*
X462995Y1032049D01*
X463837Y1033309D01*
X464133Y1034796D01*
X463837Y1036283D01*
X462995Y1037543D01*
X461735Y1038385D01*
X460248Y1038681D01*
D02*
G37*
G36*
X536813Y985323D02*
X528188D01*
X527131Y985113D01*
X526236Y984515D01*
X525637Y983619D01*
X525427Y982563D01*
Y967438D01*
X525637Y966381D01*
X526236Y965486D01*
X527131Y964887D01*
X528068Y964701D01*
X528366Y964339D01*
X528858Y963407D01*
X528616Y962190D01*
X528911Y960704D01*
X529753Y959443D01*
X531014Y958601D01*
X532500Y958305D01*
X533987Y958601D01*
X535247Y959443D01*
X536089Y960704D01*
X536385Y962190D01*
X536143Y963407D01*
X536634Y964339D01*
X536932Y964701D01*
X537869Y964887D01*
X538765Y965486D01*
X539363Y966381D01*
X539573Y967438D01*
Y982563D01*
X539363Y983619D01*
X538765Y984515D01*
X537869Y985113D01*
X536813Y985323D01*
D02*
G37*
G36*
X491810Y983885D02*
X490323Y983589D01*
X489063Y982747D01*
X488221Y981487D01*
X487925Y980000D01*
X488221Y978513D01*
X489063Y977253D01*
X490323Y976411D01*
X491810Y976115D01*
X493297Y976411D01*
X494557Y977253D01*
X495399Y978513D01*
X495695Y980000D01*
X495399Y981487D01*
X494557Y982747D01*
X493297Y983589D01*
X491810Y983885D01*
D02*
G37*
G36*
X344600Y1006907D02*
X342113Y1006580D01*
X339796Y1005620D01*
X337807Y1004093D01*
X336280Y1002104D01*
X335320Y999787D01*
X334993Y997300D01*
X335320Y994814D01*
X336280Y992496D01*
X337807Y990507D01*
X339796Y988980D01*
X342113Y988020D01*
X344600Y987693D01*
X347086Y988020D01*
X349403Y988980D01*
X351393Y990507D01*
X352920Y992496D01*
X353880Y994814D01*
X354207Y997300D01*
X353880Y999787D01*
X352920Y1002104D01*
X351393Y1004093D01*
X349403Y1005620D01*
X347086Y1006580D01*
X344600Y1006907D01*
D02*
G37*
%LPD*%
G36*
X461198Y1037090D02*
X462004Y1036552D01*
X462542Y1035746D01*
X462731Y1034796D01*
X462542Y1033846D01*
X461852Y1032813D01*
X461840Y1032754D01*
X461720Y1032655D01*
X461699Y1032448D01*
X461584Y1032275D01*
X461650Y1031944D01*
X461617Y1031608D01*
X462002Y1030338D01*
X462216Y1030077D01*
X462346Y1029765D01*
X462538Y1029686D01*
X462669Y1029525D01*
X463006Y1029492D01*
X463317Y1029363D01*
X483994D01*
X484364Y1029516D01*
X484758Y1029594D01*
X484952Y1029724D01*
X485902Y1029913D01*
X486852Y1029724D01*
X487658Y1029186D01*
X488348Y1028153D01*
X488431Y1028097D01*
X488761Y1027604D01*
X488761D01*
X488761Y1027604D01*
X489244Y1027508D01*
X489793Y1027398D01*
X489793Y1027398D01*
X490220Y1027483D01*
X490502Y1027427D01*
X490770Y1027480D01*
X491039Y1027427D01*
X491266Y1027579D01*
X491534Y1027632D01*
X491686Y1027860D01*
X491913Y1028012D01*
X492528Y1028932D01*
X493334Y1029470D01*
X494284Y1029659D01*
X495234Y1029470D01*
X496040Y1028932D01*
X496578Y1028126D01*
X496820Y1026908D01*
X497008Y1026627D01*
X497106Y1026304D01*
X497298Y1026070D01*
X497361Y1026037D01*
X497388Y1025971D01*
X497817Y1025793D01*
X497986Y1025703D01*
X497867Y1024594D01*
X497798Y1024433D01*
X493504D01*
X493374Y1024379D01*
X493236Y1024406D01*
X492903Y1024183D01*
X492532Y1024030D01*
X492478Y1023900D01*
X492361Y1023822D01*
X491976Y1023244D01*
X491170Y1022706D01*
X490220Y1022517D01*
X489270Y1022706D01*
X488464Y1023244D01*
X487774Y1024277D01*
X487691Y1024333D01*
X487361Y1024827D01*
X487361D01*
X487361Y1024827D01*
X486878Y1024923D01*
X486329Y1025032D01*
X486329Y1025032D01*
X485902Y1024947D01*
X484952Y1025136D01*
X484548Y1025406D01*
X484155Y1025484D01*
X483784Y1025638D01*
X462013D01*
X461643Y1025484D01*
X461249Y1025406D01*
X460950Y1025206D01*
X460000Y1025017D01*
X459050Y1025206D01*
X458244Y1025744D01*
X457706Y1026550D01*
X457517Y1027500D01*
X457706Y1028450D01*
X458244Y1029256D01*
X458346Y1029324D01*
X458425Y1029441D01*
X458555Y1029495D01*
X458708Y1029866D01*
X458931Y1030199D01*
X458904Y1030337D01*
X458957Y1030467D01*
Y1031995D01*
X458904Y1032125D01*
X458931Y1032263D01*
X458708Y1032596D01*
X458668Y1032694D01*
X458644Y1032813D01*
X458577Y1032914D01*
X458555Y1032967D01*
X458536Y1032974D01*
X457954Y1033846D01*
X457765Y1034796D01*
X457954Y1035746D01*
X458492Y1036552D01*
X459298Y1037090D01*
X460248Y1037279D01*
X461198Y1037090D01*
D02*
G37*
D10*
X523240Y1056118D02*
D03*
Y1086118D02*
D03*
X477500Y1205000D02*
D03*
Y1175000D02*
D03*
D14*
X455000Y910000D02*
D03*
X425000D02*
D03*
X502500Y975000D02*
D03*
X532500D02*
D03*
X487948Y1065275D02*
D03*
X457947D02*
D03*
D24*
X330000Y1072500D02*
D03*
X340000D02*
D03*
D26*
X505000Y1027500D02*
X528129D01*
X460000D02*
X485000D01*
X482000Y1117500D02*
X517325D01*
X519325Y1115500D01*
X522500Y1118675D01*
Y1116825D02*
Y1118675D01*
D28*
X257160Y1203209D02*
X257500Y1203549D01*
X584600Y867100D02*
Y870000D01*
X650000Y895400D02*
X652100D01*
X650000Y965400D02*
X655400Y960000D01*
X652500Y1072500D02*
Y1075000D01*
D29*
X526542Y1049430D02*
X529082Y1046890D01*
X523240Y1056118D02*
X526542D01*
X534052Y1025000D02*
X540766Y1018286D01*
X351250Y1065750D02*
X359270D01*
X361810Y1063210D01*
X330000Y1065274D02*
Y1072500D01*
X477500Y1175000D02*
X487770D01*
X490310Y1172460D01*
X523240Y1086118D02*
X533400D01*
X535940Y1083578D01*
X536050D01*
X391160Y1102614D02*
X402844D01*
X390000Y1092500D02*
X402590D01*
X408432Y1086658D01*
Y1042924D02*
Y1086658D01*
Y1042924D02*
X415290Y1036066D01*
X439166Y1078230D02*
X441960Y1081024D01*
X446808D01*
X371856Y1142492D02*
Y1152500D01*
X390000D01*
X548640Y1050798D02*
X569976D01*
X531368Y1068070D02*
X548640Y1050798D01*
X282500Y976700D02*
X302636Y956564D01*
X347726D01*
X372364Y931926D01*
Y913892D02*
Y931926D01*
Y913892D02*
X417830Y868426D01*
X425958D01*
X431292Y873760D01*
Y874014D01*
X441198Y883920D01*
X448818D01*
X473710Y859028D01*
X498856D01*
X503936Y864108D01*
Y878586D01*
X507492Y882142D01*
X523240D01*
X529336Y876046D01*
Y865948D02*
Y876046D01*
Y865948D02*
X536002Y859282D01*
X546100D01*
X550418Y863600D01*
Y895096D01*
X545400Y900114D02*
X550418Y895096D01*
X545400Y900114D02*
Y930000D01*
X371212Y1074928D02*
X373890Y1072250D01*
X340839Y1083564D02*
X344170D01*
X333756Y1072500D02*
Y1076481D01*
X330000Y1072500D02*
X333756D01*
X445262Y1110234D02*
X457947Y1097549D01*
X445262Y1110234D02*
Y1138174D01*
X448818Y1141730D01*
X451612D01*
X459486Y1149604D01*
Y1185926D01*
X424688Y1220724D02*
X459486Y1185926D01*
X424688Y1220724D02*
Y1241806D01*
X414420Y1252074D02*
X424688Y1241806D01*
X384702Y1252074D02*
X414420D01*
X357378Y1224751D02*
X384702Y1252074D01*
X357378Y1174765D02*
Y1224751D01*
X347726Y1165113D02*
X357378Y1174765D01*
X347726Y1151742D02*
Y1165113D01*
X345080Y1149096D02*
X347726Y1151742D01*
X562356Y1066800D02*
Y1078000D01*
Y1066800D02*
X592328Y1036828D01*
Y928878D02*
Y1036828D01*
Y928878D02*
X596646Y924560D01*
X363474Y1117346D02*
X370840Y1109980D01*
Y1086739D02*
Y1109980D01*
Y1086739D02*
X374269Y1083310D01*
X403555D01*
X405765Y1081100D01*
Y1007665D02*
Y1081100D01*
X395400Y997300D02*
X405765Y1007665D01*
X302500Y1110502D02*
X304800Y1108202D01*
X455930Y1045464D02*
X521182D01*
X437388Y982472D02*
X445008Y990092D01*
X334264Y982472D02*
X437388D01*
X316992Y999744D02*
X334264Y982472D01*
X316992Y999744D02*
Y1084834D01*
X325882Y1093724D01*
Y1111758D01*
X331470Y1117346D01*
X363474Y1087120D02*
Y1105662D01*
Y1087120D02*
X370840Y1079754D01*
X374904Y1056640D02*
X382016Y1049528D01*
Y1009316D02*
Y1049528D01*
X370000Y997300D02*
X382016Y1009316D01*
X297000Y1198500D02*
X305000Y1206500D01*
X348811D01*
X352206Y1203105D01*
Y1182278D02*
Y1203105D01*
X337058Y1167130D02*
X352206Y1182278D01*
X352298Y1228344D02*
X354745Y1225897D01*
Y1176758D02*
Y1225897D01*
X343154Y1165167D02*
X354745Y1176758D01*
X343154Y1160018D02*
Y1165167D01*
X315468Y1132332D02*
X318008D01*
X320702Y1129638D01*
Y1099992D02*
Y1129638D01*
X271526Y1050816D02*
X320702Y1099992D01*
X271526Y1023620D02*
Y1050816D01*
Y1023620D02*
X278384Y1016762D01*
X287274D01*
X343154Y960882D01*
X395732D01*
X442468Y914146D01*
Y899160D02*
Y914146D01*
Y899160D02*
X471628Y870000D01*
X490000D01*
X311785Y1103122D02*
Y1118235D01*
X309499Y1100836D02*
X311785Y1103122D01*
X288336Y1100836D02*
X309499D01*
X272500Y1085000D02*
X288336Y1100836D01*
X520000Y890000D02*
X540000Y870000D01*
X520000Y890000D02*
Y930000D01*
X477500Y1205000D02*
X490310D01*
X620250Y975000D02*
X636810D01*
X317500Y1178400D02*
Y1185711D01*
X292500Y1178400D02*
Y1185711D01*
X532500Y962190D02*
Y975000D01*
X335534Y1078738D02*
X340106Y1083310D01*
X360172Y1077214D02*
X362458Y1074928D01*
X371210D01*
X373888Y1072250D01*
X457708Y1078000D02*
X457947Y1077761D01*
X418084Y1092770D02*
Y1110000D01*
Y1092770D02*
X418355Y1092500D01*
X437500D01*
X297500Y1161412D02*
Y1178400D01*
X292500Y1156412D02*
X297500Y1161412D01*
X292500Y1153872D02*
Y1156412D01*
X349350Y1144270D02*
X355000Y1149920D01*
X329010Y1144270D02*
X349350D01*
X312500Y1160780D02*
X329010Y1144270D01*
X312500Y1170860D02*
X312928Y1170432D01*
X267208Y1128014D02*
X281432D01*
X261366Y1122172D02*
X267208Y1128014D01*
X261366Y1023234D02*
Y1122172D01*
Y1023234D02*
X282500Y1002100D01*
X277500Y1178400D02*
Y1185711D01*
X559750Y975000D02*
X576310D01*
X487948Y1052465D02*
Y1065275D01*
X502500Y962190D02*
Y975000D01*
X424688Y887523D02*
X425000Y887834D01*
X332250Y937500D02*
X348041D01*
X349297Y936244D01*
X353082D01*
X569976Y1025652D02*
Y1050798D01*
X542798Y998474D02*
X569976Y1025652D01*
X542798Y951800D02*
Y998474D01*
Y951800D02*
X545400Y949198D01*
Y930000D02*
Y949198D01*
X360076Y1022700D02*
X370000D01*
X322326Y1060450D02*
X360076Y1022700D01*
X322326Y1060450D02*
Y1078442D01*
X332994Y1089110D01*
Y1104138D01*
X340360Y1012444D02*
X377444D01*
X319748Y1033056D02*
X340360Y1012444D01*
X319748Y1033056D02*
Y1080859D01*
X328549Y1089660D01*
Y1107313D01*
X336042Y1114806D01*
Y1127506D01*
X334518Y1129030D02*
X336042Y1127506D01*
X302500Y1171194D02*
Y1178400D01*
X435800Y1237500D02*
X463296Y1210004D01*
Y1202384D02*
Y1210004D01*
Y1202384D02*
X481532Y1184148D01*
X486104D01*
X540766Y1129486D01*
Y1099820D02*
Y1129486D01*
X535432Y1094486D02*
X540766Y1099820D01*
X351250Y1072250D02*
X368992D01*
X385064Y1056178D01*
Y987316D02*
Y1056178D01*
Y987316D02*
X385590Y986790D01*
X404194D01*
X420116Y1002712D01*
Y1082765D01*
X409956Y1092925D02*
X420116Y1082765D01*
X409956Y1092925D02*
Y1177456D01*
X412501Y1180000D01*
X282500Y1161796D02*
Y1178400D01*
X364744Y1169162D02*
Y1182878D01*
X287500Y1118390D02*
Y1178400D01*
Y1118390D02*
X302260Y1103630D01*
X306578D01*
X309245Y1106297D01*
Y1111250D01*
X306832Y1113663D02*
X309245Y1111250D01*
X306832Y1113663D02*
Y1122426D01*
X308102Y1123696D01*
X346202Y1121918D02*
X356870Y1132586D01*
X343281Y1121918D02*
X346202D01*
X338963Y1126236D02*
X343281Y1121918D01*
X338963Y1126236D02*
Y1131570D01*
X337058Y1133475D02*
X338963Y1131570D01*
X329057Y1133475D02*
X337058D01*
X323342Y1127760D02*
X329057Y1133475D01*
X323342Y1098042D02*
Y1127760D01*
X313944Y1088644D02*
X323342Y1098042D01*
X313944Y1058944D02*
Y1088644D01*
X282500Y1027500D02*
X313944Y1058944D01*
X332500Y1163560D02*
Y1178400D01*
Y1163560D02*
X339852Y1156208D01*
Y1153668D02*
Y1156208D01*
X340000Y1069630D02*
Y1072500D01*
Y1069630D02*
X343880Y1065750D01*
X351250D01*
X337566Y1057402D02*
X340614Y1054354D01*
X337566Y1057402D02*
Y1065022D01*
X472037Y1253385D02*
X516382Y1209040D01*
Y1172972D02*
Y1209040D01*
Y1172972D02*
X543306Y1146048D01*
Y1082040D02*
Y1146048D01*
X538480Y1077214D02*
X543306Y1082040D01*
X518922Y1077214D02*
X538480D01*
X501396Y1059688D02*
X518922Y1077214D01*
X344640Y1042670D02*
X361442D01*
X324866Y1062444D02*
X344640Y1042670D01*
X324866Y1062444D02*
Y1077389D01*
X344424Y1096947D01*
Y1113536D01*
X362966Y1132078D01*
Y1155866D01*
X387101Y1180000D01*
X360172Y1187272D02*
X410400Y1237500D01*
X360172Y1148644D02*
Y1187272D01*
X353004Y1141476D02*
X360172Y1148644D01*
X328212Y1141476D02*
X353004D01*
X307500Y1162188D02*
X328212Y1141476D01*
X316230Y1105662D02*
Y1123696D01*
X305054Y1134872D02*
X316230Y1123696D01*
X305054Y1134872D02*
Y1152746D01*
X307500Y1155192D01*
X385064Y1078484D02*
X401320D01*
X413004Y1056132D02*
X413512Y1056640D01*
Y1081024D01*
X322500Y1158494D02*
Y1178400D01*
X314256Y1148811D02*
X324385Y1138682D01*
X341376D01*
X346583Y1133475D01*
X346985D01*
X327500Y1154016D02*
Y1178400D01*
X314960Y1141476D02*
X320421Y1136015D01*
X338328D01*
X341884Y1132459D01*
Y1129728D02*
Y1132459D01*
Y1129728D02*
X344741Y1126871D01*
X398526Y1165860D02*
Y1209040D01*
X393446Y1160780D02*
X398526Y1165860D01*
X373458Y1160780D02*
X393446D01*
X365760Y1153082D02*
X373458Y1160780D01*
X365760Y1126363D02*
Y1153082D01*
X355092Y1115695D02*
X365760Y1126363D01*
X355092Y1086358D02*
Y1115695D01*
X416814Y1152398D02*
X416916Y1152500D01*
X437500D01*
X340106Y1083310D02*
X340585D01*
X344424D01*
X348488D01*
X354584Y1077214D02*
X360045D01*
X360172D01*
X348361Y1079373D02*
X352425D01*
X357886D01*
X333756Y1076481D02*
X340585Y1083310D01*
X340839Y1083564D01*
X348488Y1083310D02*
X352425Y1079373D01*
X354584Y1077214D01*
X344170Y1083564D02*
X344424Y1083310D01*
X348361Y1079373D01*
X373888Y1072250D02*
X373890D01*
X395750D01*
X457947Y1065275D02*
Y1077761D01*
Y1097549D01*
X357886Y1079373D02*
X360045Y1077214D01*
X362331Y1074928D01*
X362458D01*
X371210D02*
X371212D01*
X302500Y1110502D02*
Y1171194D01*
X490220Y1025000D02*
X534052D01*
X526542Y1049430D02*
Y1056118D01*
X312500Y1160780D02*
Y1170860D01*
Y1178400D01*
X307500Y1155192D02*
Y1162188D01*
Y1178400D01*
X439365Y1036159D02*
Y1039841D01*
X441969Y1042445D01*
X439166Y1005242D02*
Y1032766D01*
X436825Y1035107D02*
X439166Y1032766D01*
X436825Y1035107D02*
Y1040893D01*
X439166Y1043234D01*
Y1078230D01*
X445008Y990092D02*
Y1030516D01*
X439365Y1036159D02*
X445008Y1030516D01*
X441969Y1042445D02*
X452911D01*
X455930Y1045464D01*
D30*
X455000Y910000D02*
Y939822D01*
X459304Y944126D01*
Y965691D01*
X425000Y887834D02*
Y910000D01*
X424688Y880618D02*
Y887523D01*
D32*
X610500Y1084450D02*
G03*
X608400Y1086550I-2100J0D01*
G01*
Y1063450D02*
G03*
X610500Y1065550I0J2100D01*
G01*
Y1122550D02*
G03*
X608400Y1124650I-2100J0D01*
G01*
X610500Y1008250D02*
G03*
X608400Y1010350I-2100J0D01*
G01*
X610500Y1046350D02*
G03*
X608400Y1048450I-2100J0D01*
G01*
Y1101550D02*
G03*
X610500Y1103650I0J2100D01*
G01*
X608400Y1139650D02*
G03*
X610500Y1141750I0J2100D01*
G01*
X608400Y1025350D02*
G03*
X610500Y1027450I0J2100D01*
G01*
X458377Y920000D02*
G03*
X458377Y920000I-3377J0D01*
G01*
X348377D02*
G03*
X348377Y920000I-3377J0D01*
G01*
X457000Y901000D02*
Y919000D01*
X452000Y901000D02*
Y919000D01*
X457000D01*
X452000Y901000D02*
X457000D01*
X423000D02*
Y919000D01*
X428000Y901000D02*
Y919000D01*
X423000D02*
X428000D01*
X423000Y901000D02*
X428000D01*
Y918800D02*
X452000D01*
X428000Y901200D02*
X452000D01*
X552000Y962500D02*
X553500D01*
X552000Y970000D02*
X553500D01*
X626500Y962500D02*
X628000D01*
X626500Y970000D02*
X628000D01*
X552000Y962500D02*
Y987500D01*
X553500D01*
X552000Y980000D02*
X553500D01*
X628000Y962500D02*
Y987500D01*
X626500D02*
X628000D01*
X626500Y980000D02*
X628000D01*
X626700Y970000D02*
Y980000D01*
X553300Y970000D02*
Y980000D01*
X553500Y994750D02*
X555990Y992260D01*
X553500Y955250D02*
Y994750D01*
Y955250D02*
X555990Y957739D01*
Y992260D01*
X610010Y992267D02*
X619068D01*
X624706Y992956D01*
X626500Y994750D01*
X553500D02*
X626500D01*
X555990Y992260D02*
X610010Y992267D01*
Y980753D02*
Y992267D01*
X555990Y957739D02*
X610010Y957732D01*
X553500Y955250D02*
X626500D01*
X624706Y957044D02*
X626500Y955250D01*
X619068Y957732D02*
X624706Y957044D01*
X610010Y957732D02*
X619068D01*
X610010D02*
Y969247D01*
X619011D02*
Y980753D01*
X610010Y969247D02*
X619068D01*
X610010Y980753D02*
X619068D01*
Y957732D02*
Y969247D01*
X624706Y957044D02*
Y992956D01*
X619068Y980753D02*
Y992267D01*
X626500Y955250D02*
Y994750D01*
X618500Y1119150D02*
Y1145150D01*
X600500Y1025350D02*
X608400D01*
X600500Y1063450D02*
X608400D01*
X610500Y1119150D02*
X618500D01*
X620600Y1117050D01*
X600500Y1124650D02*
X608400D01*
X610500Y1107050D02*
X618500D01*
X610500Y1103650D02*
Y1107050D01*
X608400Y1109150D02*
X610500Y1107050D01*
Y1004850D02*
X618500D01*
X600500Y1101550D02*
X608400D01*
X610500Y1042950D02*
X618500D01*
X600500Y1010350D02*
X608400D01*
X600500Y1139650D02*
X608400D01*
X618500Y1004850D02*
Y1030850D01*
Y1004850D02*
X620600Y1002750D01*
X618500Y1081050D02*
Y1107050D01*
X620600Y1109150D01*
X610500Y1030850D02*
X618500D01*
X620600Y1032950D01*
X610500Y1027450D02*
Y1030850D01*
X608400Y1032950D02*
X610500Y1030850D01*
Y1119150D02*
Y1122550D01*
X608400Y1117050D02*
X610500Y1119150D01*
X618500Y1042950D02*
Y1068950D01*
Y1042950D02*
X620600Y1040850D01*
X600500Y1048450D02*
X608400D01*
X610500Y1004850D02*
Y1008250D01*
X608400Y1002750D02*
X610500Y1004850D01*
Y1141750D02*
Y1145150D01*
X600500Y1086550D02*
X608400D01*
X610500Y1042950D02*
Y1046350D01*
X608400Y1040850D02*
X610500Y1042950D01*
Y1081050D02*
Y1084450D01*
Y1081050D02*
X618500D01*
X608400Y1078950D02*
X610500Y1081050D01*
X618500D02*
X620600Y1078950D01*
X610500Y1068950D02*
X618500D01*
X620600Y1071050D01*
X610500Y1065550D02*
Y1068950D01*
X608400Y1071050D02*
X610500Y1068950D01*
X608400Y1002750D02*
X620600D01*
X600500Y993750D02*
Y1156250D01*
Y993750D02*
X679500D01*
X687500Y987350D01*
X679500Y1156250D02*
X687500Y1162650D01*
X600500Y1156250D02*
X679500D01*
X620600Y1117050D02*
Y1147250D01*
X608400Y1117050D02*
X620600D01*
X608400Y1109150D02*
X620600D01*
Y1078950D02*
Y1109150D01*
X608400Y1078950D02*
X620600D01*
X608400Y1071050D02*
X620600D01*
Y1040850D02*
Y1071050D01*
X608400Y1040850D02*
X620600D01*
X608400Y1032950D02*
X620600D01*
Y1002750D02*
Y1032950D01*
X610500Y1145150D02*
X618500D01*
X620600Y1147250D01*
X608400D02*
X620600D01*
X608400D02*
X610500Y1145150D01*
X608400Y1078950D02*
Y1086550D01*
X600500Y1084450D02*
X610500D01*
X600500Y1065550D02*
X610500D01*
X608400Y1063450D02*
Y1071050D01*
Y1117050D02*
Y1124650D01*
X600500Y1122550D02*
X610500D01*
X608400Y1002750D02*
Y1010350D01*
X600500Y1008250D02*
X610500D01*
X608400Y1040850D02*
Y1048450D01*
X600500Y1046350D02*
X610500D01*
X600500Y1103650D02*
X610500D01*
X608400Y1101550D02*
Y1109150D01*
X600500Y1141750D02*
X610500D01*
X608400Y1139650D02*
Y1147250D01*
X600500Y1027450D02*
X610500D01*
X608400Y1025350D02*
Y1032950D01*
X692500Y987350D02*
Y1162650D01*
X687500Y1020350D02*
Y1162650D01*
X692500D01*
X682500Y1015350D02*
Y1020350D01*
Y1015350D02*
X687500D01*
Y987350D02*
Y1015350D01*
Y987350D02*
X692500D01*
X682500Y1020350D02*
X687500D01*
X566000Y1133000D02*
X584000D01*
X566000Y1138000D02*
X584000D01*
X566000Y1133000D02*
Y1138000D01*
X584000Y1133000D02*
Y1138000D01*
X566000Y1167000D02*
X584000D01*
X566000Y1162000D02*
X584000D01*
X566000D02*
Y1167000D01*
X584000Y1162000D02*
Y1167000D01*
X566200Y1138000D02*
Y1162000D01*
X583801Y1138000D02*
Y1162000D01*
X317250Y995250D02*
X320250D01*
Y989750D02*
Y995250D01*
X317250Y989750D02*
Y995250D01*
Y989750D02*
X320250D01*
X309750Y995250D02*
X312750D01*
Y989750D02*
Y995250D01*
X309750Y989750D02*
X312750D01*
X309750D02*
Y995250D01*
X312750Y989760D02*
X317250D01*
X312750D02*
X317250Y989765D01*
X312750Y995236D02*
X317250Y995240D01*
X312750Y995236D02*
X317250Y995240D01*
X537000Y971000D02*
Y989000D01*
X532000Y971000D02*
Y989000D01*
Y971000D02*
X537000D01*
X532000Y989000D02*
X537000D01*
X503000Y971000D02*
Y989000D01*
X508000Y971000D02*
Y989000D01*
X503000Y971000D02*
X508000D01*
X503000Y989000D02*
X508000D01*
Y971200D02*
X532000D01*
X508000Y988800D02*
X532000D01*
X514240Y1054118D02*
X532240D01*
X514240Y1059118D02*
X532240D01*
Y1054118D02*
Y1059118D01*
X514240Y1054118D02*
Y1059118D01*
Y1088118D02*
X532240D01*
X514240Y1083118D02*
X532240D01*
Y1088118D01*
X514240Y1083118D02*
Y1088118D01*
X532040Y1059118D02*
Y1083118D01*
X514440Y1059118D02*
Y1083118D01*
X468500Y1207000D02*
X486500D01*
X468500Y1202000D02*
X486500D01*
X468500D02*
Y1207000D01*
X486500Y1202000D02*
Y1207000D01*
X468500Y1173000D02*
X486500D01*
X468500Y1178000D02*
X486500D01*
X468500Y1173000D02*
Y1178000D01*
X486500Y1173000D02*
Y1178000D01*
X468700D02*
Y1202000D01*
X486300Y1178000D02*
Y1202000D01*
X329750Y1069750D02*
Y1075250D01*
X331750Y1069750D02*
Y1075250D01*
X329750Y1069750D02*
X331750D01*
X329750Y1075250D02*
X331750D01*
X338250Y1069750D02*
X340250D01*
X338250Y1075250D02*
X340250D01*
Y1069750D02*
Y1075250D01*
X338250Y1069750D02*
Y1075250D01*
X331750Y1069950D02*
X338250D01*
X331750Y1075050D02*
X338250D01*
X292250Y1090250D02*
X297750D01*
X292250Y1088250D02*
X297750D01*
Y1090250D01*
X292250Y1088250D02*
Y1090250D01*
X297750Y1079750D02*
Y1081750D01*
X292250Y1079750D02*
Y1081750D01*
Y1079750D02*
X297750D01*
X292250Y1081750D02*
X297750D01*
X297550D02*
Y1088250D01*
X292451Y1081750D02*
Y1088250D01*
X500500Y966000D02*
Y984000D01*
X505500Y966000D02*
Y984000D01*
X500500Y966000D02*
X505500D01*
X500500Y984000D02*
X505500D01*
X534500Y966000D02*
Y984000D01*
X529500Y966000D02*
Y984000D01*
Y966000D02*
X534500D01*
X529500Y984000D02*
X534500D01*
X505500Y966200D02*
X529500D01*
X505500Y983800D02*
X529500D01*
X271562Y1157165D02*
X276062Y1157170D01*
X271562Y1157165D02*
X276062Y1157170D01*
X271562Y1151690D02*
X276062Y1151695D01*
X271562Y1151690D02*
X276062D01*
X268562Y1151680D02*
Y1157180D01*
Y1151680D02*
X271562D01*
Y1157180D01*
X268562D02*
X271562D01*
X276062Y1151680D02*
X279062D01*
X276062D02*
Y1157180D01*
X279062Y1151680D02*
Y1157180D01*
X276062D02*
X279062D01*
X430500Y1203500D02*
Y1221500D01*
X435500Y1203500D02*
Y1221500D01*
X430500D02*
X435500D01*
X430500Y1203500D02*
X435500D01*
X464500D02*
Y1221500D01*
X459500Y1203500D02*
Y1221500D01*
X464500D01*
X459500Y1203500D02*
X464500D01*
X435500Y1221300D02*
X459500D01*
X435500Y1203700D02*
X459500D01*
X460031Y901425D02*
Y938575D01*
X464500Y939372D01*
Y900075D02*
Y939500D01*
X460031Y901425D02*
X464500Y900628D01*
X415500Y900075D02*
X416425Y899150D01*
X415500Y900075D02*
Y939500D01*
Y900628D02*
X419969Y901425D01*
X460031D01*
X463575Y899150D02*
X464500Y900075D01*
X454000Y899150D02*
X463575D01*
X446000Y899724D02*
X454000D01*
X434000Y899150D02*
X446000D01*
X426000Y899724D02*
X434000D01*
X416425Y899150D02*
X426000D01*
X415500Y939372D02*
X419969Y938575D01*
Y901425D02*
Y938575D01*
X415500Y939500D02*
X464500D01*
X419969Y938575D02*
X460031D01*
X418850Y942166D02*
X423050D01*
X418850Y945064D02*
X423050D01*
Y939500D02*
Y950000D01*
X418850Y939500D02*
Y950000D01*
X431550Y942166D02*
X435750D01*
X431550Y939500D02*
Y950000D01*
Y945064D02*
X435750D01*
Y939500D02*
Y950000D01*
X444250Y942166D02*
X448450D01*
X444250Y945064D02*
X448450D01*
X444250Y939500D02*
Y950000D01*
X448450Y939500D02*
Y950000D01*
X456950Y942166D02*
X461150D01*
X456950Y945064D02*
X461150D01*
Y939500D02*
Y950000D01*
X456950Y939500D02*
Y950000D01*
X418850Y945432D02*
X423050D01*
X431550D02*
X435750D01*
X444250D02*
X448450D01*
X456950D02*
X461150D01*
X418850Y946311D02*
X423050D01*
X431550D02*
X435750D01*
X444250D02*
X448450D01*
X456950D02*
X461150D01*
X434000Y899000D02*
Y899724D01*
Y899000D02*
X446000D01*
Y899724D01*
X454000Y897000D02*
Y899724D01*
Y897000D02*
X461000D01*
Y894500D02*
Y897000D01*
X456500Y890000D02*
X461000Y894500D01*
X423500Y890000D02*
X456500D01*
X419000Y894500D02*
X423500Y890000D01*
X419000Y894500D02*
Y897000D01*
X426000D02*
Y899724D01*
X419000Y897000D02*
X426000D01*
X418850Y950000D02*
X423050D01*
X431550D02*
X435750D01*
X444250D02*
X448450D01*
X456950D02*
X461150D01*
X350031Y901425D02*
Y938575D01*
X354500Y939372D01*
Y900075D02*
Y939500D01*
X350031Y901425D02*
X354500Y900628D01*
X305500Y900075D02*
X306425Y899150D01*
X305500Y900075D02*
Y939500D01*
Y900628D02*
X309969Y901425D01*
X350031D01*
X353576Y899150D02*
X354500Y900075D01*
X344000Y899150D02*
X353576D01*
X336000Y899724D02*
X344000D01*
X324000Y899150D02*
X336000D01*
X316000Y899724D02*
X324000D01*
X306425Y899150D02*
X316000D01*
X305500Y939372D02*
X309969Y938575D01*
Y901425D02*
Y938575D01*
X305500Y939500D02*
X354500D01*
X309969Y938575D02*
X350031D01*
X308850Y942166D02*
X313050D01*
X308850Y945064D02*
X313050D01*
Y939500D02*
Y950000D01*
X308850Y939500D02*
Y950000D01*
X321550Y942166D02*
X325750D01*
X321550Y939500D02*
Y950000D01*
Y945064D02*
X325750D01*
Y939500D02*
Y950000D01*
X334250Y942166D02*
X338450D01*
X334250Y945064D02*
X338450D01*
X334250Y939500D02*
Y950000D01*
X338450Y939500D02*
Y950000D01*
X346950Y942166D02*
X351150D01*
X346950Y945064D02*
X351150D01*
Y939500D02*
Y950000D01*
X346950Y939500D02*
Y950000D01*
X308850Y945432D02*
X313050D01*
X321550D02*
X325750D01*
X334250D02*
X338450D01*
X346950D02*
X351150D01*
X308850Y946311D02*
X313050D01*
X321550D02*
X325750D01*
X334250D02*
X338450D01*
X346950D02*
X351150D01*
X324000Y899000D02*
Y899724D01*
Y899000D02*
X336000D01*
Y899724D01*
X344000Y897000D02*
Y899724D01*
Y897000D02*
X351000D01*
Y894500D02*
Y897000D01*
X346500Y890000D02*
X351000Y894500D01*
X313500Y890000D02*
X346500D01*
X309000Y894500D02*
X313500Y890000D01*
X309000Y894500D02*
Y897000D01*
X316000D02*
Y899724D01*
X309000Y897000D02*
X316000D01*
X308850Y950000D02*
X313050D01*
X321550D02*
X325750D01*
X334250D02*
X338450D01*
X346950D02*
X351150D01*
X616000Y947000D02*
X634000D01*
X616000Y942000D02*
X634000D01*
Y947000D01*
X616000Y942000D02*
Y947000D01*
Y913000D02*
X634000D01*
X616000Y918000D02*
X634000D01*
Y913000D02*
Y918000D01*
X616000Y913000D02*
Y918000D01*
X633800D02*
Y942000D01*
X616200Y918000D02*
Y942000D01*
X591000Y947000D02*
X609000D01*
X591000Y942000D02*
X609000D01*
Y947000D01*
X591000Y942000D02*
Y947000D01*
Y913000D02*
X609000D01*
X591000Y918000D02*
X609000D01*
Y913000D02*
Y918000D01*
X591000Y913000D02*
Y918000D01*
X608800D02*
Y942000D01*
X591200Y918000D02*
Y942000D01*
X295500Y1213500D02*
Y1231500D01*
X300500Y1213500D02*
Y1231500D01*
X295500D02*
X300500D01*
X295500Y1213500D02*
X300500D01*
X329500D02*
Y1231500D01*
X324500Y1213500D02*
Y1231500D01*
X329500D01*
X324500Y1213500D02*
X329500D01*
X300500Y1231300D02*
X324500D01*
X300500Y1213700D02*
X324500D01*
X541000Y1167000D02*
X559000D01*
X541000Y1162000D02*
X559000D01*
Y1167000D01*
X541000Y1162000D02*
Y1167000D01*
Y1133000D02*
X559000D01*
X541000Y1138000D02*
X559000D01*
Y1133000D02*
Y1138000D01*
X541000Y1133000D02*
Y1138000D01*
X558800D02*
Y1162000D01*
X541200Y1138000D02*
Y1162000D01*
X271308Y1139385D02*
X275808Y1139390D01*
X271308Y1139385D02*
X275808Y1139390D01*
X271308Y1133910D02*
X275808Y1133915D01*
X271308Y1133910D02*
X275808D01*
X268308Y1133900D02*
Y1139400D01*
Y1133900D02*
X271308D01*
Y1139400D01*
X268308D02*
X271308D01*
X275808Y1133900D02*
X278808D01*
X275808D02*
Y1139400D01*
X278808Y1133900D02*
Y1139400D01*
X275808D02*
X278808D01*
X389750Y972250D02*
Y975250D01*
X395250D01*
X389750Y972250D02*
X395250D01*
Y975250D01*
X389750Y964750D02*
Y967750D01*
X395250D01*
Y964750D02*
Y967750D01*
X389750Y964750D02*
X395250D01*
X395240Y967750D02*
Y972250D01*
X395235D02*
X395240Y967750D01*
X389760Y972250D02*
X389765Y967750D01*
X389760Y972250D02*
X389765Y967750D01*
X404750Y977250D02*
X407750D01*
X404750D02*
Y982750D01*
X407750Y977250D02*
Y982750D01*
X404750D02*
X407750D01*
X412250Y977250D02*
X415250D01*
X412250D02*
Y982750D01*
X415250D01*
Y977250D02*
Y982750D01*
X407750Y982740D02*
X412250D01*
X407750Y982735D02*
X412250Y982740D01*
X407750Y977260D02*
X412250Y977265D01*
X407750Y977260D02*
X412250Y977265D01*
X395250Y944750D02*
Y947750D01*
X389750Y944750D02*
X395250D01*
X389750Y947750D02*
X395250D01*
X389750Y944750D02*
Y947750D01*
X395250Y952250D02*
Y955250D01*
X389750Y952250D02*
X395250D01*
X389750D02*
Y955250D01*
X395250D01*
X389760Y947750D02*
Y952250D01*
X389765Y947750D01*
X395235Y952250D02*
X395240Y947750D01*
X395235Y952250D02*
X395240Y947750D01*
X459260Y1180251D02*
X459264Y1159750D01*
X459260Y1180251D02*
X459264Y1159750D01*
X475735Y1180251D02*
X475740Y1159750D01*
Y1180251D01*
X459250Y1153750D02*
X475750D01*
Y1159750D01*
X459250D02*
X475750D01*
X459250Y1153750D02*
Y1159750D01*
X475750Y1180251D02*
Y1186251D01*
X459250Y1180251D02*
X475750D01*
X459250Y1186251D02*
X475750D01*
X459250Y1180251D02*
Y1186251D01*
X317250Y982750D02*
X320250D01*
Y977250D02*
Y982750D01*
X317250Y977250D02*
Y982750D01*
Y977250D02*
X320250D01*
X309750Y982750D02*
X312750D01*
Y977250D02*
Y982750D01*
X309750Y977250D02*
X312750D01*
X309750D02*
Y982750D01*
X312750Y977260D02*
X317250D01*
X312750D02*
X317250Y977265D01*
X312750Y982735D02*
X317250Y982740D01*
X312750Y982735D02*
X317250Y982740D01*
X309750Y962250D02*
X312750D01*
X309750D02*
Y967750D01*
X312750Y962250D02*
Y967750D01*
X309750D02*
X312750D01*
X317250Y962250D02*
X320250D01*
X317250D02*
Y967750D01*
X320250D01*
Y962250D02*
Y967750D01*
X312750Y967740D02*
X317250D01*
X312750Y967735D02*
X317250Y967740D01*
X312750Y962260D02*
X317250Y962265D01*
X312750Y962260D02*
X317250Y962265D01*
X474750Y977250D02*
Y982750D01*
X476750Y977250D02*
Y982750D01*
X474750D02*
X476750D01*
X474750Y977250D02*
X476750D01*
X483250Y982750D02*
X485250D01*
X483250Y977250D02*
X485250D01*
Y982750D01*
X483250Y977250D02*
Y982750D01*
X476750Y982550D02*
X483250D01*
X476750Y977450D02*
X483250D01*
X567250Y1067750D02*
X572750D01*
X567250Y1065750D02*
X572750D01*
Y1067750D01*
X567250Y1065750D02*
Y1067750D01*
X572750Y1057250D02*
Y1059250D01*
X567250Y1057250D02*
Y1059250D01*
Y1057250D02*
X572750D01*
X567250Y1059250D02*
X572750D01*
X572550D02*
Y1065750D01*
X567450Y1059250D02*
Y1065750D01*
X450249Y1157250D02*
Y1162750D01*
X448250Y1157250D02*
Y1162750D01*
Y1157250D02*
X450249D01*
X448250Y1162750D02*
X450249D01*
X439750Y1157250D02*
X441750D01*
X439750Y1162750D02*
X441750D01*
X439750Y1157250D02*
Y1162750D01*
X441750Y1157250D02*
Y1162750D01*
Y1157450D02*
X448250D01*
X441750Y1162550D02*
X448250D01*
X437250Y976760D02*
X457750Y976765D01*
X437250Y976760D02*
X457750Y976765D01*
X437250Y993235D02*
X457750Y993240D01*
X437250D02*
X457750D01*
X463750Y976750D02*
Y993250D01*
X457750D02*
X463750D01*
X457750Y976750D02*
Y993250D01*
Y976750D02*
X463750D01*
X431250Y993250D02*
X437250D01*
Y976750D02*
Y993250D01*
X431250Y976750D02*
Y993250D01*
Y976750D02*
X437250D01*
X404750Y1157250D02*
Y1162750D01*
X406750Y1157250D02*
Y1162750D01*
X404750D02*
X406750D01*
X404750Y1157250D02*
X406750D01*
X413250Y1162750D02*
X415250D01*
X413250Y1157250D02*
X415250D01*
Y1162750D01*
X413250Y1157250D02*
Y1162750D01*
X406750Y1162550D02*
X413250D01*
X406750Y1157450D02*
X413250D01*
X407250Y1139750D02*
Y1145250D01*
X409250Y1139750D02*
Y1145250D01*
X407250D02*
X409250D01*
X407250Y1139750D02*
X409250D01*
X415750Y1145250D02*
X417750D01*
X415750Y1139750D02*
X417750D01*
Y1145250D01*
X415750Y1139750D02*
Y1145250D01*
X409250Y1145050D02*
X415750D01*
X409250Y1139950D02*
X415750D01*
X406992Y1120184D02*
Y1125684D01*
X408992Y1120184D02*
Y1125684D01*
X406992D02*
X408992D01*
X406992Y1120184D02*
X408992D01*
X415492Y1125684D02*
X417492D01*
X415492Y1120184D02*
X417492D01*
Y1125684D01*
X415492Y1120184D02*
Y1125684D01*
X408992Y1125484D02*
X415492D01*
X408992Y1120384D02*
X415492D01*
X309760Y1077250D02*
X309765Y1072750D01*
X309760Y1077250D02*
X309765Y1072750D01*
X315235Y1077250D02*
X315240Y1072750D01*
Y1077250D01*
X309749Y1069750D02*
X315250D01*
Y1072750D01*
X309749D02*
X315250D01*
X309749Y1069750D02*
Y1072750D01*
X315250Y1077250D02*
Y1080250D01*
X309749Y1077250D02*
X315250D01*
X309749Y1080250D02*
X315250D01*
X309749Y1077250D02*
Y1080250D01*
X547250Y1009750D02*
Y1015250D01*
X549250Y1009750D02*
Y1015250D01*
X547250D02*
X549250D01*
X547250Y1009750D02*
X549250D01*
X555751Y1015250D02*
X557751D01*
X555751Y1009750D02*
X557751D01*
Y1015250D01*
X555751Y1009750D02*
Y1015250D01*
X549250Y1015050D02*
X555751D01*
X549250Y1009950D02*
X555751D01*
X324500Y925000D02*
X326000D01*
X324500Y932500D02*
X326000D01*
X399000Y925000D02*
X400500D01*
X399000Y932500D02*
X400500D01*
X324500Y925000D02*
Y950000D01*
X326000D01*
X324500Y942500D02*
X326000D01*
X400500Y925000D02*
Y950000D01*
X399000D02*
X400500D01*
X399000Y942500D02*
X400500D01*
X399200Y932500D02*
Y942500D01*
X325800Y932500D02*
Y942500D01*
X326000Y957250D02*
X328490Y954761D01*
X326000Y917750D02*
Y957250D01*
Y917750D02*
X328490Y920239D01*
Y954761D01*
X382510Y954768D02*
X391568D01*
X397206Y955457D01*
X399000Y957250D01*
X326000D02*
X399000D01*
X328490Y954761D02*
X382510Y954768D01*
Y943253D02*
Y954768D01*
X328490Y920239D02*
X382510Y920232D01*
X326000Y917750D02*
X399000D01*
X397206Y919544D02*
X399000Y917750D01*
X391568Y920232D02*
X397206Y919544D01*
X382510Y920232D02*
X391568D01*
X382510D02*
Y931747D01*
X391511D02*
Y943253D01*
X382510Y931747D02*
X391568D01*
X382510Y943253D02*
X391568D01*
Y920232D02*
Y931747D01*
X397206Y919544D02*
Y955457D01*
X391568Y943253D02*
Y954768D01*
X399000Y917750D02*
Y957250D01*
X566000Y1008000D02*
X584000D01*
X566000Y1013000D02*
X584000D01*
X566000Y1008000D02*
Y1013000D01*
X584000Y1008000D02*
Y1013000D01*
X566000Y1042001D02*
X584000D01*
X566000Y1037000D02*
X584000D01*
X566000D02*
Y1042001D01*
X584000Y1037000D02*
Y1042001D01*
X566200Y1013000D02*
Y1037000D01*
X583800Y1013000D02*
Y1037000D01*
X489948Y1056276D02*
Y1074276D01*
X484948Y1056276D02*
Y1074276D01*
X489948D01*
X484948Y1056276D02*
X489948D01*
X455947D02*
Y1074276D01*
X460947Y1056276D02*
Y1074276D01*
X455947D02*
X460947D01*
X455947Y1056276D02*
X460947D01*
Y1074076D02*
X484948D01*
X460947Y1056476D02*
X484948D01*
X265500Y1048500D02*
Y1066500D01*
X270500Y1048500D02*
Y1066500D01*
X265500D02*
X270500D01*
X265500Y1048500D02*
X270500D01*
X299500D02*
Y1066500D01*
X294500Y1048500D02*
Y1066500D01*
X299500D01*
X294500Y1048500D02*
X299500D01*
X270500Y1066300D02*
X294500D01*
X270500Y1048700D02*
X294500D01*
D33*
X336500Y1133500D02*
G03*
X336500Y1133500I-5000J0D01*
G01*
X536000Y1111000D02*
G03*
X536000Y1111000I-5000J0D01*
G01*
X385000Y1069000D02*
G03*
X385000Y1069000I-5000J0D01*
G01*
X421750Y1091000D02*
Y1154000D01*
X453250Y1091000D02*
Y1154000D01*
X421750D02*
X453250D01*
X421750Y1091000D02*
X453250D01*
X374250Y1091000D02*
Y1154000D01*
X405750Y1091000D02*
Y1154000D01*
X374250D02*
X405750D01*
X374250Y1091000D02*
X405750D01*
X322500Y1092500D02*
Y1142500D01*
X372500Y1092500D02*
Y1142500D01*
X322500D02*
X372500D01*
X322500Y1092500D02*
X372500D01*
X440000Y1020000D02*
Y1120000D01*
X540000Y1020000D02*
Y1120000D01*
X440000Y1020000D02*
X540000D01*
X440000Y1120000D02*
X540000D01*
X358000Y1047000D02*
X389000D01*
X358000Y1078000D02*
X389000D01*
X358000Y1047000D02*
Y1078000D01*
X389000Y1047000D02*
Y1078000D01*
D34*
X545400Y930000D02*
D03*
X520000D02*
D03*
X494600D02*
D03*
X387101Y1180000D02*
D03*
X412501D02*
D03*
X437901D02*
D03*
D35*
X490000Y870000D02*
D03*
X515000D02*
D03*
X540000D02*
D03*
X282500Y976700D02*
D03*
Y1002100D02*
D03*
Y1027500D02*
D03*
Y951300D02*
D03*
X650000Y870000D02*
D03*
Y895400D02*
D03*
X610000Y870000D02*
D03*
X584600D02*
D03*
X652500Y1075000D02*
D03*
Y1100000D02*
D03*
Y1125000D02*
D03*
X650000Y1010000D02*
D03*
Y1035400D02*
D03*
Y940000D02*
D03*
Y965400D02*
D03*
X272500Y1085000D02*
D03*
Y1110400D02*
D03*
X435800Y1237500D02*
D03*
X410400D02*
D03*
X385000D02*
D03*
X461200D02*
D03*
D36*
X612500Y1132150D02*
D03*
Y1094050D02*
D03*
Y1055950D02*
D03*
D37*
Y1017850D02*
D03*
D38*
X240000Y840000D02*
D03*
X670000D02*
D03*
X668274Y1269492D02*
D03*
X240000Y1270000D02*
D03*
D39*
X349900Y1257000D02*
D03*
X260100D02*
D03*
X346300Y1197500D02*
D03*
X263700D02*
D03*
D40*
X277000Y1191500D02*
D03*
X333000D02*
D03*
X281000Y1198500D02*
D03*
X329000D02*
D03*
X321000D02*
D03*
X289000D02*
D03*
X297000D02*
D03*
X313000D02*
D03*
X293000Y1191500D02*
D03*
X317000D02*
D03*
X309000D02*
D03*
X301000D02*
D03*
X269000Y1185000D02*
D03*
D41*
X341000D02*
D03*
D42*
X344600Y1022700D02*
D03*
Y997300D02*
D03*
X370000Y1022700D02*
D03*
Y997300D02*
D03*
X395400Y1022700D02*
D03*
D43*
Y997300D02*
D03*
D44*
X444200Y870000D02*
D03*
X334200D02*
D03*
D45*
X393400D02*
D03*
X283400D02*
D03*
D46*
X535000Y1235000D02*
D03*
D47*
X577001D02*
D03*
X619001D02*
D03*
X535000Y1192999D02*
D03*
X577001D02*
D03*
X619001D02*
D03*
D48*
X494284Y1027176D02*
D03*
X505000Y1027500D02*
D03*
X485902Y1027430D02*
D03*
X450000Y1027500D02*
D03*
X450088Y1034034D02*
D03*
X460248Y1034796D02*
D03*
X460000Y1027500D02*
D03*
X522025Y1116825D02*
D03*
X480822Y1113536D02*
D03*
X475234Y1113282D02*
D03*
X517144Y1116838D02*
D03*
X454660Y1184402D02*
D03*
X454689Y1176881D02*
D03*
X322540Y973190D02*
D03*
X529082Y1046890D02*
D03*
X490220Y1025000D02*
D03*
X540766Y1018286D02*
D03*
X329040Y1001690D02*
D03*
X361810Y1063210D02*
D03*
X330000Y1065274D02*
D03*
X490310Y1172460D02*
D03*
X352540Y1158720D02*
D03*
X314800Y1212230D02*
D03*
X536050Y1083578D02*
D03*
X538988Y1003808D02*
D03*
X391160Y1102614D02*
D03*
X402844D02*
D03*
X415290Y1036066D02*
D03*
X443810Y1067460D02*
D03*
X439166Y1005242D02*
D03*
X446808Y1081024D02*
D03*
X371856Y1142492D02*
D03*
X569976Y1050798D02*
D03*
X531368Y1068070D02*
D03*
X345080Y1149096D02*
D03*
X562356Y1078000D02*
D03*
X596646Y924560D02*
D03*
X363474Y1117346D02*
D03*
X304800Y1108202D02*
D03*
X521182Y1045464D02*
D03*
X331470Y1117346D02*
D03*
X363474Y1105662D02*
D03*
X370840Y1079754D02*
D03*
X374904Y1056640D02*
D03*
X337058Y1167130D02*
D03*
X352298Y1228344D02*
D03*
X343154Y1160018D02*
D03*
X315468Y1132332D02*
D03*
X311785Y1118235D02*
D03*
X587811Y1135000D02*
D03*
X490310Y1205000D02*
D03*
X562810Y1135000D02*
D03*
X432500Y1225310D02*
D03*
X506000Y1142310D02*
D03*
X636810Y975000D02*
D03*
X562190Y1040001D02*
D03*
X637810Y915000D02*
D03*
X562310Y1046000D02*
D03*
X428583Y1138936D02*
D03*
X317500Y1185711D02*
D03*
X292500D02*
D03*
X424052Y1122934D02*
D03*
X535000Y992810D02*
D03*
X532500Y962190D02*
D03*
X506000Y997690D02*
D03*
X491810Y980000D02*
D03*
X297500Y1070310D02*
D03*
X459304Y965691D02*
D03*
X409310Y937500D02*
D03*
X335534Y1078738D02*
D03*
X457708Y1078000D02*
D03*
X418084Y1110000D02*
D03*
X292500Y1153872D02*
D03*
X355000Y1149920D02*
D03*
X312928Y1170432D02*
D03*
X281432Y1128014D02*
D03*
X587811Y1165000D02*
D03*
X562810D02*
D03*
X462500Y1225310D02*
D03*
X536190Y1102000D02*
D03*
X570000Y1074310D02*
D03*
X637810Y945000D02*
D03*
X587810Y1010000D02*
D03*
X393917Y1167892D02*
D03*
X612810Y945000D02*
D03*
X393877Y1138936D02*
D03*
X277500Y1185711D02*
D03*
X576310Y975000D02*
D03*
X487948Y1052465D02*
D03*
X400432Y1122934D02*
D03*
X511556Y962917D02*
D03*
X502500Y962190D02*
D03*
X342620Y1078820D02*
D03*
X443810Y1038000D02*
D03*
X267500Y1072850D02*
D03*
X405000Y973190D02*
D03*
X424688Y880618D02*
D03*
X392500Y900190D02*
D03*
X353082Y936244D02*
D03*
X428917Y1167892D02*
D03*
X541497Y1003808D02*
D03*
X332994Y1104138D02*
D03*
X377444Y1012444D02*
D03*
X334518Y1129030D02*
D03*
X302500Y1171194D02*
D03*
X535432Y1094486D02*
D03*
X282500Y1161796D02*
D03*
X364744Y1182878D02*
D03*
Y1169162D02*
D03*
X308102Y1123696D02*
D03*
X356870Y1132586D02*
D03*
X536190Y1072540D02*
D03*
X339852Y1153668D02*
D03*
X301244Y1090676D02*
D03*
X340614Y1054354D02*
D03*
X337566Y1065022D02*
D03*
X472037Y1253385D02*
D03*
X501396Y1059688D02*
D03*
X361442Y1042670D02*
D03*
X316230Y1105662D02*
D03*
X385064Y1078484D02*
D03*
X401320D02*
D03*
X413004Y1056132D02*
D03*
X413512Y1081024D02*
D03*
X322500Y1158494D02*
D03*
X314256Y1148811D02*
D03*
X346985Y1133475D02*
D03*
X327500Y1154016D02*
D03*
X314960Y1141476D02*
D03*
X344741Y1126871D02*
D03*
X398526Y1209040D02*
D03*
X355092Y1086358D02*
D03*
X416814Y1152398D02*
D03*
X297500Y1243584D02*
D03*
X433650Y961390D02*
D03*
X446350Y961462D02*
D03*
D64*
X437500Y1152500D02*
D03*
Y1092500D02*
D03*
X390000Y1152500D02*
D03*
Y1092500D02*
D03*
D65*
X559750Y975000D02*
D03*
X620250D02*
D03*
X332250Y937500D02*
D03*
X392750D02*
D03*
D66*
X351250Y1052750D02*
D03*
Y1059250D02*
D03*
Y1065750D02*
D03*
Y1072250D02*
D03*
X395750Y1052750D02*
D03*
Y1059250D02*
D03*
Y1065750D02*
D03*
Y1072250D02*
D03*
D67*
X332500Y1178400D02*
D03*
X327500D02*
D03*
X322500D02*
D03*
X317500D02*
D03*
X312500D02*
D03*
X277500D02*
D03*
X282500D02*
D03*
X287500D02*
D03*
X292500D02*
D03*
X297500D02*
D03*
X302500D02*
D03*
X307500D02*
D03*
D68*
X392750Y937500D02*
X409310D01*
M02*
