%FSLAX43Y43*%
%MOMM*%
G71*
G01*
G75*
G04 Layer_Color=16711935*
%ADD10C,0.175*%
%ADD11C,0.175*%
%ADD12R,0.700X0.700*%
%ADD13R,1.600X1.300*%
%ADD14R,1.000X2.250*%
%ADD15R,2.800X1.400*%
%ADD16R,0.650X0.800*%
%ADD17R,0.800X0.650*%
%ADD18R,0.600X0.550*%
%ADD19R,1.092X1.600*%
%ADD20R,0.700X0.700*%
%ADD21R,0.950X1.000*%
%ADD22R,0.600X0.900*%
%ADD23R,0.762X0.762*%
%ADD24R,0.900X0.600*%
%ADD25R,0.762X0.762*%
%ADD26R,0.500X0.600*%
%ADD27R,1.600X1.092*%
%ADD28R,1.500X1.350*%
%ADD29R,1.350X1.500*%
%ADD30R,2.200X1.500*%
%ADD31R,1.500X2.400*%
%ADD32R,0.650X0.500*%
%ADD33R,0.550X0.600*%
%ADD34R,1.100X1.000*%
%ADD35R,1.100X0.600*%
%ADD36R,0.500X0.650*%
%ADD37R,1.200X1.200*%
%ADD38R,1.200X1.200*%
%ADD39R,0.400X1.350*%
%ADD40R,0.950X1.750*%
%ADD41R,2.500X4.600*%
%ADD42R,2.200X0.600*%
%ADD43R,0.300X1.700*%
%ADD44O,0.300X1.700*%
%ADD45O,1.700X0.300*%
%ADD46R,1.300X1.400*%
%ADD47R,0.850X0.300*%
%ADD48R,3.400X3.400*%
%ADD49R,0.500X0.230*%
%ADD50R,0.230X0.500*%
%ADD51C,0.320*%
%ADD52R,4.100X3.500*%
%ADD53R,0.600X1.100*%
%ADD54R,2.500X1.700*%
%ADD55R,0.350X0.675*%
%ADD56R,0.700X0.300*%
%ADD57R,1.400X1.600*%
%ADD58O,0.200X0.700*%
%ADD59O,0.700X0.200*%
%ADD60R,2.800X2.800*%
%ADD61R,1.300X1.600*%
%ADD62R,1.000X1.600*%
%ADD63R,3.000X2.500*%
%ADD64R,1.200X2.000*%
%ADD65R,2.000X4.900*%
%ADD66R,0.810X4.600*%
%ADD67R,0.610X4.600*%
%ADD68R,1.100X0.300*%
%ADD69R,3.100X2.300*%
%ADD70R,0.430X4.700*%
%ADD71R,0.430X2.540*%
%ADD72R,2.270X0.280*%
%ADD73R,3.200X1.270*%
%ADD74R,3.683X1.270*%
%ADD75R,0.740X2.790*%
%ADD76C,0.300*%
%ADD77C,0.180*%
%ADD78C,0.200*%
%ADD79C,0.165*%
%ADD80C,0.150*%
%ADD81C,0.185*%
%ADD82C,0.127*%
%ADD83R,0.300X0.900*%
%ADD84R,1.800X1.900*%
%ADD85C,1.700*%
%ADD86R,1.700X1.700*%
%ADD87C,3.600*%
G04:AMPARAMS|DCode=88|XSize=2.1mm|YSize=1.9mm|CornerRadius=0.494mm|HoleSize=0mm|Usage=FLASHONLY|Rotation=0.000|XOffset=0mm|YOffset=0mm|HoleType=Round|Shape=RoundedRectangle|*
%AMROUNDEDRECTD88*
21,1,2.100,0.912,0,0,0.0*
21,1,1.112,1.900,0,0,0.0*
1,1,0.988,0.556,-0.456*
1,1,0.988,-0.556,-0.456*
1,1,0.988,-0.556,0.456*
1,1,0.988,0.556,0.456*
%
%ADD88ROUNDEDRECTD88*%
G04:AMPARAMS|DCode=89|XSize=1.05mm|YSize=1.25mm|CornerRadius=0.525mm|HoleSize=0mm|Usage=FLASHONLY|Rotation=180.000|XOffset=0mm|YOffset=0mm|HoleType=Round|Shape=RoundedRectangle|*
%AMROUNDEDRECTD89*
21,1,1.050,0.200,0,0,180.0*
21,1,0.000,1.250,0,0,180.0*
1,1,1.050,0.000,0.100*
1,1,1.050,0.000,0.100*
1,1,1.050,0.000,-0.100*
1,1,1.050,0.000,-0.100*
%
%ADD89ROUNDEDRECTD89*%
%ADD90R,1.700X1.700*%
%ADD91C,1.500*%
%ADD92R,2.200X4.500*%
%ADD93R,5.000X2.200*%
%ADD94R,5.000X2.400*%
%ADD95C,1.020*%
%ADD96C,1.000*%
%ADD97C,0.550*%
%ADD98C,0.400*%
%ADD99C,0.700*%
%ADD100C,0.660*%
%ADD101C,1.016*%
%ADD102C,0.500*%
%ADD103C,1.600*%
%ADD104C,1.900*%
G04:AMPARAMS|DCode=105|XSize=2.524mm|YSize=2.524mm|CornerRadius=0mm|HoleSize=0mm|Usage=FLASHONLY|Rotation=0.000|XOffset=0mm|YOffset=0mm|HoleType=Round|Shape=Relief|Width=0.254mm|Gap=0.254mm|Entries=4|*
%AMTHD105*
7,0,0,2.524,2.016,0.254,45*
%
%ADD105THD105*%
%ADD106O,1.425X2.100*%
%ADD107O,1.250X1.450*%
%ADD108C,2.100*%
%ADD109C,3.600*%
%AMTHOVALD110*
21,1,1.700,2.824,0,0,270.0*
1,1,2.824,0.000,0.850*
1,1,2.824,0.000,-0.850*
21,0,1.700,2.316,0,0,270.0*
1,0,2.316,0.000,0.850*
1,0,2.316,0.000,-0.850*
4,0,4,-0.090,0.760,-1.088,1.759,-0.909,1.938,0.090,0.940,-0.090,0.760,0.0*
4,0,4,-0.090,-0.940,0.909,-1.938,1.088,-1.759,0.090,-0.760,-0.090,-0.940,0.0*
4,0,4,-0.090,0.940,0.909,1.938,1.088,1.759,0.090,0.760,-0.090,0.940,0.0*
4,0,4,-0.090,-0.760,-1.088,-1.759,-0.909,-1.938,0.090,-0.940,-0.090,-0.760,0.0*
%
%ADD110THOVALD110*%

%ADD111O,4.100X1.800*%
%AMTHOVALD112*
21,1,1.800,2.724,0,0,0.0*
1,1,2.724,-0.900,0.000*
1,1,2.724,0.900,0.000*
21,0,1.800,2.216,0,0,0.0*
1,0,2.216,-0.900,0.000*
1,0,2.216,0.900,0.000*
4,0,4,-0.810,-0.090,-1.773,-1.053,-1.953,-0.873,-0.990,0.090,-0.810,-0.090,0.0*
4,0,4,0.990,-0.090,1.953,0.873,1.773,1.053,0.810,0.090,0.990,-0.090,0.0*
4,0,4,-0.990,-0.090,-1.953,0.873,-1.773,1.053,-0.810,0.090,-0.990,-0.090,0.0*
4,0,4,0.810,-0.090,1.773,-1.053,1.953,-0.873,0.990,0.090,0.810,-0.090,0.0*
%
%ADD112THOVALD112*%

%ADD113C,1.620*%
%ADD114C,1.790*%
%ADD115C,0.850*%
%ADD116C,0.800*%
%ADD117C,0.930*%
%ADD118C,3.300*%
%ADD119O,1.900X3.600*%
%ADD120O,3.600X1.800*%
%ADD121C,0.950*%
%ADD122C,0.800*%
%ADD123C,1.270*%
%ADD124R,0.600X1.300*%
%ADD125R,1.300X0.600*%
%ADD126R,0.350X0.850*%
%ADD127R,1.700X0.350*%
%ADD128R,0.650X1.050*%
%ADD129C,0.280*%
%ADD130O,0.850X0.280*%
%ADD131O,0.280X0.850*%
%ADD132R,0.230X0.700*%
%ADD133R,0.700X0.230*%
%ADD134R,2.700X2.700*%
%ADD135O,1.524X0.381*%
%ADD136R,3.000X3.000*%
%ADD137R,0.800X2.000*%
%ADD138R,2.000X1.100*%
%ADD139R,0.980X3.700*%
%ADD140R,3.700X0.980*%
%ADD141R,1.400X0.600*%
%ADD142C,0.125*%
%ADD143R,1.507X0.242*%
%ADD144R,1.490X0.201*%
%ADD145R,0.312X0.829*%
%ADD146C,0.254*%
%ADD147C,0.250*%
%ADD148C,0.600*%
%ADD149C,1.000*%
%ADD150C,0.100*%
%ADD151C,0.112*%
%ADD152R,2.100X2.100*%
%ADD153R,2.100X2.100*%
%ADD154C,0.264*%
%ADD155R,1.750X1.750*%
%ADD156R,0.870X0.870*%
%ADD157R,1.125X1.550*%
%ADD158R,1.700X1.700*%
%ADD159R,0.000X0.000*%
%ADD160R,1.350X1.550*%
%ADD161R,1.300X1.400*%
%ADD162R,0.510X0.900*%
%ADD163R,0.850X1.950*%
%ADD164R,0.800X0.800*%
%ADD165R,1.700X1.400*%
%ADD166R,1.100X2.350*%
%ADD167R,2.900X1.500*%
%ADD168R,0.750X0.900*%
%ADD169R,0.900X0.750*%
%ADD170R,0.700X0.650*%
%ADD171R,1.192X1.700*%
%ADD172R,0.800X0.800*%
%ADD173R,1.050X1.100*%
%ADD174R,0.700X1.000*%
%ADD175R,0.862X0.862*%
%ADD176R,1.000X0.700*%
%ADD177R,0.862X0.862*%
%ADD178R,0.600X0.700*%
%ADD179R,1.700X1.192*%
%ADD180R,1.600X1.450*%
%ADD181R,1.450X1.600*%
%ADD182R,2.300X1.600*%
%ADD183R,1.600X2.500*%
%ADD184R,0.750X0.600*%
%ADD185R,0.650X0.700*%
%ADD186R,1.200X1.100*%
%ADD187R,1.200X0.700*%
%ADD188R,0.600X0.750*%
%ADD189R,1.300X1.300*%
%ADD190R,1.300X1.300*%
%ADD191R,0.500X1.450*%
%ADD192R,1.050X1.850*%
%ADD193R,2.600X4.700*%
%ADD194R,2.300X0.700*%
%ADD195R,0.400X1.800*%
%ADD196O,0.400X1.800*%
%ADD197O,1.800X0.400*%
%ADD198R,1.400X1.500*%
%ADD199R,0.950X0.400*%
%ADD200R,3.500X3.500*%
%ADD201R,0.600X0.330*%
%ADD202R,0.330X0.600*%
%ADD203C,0.470*%
%ADD204R,4.200X3.600*%
%ADD205R,0.700X1.200*%
%ADD206R,2.600X1.800*%
%ADD207R,0.450X0.775*%
%ADD208R,0.850X0.450*%
%ADD209R,1.550X1.750*%
%ADD210O,0.300X0.800*%
%ADD211O,0.800X0.300*%
%ADD212R,2.900X2.900*%
%ADD213R,1.400X1.700*%
%ADD214R,1.100X1.700*%
%ADD215R,3.100X2.600*%
%ADD216R,1.300X2.100*%
%ADD217R,2.100X5.000*%
%ADD218R,0.910X4.700*%
%ADD219R,0.710X4.700*%
%ADD220R,1.200X0.400*%
%ADD221R,3.200X2.400*%
%ADD222R,0.530X4.800*%
%ADD223R,0.530X2.640*%
%ADD224R,2.370X0.380*%
%ADD225R,3.300X1.370*%
%ADD226R,3.783X1.370*%
%ADD227R,0.840X2.890*%
%ADD228R,1.900X2.000*%
%ADD229C,1.800*%
%ADD230R,1.800X1.800*%
%ADD231C,3.700*%
%ADD232C,0.100*%
G04:AMPARAMS|DCode=233|XSize=2.2mm|YSize=2mm|CornerRadius=0.544mm|HoleSize=0mm|Usage=FLASHONLY|Rotation=0.000|XOffset=0mm|YOffset=0mm|HoleType=Round|Shape=RoundedRectangle|*
%AMROUNDEDRECTD233*
21,1,2.200,0.912,0,0,0.0*
21,1,1.112,2.000,0,0,0.0*
1,1,1.088,0.556,-0.456*
1,1,1.088,-0.556,-0.456*
1,1,1.088,-0.556,0.456*
1,1,1.088,0.556,0.456*
%
%ADD233ROUNDEDRECTD233*%
G04:AMPARAMS|DCode=234|XSize=1.15mm|YSize=1.35mm|CornerRadius=0.575mm|HoleSize=0mm|Usage=FLASHONLY|Rotation=180.000|XOffset=0mm|YOffset=0mm|HoleType=Round|Shape=RoundedRectangle|*
%AMROUNDEDRECTD234*
21,1,1.150,0.200,0,0,180.0*
21,1,0.000,1.350,0,0,180.0*
1,1,1.150,0.000,0.100*
1,1,1.150,0.000,0.100*
1,1,1.150,0.000,-0.100*
1,1,1.150,0.000,-0.100*
%
%ADD234ROUNDEDRECTD234*%
%ADD235R,1.800X1.800*%
%ADD236R,0.100X0.100*%
%ADD237R,2.300X4.600*%
%ADD238R,5.100X2.300*%
%ADD239R,5.100X2.500*%
%ADD240C,1.120*%
%ADD241C,1.100*%
%ADD242C,0.650*%
%ADD243C,0.900*%
%ADD244C,1.370*%
%ADD245R,0.700X1.400*%
%ADD246R,1.400X0.700*%
%ADD247R,0.450X0.950*%
%ADD248R,1.800X0.450*%
%ADD249R,0.750X1.150*%
%ADD250C,0.380*%
%ADD251O,0.950X0.380*%
%ADD252O,0.380X0.950*%
%ADD253R,0.330X0.800*%
%ADD254R,0.800X0.330*%
%ADD255O,1.624X0.481*%
%ADD256R,3.400X3.400*%
%ADD257R,1.200X2.400*%
%ADD258R,2.400X1.500*%
%ADD259R,1.080X3.800*%
%ADD260R,3.800X1.080*%
%ADD261R,1.500X0.700*%
G36*
X-11398Y-675D02*
X-11396Y-675D01*
X-11348Y-679D01*
X-11347Y-679D01*
X-11345Y-679D01*
X-11292Y-686D01*
X-11289Y-687D01*
X-11285Y-688D01*
X-11232Y-703D01*
X-11230Y-703D01*
X-11228Y-704D01*
X-11185Y-720D01*
X-11183Y-721D01*
X-11181Y-722D01*
X-11139Y-742D01*
X-11137Y-743D01*
X-11134Y-745D01*
X-11090Y-773D01*
X-11088Y-774D01*
X-11087Y-775D01*
X-11049Y-804D01*
X-11047Y-805D01*
X-11046Y-806D01*
X-11007Y-840D01*
X-11004Y-843D01*
X-11001Y-846D01*
X-10972Y-882D01*
X-10971Y-883D01*
X-10971Y-884D01*
X-10943Y-921D01*
X-10941Y-923D01*
X-10940Y-926D01*
X-10916Y-967D01*
X-10915Y-969D01*
X-10914Y-970D01*
X-10894Y-1012D01*
X-10893Y-1014D01*
X-10892Y-1016D01*
X-10876Y-1058D01*
X-10875Y-1061D01*
X-10874Y-1064D01*
X-10862Y-1115D01*
X-10862Y-1117D01*
X-10861Y-1119D01*
X-10854Y-1164D01*
X-10854Y-1166D01*
X-10854Y-1168D01*
X-10850Y-1221D01*
X-10850Y-1223D01*
X-10850Y-1225D01*
Y-2125D01*
X-10850Y-2127D01*
X-10850Y-2129D01*
X-10854Y-2184D01*
X-10854Y-2186D01*
X-10855Y-2189D01*
X-10863Y-2234D01*
X-10863Y-2235D01*
X-10863Y-2237D01*
X-10875Y-2287D01*
X-10876Y-2290D01*
X-10877Y-2294D01*
X-10893Y-2334D01*
X-10906Y-2366D01*
X-10908Y-2370D01*
X-10910Y-2373D01*
X-10935Y-2416D01*
X-10936Y-2418D01*
X-10937Y-2420D01*
X-10963Y-2457D01*
X-10964Y-2458D01*
X-10965Y-2460D01*
X-10996Y-2498D01*
X-10999Y-2500D01*
X-11001Y-2503D01*
X-11046Y-2544D01*
X-11048Y-2546D01*
X-11050Y-2547D01*
X-11090Y-2577D01*
X-11092Y-2578D01*
X-11093Y-2579D01*
X-11139Y-2609D01*
X-11142Y-2610D01*
X-11145Y-2612D01*
X-11198Y-2636D01*
X-11201Y-2637D01*
X-11205Y-2638D01*
X-11292Y-2664D01*
X-11297Y-2665D01*
X-11301Y-2666D01*
X-11301Y-2666D01*
X-11301Y-2666D01*
X-11301D01*
X-11395Y-2675D01*
X-11398Y-2675D01*
X-11400Y-2675D01*
X-13000D01*
X-13010Y-2674D01*
X-13019Y-2671D01*
X-13028Y-2667D01*
X-13036Y-2661D01*
X-13042Y-2653D01*
X-13046Y-2644D01*
X-13049Y-2635D01*
X-13050Y-2625D01*
Y-725D01*
X-13049Y-715D01*
X-13046Y-706D01*
X-13042Y-697D01*
X-13036Y-689D01*
X-13028Y-683D01*
X-13019Y-679D01*
X-13010Y-676D01*
X-13000Y-675D01*
X-11400D01*
X-11398Y-675D01*
D02*
G37*
G36*
X-44232D02*
X-44230Y-675D01*
X-44182Y-679D01*
X-44181Y-679D01*
X-44179Y-679D01*
X-44126Y-686D01*
X-44123Y-687D01*
X-44119Y-688D01*
X-44066Y-703D01*
X-44064Y-703D01*
X-44062Y-704D01*
X-44019Y-720D01*
X-44017Y-721D01*
X-44015Y-722D01*
X-43973Y-742D01*
X-43971Y-743D01*
X-43968Y-745D01*
X-43924Y-773D01*
X-43922Y-774D01*
X-43921Y-775D01*
X-43883Y-804D01*
X-43881Y-805D01*
X-43880Y-806D01*
X-43841Y-840D01*
X-43838Y-843D01*
X-43835Y-846D01*
X-43806Y-882D01*
X-43805Y-883D01*
X-43805Y-884D01*
X-43777Y-921D01*
X-43775Y-923D01*
X-43774Y-926D01*
X-43750Y-967D01*
X-43749Y-969D01*
X-43748Y-970D01*
X-43728Y-1012D01*
X-43727Y-1014D01*
X-43726Y-1016D01*
X-43710Y-1058D01*
X-43709Y-1061D01*
X-43708Y-1064D01*
X-43696Y-1115D01*
X-43696Y-1117D01*
X-43695Y-1119D01*
X-43688Y-1164D01*
X-43688Y-1166D01*
X-43688Y-1168D01*
X-43684Y-1221D01*
X-43684Y-1223D01*
X-43684Y-1225D01*
Y-2125D01*
X-43684Y-2127D01*
X-43684Y-2129D01*
X-43688Y-2184D01*
X-43688Y-2186D01*
X-43689Y-2189D01*
X-43697Y-2234D01*
X-43697Y-2235D01*
X-43697Y-2237D01*
X-43709Y-2287D01*
X-43710Y-2290D01*
X-43711Y-2294D01*
X-43727Y-2334D01*
X-43740Y-2366D01*
X-43742Y-2370D01*
X-43744Y-2373D01*
X-43769Y-2416D01*
X-43770Y-2418D01*
X-43771Y-2420D01*
X-43797Y-2457D01*
X-43798Y-2458D01*
X-43799Y-2460D01*
X-43830Y-2498D01*
X-43833Y-2500D01*
X-43835Y-2503D01*
X-43880Y-2544D01*
X-43882Y-2546D01*
X-43884Y-2547D01*
X-43924Y-2577D01*
X-43926Y-2578D01*
X-43927Y-2579D01*
X-43973Y-2609D01*
X-43976Y-2610D01*
X-43979Y-2612D01*
X-44032Y-2636D01*
X-44035Y-2637D01*
X-44039Y-2638D01*
X-44126Y-2664D01*
X-44131Y-2665D01*
X-44135Y-2666D01*
X-44135Y-2666D01*
X-44135Y-2666D01*
X-44135D01*
X-44229Y-2675D01*
X-44232Y-2675D01*
X-44234Y-2675D01*
X-45834D01*
X-45844Y-2674D01*
X-45853Y-2671D01*
X-45862Y-2667D01*
X-45870Y-2661D01*
X-45876Y-2653D01*
X-45880Y-2644D01*
X-45883Y-2635D01*
X-45884Y-2625D01*
Y-725D01*
X-45883Y-715D01*
X-45880Y-706D01*
X-45876Y-697D01*
X-45870Y-689D01*
X-45862Y-683D01*
X-45853Y-679D01*
X-45844Y-676D01*
X-45834Y-675D01*
X-44234D01*
X-44232Y-675D01*
D02*
G37*
G36*
X-18190Y-676D02*
X-18181Y-679D01*
X-18172Y-683D01*
X-18164Y-689D01*
X-18158Y-697D01*
X-18154Y-706D01*
X-18151Y-715D01*
X-18150Y-725D01*
Y-2625D01*
X-18151Y-2635D01*
X-18154Y-2644D01*
X-18158Y-2653D01*
X-18164Y-2661D01*
X-18172Y-2667D01*
X-18181Y-2671D01*
X-18190Y-2674D01*
X-18200Y-2675D01*
X-19800D01*
X-19802Y-2675D01*
X-19804Y-2675D01*
X-19852Y-2671D01*
X-19853Y-2671D01*
X-19855Y-2671D01*
X-19908Y-2664D01*
X-19911Y-2663D01*
X-19915Y-2662D01*
X-19968Y-2647D01*
X-19970Y-2647D01*
X-19972Y-2646D01*
X-20015Y-2630D01*
X-20017Y-2629D01*
X-20019Y-2628D01*
X-20061Y-2608D01*
X-20063Y-2607D01*
X-20066Y-2605D01*
X-20110Y-2577D01*
X-20112Y-2576D01*
X-20113Y-2575D01*
X-20151Y-2546D01*
X-20153Y-2545D01*
X-20154Y-2544D01*
X-20193Y-2510D01*
X-20196Y-2507D01*
X-20199Y-2504D01*
X-20228Y-2468D01*
X-20229Y-2467D01*
X-20229Y-2466D01*
X-20257Y-2429D01*
X-20259Y-2427D01*
X-20260Y-2424D01*
X-20284Y-2383D01*
X-20285Y-2381D01*
X-20286Y-2380D01*
X-20306Y-2338D01*
X-20307Y-2336D01*
X-20308Y-2334D01*
X-20324Y-2292D01*
X-20325Y-2289D01*
X-20326Y-2286D01*
X-20338Y-2235D01*
X-20338Y-2233D01*
X-20339Y-2231D01*
X-20346Y-2186D01*
X-20346Y-2184D01*
X-20346Y-2182D01*
X-20350Y-2129D01*
X-20350Y-2127D01*
X-20350Y-2125D01*
Y-1225D01*
X-20350Y-1223D01*
X-20350Y-1221D01*
X-20346Y-1166D01*
X-20346Y-1164D01*
X-20345Y-1161D01*
X-20337Y-1116D01*
X-20337Y-1115D01*
X-20337Y-1113D01*
X-20325Y-1063D01*
X-20324Y-1060D01*
X-20323Y-1056D01*
X-20307Y-1016D01*
X-20294Y-984D01*
X-20292Y-980D01*
X-20290Y-977D01*
X-20265Y-934D01*
X-20264Y-932D01*
X-20263Y-930D01*
X-20237Y-893D01*
X-20236Y-892D01*
X-20235Y-890D01*
X-20204Y-852D01*
X-20201Y-850D01*
X-20199Y-847D01*
X-20154Y-806D01*
X-20152Y-804D01*
X-20150Y-803D01*
X-20110Y-773D01*
X-20108Y-772D01*
X-20107Y-771D01*
X-20061Y-742D01*
X-20058Y-740D01*
X-20055Y-738D01*
X-20002Y-714D01*
X-19999Y-713D01*
X-19995Y-712D01*
X-19908Y-686D01*
X-19903Y-685D01*
X-19899Y-684D01*
X-19899Y-684D01*
X-19899Y-684D01*
X-19899D01*
X-19805Y-675D01*
X-19802Y-675D01*
X-19800Y-675D01*
X-18200D01*
X-18190Y-676D01*
D02*
G37*
G36*
X-51024D02*
X-51015Y-679D01*
X-51006Y-683D01*
X-50998Y-689D01*
X-50992Y-697D01*
X-50988Y-706D01*
X-50985Y-715D01*
X-50984Y-725D01*
Y-2625D01*
X-50985Y-2635D01*
X-50988Y-2644D01*
X-50992Y-2653D01*
X-50998Y-2661D01*
X-51006Y-2667D01*
X-51015Y-2671D01*
X-51024Y-2674D01*
X-51034Y-2675D01*
X-52634D01*
X-52636Y-2675D01*
X-52638Y-2675D01*
X-52686Y-2671D01*
X-52687Y-2671D01*
X-52689Y-2671D01*
X-52742Y-2664D01*
X-52745Y-2663D01*
X-52749Y-2662D01*
X-52802Y-2647D01*
X-52804Y-2647D01*
X-52806Y-2646D01*
X-52849Y-2630D01*
X-52851Y-2629D01*
X-52853Y-2628D01*
X-52895Y-2608D01*
X-52897Y-2607D01*
X-52900Y-2605D01*
X-52944Y-2577D01*
X-52946Y-2576D01*
X-52947Y-2575D01*
X-52985Y-2546D01*
X-52987Y-2545D01*
X-52988Y-2544D01*
X-53027Y-2510D01*
X-53030Y-2507D01*
X-53033Y-2504D01*
X-53062Y-2468D01*
X-53063Y-2467D01*
X-53063Y-2466D01*
X-53091Y-2429D01*
X-53093Y-2427D01*
X-53094Y-2424D01*
X-53118Y-2383D01*
X-53119Y-2381D01*
X-53120Y-2380D01*
X-53140Y-2338D01*
X-53141Y-2336D01*
X-53142Y-2334D01*
X-53158Y-2292D01*
X-53159Y-2289D01*
X-53160Y-2286D01*
X-53172Y-2235D01*
X-53172Y-2233D01*
X-53173Y-2231D01*
X-53180Y-2186D01*
X-53180Y-2184D01*
X-53180Y-2182D01*
X-53184Y-2129D01*
X-53184Y-2127D01*
X-53184Y-2125D01*
Y-1225D01*
X-53184Y-1223D01*
X-53184Y-1221D01*
X-53180Y-1166D01*
X-53180Y-1164D01*
X-53179Y-1161D01*
X-53171Y-1116D01*
X-53171Y-1115D01*
X-53171Y-1113D01*
X-53159Y-1063D01*
X-53158Y-1060D01*
X-53157Y-1056D01*
X-53141Y-1016D01*
X-53128Y-984D01*
X-53126Y-980D01*
X-53124Y-977D01*
X-53099Y-934D01*
X-53098Y-932D01*
X-53097Y-930D01*
X-53071Y-893D01*
X-53070Y-892D01*
X-53069Y-890D01*
X-53038Y-852D01*
X-53035Y-850D01*
X-53033Y-847D01*
X-52988Y-806D01*
X-52986Y-804D01*
X-52984Y-803D01*
X-52944Y-773D01*
X-52942Y-772D01*
X-52941Y-771D01*
X-52895Y-742D01*
X-52892Y-740D01*
X-52889Y-738D01*
X-52836Y-714D01*
X-52833Y-713D01*
X-52829Y-712D01*
X-52742Y-686D01*
X-52737Y-685D01*
X-52733Y-684D01*
X-52733Y-684D01*
X-52733Y-684D01*
X-52733D01*
X-52639Y-675D01*
X-52636Y-675D01*
X-52634Y-675D01*
X-51034D01*
X-51024Y-676D01*
D02*
G37*
D60*
X-56300Y-13200D02*
D03*
D99*
X-9675Y-95875D02*
D03*
X-7675D02*
D03*
X-9675Y-96875D02*
D03*
Y-94875D02*
D03*
X-7675Y-96875D02*
D03*
Y-94875D02*
D03*
X-8675Y-95875D02*
D03*
Y-96875D02*
D03*
Y-94875D02*
D03*
D103*
X-33028Y-129200D02*
D03*
X-57627D02*
D03*
D168*
X-27631Y-27562D02*
D03*
Y-28762D02*
D03*
X-28956Y-27562D02*
D03*
Y-28762D02*
D03*
X-35131Y-27569D02*
D03*
Y-28769D02*
D03*
X-40600Y-64350D02*
D03*
Y-65550D02*
D03*
X-44028Y-65549D02*
D03*
Y-64349D02*
D03*
X-39478Y-64349D02*
D03*
Y-65549D02*
D03*
X-41728Y-65549D02*
D03*
Y-64349D02*
D03*
X-42878Y-64349D02*
D03*
Y-65549D02*
D03*
X-38328Y-64349D02*
D03*
Y-65549D02*
D03*
X-67150Y-10900D02*
D03*
Y-9700D02*
D03*
X-68375Y-2975D02*
D03*
Y-4175D02*
D03*
X-71300Y-24275D02*
D03*
Y-23075D02*
D03*
X-35325Y-10950D02*
D03*
Y-12150D02*
D03*
X-36600Y-12150D02*
D03*
Y-10950D02*
D03*
X-33481Y-27569D02*
D03*
Y-28769D02*
D03*
X-22191Y-28762D02*
D03*
Y-27562D02*
D03*
X-23466Y-28762D02*
D03*
Y-27562D02*
D03*
X-24741Y-28762D02*
D03*
Y-27562D02*
D03*
X-26016Y-28762D02*
D03*
Y-27562D02*
D03*
X-31881Y-28769D02*
D03*
Y-27569D02*
D03*
X-17100Y-10500D02*
D03*
Y-11700D02*
D03*
X-13675Y-6575D02*
D03*
Y-7775D02*
D03*
X-11800Y-14900D02*
D03*
Y-16100D02*
D03*
X-59075Y-2050D02*
D03*
Y-3250D02*
D03*
X-1800Y-8600D02*
D03*
Y-9800D02*
D03*
X-5700Y-9800D02*
D03*
Y-8600D02*
D03*
X-57700Y-3250D02*
D03*
Y-2050D02*
D03*
X-30281Y-28762D02*
D03*
Y-27562D02*
D03*
X-67150Y-8350D02*
D03*
Y-7150D02*
D03*
D169*
X-82359Y-35560D02*
D03*
X-81159D02*
D03*
X-78050Y-45494D02*
D03*
X-76850D02*
D03*
X-78050Y-48034D02*
D03*
X-76850D02*
D03*
X-71250Y-4675D02*
D03*
X-70050D02*
D03*
X-65750Y-1775D02*
D03*
X-66950D02*
D03*
X-65900Y-10725D02*
D03*
X-64700D02*
D03*
X-21250Y-9500D02*
D03*
X-20050D02*
D03*
X-21800Y-3525D02*
D03*
X-20600D02*
D03*
X-14400Y-9075D02*
D03*
X-13200D02*
D03*
X-5800Y-25200D02*
D03*
X-7000D02*
D03*
X-5800Y-26500D02*
D03*
X-7000D02*
D03*
X-10125D02*
D03*
X-11325D02*
D03*
X-9275Y-14850D02*
D03*
X-10475D02*
D03*
X-65725Y-12300D02*
D03*
X-66925D02*
D03*
X-66925Y-13475D02*
D03*
X-65725D02*
D03*
X-79377Y-40421D02*
D03*
X-78177D02*
D03*
X-5500Y-11100D02*
D03*
X-4300D02*
D03*
X-3000D02*
D03*
X-1800D02*
D03*
D170*
X-54325Y-18100D02*
D03*
X-53325D02*
D03*
X-86325Y-8025D02*
D03*
X-85325D02*
D03*
X-86825Y-16950D02*
D03*
X-85825D02*
D03*
X-16975Y-15525D02*
D03*
X-17975D02*
D03*
D171*
X-57600Y-6175D02*
D03*
X-55568D02*
D03*
X-57600Y-20225D02*
D03*
X-55568D02*
D03*
X-58175Y-8925D02*
D03*
X-56143D02*
D03*
X-58150Y-17425D02*
D03*
X-56118D02*
D03*
D172*
X-31250Y-16700D02*
D03*
X-32650D02*
D03*
D174*
X-72125Y-18225D02*
D03*
Y-19325D02*
D03*
D176*
X-21750Y-4650D02*
D03*
X-20650D02*
D03*
X-21200Y-10675D02*
D03*
X-20100D02*
D03*
D177*
X-52973Y-16225D02*
D03*
X-51576D02*
D03*
D180*
X-65200Y-19175D02*
D03*
Y-20825D02*
D03*
D181*
X-66775Y-16300D02*
D03*
X-68425D02*
D03*
D184*
X-51800Y-13681D02*
D03*
X-52750D02*
D03*
X-51800Y-12763D02*
D03*
X-52750D02*
D03*
X-51800Y-15100D02*
D03*
X-52750D02*
D03*
X-51800Y-11344D02*
D03*
X-52750D02*
D03*
X-51800Y-10425D02*
D03*
X-52750D02*
D03*
X-24775Y-22200D02*
D03*
X-25725D02*
D03*
X-19200Y-18000D02*
D03*
X-20150D02*
D03*
X-22800Y-12700D02*
D03*
X-23750D02*
D03*
X-22800Y-11800D02*
D03*
X-23750D02*
D03*
X-25850Y-12700D02*
D03*
X-24900D02*
D03*
X-25850Y-11800D02*
D03*
X-24900D02*
D03*
X-32025Y-15600D02*
D03*
X-31075D02*
D03*
X-17000Y-16425D02*
D03*
X-17950D02*
D03*
X-24775Y-22950D02*
D03*
X-25725D02*
D03*
D185*
X-50675Y-13731D02*
D03*
Y-14731D02*
D03*
X-49775D02*
D03*
Y-13731D02*
D03*
X-50675Y-12713D02*
D03*
Y-11713D02*
D03*
X-49775D02*
D03*
Y-12713D02*
D03*
X-53525Y-5975D02*
D03*
Y-6975D02*
D03*
X-53525Y-4525D02*
D03*
Y-3525D02*
D03*
X-54400Y-21950D02*
D03*
Y-22950D02*
D03*
X-28950Y-4075D02*
D03*
Y-5075D02*
D03*
X-28950Y-6075D02*
D03*
Y-7075D02*
D03*
X-20175Y-15900D02*
D03*
Y-14900D02*
D03*
Y-12900D02*
D03*
Y-13900D02*
D03*
X-54400Y-19525D02*
D03*
Y-20525D02*
D03*
X-88175Y-14625D02*
D03*
Y-15625D02*
D03*
Y-12000D02*
D03*
Y-13000D02*
D03*
D188*
X-55547Y-78425D02*
D03*
Y-77475D02*
D03*
X-56422Y-81775D02*
D03*
Y-80825D02*
D03*
X-57272Y-81775D02*
D03*
Y-80825D02*
D03*
X-54400Y-6950D02*
D03*
Y-6000D02*
D03*
X-54400Y-4500D02*
D03*
Y-3550D02*
D03*
X-53575Y-21950D02*
D03*
Y-22900D02*
D03*
X-60550Y-13625D02*
D03*
Y-12675D02*
D03*
X-30750Y-19075D02*
D03*
Y-18125D02*
D03*
X-29875Y-19075D02*
D03*
Y-18125D02*
D03*
X-16900Y-20275D02*
D03*
Y-19325D02*
D03*
Y-21225D02*
D03*
Y-22175D02*
D03*
X-55547Y-70025D02*
D03*
Y-70975D02*
D03*
Y-76475D02*
D03*
Y-75525D02*
D03*
Y-80375D02*
D03*
Y-79425D02*
D03*
X-52297Y-77775D02*
D03*
Y-76825D02*
D03*
Y-79725D02*
D03*
Y-78775D02*
D03*
D213*
X-13100Y-22150D02*
D03*
Y-18350D02*
D03*
X-15400D02*
D03*
Y-22150D02*
D03*
D229*
X-61550Y-42960D02*
D03*
X-27442Y-51755D02*
D03*
X-4430Y-74450D02*
D03*
Y-64290D02*
D03*
Y-66830D02*
D03*
X-6970D02*
D03*
X-4430Y-69370D02*
D03*
X-6970D02*
D03*
X-4430Y-71910D02*
D03*
X-6970D02*
D03*
Y-74450D02*
D03*
Y-87150D02*
D03*
Y-84610D02*
D03*
X-4430D02*
D03*
X-6970Y-82070D02*
D03*
X-4430D02*
D03*
X-6970Y-79530D02*
D03*
X-4430D02*
D03*
Y-76990D02*
D03*
X-6970D02*
D03*
X-4430Y-87150D02*
D03*
X-19670Y-58194D02*
D03*
Y-55654D02*
D03*
Y-50574D02*
D03*
Y-53114D02*
D03*
Y-63274D02*
D03*
Y-60734D02*
D03*
Y-65814D02*
D03*
Y-68354D02*
D03*
Y-81054D02*
D03*
Y-78514D02*
D03*
Y-73434D02*
D03*
Y-75974D02*
D03*
Y-86134D02*
D03*
Y-83594D02*
D03*
Y-88674D02*
D03*
Y-91214D02*
D03*
X-67930Y-42954D02*
D03*
Y-45494D02*
D03*
Y-50574D02*
D03*
Y-48034D02*
D03*
Y-37874D02*
D03*
Y-40414D02*
D03*
Y-35334D02*
D03*
Y-32794D02*
D03*
Y-65814D02*
D03*
Y-68354D02*
D03*
Y-73434D02*
D03*
Y-70894D02*
D03*
Y-60734D02*
D03*
Y-63274D02*
D03*
Y-58194D02*
D03*
Y-55654D02*
D03*
X-39990Y-71021D02*
D03*
X-42530D02*
D03*
X-45070D02*
D03*
X-42530Y-68481D02*
D03*
X-45070D02*
D03*
X-47610Y-98834D02*
D03*
Y-101374D02*
D03*
X-45070Y-98834D02*
D03*
Y-101374D02*
D03*
X-50150Y-98834D02*
D03*
Y-101374D02*
D03*
X-52690D02*
D03*
Y-98834D02*
D03*
X-55230Y-101374D02*
D03*
Y-98834D02*
D03*
X-57770Y-101374D02*
D03*
Y-98834D02*
D03*
X-60310Y-101374D02*
D03*
Y-98834D02*
D03*
X-42530D02*
D03*
Y-101374D02*
D03*
X-39990Y-98834D02*
D03*
Y-101374D02*
D03*
X-37450Y-98834D02*
D03*
Y-101374D02*
D03*
X-34910Y-98834D02*
D03*
Y-101374D02*
D03*
X-32370D02*
D03*
Y-98834D02*
D03*
X-19670D02*
D03*
Y-101374D02*
D03*
X-22210D02*
D03*
Y-98834D02*
D03*
X-24750Y-101374D02*
D03*
Y-98834D02*
D03*
X-27290Y-101374D02*
D03*
Y-98834D02*
D03*
X-29830Y-101374D02*
D03*
Y-98834D02*
D03*
X-62850D02*
D03*
Y-101374D02*
D03*
X-41270Y-10950D02*
D03*
X-38730D02*
D03*
X-4430Y-38890D02*
D03*
Y-28730D02*
D03*
Y-31270D02*
D03*
X-6970D02*
D03*
X-4430Y-33810D02*
D03*
X-6970D02*
D03*
X-4430Y-36350D02*
D03*
X-6970D02*
D03*
Y-38890D02*
D03*
Y-51590D02*
D03*
Y-49050D02*
D03*
X-4430D02*
D03*
X-6970Y-46510D02*
D03*
X-4430D02*
D03*
X-6970Y-43970D02*
D03*
X-4430D02*
D03*
Y-41430D02*
D03*
X-6970D02*
D03*
X-4430Y-51590D02*
D03*
Y-13490D02*
D03*
Y-16030D02*
D03*
X-6970D02*
D03*
X-60350Y-130405D02*
D03*
X-84440Y-45494D02*
D03*
X-86980D02*
D03*
X-84440Y-48034D02*
D03*
X-86980D02*
D03*
X-84440Y-50574D02*
D03*
X-86980D02*
D03*
X-84440Y-53114D02*
D03*
X-86980D02*
D03*
Y-55654D02*
D03*
Y-42954D02*
D03*
Y-40414D02*
D03*
X-84440D02*
D03*
X-86980Y-37874D02*
D03*
X-84440D02*
D03*
X-86980Y-35334D02*
D03*
X-84440D02*
D03*
X-86980Y-32794D02*
D03*
X-84440D02*
D03*
Y-42954D02*
D03*
X-19670Y-23650D02*
D03*
Y-26190D02*
D03*
Y-46510D02*
D03*
Y-43970D02*
D03*
Y-38890D02*
D03*
Y-41430D02*
D03*
Y-31270D02*
D03*
Y-28730D02*
D03*
Y-33810D02*
D03*
Y-36350D02*
D03*
X-67930Y-88674D02*
D03*
Y-91214D02*
D03*
Y-96294D02*
D03*
Y-93754D02*
D03*
Y-83594D02*
D03*
Y-86134D02*
D03*
Y-81054D02*
D03*
Y-78514D02*
D03*
D230*
X-69425Y-19675D02*
D03*
X-61550Y-45500D02*
D03*
X-27442Y-54295D02*
D03*
X-6970Y-64290D02*
D03*
Y-28730D02*
D03*
Y-13490D02*
D03*
X-60350Y-132945D02*
D03*
X-84440Y-55654D02*
D03*
D231*
X-2350Y-2350D02*
D03*
Y-132650D02*
D03*
X-87650D02*
D03*
Y-2350D02*
D03*
D232*
X-67925Y-123475D02*
D03*
Y-129775D02*
D03*
X-80425Y-123525D02*
D03*
Y-129825D02*
D03*
D233*
X-44784Y-1675D02*
D03*
X-52084D02*
D03*
X-11950D02*
D03*
X-19250D02*
D03*
D234*
X-50659Y-4800D02*
D03*
X-46209D02*
D03*
X-17825D02*
D03*
X-13375D02*
D03*
D235*
X-39990Y-68481D02*
D03*
D236*
X-22425Y-129095D02*
D03*
X-9725D02*
D03*
D237*
X-79350Y-10750D02*
D03*
D238*
X-74450Y-13700D02*
D03*
D239*
Y-7700D02*
D03*
D240*
X-80670Y-94010D02*
D03*
Y-73890D02*
D03*
D241*
X-76185Y-54384D02*
D03*
Y-21364D02*
D03*
D242*
X-69925Y-19175D02*
D03*
Y-20175D02*
D03*
X-68925D02*
D03*
Y-19175D02*
D03*
D243*
X-15900Y-16225D02*
D03*
X-13125Y-12675D02*
D03*
X-15625Y-9075D02*
D03*
X-16275Y-4125D02*
D03*
X-70750Y-25675D02*
D03*
X-71300Y-21875D02*
D03*
X-84600Y-11925D02*
D03*
X-87050Y-15825D02*
D03*
X-9250Y-17125D02*
D03*
X-5450Y-12300D02*
D03*
X-3075Y-6550D02*
D03*
X-21000Y-11900D02*
D03*
X-19050Y-16425D02*
D03*
X-24900Y-10900D02*
D03*
X-29850Y-7075D02*
D03*
X-30100Y-17150D02*
D03*
X-64450Y-1775D02*
D03*
X-68475Y-13875D02*
D03*
X-73300Y-4675D02*
D03*
X-62275Y-8500D02*
D03*
X-62550Y-17750D02*
D03*
X-73625Y-19525D02*
D03*
X-63275Y-5950D02*
D03*
X-68375Y-1775D02*
D03*
X-44802Y-73779D02*
D03*
X-48618Y-34197D02*
D03*
X-53475Y-36125D02*
D03*
X-38748Y-102900D02*
D03*
X-1800Y-7250D02*
D03*
X-23400Y-104575D02*
D03*
X-46975Y-79425D02*
D03*
X-50825Y-68075D02*
D03*
X-9450Y-105025D02*
D03*
X-35675Y-13825D02*
D03*
X-33050Y-13775D02*
D03*
X-69225Y-112300D02*
D03*
X-69175Y-110925D02*
D03*
X-70300Y-113050D02*
D03*
X-1925Y-100425D02*
D03*
X-9425Y-99250D02*
D03*
X-34000Y-5600D02*
D03*
X-16585Y-114665D02*
D03*
X-12900Y-113025D02*
D03*
X-15850Y-129225D02*
D03*
X-87850Y-16875D02*
D03*
X-20850Y-105825D02*
D03*
X-12000Y-94825D02*
D03*
X-5325Y-93700D02*
D03*
X-57875Y-51225D02*
D03*
X-3425Y-95625D02*
D03*
X-26325Y-41275D02*
D03*
X-42925Y-43850D02*
D03*
X-43750Y-59200D02*
D03*
X-41752Y-62178D02*
D03*
X-46475Y-47100D02*
D03*
X-45752Y-44427D02*
D03*
X-53450Y-72275D02*
D03*
X-44125Y-43325D02*
D03*
X-70653Y-51753D02*
D03*
X-35750Y-89375D02*
D03*
X-41400Y-88525D02*
D03*
X-41375Y-89825D02*
D03*
X-40800Y-87350D02*
D03*
X-70653Y-59628D02*
D03*
X-41248Y-102900D02*
D03*
X-53678D02*
D03*
X-55377D02*
D03*
X-44400Y-92700D02*
D03*
X-12075Y-87200D02*
D03*
X-44652Y-58203D02*
D03*
X-45625Y-56250D02*
D03*
X-50475Y-51250D02*
D03*
X-79225Y-89700D02*
D03*
X-26825Y-91048D02*
D03*
X-13425Y-87925D02*
D03*
X-13800Y-86575D02*
D03*
X-48627Y-72204D02*
D03*
X-53925Y-70550D02*
D03*
X-50300Y-70475D02*
D03*
X-52600Y-69875D02*
D03*
X-51300Y-69650D02*
D03*
X-47100Y-45125D02*
D03*
X-51550Y-49750D02*
D03*
X-50427Y-48752D02*
D03*
X-50922Y-72925D02*
D03*
X-46450Y-53250D02*
D03*
X-11305Y-105850D02*
D03*
X-60525Y-11700D02*
D03*
X-60300Y-79725D02*
D03*
X-83925Y-116050D02*
D03*
X-80875Y-117350D02*
D03*
X-80900Y-116050D02*
D03*
X-69625Y-106075D02*
D03*
X-77664Y-110950D02*
D03*
X-75925Y-101850D02*
D03*
X-82025Y-104374D02*
D03*
X-75400Y-111025D02*
D03*
X-77900Y-116150D02*
D03*
X-86900D02*
D03*
X-83925Y-117350D02*
D03*
X-70050Y-116125D02*
D03*
Y-117500D02*
D03*
X-67050D02*
D03*
X-67075Y-116200D02*
D03*
X-83900Y-74600D02*
D03*
Y-73100D02*
D03*
X-82700Y-73600D02*
D03*
X-85100Y-74100D02*
D03*
X-82700Y-72100D02*
D03*
X-85100Y-71100D02*
D03*
X-83900Y-71600D02*
D03*
X-82700Y-70600D02*
D03*
X-85100Y-69600D02*
D03*
X-82700Y-69100D02*
D03*
X-83900Y-68600D02*
D03*
X-85100Y-68100D02*
D03*
X-61425Y-80925D02*
D03*
X-63550Y-78025D02*
D03*
X-87300Y-29700D02*
D03*
X-57600Y-4550D02*
D03*
X-29300Y-57225D02*
D03*
X-29925Y-60525D02*
D03*
X-27475Y-60200D02*
D03*
X-51672Y-81025D02*
D03*
X-13150Y-91625D02*
D03*
X-73975Y-114875D02*
D03*
X-48900Y-11713D02*
D03*
Y-14731D02*
D03*
X-46425Y-57300D02*
D03*
X-26825Y-88773D02*
D03*
X-26009Y-30166D02*
D03*
X-24734Y-30725D02*
D03*
X-31875Y-26375D02*
D03*
X-33475Y-26375D02*
D03*
X-30275Y-26368D02*
D03*
X-36050Y-55750D02*
D03*
X-35125Y-26375D02*
D03*
X-28950Y-26368D02*
D03*
X-27625D02*
D03*
X-22184Y-26368D02*
D03*
X-23459Y-26368D02*
D03*
X-24734D02*
D03*
X-26009Y-26368D02*
D03*
X-6850Y-8750D02*
D03*
Y-10050D02*
D03*
X-3300Y-12150D02*
D03*
X-31250Y-37375D02*
D03*
X-65725Y-82325D02*
D03*
X-39100Y-30250D02*
D03*
X-76150Y-27700D02*
D03*
X-81550Y-44100D02*
D03*
X-78661Y-36587D02*
D03*
X-73625Y-60125D02*
D03*
X-65025Y-105150D02*
D03*
Y-109750D02*
D03*
X-71950Y-112125D02*
D03*
X-68295Y-105150D02*
D03*
X-68875Y-104000D02*
D03*
X-66800Y-112925D02*
D03*
X-81725Y-112525D02*
D03*
X-68525Y-106775D02*
D03*
X-78450Y-105625D02*
D03*
X-82525Y-110525D02*
D03*
X-82550Y-109225D02*
D03*
X-55550Y-92830D02*
D03*
X-81186Y-26411D02*
D03*
X-16861Y-94586D02*
D03*
X-82025Y-106400D02*
D03*
X-19075Y-19250D02*
D03*
X-79600Y-109275D02*
D03*
X-78850Y-110375D02*
D03*
X-85675Y-111700D02*
D03*
X-14300Y-3275D02*
D03*
X-57350Y-22025D02*
D03*
X-42530Y-25675D02*
D03*
X-58800Y-84475D02*
D03*
X-57275Y-88675D02*
D03*
X-83850Y-21725D02*
D03*
X-33525Y-34950D02*
D03*
X-12225Y-97475D02*
D03*
X-68425Y-109750D02*
D03*
X-73100Y-108650D02*
D03*
X-71075Y-111000D02*
D03*
X-57175Y-84400D02*
D03*
X-53475Y-20825D02*
D03*
X-54325Y-17225D02*
D03*
X-28650Y-65000D02*
D03*
X-43500Y-23969D02*
D03*
X-46040D02*
D03*
X-40960Y-19893D02*
D03*
X-38368Y-29053D02*
D03*
X-35880Y-19893D02*
D03*
X-40299Y-33774D02*
D03*
X-51111Y-37966D02*
D03*
D244*
X-31950Y-43250D02*
D03*
X-31825Y-52750D02*
D03*
X-41600Y-1500D02*
D03*
X-38600D02*
D03*
X-41600Y-3500D02*
D03*
Y-5500D02*
D03*
X-38600D02*
D03*
X-41600Y-7500D02*
D03*
X-38600Y-3500D02*
D03*
Y-7500D02*
D03*
X-33000Y-1500D02*
D03*
X-26000D02*
D03*
X-62500Y-126100D02*
D03*
D245*
X-85825Y-11600D02*
D03*
X-84875Y-9500D02*
D03*
X-86775D02*
D03*
X-74450Y-18025D02*
D03*
X-73500Y-15925D02*
D03*
X-75400D02*
D03*
X-85825Y-15475D02*
D03*
X-84875Y-13375D02*
D03*
X-86775D02*
D03*
D246*
X-65575Y-8287D02*
D03*
X-63475Y-9237D02*
D03*
Y-7337D02*
D03*
X-68750Y-7200D02*
D03*
X-70850Y-6250D02*
D03*
Y-8150D02*
D03*
X-11450Y-13350D02*
D03*
Y-11450D02*
D03*
X-9350Y-12400D02*
D03*
X-15550Y-12400D02*
D03*
Y-10500D02*
D03*
X-13450Y-11450D02*
D03*
Y-14050D02*
D03*
Y-15950D02*
D03*
X-15550Y-15000D02*
D03*
X-61975Y-14000D02*
D03*
Y-12100D02*
D03*
X-64075Y-13050D02*
D03*
D247*
X-4375Y-7875D02*
D03*
X-3725D02*
D03*
X-3075D02*
D03*
Y-9725D02*
D03*
X-3725D02*
D03*
X-4375D02*
D03*
D248*
X-21325Y-8100D02*
D03*
Y-7450D02*
D03*
Y-6800D02*
D03*
Y-6150D02*
D03*
X-15625Y-8100D02*
D03*
Y-7450D02*
D03*
Y-6800D02*
D03*
Y-6150D02*
D03*
D249*
X-25772Y-6875D02*
D03*
X-26725D02*
D03*
X-27678D02*
D03*
Y-4425D02*
D03*
X-25772D02*
D03*
X-68967Y-9900D02*
D03*
X-69920D02*
D03*
X-70873D02*
D03*
X-68967Y-12350D02*
D03*
X-70873D02*
D03*
D250*
X-27825Y-14550D02*
D03*
X-27175D02*
D03*
X-26525D02*
D03*
X-25875D02*
D03*
X-25225D02*
D03*
X-24575D02*
D03*
X-23925D02*
D03*
X-23275D02*
D03*
X-22625D02*
D03*
X-21975D02*
D03*
X-27825Y-15200D02*
D03*
X-27175D02*
D03*
X-26525D02*
D03*
X-25875D02*
D03*
X-25225D02*
D03*
X-24575D02*
D03*
X-23925D02*
D03*
X-23275D02*
D03*
X-22625D02*
D03*
X-21975D02*
D03*
X-27825Y-15850D02*
D03*
X-27175D02*
D03*
X-26525D02*
D03*
X-25875D02*
D03*
X-25225D02*
D03*
X-24575D02*
D03*
X-23925D02*
D03*
X-23275D02*
D03*
X-22625D02*
D03*
X-27825Y-16500D02*
D03*
X-27175D02*
D03*
X-26525D02*
D03*
X-25875D02*
D03*
X-25225D02*
D03*
X-24575D02*
D03*
X-23925D02*
D03*
X-23275D02*
D03*
X-22625D02*
D03*
X-27825Y-17150D02*
D03*
X-27175D02*
D03*
X-26525D02*
D03*
X-25875D02*
D03*
X-25225D02*
D03*
X-24575D02*
D03*
X-23925D02*
D03*
X-23275D02*
D03*
X-22625D02*
D03*
X-27825Y-18450D02*
D03*
X-27175D02*
D03*
X-26525D02*
D03*
X-25875D02*
D03*
X-25225D02*
D03*
X-24575D02*
D03*
X-23925D02*
D03*
X-23275D02*
D03*
X-22625D02*
D03*
X-27825Y-19100D02*
D03*
X-27175D02*
D03*
X-26525D02*
D03*
X-25875D02*
D03*
X-25225D02*
D03*
X-24575D02*
D03*
X-23925D02*
D03*
X-23275D02*
D03*
X-22625D02*
D03*
X-27825Y-19750D02*
D03*
X-27175D02*
D03*
X-26525D02*
D03*
X-25875D02*
D03*
X-25225D02*
D03*
X-24575D02*
D03*
X-23925D02*
D03*
X-23275D02*
D03*
X-22625D02*
D03*
X-27825Y-20400D02*
D03*
X-27175D02*
D03*
X-26525D02*
D03*
X-25875D02*
D03*
X-25225D02*
D03*
X-24575D02*
D03*
X-23925D02*
D03*
X-23275D02*
D03*
X-22625D02*
D03*
X-27825Y-17800D02*
D03*
X-27175D02*
D03*
X-26525D02*
D03*
X-25875D02*
D03*
X-25225D02*
D03*
X-24575D02*
D03*
X-23925D02*
D03*
X-23275D02*
D03*
X-22625D02*
D03*
X-21975D02*
D03*
Y-15850D02*
D03*
Y-16500D02*
D03*
Y-17150D02*
D03*
Y-18450D02*
D03*
Y-19100D02*
D03*
Y-19750D02*
D03*
Y-20400D02*
D03*
D251*
X-67950Y-20425D02*
D03*
Y-19925D02*
D03*
Y-19425D02*
D03*
Y-18925D02*
D03*
X-70900D02*
D03*
Y-19425D02*
D03*
Y-19925D02*
D03*
Y-20425D02*
D03*
D252*
X-68675Y-18200D02*
D03*
X-69175D02*
D03*
X-69675D02*
D03*
X-70175D02*
D03*
Y-21150D02*
D03*
X-69675D02*
D03*
X-69175D02*
D03*
X-68675D02*
D03*
D253*
X-55050Y-15150D02*
D03*
X-55550D02*
D03*
X-56050D02*
D03*
X-56550D02*
D03*
X-57050D02*
D03*
X-57550D02*
D03*
Y-11250D02*
D03*
X-57050D02*
D03*
X-56550D02*
D03*
X-56050D02*
D03*
X-55550D02*
D03*
X-55050D02*
D03*
D254*
X-58250Y-14450D02*
D03*
Y-13950D02*
D03*
Y-13450D02*
D03*
Y-12950D02*
D03*
Y-12450D02*
D03*
Y-11950D02*
D03*
X-54350D02*
D03*
Y-12450D02*
D03*
Y-12950D02*
D03*
Y-13450D02*
D03*
Y-13950D02*
D03*
Y-14450D02*
D03*
D255*
X-70063Y-3375D02*
D03*
Y-2725D02*
D03*
Y-2075D02*
D03*
Y-1425D02*
D03*
X-74687Y-1425D02*
D03*
Y-2075D02*
D03*
Y-2725D02*
D03*
Y-3375D02*
D03*
D256*
X-29978Y-121700D02*
D03*
Y-108700D02*
D03*
X-60127D02*
D03*
Y-121700D02*
D03*
D257*
X-38748Y-104700D02*
D03*
X-41248D02*
D03*
X-43748D02*
D03*
X-46248D02*
D03*
X-48748D02*
D03*
X-51248D02*
D03*
X-53678D02*
D03*
X-55377D02*
D03*
X-36248D02*
D03*
X-57377D02*
D03*
D258*
X-59627Y-115650D02*
D03*
Y-125700D02*
D03*
D259*
X-66315Y-24125D02*
D03*
X-68685D02*
D03*
D260*
X-60425Y-21760D02*
D03*
Y-19390D02*
D03*
Y-4665D02*
D03*
Y-7035D02*
D03*
D261*
X-66700Y-3525D02*
D03*
Y-5425D02*
D03*
X-64800Y-4475D02*
D03*
M02*
