%FSLAX43Y43*%
%MOMM*%
G71*
G01*
G75*
G04 Layer_Color=8388736*
%ADD10C,0.175*%
%ADD11C,0.175*%
%ADD12R,0.700X0.700*%
%ADD13R,1.600X1.300*%
%ADD14R,1.000X2.250*%
%ADD15R,2.800X1.400*%
%ADD16R,0.650X0.800*%
%ADD17R,0.800X0.650*%
%ADD18R,0.600X0.550*%
%ADD19R,1.092X1.600*%
%ADD20R,0.700X0.700*%
%ADD21R,0.950X1.000*%
%ADD22R,0.600X0.900*%
%ADD23R,0.762X0.762*%
%ADD24R,0.900X0.600*%
%ADD25R,0.762X0.762*%
%ADD26R,0.500X0.600*%
%ADD27R,1.600X1.092*%
%ADD28R,1.500X1.350*%
%ADD29R,1.350X1.500*%
%ADD30R,2.200X1.500*%
%ADD31R,1.500X2.400*%
%ADD32R,0.650X0.500*%
%ADD33R,0.550X0.600*%
%ADD34R,1.100X1.000*%
%ADD35R,1.100X0.600*%
%ADD36R,0.500X0.650*%
%ADD37R,1.200X1.200*%
%ADD38R,1.200X1.200*%
%ADD39R,0.400X1.350*%
%ADD40R,0.950X1.750*%
%ADD41R,2.500X4.600*%
%ADD42R,2.200X0.600*%
%ADD43R,0.300X1.700*%
%ADD44O,0.300X1.700*%
%ADD45O,1.700X0.300*%
%ADD46R,1.300X1.400*%
%ADD47R,0.850X0.300*%
%ADD48R,3.400X3.400*%
%ADD49R,0.500X0.230*%
%ADD50R,0.230X0.500*%
%ADD51C,0.320*%
%ADD52R,4.100X3.500*%
%ADD53R,0.600X1.100*%
%ADD54R,2.500X1.700*%
%ADD55R,0.350X0.675*%
%ADD56R,0.700X0.300*%
%ADD57R,1.400X1.600*%
%ADD58O,0.200X0.700*%
%ADD59O,0.700X0.200*%
%ADD60R,2.800X2.800*%
%ADD61R,1.300X1.600*%
%ADD62R,1.000X1.600*%
%ADD63R,3.000X2.500*%
%ADD64R,1.200X2.000*%
%ADD65R,2.000X4.900*%
%ADD66R,0.810X4.600*%
%ADD67R,0.610X4.600*%
%ADD68R,1.100X0.300*%
%ADD69R,3.100X2.300*%
%ADD70R,0.430X4.700*%
%ADD71R,0.430X2.540*%
%ADD72R,2.270X0.280*%
%ADD73R,3.200X1.270*%
%ADD74R,3.683X1.270*%
%ADD75R,0.740X2.790*%
%ADD76C,0.300*%
%ADD77C,0.180*%
%ADD78C,0.200*%
%ADD79C,0.165*%
%ADD80C,0.150*%
%ADD81C,0.185*%
%ADD82C,0.127*%
%ADD83R,0.300X0.900*%
%ADD84R,1.800X1.900*%
%ADD85C,1.700*%
%ADD86R,1.700X1.700*%
%ADD87C,3.600*%
G04:AMPARAMS|DCode=88|XSize=2.1mm|YSize=1.9mm|CornerRadius=0.494mm|HoleSize=0mm|Usage=FLASHONLY|Rotation=0.000|XOffset=0mm|YOffset=0mm|HoleType=Round|Shape=RoundedRectangle|*
%AMROUNDEDRECTD88*
21,1,2.100,0.912,0,0,0.0*
21,1,1.112,1.900,0,0,0.0*
1,1,0.988,0.556,-0.456*
1,1,0.988,-0.556,-0.456*
1,1,0.988,-0.556,0.456*
1,1,0.988,0.556,0.456*
%
%ADD88ROUNDEDRECTD88*%
G04:AMPARAMS|DCode=89|XSize=1.05mm|YSize=1.25mm|CornerRadius=0.525mm|HoleSize=0mm|Usage=FLASHONLY|Rotation=180.000|XOffset=0mm|YOffset=0mm|HoleType=Round|Shape=RoundedRectangle|*
%AMROUNDEDRECTD89*
21,1,1.050,0.200,0,0,180.0*
21,1,0.000,1.250,0,0,180.0*
1,1,1.050,0.000,0.100*
1,1,1.050,0.000,0.100*
1,1,1.050,0.000,-0.100*
1,1,1.050,0.000,-0.100*
%
%ADD89ROUNDEDRECTD89*%
%ADD90R,1.700X1.700*%
%ADD91C,1.500*%
%ADD92R,2.200X4.500*%
%ADD93R,5.000X2.200*%
%ADD94R,5.000X2.400*%
%ADD95C,1.020*%
%ADD96C,1.000*%
%ADD97C,0.550*%
%ADD98C,0.400*%
%ADD99C,0.700*%
%ADD100C,0.660*%
%ADD101C,1.016*%
%ADD102C,0.500*%
%ADD103C,1.600*%
%ADD104C,1.900*%
G04:AMPARAMS|DCode=105|XSize=2.524mm|YSize=2.524mm|CornerRadius=0mm|HoleSize=0mm|Usage=FLASHONLY|Rotation=0.000|XOffset=0mm|YOffset=0mm|HoleType=Round|Shape=Relief|Width=0.254mm|Gap=0.254mm|Entries=4|*
%AMTHD105*
7,0,0,2.524,2.016,0.254,45*
%
%ADD105THD105*%
%ADD106O,1.425X2.100*%
%ADD107O,1.250X1.450*%
%ADD108C,2.100*%
%ADD109C,3.600*%
%AMTHOVALD110*
21,1,1.700,2.824,0,0,270.0*
1,1,2.824,0.000,0.850*
1,1,2.824,0.000,-0.850*
21,0,1.700,2.316,0,0,270.0*
1,0,2.316,0.000,0.850*
1,0,2.316,0.000,-0.850*
4,0,4,-0.090,0.760,-1.088,1.759,-0.909,1.938,0.090,0.940,-0.090,0.760,0.0*
4,0,4,-0.090,-0.940,0.909,-1.938,1.088,-1.759,0.090,-0.760,-0.090,-0.940,0.0*
4,0,4,-0.090,0.940,0.909,1.938,1.088,1.759,0.090,0.760,-0.090,0.940,0.0*
4,0,4,-0.090,-0.760,-1.088,-1.759,-0.909,-1.938,0.090,-0.940,-0.090,-0.760,0.0*
%
%ADD110THOVALD110*%

%ADD111O,4.100X1.800*%
%AMTHOVALD112*
21,1,1.800,2.724,0,0,0.0*
1,1,2.724,-0.900,0.000*
1,1,2.724,0.900,0.000*
21,0,1.800,2.216,0,0,0.0*
1,0,2.216,-0.900,0.000*
1,0,2.216,0.900,0.000*
4,0,4,-0.810,-0.090,-1.773,-1.053,-1.953,-0.873,-0.990,0.090,-0.810,-0.090,0.0*
4,0,4,0.990,-0.090,1.953,0.873,1.773,1.053,0.810,0.090,0.990,-0.090,0.0*
4,0,4,-0.990,-0.090,-1.953,0.873,-1.773,1.053,-0.810,0.090,-0.990,-0.090,0.0*
4,0,4,0.810,-0.090,1.773,-1.053,1.953,-0.873,0.990,0.090,0.810,-0.090,0.0*
%
%ADD112THOVALD112*%

%ADD113C,1.620*%
%ADD114C,1.790*%
%ADD115C,0.850*%
%ADD116C,0.800*%
%ADD117C,0.930*%
%ADD118C,3.300*%
%ADD119O,1.900X3.600*%
%ADD120O,3.600X1.800*%
%ADD121C,0.950*%
%ADD122C,0.800*%
%ADD123C,1.270*%
%ADD124R,0.600X1.300*%
%ADD125R,1.300X0.600*%
%ADD126R,0.350X0.850*%
%ADD127R,1.700X0.350*%
%ADD128R,0.650X1.050*%
%ADD129C,0.280*%
%ADD130O,0.850X0.280*%
%ADD131O,0.280X0.850*%
%ADD132R,0.230X0.700*%
%ADD133R,0.700X0.230*%
%ADD134R,2.700X2.700*%
%ADD135O,1.524X0.381*%
%ADD136R,3.000X3.000*%
%ADD137R,0.800X2.000*%
%ADD138R,2.000X1.100*%
%ADD139R,0.980X3.700*%
%ADD140R,3.700X0.980*%
%ADD141R,1.400X0.600*%
%ADD142C,0.125*%
%ADD143R,1.507X0.242*%
%ADD144R,1.490X0.201*%
%ADD145R,0.312X0.829*%
%ADD146C,0.254*%
%ADD147C,0.250*%
%ADD148C,0.600*%
%ADD149C,1.000*%
%ADD150C,0.100*%
%ADD151C,0.112*%
%ADD152R,2.100X2.100*%
%ADD153R,2.100X2.100*%
%ADD154C,0.264*%
%ADD155R,1.750X1.750*%
%ADD156R,0.870X0.870*%
%ADD157R,1.125X1.550*%
%ADD158R,1.700X1.700*%
%ADD159R,0.000X0.000*%
%ADD160R,1.350X1.550*%
%ADD161R,1.300X1.400*%
%ADD162R,0.510X0.900*%
%ADD163R,0.850X1.950*%
%ADD164R,0.800X0.800*%
%ADD165R,1.700X1.400*%
%ADD166R,1.100X2.350*%
%ADD167R,2.900X1.500*%
%ADD168R,0.750X0.900*%
%ADD169R,0.900X0.750*%
%ADD170R,0.700X0.650*%
%ADD171R,1.192X1.700*%
%ADD172R,0.800X0.800*%
%ADD173R,1.050X1.100*%
%ADD174R,0.700X1.000*%
%ADD175R,0.862X0.862*%
%ADD176R,1.000X0.700*%
%ADD177R,0.862X0.862*%
%ADD178R,0.600X0.700*%
%ADD179R,1.700X1.192*%
%ADD180R,1.600X1.450*%
%ADD181R,1.450X1.600*%
%ADD182R,2.300X1.600*%
%ADD183R,1.600X2.500*%
%ADD184R,0.750X0.600*%
%ADD185R,0.650X0.700*%
%ADD186R,1.200X1.100*%
%ADD187R,1.200X0.700*%
%ADD188R,0.600X0.750*%
%ADD189R,1.300X1.300*%
%ADD190R,1.300X1.300*%
%ADD191R,0.500X1.450*%
%ADD192R,1.050X1.850*%
%ADD193R,2.600X4.700*%
%ADD194R,2.300X0.700*%
%ADD195R,0.400X1.800*%
%ADD196O,0.400X1.800*%
%ADD197O,1.800X0.400*%
%ADD198R,1.400X1.500*%
%ADD199R,0.950X0.400*%
%ADD200R,3.500X3.500*%
%ADD201R,0.600X0.330*%
%ADD202R,0.330X0.600*%
%ADD203C,0.470*%
%ADD204R,4.200X3.600*%
%ADD205R,0.700X1.200*%
%ADD206R,2.600X1.800*%
%ADD207R,0.450X0.775*%
%ADD208R,0.850X0.450*%
%ADD209R,1.550X1.750*%
%ADD210O,0.300X0.800*%
%ADD211O,0.800X0.300*%
%ADD212R,2.900X2.900*%
%ADD213R,1.400X1.700*%
%ADD214R,1.100X1.700*%
%ADD215R,3.100X2.600*%
%ADD216R,1.300X2.100*%
%ADD217R,2.100X5.000*%
%ADD218R,0.910X4.700*%
%ADD219R,0.710X4.700*%
%ADD220R,1.200X0.400*%
%ADD221R,3.200X2.400*%
%ADD222R,0.530X4.800*%
%ADD223R,0.530X2.640*%
%ADD224R,2.370X0.380*%
%ADD225R,3.300X1.370*%
%ADD226R,3.783X1.370*%
%ADD227R,0.840X2.890*%
%ADD228R,1.900X2.000*%
%ADD229C,1.800*%
%ADD230R,1.800X1.800*%
%ADD231C,3.700*%
%ADD232C,0.100*%
G04:AMPARAMS|DCode=233|XSize=2.2mm|YSize=2mm|CornerRadius=0.544mm|HoleSize=0mm|Usage=FLASHONLY|Rotation=0.000|XOffset=0mm|YOffset=0mm|HoleType=Round|Shape=RoundedRectangle|*
%AMROUNDEDRECTD233*
21,1,2.200,0.912,0,0,0.0*
21,1,1.112,2.000,0,0,0.0*
1,1,1.088,0.556,-0.456*
1,1,1.088,-0.556,-0.456*
1,1,1.088,-0.556,0.456*
1,1,1.088,0.556,0.456*
%
%ADD233ROUNDEDRECTD233*%
G04:AMPARAMS|DCode=234|XSize=1.15mm|YSize=1.35mm|CornerRadius=0.575mm|HoleSize=0mm|Usage=FLASHONLY|Rotation=180.000|XOffset=0mm|YOffset=0mm|HoleType=Round|Shape=RoundedRectangle|*
%AMROUNDEDRECTD234*
21,1,1.150,0.200,0,0,180.0*
21,1,0.000,1.350,0,0,180.0*
1,1,1.150,0.000,0.100*
1,1,1.150,0.000,0.100*
1,1,1.150,0.000,-0.100*
1,1,1.150,0.000,-0.100*
%
%ADD234ROUNDEDRECTD234*%
%ADD235R,1.800X1.800*%
%ADD236R,0.100X0.100*%
%ADD237R,2.300X4.600*%
%ADD238R,5.100X2.300*%
%ADD239R,5.100X2.500*%
%ADD240C,1.120*%
%ADD241C,1.100*%
%ADD242C,0.650*%
G36*
X-76810Y-52430D02*
X-76801Y-52432D01*
X-76792Y-52437D01*
X-76784Y-52443D01*
X-76778Y-52451D01*
X-76774Y-52460D01*
X-76771Y-52469D01*
X-76770Y-52479D01*
Y-53299D01*
X-76770Y-53299D01*
X-76770Y-53304D01*
X-76771Y-53309D01*
X-76773Y-53316D01*
X-76774Y-53318D01*
X-76778Y-53327D01*
X-76784Y-53334D01*
X-77234Y-53784D01*
X-77234Y-53784D01*
X-77238Y-53787D01*
X-77242Y-53791D01*
X-77251Y-53795D01*
X-77260Y-53798D01*
X-77261Y-53798D01*
X-77270Y-53799D01*
X-77270Y-53799D01*
X-80500D01*
X-80510Y-53798D01*
X-80519Y-53795D01*
X-80528Y-53791D01*
X-80536Y-53784D01*
X-80542Y-53777D01*
X-80546Y-53768D01*
X-80549Y-53759D01*
X-80550Y-53749D01*
Y-52479D01*
X-80549Y-52469D01*
X-80546Y-52460D01*
X-80542Y-52451D01*
X-80536Y-52443D01*
X-80528Y-52437D01*
X-80519Y-52432D01*
X-80510Y-52430D01*
X-80500Y-52429D01*
X-76820D01*
X-76810Y-52430D01*
D02*
G37*
G36*
X-71860D02*
X-71851Y-52432D01*
X-71842Y-52437D01*
X-71834Y-52443D01*
X-71828Y-52451D01*
X-71824Y-52460D01*
X-71821Y-52469D01*
X-71820Y-52479D01*
Y-53749D01*
X-71821Y-53759D01*
X-71824Y-53768D01*
X-71828Y-53777D01*
X-71834Y-53784D01*
X-71842Y-53791D01*
X-71851Y-53795D01*
X-71860Y-53798D01*
X-71870Y-53799D01*
X-75100D01*
X-75100Y-53799D01*
X-75109Y-53798D01*
X-75110Y-53798D01*
X-75119Y-53795D01*
X-75128Y-53791D01*
X-75132Y-53787D01*
X-75136Y-53784D01*
X-75136Y-53784D01*
X-75586Y-53334D01*
X-75592Y-53327D01*
X-75596Y-53318D01*
X-75597Y-53316D01*
X-75599Y-53309D01*
X-75600Y-53304D01*
X-75600Y-53299D01*
X-75600Y-53299D01*
Y-52479D01*
X-75599Y-52469D01*
X-75596Y-52460D01*
X-75592Y-52451D01*
X-75586Y-52443D01*
X-75578Y-52437D01*
X-75569Y-52432D01*
X-75560Y-52430D01*
X-75550Y-52429D01*
X-71870D01*
X-71860Y-52430D01*
D02*
G37*
G36*
X-77261Y-21950D02*
X-77260Y-21950D01*
X-77251Y-21952D01*
X-77242Y-21957D01*
X-77238Y-21961D01*
X-77234Y-21963D01*
X-77234Y-21963D01*
X-76784Y-22413D01*
X-76778Y-22421D01*
X-76774Y-22430D01*
X-76773Y-22432D01*
X-76771Y-22439D01*
X-76770Y-22444D01*
X-76770Y-22449D01*
X-76770Y-22449D01*
Y-23269D01*
X-76771Y-23279D01*
X-76774Y-23288D01*
X-76778Y-23297D01*
X-76784Y-23304D01*
X-76792Y-23311D01*
X-76801Y-23315D01*
X-76810Y-23318D01*
X-76820Y-23319D01*
X-80500D01*
X-80510Y-23318D01*
X-80519Y-23315D01*
X-80528Y-23311D01*
X-80536Y-23304D01*
X-80542Y-23297D01*
X-80546Y-23288D01*
X-80549Y-23279D01*
X-80550Y-23269D01*
Y-21999D01*
X-80549Y-21989D01*
X-80546Y-21980D01*
X-80542Y-21971D01*
X-80536Y-21963D01*
X-80528Y-21957D01*
X-80519Y-21952D01*
X-80510Y-21950D01*
X-80500Y-21949D01*
X-77270D01*
X-77270Y-21949D01*
X-77261Y-21950D01*
D02*
G37*
G36*
X-75100Y-54969D02*
X-71870D01*
X-71860Y-54970D01*
X-71851Y-54972D01*
X-71842Y-54977D01*
X-71834Y-54983D01*
X-71828Y-54991D01*
X-71824Y-55000D01*
X-71821Y-55009D01*
X-71820Y-55019D01*
Y-56289D01*
X-71821Y-56299D01*
X-71824Y-56308D01*
X-71828Y-56317D01*
X-71834Y-56324D01*
X-71842Y-56331D01*
X-71851Y-56335D01*
X-71860Y-56338D01*
X-71870Y-56339D01*
X-75550D01*
X-75560Y-56338D01*
X-75569Y-56335D01*
X-75578Y-56331D01*
X-75586Y-56324D01*
X-75592Y-56317D01*
X-75596Y-56308D01*
X-75599Y-56299D01*
X-75600Y-56289D01*
Y-55469D01*
X-75600Y-55469D01*
X-75600Y-55464D01*
X-75599Y-55459D01*
X-75597Y-55452D01*
X-75596Y-55450D01*
X-75592Y-55441D01*
X-75586Y-55433D01*
X-75136Y-54983D01*
X-75136Y-54983D01*
X-75132Y-54981D01*
X-75128Y-54977D01*
X-75119Y-54972D01*
X-75110Y-54970D01*
X-75109Y-54970D01*
X-75100Y-54969D01*
X-75100Y-54969D01*
D02*
G37*
G36*
X-23485Y-126596D02*
X-23476Y-126599D01*
X-23467Y-126603D01*
X-23459Y-126609D01*
X-23453Y-126617D01*
X-23449Y-126626D01*
X-23446Y-126635D01*
X-23445Y-126645D01*
X-23445Y-127581D01*
X-23445Y-127584D01*
X-23445Y-127586D01*
X-23446Y-127588D01*
X-23446Y-127591D01*
X-23447Y-127593D01*
X-23447Y-127596D01*
X-23448Y-127598D01*
X-23449Y-127600D01*
X-23450Y-127603D01*
X-23451Y-127605D01*
X-23452Y-127607D01*
X-23453Y-127609D01*
X-23455Y-127611D01*
X-23457Y-127613D01*
X-23458Y-127615D01*
X-23459Y-127616D01*
X-23462Y-127618D01*
X-23464Y-127620D01*
X-23465Y-127621D01*
X-23467Y-127623D01*
X-23469Y-127624D01*
X-23704Y-127816D01*
X-23929Y-128090D01*
X-24096Y-128403D01*
X-24199Y-128742D01*
X-24233Y-129095D01*
X-24199Y-129448D01*
X-24096Y-129787D01*
X-23929Y-130100D01*
X-23704Y-130374D01*
X-23481Y-130556D01*
X-23479Y-130557D01*
X-23475Y-130558D01*
X-23474Y-130559D01*
X-23474Y-130559D01*
X-23470Y-130561D01*
X-23466Y-130563D01*
X-23466Y-130564D01*
X-23465Y-130564D01*
X-23462Y-130567D01*
X-23459Y-130569D01*
X-23458Y-130570D01*
X-23458Y-130570D01*
X-23455Y-130574D01*
X-23452Y-130577D01*
X-23452Y-130578D01*
X-23452Y-130578D01*
X-23450Y-130582D01*
X-23448Y-130586D01*
X-23447Y-130586D01*
X-23447Y-130587D01*
X-23446Y-130591D01*
X-23445Y-130595D01*
X-23445Y-130596D01*
X-23445Y-130596D01*
X-23444Y-130601D01*
X-23444Y-130605D01*
X-23444Y-130606D01*
X-23444Y-130606D01*
X-23444Y-130610D01*
X-23445Y-130615D01*
Y-131545D01*
X-23446Y-131555D01*
X-23449Y-131564D01*
X-23453Y-131573D01*
X-23459Y-131581D01*
X-23467Y-131587D01*
X-23476Y-131591D01*
X-23485Y-131594D01*
X-23495Y-131595D01*
X-26495D01*
X-26505Y-131594D01*
X-26514Y-131591D01*
X-26523Y-131587D01*
X-26531Y-131581D01*
X-26537Y-131573D01*
X-26541Y-131564D01*
X-26544Y-131555D01*
X-26545Y-131545D01*
Y-126645D01*
X-26544Y-126635D01*
X-26541Y-126626D01*
X-26537Y-126617D01*
X-26531Y-126609D01*
X-26523Y-126603D01*
X-26514Y-126599D01*
X-26505Y-126596D01*
X-26495Y-126595D01*
X-23495D01*
X-23485Y-126596D01*
D02*
G37*
G36*
X-5645D02*
X-5636Y-126599D01*
X-5627Y-126603D01*
X-5619Y-126609D01*
X-5613Y-126617D01*
X-5609Y-126626D01*
X-5606Y-126635D01*
X-5605Y-126645D01*
Y-131545D01*
X-5606Y-131555D01*
X-5609Y-131564D01*
X-5613Y-131573D01*
X-5619Y-131581D01*
X-5627Y-131587D01*
X-5636Y-131591D01*
X-5645Y-131594D01*
X-5655Y-131595D01*
X-8655D01*
X-8665Y-131594D01*
X-8674Y-131591D01*
X-8683Y-131587D01*
X-8691Y-131581D01*
X-8697Y-131573D01*
X-8701Y-131564D01*
X-8704Y-131555D01*
X-8705Y-131545D01*
X-8705Y-130610D01*
D01*
Y-130609D01*
X-8705Y-130606D01*
X-8705Y-130602D01*
X-8704Y-130601D01*
X-8704Y-130600D01*
X-8703Y-130596D01*
X-8702Y-130593D01*
X-8702Y-130592D01*
X-8701Y-130590D01*
X-8699Y-130587D01*
X-8698Y-130584D01*
X-8698Y-130583D01*
X-8697Y-130582D01*
X-8694Y-130578D01*
X-8692Y-130576D01*
X-8692Y-130575D01*
X-8691Y-130574D01*
X-8687Y-130571D01*
X-8685Y-130569D01*
X-8684Y-130569D01*
X-8683Y-130568D01*
X-8682Y-130567D01*
X-8446Y-130374D01*
X-8221Y-130100D01*
X-8054Y-129787D01*
X-7951Y-129448D01*
X-7917Y-129095D01*
X-7951Y-128742D01*
X-8054Y-128403D01*
X-8221Y-128090D01*
X-8446Y-127816D01*
X-8669Y-127634D01*
X-8671Y-127633D01*
X-8675Y-127632D01*
X-8676Y-127631D01*
X-8676Y-127631D01*
X-8680Y-127629D01*
X-8684Y-127627D01*
X-8684Y-127626D01*
X-8685Y-127626D01*
X-8688Y-127623D01*
X-8691Y-127621D01*
X-8692Y-127620D01*
X-8692Y-127620D01*
X-8695Y-127616D01*
X-8698Y-127613D01*
X-8698Y-127612D01*
X-8698Y-127612D01*
X-8700Y-127608D01*
X-8702Y-127604D01*
X-8703Y-127604D01*
X-8703Y-127603D01*
X-8704Y-127599D01*
X-8705Y-127595D01*
X-8705Y-127594D01*
X-8705Y-127594D01*
X-8706Y-127589D01*
X-8706Y-127585D01*
X-8706Y-127584D01*
X-8706Y-127584D01*
X-8706Y-127580D01*
X-8705Y-127575D01*
Y-126645D01*
X-8704Y-126635D01*
X-8701Y-126626D01*
X-8697Y-126617D01*
X-8691Y-126609D01*
X-8683Y-126603D01*
X-8674Y-126599D01*
X-8665Y-126596D01*
X-8655Y-126595D01*
X-5655D01*
X-5645Y-126596D01*
D02*
G37*
G36*
X-77261Y-54970D02*
X-77260Y-54970D01*
X-77251Y-54972D01*
X-77242Y-54977D01*
X-77238Y-54981D01*
X-77234Y-54983D01*
X-77234Y-54983D01*
X-76784Y-55433D01*
X-76778Y-55441D01*
X-76774Y-55450D01*
X-76773Y-55452D01*
X-76771Y-55459D01*
X-76770Y-55464D01*
X-76770Y-55469D01*
X-76770Y-55469D01*
Y-56289D01*
X-76771Y-56299D01*
X-76774Y-56308D01*
X-76778Y-56317D01*
X-76784Y-56324D01*
X-76792Y-56331D01*
X-76801Y-56335D01*
X-76810Y-56338D01*
X-76820Y-56339D01*
X-80500D01*
X-80510Y-56338D01*
X-80519Y-56335D01*
X-80528Y-56331D01*
X-80536Y-56324D01*
X-80542Y-56317D01*
X-80546Y-56308D01*
X-80549Y-56299D01*
X-80550Y-56289D01*
Y-55019D01*
X-80549Y-55009D01*
X-80546Y-55000D01*
X-80542Y-54991D01*
X-80536Y-54983D01*
X-80528Y-54977D01*
X-80519Y-54972D01*
X-80510Y-54970D01*
X-80500Y-54969D01*
X-77270D01*
X-77270Y-54969D01*
X-77261Y-54970D01*
D02*
G37*
G36*
X-11398Y-675D02*
X-11396Y-675D01*
X-11348Y-679D01*
X-11347Y-679D01*
X-11345Y-679D01*
X-11292Y-686D01*
X-11289Y-687D01*
X-11285Y-688D01*
X-11232Y-703D01*
X-11230Y-703D01*
X-11228Y-704D01*
X-11185Y-720D01*
X-11183Y-721D01*
X-11181Y-722D01*
X-11139Y-742D01*
X-11137Y-743D01*
X-11134Y-745D01*
X-11090Y-773D01*
X-11088Y-774D01*
X-11087Y-775D01*
X-11049Y-804D01*
X-11047Y-805D01*
X-11046Y-806D01*
X-11007Y-840D01*
X-11004Y-843D01*
X-11001Y-846D01*
X-10972Y-882D01*
X-10971Y-883D01*
X-10971Y-884D01*
X-10943Y-921D01*
X-10941Y-923D01*
X-10940Y-926D01*
X-10916Y-967D01*
X-10915Y-969D01*
X-10914Y-970D01*
X-10894Y-1012D01*
X-10893Y-1014D01*
X-10892Y-1016D01*
X-10876Y-1058D01*
X-10875Y-1061D01*
X-10874Y-1064D01*
X-10862Y-1115D01*
X-10862Y-1117D01*
X-10861Y-1119D01*
X-10854Y-1164D01*
X-10854Y-1166D01*
X-10854Y-1168D01*
X-10850Y-1221D01*
X-10850Y-1223D01*
X-10850Y-1225D01*
Y-2125D01*
X-10850Y-2127D01*
X-10850Y-2129D01*
X-10854Y-2184D01*
X-10854Y-2186D01*
X-10855Y-2189D01*
X-10863Y-2234D01*
X-10863Y-2235D01*
X-10863Y-2237D01*
X-10875Y-2287D01*
X-10876Y-2290D01*
X-10877Y-2294D01*
X-10893Y-2334D01*
X-10906Y-2366D01*
X-10908Y-2370D01*
X-10910Y-2373D01*
X-10935Y-2416D01*
X-10936Y-2418D01*
X-10937Y-2420D01*
X-10963Y-2457D01*
X-10964Y-2458D01*
X-10965Y-2460D01*
X-10996Y-2498D01*
X-10999Y-2500D01*
X-11001Y-2503D01*
X-11046Y-2544D01*
X-11048Y-2546D01*
X-11050Y-2547D01*
X-11090Y-2577D01*
X-11092Y-2578D01*
X-11093Y-2579D01*
X-11139Y-2609D01*
X-11142Y-2610D01*
X-11145Y-2612D01*
X-11198Y-2636D01*
X-11201Y-2637D01*
X-11205Y-2638D01*
X-11292Y-2664D01*
X-11297Y-2665D01*
X-11301Y-2666D01*
X-11301Y-2666D01*
X-11301Y-2666D01*
X-11301D01*
X-11395Y-2675D01*
X-11398Y-2675D01*
X-11400Y-2675D01*
X-13000D01*
X-13010Y-2674D01*
X-13019Y-2671D01*
X-13028Y-2667D01*
X-13036Y-2661D01*
X-13042Y-2653D01*
X-13046Y-2644D01*
X-13049Y-2635D01*
X-13050Y-2625D01*
Y-725D01*
X-13049Y-715D01*
X-13046Y-706D01*
X-13042Y-697D01*
X-13036Y-689D01*
X-13028Y-683D01*
X-13019Y-679D01*
X-13010Y-676D01*
X-13000Y-675D01*
X-11400D01*
X-11398Y-675D01*
D02*
G37*
G36*
X-51024Y-676D02*
X-51015Y-679D01*
X-51006Y-683D01*
X-50998Y-689D01*
X-50992Y-697D01*
X-50988Y-706D01*
X-50985Y-715D01*
X-50984Y-725D01*
Y-2625D01*
X-50985Y-2635D01*
X-50988Y-2644D01*
X-50992Y-2653D01*
X-50998Y-2661D01*
X-51006Y-2667D01*
X-51015Y-2671D01*
X-51024Y-2674D01*
X-51034Y-2675D01*
X-52634D01*
X-52636Y-2675D01*
X-52638Y-2675D01*
X-52686Y-2671D01*
X-52687Y-2671D01*
X-52689Y-2671D01*
X-52742Y-2664D01*
X-52745Y-2663D01*
X-52749Y-2662D01*
X-52802Y-2647D01*
X-52804Y-2647D01*
X-52806Y-2646D01*
X-52849Y-2630D01*
X-52851Y-2629D01*
X-52853Y-2628D01*
X-52895Y-2608D01*
X-52897Y-2607D01*
X-52900Y-2605D01*
X-52944Y-2577D01*
X-52946Y-2576D01*
X-52947Y-2575D01*
X-52985Y-2546D01*
X-52987Y-2545D01*
X-52988Y-2544D01*
X-53027Y-2510D01*
X-53030Y-2507D01*
X-53033Y-2504D01*
X-53062Y-2468D01*
X-53063Y-2467D01*
X-53063Y-2466D01*
X-53091Y-2429D01*
X-53093Y-2427D01*
X-53094Y-2424D01*
X-53118Y-2383D01*
X-53119Y-2381D01*
X-53120Y-2380D01*
X-53140Y-2338D01*
X-53141Y-2336D01*
X-53142Y-2334D01*
X-53158Y-2292D01*
X-53159Y-2289D01*
X-53160Y-2286D01*
X-53172Y-2235D01*
X-53172Y-2233D01*
X-53173Y-2231D01*
X-53180Y-2186D01*
X-53180Y-2184D01*
X-53180Y-2182D01*
X-53184Y-2129D01*
X-53184Y-2127D01*
X-53184Y-2125D01*
Y-1225D01*
X-53184Y-1223D01*
X-53184Y-1221D01*
X-53180Y-1166D01*
X-53180Y-1164D01*
X-53179Y-1161D01*
X-53171Y-1116D01*
X-53171Y-1115D01*
X-53171Y-1113D01*
X-53159Y-1063D01*
X-53158Y-1060D01*
X-53157Y-1056D01*
X-53141Y-1016D01*
X-53128Y-984D01*
X-53126Y-980D01*
X-53124Y-977D01*
X-53099Y-934D01*
X-53098Y-932D01*
X-53097Y-930D01*
X-53071Y-893D01*
X-53070Y-892D01*
X-53069Y-890D01*
X-53038Y-852D01*
X-53035Y-850D01*
X-53033Y-847D01*
X-52988Y-806D01*
X-52986Y-804D01*
X-52984Y-803D01*
X-52944Y-773D01*
X-52942Y-772D01*
X-52941Y-771D01*
X-52895Y-742D01*
X-52892Y-740D01*
X-52889Y-738D01*
X-52836Y-714D01*
X-52833Y-713D01*
X-52829Y-712D01*
X-52742Y-686D01*
X-52737Y-685D01*
X-52733Y-684D01*
X-52733Y-684D01*
X-52733Y-684D01*
X-52733D01*
X-52639Y-675D01*
X-52636Y-675D01*
X-52634Y-675D01*
X-51034D01*
X-51024Y-676D01*
D02*
G37*
G36*
X-18190D02*
X-18181Y-679D01*
X-18172Y-683D01*
X-18164Y-689D01*
X-18158Y-697D01*
X-18154Y-706D01*
X-18151Y-715D01*
X-18150Y-725D01*
Y-2625D01*
X-18151Y-2635D01*
X-18154Y-2644D01*
X-18158Y-2653D01*
X-18164Y-2661D01*
X-18172Y-2667D01*
X-18181Y-2671D01*
X-18190Y-2674D01*
X-18200Y-2675D01*
X-19800D01*
X-19802Y-2675D01*
X-19804Y-2675D01*
X-19852Y-2671D01*
X-19853Y-2671D01*
X-19855Y-2671D01*
X-19908Y-2664D01*
X-19911Y-2663D01*
X-19915Y-2662D01*
X-19968Y-2647D01*
X-19970Y-2647D01*
X-19972Y-2646D01*
X-20015Y-2630D01*
X-20017Y-2629D01*
X-20019Y-2628D01*
X-20061Y-2608D01*
X-20063Y-2607D01*
X-20066Y-2605D01*
X-20110Y-2577D01*
X-20112Y-2576D01*
X-20113Y-2575D01*
X-20151Y-2546D01*
X-20153Y-2545D01*
X-20154Y-2544D01*
X-20193Y-2510D01*
X-20196Y-2507D01*
X-20199Y-2504D01*
X-20228Y-2468D01*
X-20229Y-2467D01*
X-20229Y-2466D01*
X-20257Y-2429D01*
X-20259Y-2427D01*
X-20260Y-2424D01*
X-20284Y-2383D01*
X-20285Y-2381D01*
X-20286Y-2380D01*
X-20306Y-2338D01*
X-20307Y-2336D01*
X-20308Y-2334D01*
X-20324Y-2292D01*
X-20325Y-2289D01*
X-20326Y-2286D01*
X-20338Y-2235D01*
X-20338Y-2233D01*
X-20339Y-2231D01*
X-20346Y-2186D01*
X-20346Y-2184D01*
X-20346Y-2182D01*
X-20350Y-2129D01*
X-20350Y-2127D01*
X-20350Y-2125D01*
Y-1225D01*
X-20350Y-1223D01*
X-20350Y-1221D01*
X-20346Y-1166D01*
X-20346Y-1164D01*
X-20345Y-1161D01*
X-20337Y-1116D01*
X-20337Y-1115D01*
X-20337Y-1113D01*
X-20325Y-1063D01*
X-20324Y-1060D01*
X-20323Y-1056D01*
X-20307Y-1016D01*
X-20294Y-984D01*
X-20292Y-980D01*
X-20290Y-977D01*
X-20265Y-934D01*
X-20264Y-932D01*
X-20263Y-930D01*
X-20237Y-893D01*
X-20236Y-892D01*
X-20235Y-890D01*
X-20204Y-852D01*
X-20201Y-850D01*
X-20199Y-847D01*
X-20154Y-806D01*
X-20152Y-804D01*
X-20150Y-803D01*
X-20110Y-773D01*
X-20108Y-772D01*
X-20107Y-771D01*
X-20061Y-742D01*
X-20058Y-740D01*
X-20055Y-738D01*
X-20002Y-714D01*
X-19999Y-713D01*
X-19995Y-712D01*
X-19908Y-686D01*
X-19903Y-685D01*
X-19899Y-684D01*
X-19899Y-684D01*
X-19899Y-684D01*
X-19899D01*
X-19805Y-675D01*
X-19802Y-675D01*
X-19800Y-675D01*
X-18200D01*
X-18190Y-676D01*
D02*
G37*
G36*
X-44232Y-675D02*
X-44230Y-675D01*
X-44182Y-679D01*
X-44181Y-679D01*
X-44179Y-679D01*
X-44126Y-686D01*
X-44123Y-687D01*
X-44119Y-688D01*
X-44066Y-703D01*
X-44064Y-703D01*
X-44062Y-704D01*
X-44019Y-720D01*
X-44017Y-721D01*
X-44015Y-722D01*
X-43973Y-742D01*
X-43971Y-743D01*
X-43968Y-745D01*
X-43924Y-773D01*
X-43922Y-774D01*
X-43921Y-775D01*
X-43883Y-804D01*
X-43881Y-805D01*
X-43880Y-806D01*
X-43841Y-840D01*
X-43838Y-843D01*
X-43835Y-846D01*
X-43806Y-882D01*
X-43805Y-883D01*
X-43805Y-884D01*
X-43777Y-921D01*
X-43775Y-923D01*
X-43774Y-926D01*
X-43750Y-967D01*
X-43749Y-969D01*
X-43748Y-970D01*
X-43728Y-1012D01*
X-43727Y-1014D01*
X-43726Y-1016D01*
X-43710Y-1058D01*
X-43709Y-1061D01*
X-43708Y-1064D01*
X-43696Y-1115D01*
X-43696Y-1117D01*
X-43695Y-1119D01*
X-43688Y-1164D01*
X-43688Y-1166D01*
X-43688Y-1168D01*
X-43684Y-1221D01*
X-43684Y-1223D01*
X-43684Y-1225D01*
Y-2125D01*
X-43684Y-2127D01*
X-43684Y-2129D01*
X-43688Y-2184D01*
X-43688Y-2186D01*
X-43689Y-2189D01*
X-43697Y-2234D01*
X-43697Y-2235D01*
X-43697Y-2237D01*
X-43709Y-2287D01*
X-43710Y-2290D01*
X-43711Y-2294D01*
X-43727Y-2334D01*
X-43740Y-2366D01*
X-43742Y-2370D01*
X-43744Y-2373D01*
X-43769Y-2416D01*
X-43770Y-2418D01*
X-43771Y-2420D01*
X-43797Y-2457D01*
X-43798Y-2458D01*
X-43799Y-2460D01*
X-43830Y-2498D01*
X-43833Y-2500D01*
X-43835Y-2503D01*
X-43880Y-2544D01*
X-43882Y-2546D01*
X-43884Y-2547D01*
X-43924Y-2577D01*
X-43926Y-2578D01*
X-43927Y-2579D01*
X-43973Y-2609D01*
X-43976Y-2610D01*
X-43979Y-2612D01*
X-44032Y-2636D01*
X-44035Y-2637D01*
X-44039Y-2638D01*
X-44126Y-2664D01*
X-44131Y-2665D01*
X-44135Y-2666D01*
X-44135Y-2666D01*
X-44135Y-2666D01*
X-44135D01*
X-44229Y-2675D01*
X-44232Y-2675D01*
X-44234Y-2675D01*
X-45834D01*
X-45844Y-2674D01*
X-45853Y-2671D01*
X-45862Y-2667D01*
X-45870Y-2661D01*
X-45876Y-2653D01*
X-45880Y-2644D01*
X-45883Y-2635D01*
X-45884Y-2625D01*
Y-725D01*
X-45883Y-715D01*
X-45880Y-706D01*
X-45876Y-697D01*
X-45870Y-689D01*
X-45862Y-683D01*
X-45853Y-679D01*
X-45844Y-676D01*
X-45834Y-675D01*
X-44234D01*
X-44232Y-675D01*
D02*
G37*
G36*
X-75100Y-21949D02*
X-71870D01*
X-71860Y-21950D01*
X-71851Y-21952D01*
X-71842Y-21957D01*
X-71834Y-21963D01*
X-71828Y-21971D01*
X-71824Y-21980D01*
X-71821Y-21989D01*
X-71820Y-21999D01*
Y-23269D01*
X-71821Y-23279D01*
X-71824Y-23288D01*
X-71828Y-23297D01*
X-71834Y-23304D01*
X-71842Y-23311D01*
X-71851Y-23315D01*
X-71860Y-23318D01*
X-71870Y-23319D01*
X-75550D01*
X-75560Y-23318D01*
X-75569Y-23315D01*
X-75578Y-23311D01*
X-75586Y-23304D01*
X-75592Y-23297D01*
X-75596Y-23288D01*
X-75599Y-23279D01*
X-75600Y-23269D01*
Y-22449D01*
X-75600Y-22449D01*
X-75600Y-22444D01*
X-75599Y-22439D01*
X-75597Y-22432D01*
X-75596Y-22430D01*
X-75592Y-22421D01*
X-75586Y-22413D01*
X-75136Y-21963D01*
X-75136Y-21963D01*
X-75132Y-21961D01*
X-75128Y-21957D01*
X-75119Y-21952D01*
X-75110Y-21950D01*
X-75109Y-21950D01*
X-75100Y-21949D01*
X-75100Y-21949D01*
D02*
G37*
G36*
X-76810Y-19410D02*
X-76801Y-19412D01*
X-76792Y-19417D01*
X-76784Y-19423D01*
X-76778Y-19431D01*
X-76774Y-19440D01*
X-76771Y-19449D01*
X-76770Y-19459D01*
Y-20279D01*
X-76770Y-20279D01*
X-76770Y-20284D01*
X-76771Y-20289D01*
X-76773Y-20296D01*
X-76774Y-20298D01*
X-76778Y-20307D01*
X-76784Y-20314D01*
X-77234Y-20764D01*
X-77234Y-20764D01*
X-77238Y-20767D01*
X-77242Y-20771D01*
X-77251Y-20775D01*
X-77260Y-20778D01*
X-77261Y-20778D01*
X-77270Y-20779D01*
X-77270Y-20779D01*
X-80500D01*
X-80510Y-20778D01*
X-80519Y-20775D01*
X-80528Y-20771D01*
X-80536Y-20764D01*
X-80542Y-20757D01*
X-80546Y-20748D01*
X-80549Y-20739D01*
X-80550Y-20729D01*
Y-19459D01*
X-80549Y-19449D01*
X-80546Y-19440D01*
X-80542Y-19431D01*
X-80536Y-19423D01*
X-80528Y-19417D01*
X-80519Y-19412D01*
X-80510Y-19410D01*
X-80500Y-19409D01*
X-76820D01*
X-76810Y-19410D01*
D02*
G37*
G36*
X-71860D02*
X-71851Y-19412D01*
X-71842Y-19417D01*
X-71834Y-19423D01*
X-71828Y-19431D01*
X-71824Y-19440D01*
X-71821Y-19449D01*
X-71820Y-19459D01*
Y-20729D01*
X-71821Y-20739D01*
X-71824Y-20748D01*
X-71828Y-20757D01*
X-71834Y-20764D01*
X-71842Y-20771D01*
X-71851Y-20775D01*
X-71860Y-20778D01*
X-71870Y-20779D01*
X-75100D01*
X-75100Y-20779D01*
X-75109Y-20778D01*
X-75110Y-20778D01*
X-75119Y-20775D01*
X-75128Y-20771D01*
X-75132Y-20767D01*
X-75136Y-20764D01*
X-75136Y-20764D01*
X-75586Y-20314D01*
X-75592Y-20307D01*
X-75596Y-20298D01*
X-75597Y-20296D01*
X-75599Y-20289D01*
X-75600Y-20284D01*
X-75600Y-20279D01*
X-75600Y-20279D01*
Y-19459D01*
X-75599Y-19449D01*
X-75596Y-19440D01*
X-75592Y-19431D01*
X-75586Y-19423D01*
X-75578Y-19417D01*
X-75569Y-19412D01*
X-75560Y-19410D01*
X-75550Y-19409D01*
X-71870D01*
X-71860Y-19410D01*
D02*
G37*
D99*
X-9675Y-95875D02*
D03*
X-7675D02*
D03*
X-9675Y-96875D02*
D03*
Y-94875D02*
D03*
X-7675Y-96875D02*
D03*
Y-94875D02*
D03*
X-8675Y-95875D02*
D03*
Y-96875D02*
D03*
Y-94875D02*
D03*
D103*
X-33028Y-129200D02*
D03*
X-57627D02*
D03*
D162*
X-58755Y-61225D02*
D03*
X-54570Y-32575D02*
D03*
D163*
X-37325Y-84125D02*
D03*
X-40225D02*
D03*
D164*
X-43175Y-34250D02*
D03*
Y-35650D02*
D03*
X-51300Y-32426D02*
D03*
Y-33826D02*
D03*
X-1925Y-99175D02*
D03*
Y-97775D02*
D03*
D165*
X-60175Y-31925D02*
D03*
X-56375D02*
D03*
Y-34225D02*
D03*
X-60175D02*
D03*
D166*
X-83850Y-13825D02*
D03*
Y-8325D02*
D03*
X-87850D02*
D03*
Y-13825D02*
D03*
X-31000Y-7650D02*
D03*
Y-2150D02*
D03*
X-35000D02*
D03*
Y-7650D02*
D03*
X-24000D02*
D03*
Y-2150D02*
D03*
X-28000D02*
D03*
Y-7650D02*
D03*
X-83850Y-24450D02*
D03*
Y-18950D02*
D03*
X-87850D02*
D03*
Y-24450D02*
D03*
D167*
X-52305Y-127300D02*
D03*
Y-124400D02*
D03*
X-55605D02*
D03*
Y-127300D02*
D03*
D168*
X-76625Y-102675D02*
D03*
Y-103875D02*
D03*
X-56500Y-94025D02*
D03*
Y-92825D02*
D03*
X-74200Y-117825D02*
D03*
Y-116625D02*
D03*
X-87725Y-117350D02*
D03*
Y-116150D02*
D03*
X-77075Y-117350D02*
D03*
Y-116150D02*
D03*
X-70300Y-112200D02*
D03*
Y-111000D02*
D03*
X-67900Y-114900D02*
D03*
Y-113700D02*
D03*
X-69225Y-114900D02*
D03*
Y-113700D02*
D03*
X-81725Y-113650D02*
D03*
Y-114850D02*
D03*
X-83075Y-113650D02*
D03*
Y-114850D02*
D03*
X-16875Y-95975D02*
D03*
Y-97175D02*
D03*
X-59700Y-126100D02*
D03*
Y-127300D02*
D03*
X-57377Y-104550D02*
D03*
Y-105750D02*
D03*
X-53678Y-104550D02*
D03*
Y-105750D02*
D03*
X-55377Y-104550D02*
D03*
Y-105750D02*
D03*
X-36253Y-104550D02*
D03*
Y-105750D02*
D03*
X-38753Y-104550D02*
D03*
Y-105750D02*
D03*
X-41253Y-104550D02*
D03*
Y-105750D02*
D03*
X-25325Y-64300D02*
D03*
Y-63100D02*
D03*
X-57997Y-72400D02*
D03*
Y-73600D02*
D03*
X-54100Y-87475D02*
D03*
Y-88675D02*
D03*
X-26025Y-95269D02*
D03*
Y-96469D02*
D03*
X-23475Y-95275D02*
D03*
Y-96475D02*
D03*
X-69225Y-117400D02*
D03*
Y-116200D02*
D03*
X-81725Y-116150D02*
D03*
Y-117350D02*
D03*
X-83075Y-116150D02*
D03*
Y-117350D02*
D03*
X-35675Y-11350D02*
D03*
Y-12550D02*
D03*
X-67900Y-117400D02*
D03*
Y-116200D02*
D03*
D169*
X-70400Y-102025D02*
D03*
X-71600D02*
D03*
X-85075Y-106400D02*
D03*
X-83875D02*
D03*
X-64975Y-116125D02*
D03*
X-66175D02*
D03*
X-72150D02*
D03*
X-70950D02*
D03*
X-66875Y-112025D02*
D03*
X-68075D02*
D03*
X-84650Y-110400D02*
D03*
X-83450D02*
D03*
X-84650Y-109250D02*
D03*
X-83450D02*
D03*
X-66125Y-104000D02*
D03*
X-67325D02*
D03*
X-71900Y-107875D02*
D03*
X-73100D02*
D03*
X-25794Y-87623D02*
D03*
X-24594D02*
D03*
X-25788Y-84173D02*
D03*
X-24588D02*
D03*
X-24594Y-88773D02*
D03*
X-25794D02*
D03*
X-25794Y-89923D02*
D03*
X-24594D02*
D03*
X-25794Y-81873D02*
D03*
X-24594D02*
D03*
X-25794Y-83023D02*
D03*
X-24594D02*
D03*
X-25794Y-86473D02*
D03*
X-24594D02*
D03*
X-27869Y-88773D02*
D03*
X-29069D02*
D03*
X-12850Y-94825D02*
D03*
X-14050D02*
D03*
X-27869Y-85323D02*
D03*
X-29069D02*
D03*
X-27869Y-89923D02*
D03*
X-29069D02*
D03*
X-27869Y-81873D02*
D03*
X-29069D02*
D03*
X-27869Y-83023D02*
D03*
X-29069D02*
D03*
X-27869Y-86473D02*
D03*
X-29069D02*
D03*
X-27869Y-87623D02*
D03*
X-29069D02*
D03*
X-27869Y-84173D02*
D03*
X-29069D02*
D03*
X-14550Y-97250D02*
D03*
X-13350D02*
D03*
X-23900Y-105800D02*
D03*
X-22700D02*
D03*
X-9450Y-105775D02*
D03*
X-8250D02*
D03*
X-27869Y-91048D02*
D03*
X-29069D02*
D03*
X-34925Y-88425D02*
D03*
X-36125D02*
D03*
X-42300Y-87375D02*
D03*
X-43500D02*
D03*
X-42300Y-88525D02*
D03*
X-43500D02*
D03*
X-42300Y-89675D02*
D03*
X-43500D02*
D03*
X-86450Y-29969D02*
D03*
X-85250D02*
D03*
X-52528Y-34968D02*
D03*
X-53728D02*
D03*
X-48475Y-90650D02*
D03*
X-49675D02*
D03*
X-48475Y-89500D02*
D03*
X-49675D02*
D03*
X-66125Y-105150D02*
D03*
X-67325D02*
D03*
X-66125Y-106300D02*
D03*
X-67325D02*
D03*
X-66125Y-108600D02*
D03*
X-67325D02*
D03*
X-60000Y-83675D02*
D03*
X-58800D02*
D03*
X-66125Y-109750D02*
D03*
X-67325D02*
D03*
X-66125Y-107450D02*
D03*
X-67325D02*
D03*
X-64475Y-86119D02*
D03*
X-65675D02*
D03*
X-64475Y-83594D02*
D03*
X-65675D02*
D03*
X-64475Y-81069D02*
D03*
X-65675D02*
D03*
X-64475Y-78519D02*
D03*
X-65675D02*
D03*
X-64475Y-73444D02*
D03*
X-65675D02*
D03*
X-64475Y-70894D02*
D03*
X-65675D02*
D03*
X-64475Y-68369D02*
D03*
X-65675D02*
D03*
X-64475Y-55644D02*
D03*
X-65675D02*
D03*
X-12050Y-73175D02*
D03*
X-10850D02*
D03*
X-23100Y-75969D02*
D03*
X-21900D02*
D03*
X-23100Y-73419D02*
D03*
X-21900D02*
D03*
X-12050Y-45125D02*
D03*
X-10850D02*
D03*
X-12050Y-43975D02*
D03*
X-10850D02*
D03*
X-21900Y-78525D02*
D03*
X-23100D02*
D03*
X-57550Y-85325D02*
D03*
X-58750D02*
D03*
D170*
X-20975Y-10675D02*
D03*
X-21975D02*
D03*
X-31150Y-9850D02*
D03*
X-30150D02*
D03*
X-24100Y-9800D02*
D03*
X-23100D02*
D03*
X-21975D02*
D03*
X-20975D02*
D03*
D171*
X-73991Y-113525D02*
D03*
X-71959D02*
D03*
X-78034Y-114300D02*
D03*
X-80066D02*
D03*
X-31725Y-45725D02*
D03*
X-29693D02*
D03*
X-13150Y-93275D02*
D03*
X-15182D02*
D03*
D172*
X-8175Y-104225D02*
D03*
X-9575D02*
D03*
X-58075Y-46400D02*
D03*
X-59475D02*
D03*
X-11200Y-7500D02*
D03*
X-12600D02*
D03*
X-4025Y-118075D02*
D03*
X-2625D02*
D03*
D173*
X-58750Y-60375D02*
D03*
Y-62075D02*
D03*
X-54575Y-33425D02*
D03*
Y-31725D02*
D03*
D174*
X-77750Y-103825D02*
D03*
Y-102725D02*
D03*
X-78850Y-104325D02*
D03*
Y-103225D02*
D03*
X-79975Y-104325D02*
D03*
Y-103225D02*
D03*
X-58975Y-92875D02*
D03*
Y-93975D02*
D03*
X-75250Y-103832D02*
D03*
Y-102732D02*
D03*
X-15750Y-96025D02*
D03*
Y-97125D02*
D03*
X-5100Y-99125D02*
D03*
Y-100225D02*
D03*
X-11525Y-101000D02*
D03*
Y-99900D02*
D03*
X-10250Y-99650D02*
D03*
Y-100750D02*
D03*
X-46248Y-104600D02*
D03*
Y-105700D02*
D03*
X-25325Y-68650D02*
D03*
Y-67550D02*
D03*
X-36225Y-76275D02*
D03*
Y-77375D02*
D03*
X-53275Y-33475D02*
D03*
Y-32375D02*
D03*
X-51300Y-36750D02*
D03*
Y-35650D02*
D03*
X-47250Y-63250D02*
D03*
Y-64350D02*
D03*
X-36250Y-63250D02*
D03*
Y-64350D02*
D03*
X-50750Y-63250D02*
D03*
Y-64350D02*
D03*
X-56250Y-120380D02*
D03*
Y-119280D02*
D03*
X-4075Y-113025D02*
D03*
Y-114125D02*
D03*
Y-116650D02*
D03*
Y-115550D02*
D03*
D175*
X-81175Y-104374D02*
D03*
Y-102977D02*
D03*
X-74025Y-103881D02*
D03*
Y-102484D02*
D03*
X-76600Y-112002D02*
D03*
Y-113398D02*
D03*
X-75400Y-112002D02*
D03*
Y-113398D02*
D03*
D176*
X-61925Y-85625D02*
D03*
X-60825D02*
D03*
X-74050Y-110875D02*
D03*
X-72950D02*
D03*
X-74050Y-111975D02*
D03*
X-72950D02*
D03*
X-78325Y-112750D02*
D03*
X-79425D02*
D03*
X-79750Y-106700D02*
D03*
X-80850D02*
D03*
X-79750Y-107800D02*
D03*
X-80850D02*
D03*
X-66125Y-117500D02*
D03*
X-65025D02*
D03*
X-71000D02*
D03*
X-72100D02*
D03*
X-80850Y-105600D02*
D03*
X-79750D02*
D03*
X-80500Y-110375D02*
D03*
X-81600D02*
D03*
X-80500Y-109275D02*
D03*
X-81600D02*
D03*
X-84850Y-117350D02*
D03*
X-85950D02*
D03*
X-79950D02*
D03*
X-78850D02*
D03*
X-84850Y-116150D02*
D03*
X-85950D02*
D03*
X-79950D02*
D03*
X-78850D02*
D03*
X-69425Y-107875D02*
D03*
X-70525D02*
D03*
X-13400Y-96125D02*
D03*
X-14500D02*
D03*
X-4950Y-97825D02*
D03*
X-3850D02*
D03*
X-16200Y-98650D02*
D03*
X-15100D02*
D03*
X-4950Y-94625D02*
D03*
X-3850D02*
D03*
X-37475Y-82475D02*
D03*
X-38575D02*
D03*
X-37475Y-86925D02*
D03*
X-38575D02*
D03*
X-58800Y-35750D02*
D03*
X-59900D02*
D03*
X-61675Y-59075D02*
D03*
X-62775D02*
D03*
X-58725D02*
D03*
X-59825D02*
D03*
X-58250Y-45250D02*
D03*
X-59350D02*
D03*
X-43275Y-36900D02*
D03*
X-44375D02*
D03*
X-31750Y-41750D02*
D03*
X-30650D02*
D03*
X-31750Y-54150D02*
D03*
X-30650D02*
D03*
X-58250Y-57250D02*
D03*
X-59350D02*
D03*
X-58250Y-54650D02*
D03*
X-59350D02*
D03*
X-58250Y-42200D02*
D03*
X-59350D02*
D03*
X-55500Y-38250D02*
D03*
X-56600D02*
D03*
X-48800Y-36900D02*
D03*
X-47700D02*
D03*
X-31750Y-47250D02*
D03*
X-30650D02*
D03*
X-31750Y-55250D02*
D03*
X-30650D02*
D03*
X-58250Y-55750D02*
D03*
X-59350D02*
D03*
X-58250Y-43300D02*
D03*
X-59350D02*
D03*
X-55100Y-85350D02*
D03*
X-56200D02*
D03*
X-54475Y-116580D02*
D03*
X-53375D02*
D03*
X-55850D02*
D03*
X-56950D02*
D03*
D177*
X-78276Y-111550D02*
D03*
X-79674D02*
D03*
X-76352Y-101075D02*
D03*
X-77748D02*
D03*
D178*
X-70333Y-113851D02*
D03*
X-70333Y-114901D02*
D03*
X-66802Y-113851D02*
D03*
X-66802Y-114901D02*
D03*
D179*
X-3525Y-99150D02*
D03*
Y-101182D02*
D03*
X-47823Y-104550D02*
D03*
Y-106582D02*
D03*
X-83325Y-104266D02*
D03*
Y-102234D02*
D03*
D180*
X-5900Y-102500D02*
D03*
Y-104150D02*
D03*
D181*
X-9875Y-102550D02*
D03*
X-8225D02*
D03*
X-53125Y-122455D02*
D03*
X-54775D02*
D03*
D182*
X-67925Y-119025D02*
D03*
X-80425Y-119075D02*
D03*
D183*
X-63375Y-128775D02*
D03*
X-72475D02*
D03*
X-64075Y-122025D02*
D03*
X-71775D02*
D03*
X-75875Y-128825D02*
D03*
X-84975D02*
D03*
X-76575Y-122075D02*
D03*
X-84275D02*
D03*
D184*
X-24075Y-10675D02*
D03*
X-23125D02*
D03*
D185*
X-52100Y-7478D02*
D03*
Y-6478D02*
D03*
X-19000Y-7400D02*
D03*
Y-6400D02*
D03*
X-82050Y-24425D02*
D03*
Y-25425D02*
D03*
D186*
X-16325Y-7178D02*
D03*
X-49159Y-7178D02*
D03*
D187*
X-16325Y-8878D02*
D03*
X-14225D02*
D03*
Y-6978D02*
D03*
X-47059Y-6978D02*
D03*
Y-8878D02*
D03*
X-49159D02*
D03*
D188*
X-51200Y-6503D02*
D03*
Y-7453D02*
D03*
X-11300Y-9575D02*
D03*
Y-8625D02*
D03*
X-12600Y-9575D02*
D03*
Y-8625D02*
D03*
X-18100Y-6425D02*
D03*
Y-7375D02*
D03*
X-52450Y-36025D02*
D03*
Y-36975D02*
D03*
D189*
X-34150Y-12000D02*
D03*
X-32050D02*
D03*
X-84954Y-28350D02*
D03*
X-87054D02*
D03*
D190*
X-6500Y-1450D02*
D03*
Y-3550D02*
D03*
X-8750Y-1450D02*
D03*
Y-3550D02*
D03*
D191*
X-49734Y-4475D02*
D03*
X-49084D02*
D03*
X-47134D02*
D03*
X-47784D02*
D03*
X-48434D02*
D03*
X-16900D02*
D03*
X-16250D02*
D03*
X-15600D02*
D03*
X-14950D02*
D03*
X-14300D02*
D03*
D192*
X-62125Y-40125D02*
D03*
X-59175D02*
D03*
D193*
X-62325Y-3350D02*
D03*
Y-12950D02*
D03*
D194*
X-42925Y-76220D02*
D03*
Y-77490D02*
D03*
Y-78760D02*
D03*
Y-80030D02*
D03*
X-38125Y-76220D02*
D03*
Y-77490D02*
D03*
Y-78760D02*
D03*
Y-80030D02*
D03*
D195*
X-55550Y-87100D02*
D03*
X-56050D02*
D03*
X-56550D02*
D03*
X-57050D02*
D03*
X-57550D02*
D03*
X-55550Y-91100D02*
D03*
X-56050D02*
D03*
X-56550D02*
D03*
X-57050D02*
D03*
X-57550D02*
D03*
D196*
X-53750Y-39450D02*
D03*
X-53250D02*
D03*
X-52750D02*
D03*
X-52250D02*
D03*
X-51750D02*
D03*
X-51250D02*
D03*
X-50750D02*
D03*
X-49250D02*
D03*
X-48750D02*
D03*
X-48250D02*
D03*
X-47750D02*
D03*
X-47250D02*
D03*
X-46750D02*
D03*
X-46250D02*
D03*
X-45750D02*
D03*
X-45250D02*
D03*
X-44750D02*
D03*
X-44250D02*
D03*
X-43750D02*
D03*
X-43250D02*
D03*
X-42750D02*
D03*
X-42250D02*
D03*
X-41750D02*
D03*
X-41250D02*
D03*
X-40750D02*
D03*
X-40250D02*
D03*
X-39750D02*
D03*
X-39250D02*
D03*
X-38750D02*
D03*
X-38250D02*
D03*
X-37750D02*
D03*
X-37250D02*
D03*
X-36750D02*
D03*
X-36250D02*
D03*
Y-60550D02*
D03*
X-36750D02*
D03*
X-37250D02*
D03*
X-37750D02*
D03*
X-38250D02*
D03*
X-38750D02*
D03*
X-39250D02*
D03*
X-39750D02*
D03*
X-40250D02*
D03*
X-40750D02*
D03*
X-41250D02*
D03*
X-41750D02*
D03*
X-42250D02*
D03*
X-42750D02*
D03*
X-43250D02*
D03*
X-43750D02*
D03*
X-44250D02*
D03*
X-44750D02*
D03*
X-45250D02*
D03*
X-45750D02*
D03*
X-46250D02*
D03*
X-46750D02*
D03*
X-47250D02*
D03*
X-47750D02*
D03*
X-48250D02*
D03*
X-48750D02*
D03*
X-49250D02*
D03*
X-49750D02*
D03*
X-50250D02*
D03*
X-50750D02*
D03*
X-51250D02*
D03*
X-51750D02*
D03*
X-52250D02*
D03*
X-52750D02*
D03*
X-53250D02*
D03*
X-53750D02*
D03*
X-49750Y-39450D02*
D03*
X-50250D02*
D03*
D197*
X-34400Y-41250D02*
D03*
Y-41750D02*
D03*
Y-42250D02*
D03*
Y-42750D02*
D03*
Y-43250D02*
D03*
Y-43750D02*
D03*
Y-44250D02*
D03*
Y-44750D02*
D03*
Y-45250D02*
D03*
Y-45750D02*
D03*
Y-46250D02*
D03*
Y-46750D02*
D03*
Y-47250D02*
D03*
Y-47750D02*
D03*
Y-48250D02*
D03*
Y-48750D02*
D03*
Y-49250D02*
D03*
Y-49750D02*
D03*
Y-50250D02*
D03*
Y-50750D02*
D03*
Y-51250D02*
D03*
Y-51750D02*
D03*
Y-52250D02*
D03*
Y-52750D02*
D03*
Y-53250D02*
D03*
Y-53750D02*
D03*
Y-54250D02*
D03*
Y-54750D02*
D03*
Y-55250D02*
D03*
Y-55750D02*
D03*
Y-56250D02*
D03*
Y-56750D02*
D03*
Y-57250D02*
D03*
Y-57750D02*
D03*
Y-58250D02*
D03*
Y-58750D02*
D03*
X-55600D02*
D03*
Y-58250D02*
D03*
Y-57750D02*
D03*
Y-57250D02*
D03*
Y-56750D02*
D03*
Y-56250D02*
D03*
Y-55750D02*
D03*
Y-55250D02*
D03*
Y-54750D02*
D03*
Y-54250D02*
D03*
Y-53750D02*
D03*
Y-53250D02*
D03*
Y-52750D02*
D03*
Y-52250D02*
D03*
Y-51750D02*
D03*
Y-51250D02*
D03*
Y-50750D02*
D03*
Y-50250D02*
D03*
Y-49750D02*
D03*
Y-49250D02*
D03*
Y-48750D02*
D03*
Y-48250D02*
D03*
Y-47750D02*
D03*
Y-47250D02*
D03*
Y-46750D02*
D03*
Y-46250D02*
D03*
Y-45750D02*
D03*
Y-45250D02*
D03*
Y-44750D02*
D03*
Y-44250D02*
D03*
Y-43750D02*
D03*
Y-43250D02*
D03*
Y-42750D02*
D03*
Y-42250D02*
D03*
Y-41750D02*
D03*
Y-41250D02*
D03*
D198*
X-38975Y-88775D02*
D03*
D199*
X-40450Y-88025D02*
D03*
Y-88525D02*
D03*
Y-89525D02*
D03*
Y-89025D02*
D03*
X-37500D02*
D03*
Y-89525D02*
D03*
Y-88525D02*
D03*
Y-88025D02*
D03*
D200*
X-8675Y-95875D02*
D03*
D201*
X-6325Y-94125D02*
D03*
Y-94625D02*
D03*
Y-95125D02*
D03*
Y-95625D02*
D03*
Y-96125D02*
D03*
Y-96625D02*
D03*
Y-97125D02*
D03*
Y-97625D02*
D03*
X-11025Y-94125D02*
D03*
Y-94625D02*
D03*
Y-95125D02*
D03*
Y-95625D02*
D03*
Y-96125D02*
D03*
Y-96625D02*
D03*
Y-97125D02*
D03*
Y-97625D02*
D03*
D202*
X-6925Y-98225D02*
D03*
X-9425D02*
D03*
X-9925D02*
D03*
X-10425D02*
D03*
X-8425D02*
D03*
X-8925D02*
D03*
X-7425D02*
D03*
X-7925D02*
D03*
X-6925Y-93525D02*
D03*
X-10425D02*
D03*
X-8425D02*
D03*
X-7925D02*
D03*
X-7425D02*
D03*
X-8925D02*
D03*
X-9425D02*
D03*
X-9925D02*
D03*
D203*
X-51972Y-80075D02*
D03*
X-52622D02*
D03*
X-55222D02*
D03*
X-55872D02*
D03*
X-51972Y-79425D02*
D03*
X-52622D02*
D03*
X-55222D02*
D03*
X-55872D02*
D03*
X-51972Y-78775D02*
D03*
X-52622D02*
D03*
X-55222D02*
D03*
X-55872D02*
D03*
X-51972Y-78125D02*
D03*
X-52622D02*
D03*
X-55222D02*
D03*
X-55872D02*
D03*
X-51972Y-77475D02*
D03*
X-52622D02*
D03*
X-55222D02*
D03*
X-55872D02*
D03*
X-51972Y-76825D02*
D03*
X-52622D02*
D03*
X-55222D02*
D03*
X-55872D02*
D03*
X-51972Y-76175D02*
D03*
X-52622D02*
D03*
X-55222D02*
D03*
X-55872D02*
D03*
X-51972Y-75525D02*
D03*
X-52622D02*
D03*
X-55222D02*
D03*
X-55872D02*
D03*
X-51972Y-74875D02*
D03*
X-52622D02*
D03*
X-55222D02*
D03*
X-55872D02*
D03*
X-51972Y-74225D02*
D03*
X-52622D02*
D03*
X-55222D02*
D03*
X-55872D02*
D03*
X-51972Y-73575D02*
D03*
X-52622D02*
D03*
X-55222D02*
D03*
X-55872D02*
D03*
X-51972Y-72925D02*
D03*
X-52622D02*
D03*
X-55222D02*
D03*
X-55872D02*
D03*
X-51972Y-72275D02*
D03*
X-52622D02*
D03*
X-55222D02*
D03*
X-55872D02*
D03*
X-51972Y-71625D02*
D03*
X-52622D02*
D03*
X-55222D02*
D03*
X-55872D02*
D03*
X-51972Y-70975D02*
D03*
X-52622D02*
D03*
X-55222D02*
D03*
X-55872D02*
D03*
D204*
X-28650Y-65800D02*
D03*
D205*
X-26745Y-68500D02*
D03*
X-28015D02*
D03*
X-29285D02*
D03*
X-30555D02*
D03*
Y-63100D02*
D03*
X-29285D02*
D03*
X-28015D02*
D03*
X-26745D02*
D03*
D206*
X-53950Y-119080D02*
D03*
D207*
X-52975Y-120493D02*
D03*
X-53625D02*
D03*
X-54275D02*
D03*
X-54925D02*
D03*
Y-117668D02*
D03*
X-54275D02*
D03*
X-53625D02*
D03*
X-52975D02*
D03*
D208*
X-37325Y-83375D02*
D03*
Y-83875D02*
D03*
Y-84375D02*
D03*
Y-84875D02*
D03*
X-40225D02*
D03*
Y-84375D02*
D03*
Y-83875D02*
D03*
Y-83375D02*
D03*
D209*
X-38775Y-84125D02*
D03*
D210*
X-77800Y-109725D02*
D03*
X-77400D02*
D03*
X-77000D02*
D03*
X-76600D02*
D03*
X-76200D02*
D03*
X-75800D02*
D03*
X-75400D02*
D03*
X-75000D02*
D03*
X-77800Y-105625D02*
D03*
X-77400D02*
D03*
X-77000D02*
D03*
X-76600D02*
D03*
X-76200D02*
D03*
X-75800D02*
D03*
X-75400D02*
D03*
X-75000D02*
D03*
D211*
X-74350Y-109075D02*
D03*
Y-108675D02*
D03*
Y-108275D02*
D03*
Y-107875D02*
D03*
Y-107475D02*
D03*
Y-107075D02*
D03*
Y-106675D02*
D03*
Y-106275D02*
D03*
X-78450Y-109075D02*
D03*
Y-108675D02*
D03*
Y-108275D02*
D03*
Y-107875D02*
D03*
Y-107475D02*
D03*
Y-107075D02*
D03*
Y-106675D02*
D03*
Y-106275D02*
D03*
D212*
X-76400Y-107675D02*
D03*
D213*
X-59375Y-87300D02*
D03*
Y-91100D02*
D03*
X-61675D02*
D03*
Y-87300D02*
D03*
D214*
X-60175Y-60625D02*
D03*
X-62775D02*
D03*
D215*
X-61475Y-66875D02*
D03*
D216*
X-13276Y-104314D02*
D03*
Y-100614D02*
D03*
X-15476D02*
D03*
Y-104314D02*
D03*
D217*
X-25495Y-129095D02*
D03*
X-6655D02*
D03*
D218*
X-22685Y-109175D02*
D03*
X-20845D02*
D03*
X-11305D02*
D03*
X-9465D02*
D03*
D219*
X-19645D02*
D03*
X-18625D02*
D03*
X-17605D02*
D03*
X-16585D02*
D03*
X-15565D02*
D03*
X-13525D02*
D03*
X-12505D02*
D03*
X-14545D02*
D03*
D220*
X-86150Y-69600D02*
D03*
Y-70100D02*
D03*
Y-70600D02*
D03*
Y-71100D02*
D03*
Y-71600D02*
D03*
Y-72100D02*
D03*
Y-72600D02*
D03*
Y-73100D02*
D03*
Y-73600D02*
D03*
Y-74100D02*
D03*
Y-74600D02*
D03*
Y-75100D02*
D03*
Y-75600D02*
D03*
Y-76100D02*
D03*
Y-76600D02*
D03*
Y-77100D02*
D03*
Y-77600D02*
D03*
Y-78100D02*
D03*
Y-78600D02*
D03*
Y-79100D02*
D03*
Y-79600D02*
D03*
Y-80100D02*
D03*
Y-80600D02*
D03*
Y-81100D02*
D03*
Y-81600D02*
D03*
Y-82100D02*
D03*
Y-82600D02*
D03*
Y-83100D02*
D03*
Y-83600D02*
D03*
Y-84100D02*
D03*
Y-84600D02*
D03*
Y-85100D02*
D03*
Y-85600D02*
D03*
Y-86100D02*
D03*
Y-86600D02*
D03*
Y-87100D02*
D03*
Y-87600D02*
D03*
Y-88100D02*
D03*
Y-88600D02*
D03*
Y-89100D02*
D03*
Y-89600D02*
D03*
Y-90100D02*
D03*
Y-90600D02*
D03*
Y-91100D02*
D03*
Y-91600D02*
D03*
Y-69100D02*
D03*
Y-68600D02*
D03*
Y-68100D02*
D03*
Y-67600D02*
D03*
Y-67100D02*
D03*
D221*
X-87850Y-65430D02*
D03*
Y-93270D02*
D03*
D222*
X-78000Y-80775D02*
D03*
Y-87125D02*
D03*
D223*
Y-75885D02*
D03*
Y-92015D02*
D03*
D224*
X-75130Y-91200D02*
D03*
X-80870D02*
D03*
X-75130Y-90700D02*
D03*
X-80870D02*
D03*
X-75130Y-89700D02*
D03*
X-80870D02*
D03*
X-75130Y-89200D02*
D03*
X-80870D02*
D03*
X-75130Y-88200D02*
D03*
X-80870D02*
D03*
X-75130Y-87700D02*
D03*
X-80870D02*
D03*
X-75130Y-86700D02*
D03*
X-80870D02*
D03*
X-75130Y-86200D02*
D03*
X-80870D02*
D03*
X-75130Y-85200D02*
D03*
X-80870D02*
D03*
X-75130Y-84700D02*
D03*
X-80870D02*
D03*
X-75130Y-83700D02*
D03*
X-80870D02*
D03*
X-75130Y-83200D02*
D03*
X-80870D02*
D03*
X-75130Y-82200D02*
D03*
X-80870D02*
D03*
X-75130Y-81700D02*
D03*
X-80870D02*
D03*
X-75130Y-80700D02*
D03*
X-80870D02*
D03*
X-75130Y-80200D02*
D03*
X-80870D02*
D03*
X-75130Y-79200D02*
D03*
X-80870D02*
D03*
X-75130Y-78700D02*
D03*
X-80870D02*
D03*
X-75130Y-77700D02*
D03*
X-80870D02*
D03*
X-75130Y-77200D02*
D03*
X-80870D02*
D03*
D225*
X-73467Y-55654D02*
D03*
X-78903D02*
D03*
X-73467Y-53114D02*
D03*
X-78903D02*
D03*
X-73467Y-22634D02*
D03*
X-78903D02*
D03*
X-73467Y-20094D02*
D03*
X-78903D02*
D03*
D226*
X-73708Y-50574D02*
D03*
X-78661D02*
D03*
X-73708Y-48034D02*
D03*
X-78661D02*
D03*
X-73708Y-45494D02*
D03*
X-78661D02*
D03*
X-73708Y-42954D02*
D03*
X-78661D02*
D03*
X-73708Y-40414D02*
D03*
X-78661D02*
D03*
X-73708Y-37874D02*
D03*
X-78661D02*
D03*
X-73708Y-35334D02*
D03*
X-78661D02*
D03*
X-73708Y-32794D02*
D03*
X-78661D02*
D03*
X-73708Y-30254D02*
D03*
X-78661D02*
D03*
X-73708Y-27714D02*
D03*
X-78661D02*
D03*
X-73708Y-25174D02*
D03*
X-78661D02*
D03*
D227*
X-46040Y-21910D02*
D03*
Y-17840D02*
D03*
X-44770Y-21910D02*
D03*
Y-17840D02*
D03*
X-43500Y-21910D02*
D03*
Y-17840D02*
D03*
X-42230Y-21910D02*
D03*
Y-17840D02*
D03*
X-40960Y-21910D02*
D03*
Y-17840D02*
D03*
X-39690Y-21910D02*
D03*
Y-17840D02*
D03*
X-38420Y-21910D02*
D03*
Y-17840D02*
D03*
X-37150Y-21910D02*
D03*
Y-17840D02*
D03*
X-35880Y-21910D02*
D03*
Y-17840D02*
D03*
X-34610Y-21910D02*
D03*
Y-17840D02*
D03*
D228*
X-47284Y-1675D02*
D03*
X-49584D02*
D03*
X-14450D02*
D03*
X-16750D02*
D03*
D229*
X-61550Y-42960D02*
D03*
X-27442Y-51755D02*
D03*
X-4430Y-74450D02*
D03*
Y-64290D02*
D03*
Y-66830D02*
D03*
X-6970D02*
D03*
X-4430Y-69370D02*
D03*
X-6970D02*
D03*
X-4430Y-71910D02*
D03*
X-6970D02*
D03*
Y-74450D02*
D03*
Y-87150D02*
D03*
Y-84610D02*
D03*
X-4430D02*
D03*
X-6970Y-82070D02*
D03*
X-4430D02*
D03*
X-6970Y-79530D02*
D03*
X-4430D02*
D03*
Y-76990D02*
D03*
X-6970D02*
D03*
X-4430Y-87150D02*
D03*
X-39990Y-71021D02*
D03*
X-42530D02*
D03*
X-45070D02*
D03*
X-42530Y-68481D02*
D03*
X-45070D02*
D03*
X-4430Y-38890D02*
D03*
Y-28730D02*
D03*
Y-31270D02*
D03*
X-6970D02*
D03*
X-4430Y-33810D02*
D03*
X-6970D02*
D03*
X-4430Y-36350D02*
D03*
X-6970D02*
D03*
Y-38890D02*
D03*
Y-51590D02*
D03*
Y-49050D02*
D03*
X-4430D02*
D03*
X-6970Y-46510D02*
D03*
X-4430D02*
D03*
X-6970Y-43970D02*
D03*
X-4430D02*
D03*
Y-41430D02*
D03*
X-6970D02*
D03*
X-4430Y-51590D02*
D03*
Y-13490D02*
D03*
Y-16030D02*
D03*
X-6970D02*
D03*
X-60350Y-130405D02*
D03*
X-84440Y-45494D02*
D03*
X-86980D02*
D03*
X-84440Y-48034D02*
D03*
X-86980D02*
D03*
X-84440Y-50574D02*
D03*
X-86980D02*
D03*
X-84440Y-53114D02*
D03*
X-86980D02*
D03*
Y-55654D02*
D03*
Y-42954D02*
D03*
Y-40414D02*
D03*
X-84440D02*
D03*
X-86980Y-37874D02*
D03*
X-84440D02*
D03*
X-86980Y-35334D02*
D03*
X-84440D02*
D03*
X-86980Y-32794D02*
D03*
X-84440D02*
D03*
Y-42954D02*
D03*
D230*
X-61550Y-45500D02*
D03*
X-27442Y-54295D02*
D03*
X-6970Y-64290D02*
D03*
X-19670Y-58194D02*
D03*
Y-55654D02*
D03*
Y-50574D02*
D03*
Y-53114D02*
D03*
Y-63274D02*
D03*
Y-60734D02*
D03*
Y-65814D02*
D03*
Y-68354D02*
D03*
Y-81054D02*
D03*
Y-78514D02*
D03*
Y-73434D02*
D03*
Y-75974D02*
D03*
Y-86134D02*
D03*
Y-83594D02*
D03*
Y-88674D02*
D03*
Y-91214D02*
D03*
X-67930Y-42954D02*
D03*
Y-45494D02*
D03*
Y-50574D02*
D03*
Y-48034D02*
D03*
Y-37874D02*
D03*
Y-40414D02*
D03*
Y-35334D02*
D03*
Y-32794D02*
D03*
Y-65814D02*
D03*
Y-68354D02*
D03*
Y-73434D02*
D03*
Y-70894D02*
D03*
Y-60734D02*
D03*
Y-63274D02*
D03*
Y-58194D02*
D03*
Y-55654D02*
D03*
X-6970Y-28730D02*
D03*
Y-13490D02*
D03*
X-60350Y-132945D02*
D03*
X-84440Y-55654D02*
D03*
X-19670Y-23650D02*
D03*
Y-26190D02*
D03*
Y-46510D02*
D03*
Y-43970D02*
D03*
Y-38890D02*
D03*
Y-41430D02*
D03*
Y-31270D02*
D03*
Y-28730D02*
D03*
Y-33810D02*
D03*
Y-36350D02*
D03*
X-67930Y-88674D02*
D03*
Y-91214D02*
D03*
Y-96294D02*
D03*
Y-93754D02*
D03*
Y-83594D02*
D03*
Y-86134D02*
D03*
Y-81054D02*
D03*
Y-78514D02*
D03*
D231*
X-2350Y-2350D02*
D03*
Y-132650D02*
D03*
X-87650D02*
D03*
Y-2350D02*
D03*
D232*
X-67925Y-123475D02*
D03*
Y-129775D02*
D03*
X-80425Y-123525D02*
D03*
Y-129825D02*
D03*
D233*
X-44784Y-1675D02*
D03*
X-52084D02*
D03*
X-11950D02*
D03*
X-19250D02*
D03*
D234*
X-50659Y-4800D02*
D03*
X-46209D02*
D03*
X-17825D02*
D03*
X-13375D02*
D03*
D235*
X-39990Y-68481D02*
D03*
X-47610Y-98834D02*
D03*
Y-101374D02*
D03*
X-45070Y-98834D02*
D03*
Y-101374D02*
D03*
X-50150Y-98834D02*
D03*
Y-101374D02*
D03*
X-52690D02*
D03*
Y-98834D02*
D03*
X-55230Y-101374D02*
D03*
Y-98834D02*
D03*
X-57770Y-101374D02*
D03*
Y-98834D02*
D03*
X-60310Y-101374D02*
D03*
Y-98834D02*
D03*
X-42530D02*
D03*
Y-101374D02*
D03*
X-39990Y-98834D02*
D03*
Y-101374D02*
D03*
X-37450Y-98834D02*
D03*
Y-101374D02*
D03*
X-34910Y-98834D02*
D03*
Y-101374D02*
D03*
X-32370D02*
D03*
Y-98834D02*
D03*
X-19670D02*
D03*
Y-101374D02*
D03*
X-22210D02*
D03*
Y-98834D02*
D03*
X-24750Y-101374D02*
D03*
Y-98834D02*
D03*
X-27290Y-101374D02*
D03*
Y-98834D02*
D03*
X-29830Y-101374D02*
D03*
Y-98834D02*
D03*
X-62850D02*
D03*
Y-101374D02*
D03*
X-41270Y-10950D02*
D03*
X-38730D02*
D03*
D236*
X-22425Y-129095D02*
D03*
X-9725D02*
D03*
D237*
X-79350Y-10750D02*
D03*
D238*
X-74450Y-13700D02*
D03*
D239*
Y-7700D02*
D03*
D240*
X-80670Y-94010D02*
D03*
Y-73890D02*
D03*
D241*
X-76185Y-54384D02*
D03*
Y-21364D02*
D03*
D242*
X-69925Y-19175D02*
D03*
Y-20175D02*
D03*
X-68925D02*
D03*
Y-19175D02*
D03*
M02*
