%FSLAX43Y43*%
%MOMM*%
G71*
G01*
G75*
G04 Layer_Physical_Order=5*
G04 Layer_Color=36540*
%ADD10C,0.175*%
%ADD11C,0.175*%
%ADD12R,0.700X0.700*%
%ADD13R,1.600X1.300*%
%ADD14R,1.000X2.250*%
%ADD15R,2.800X1.400*%
%ADD16R,0.650X0.800*%
%ADD17R,0.800X0.650*%
%ADD18R,0.600X0.550*%
%ADD19R,1.092X1.600*%
%ADD20R,0.700X0.700*%
%ADD21R,0.950X1.000*%
%ADD22R,0.600X0.900*%
%ADD23R,0.762X0.762*%
%ADD24R,0.900X0.600*%
%ADD25R,0.762X0.762*%
%ADD26R,0.500X0.600*%
%ADD27R,1.600X1.092*%
%ADD28R,1.500X1.350*%
%ADD29R,1.350X1.500*%
%ADD30R,2.200X1.500*%
%ADD31R,1.500X2.400*%
%ADD32R,0.650X0.500*%
%ADD33R,0.550X0.600*%
%ADD34R,1.100X1.000*%
%ADD35R,1.100X0.600*%
%ADD36R,0.500X0.650*%
%ADD37R,1.200X1.200*%
%ADD38R,1.200X1.200*%
%ADD39R,0.400X1.350*%
%ADD40R,0.950X1.750*%
%ADD41R,2.500X4.600*%
%ADD42R,2.200X0.600*%
%ADD43R,0.300X1.700*%
%ADD44O,0.300X1.700*%
%ADD45O,1.700X0.300*%
%ADD46R,1.300X1.400*%
%ADD47R,0.850X0.300*%
%ADD48R,3.400X3.400*%
%ADD49R,0.500X0.230*%
%ADD50R,0.230X0.500*%
%ADD51C,0.320*%
%ADD52R,4.100X3.500*%
%ADD53R,0.600X1.100*%
%ADD54R,2.500X1.700*%
%ADD55R,0.350X0.675*%
%ADD56R,0.700X0.300*%
%ADD57R,1.400X1.600*%
%ADD58O,0.200X0.700*%
%ADD59O,0.700X0.200*%
%ADD60R,2.800X2.800*%
%ADD61R,1.300X1.600*%
%ADD62R,1.000X1.600*%
%ADD63R,3.000X2.500*%
%ADD64R,1.200X2.000*%
%ADD65R,2.000X4.900*%
%ADD66R,0.810X4.600*%
%ADD67R,0.610X4.600*%
%ADD68R,1.100X0.300*%
%ADD69R,3.100X2.300*%
%ADD70R,0.430X4.700*%
%ADD71R,0.430X2.540*%
%ADD72R,2.270X0.280*%
%ADD73R,3.200X1.270*%
%ADD74R,3.683X1.270*%
%ADD75R,0.740X2.790*%
%ADD76C,0.300*%
%ADD77C,0.180*%
%ADD78C,0.200*%
%ADD79C,0.165*%
%ADD80C,0.150*%
%ADD81C,0.185*%
%ADD82C,0.127*%
%ADD83R,0.300X0.900*%
%ADD84R,1.800X1.900*%
%ADD85C,1.700*%
%ADD86R,1.700X1.700*%
%ADD87C,3.600*%
G04:AMPARAMS|DCode=88|XSize=2.1mm|YSize=1.9mm|CornerRadius=0.494mm|HoleSize=0mm|Usage=FLASHONLY|Rotation=0.000|XOffset=0mm|YOffset=0mm|HoleType=Round|Shape=RoundedRectangle|*
%AMROUNDEDRECTD88*
21,1,2.100,0.912,0,0,0.0*
21,1,1.112,1.900,0,0,0.0*
1,1,0.988,0.556,-0.456*
1,1,0.988,-0.556,-0.456*
1,1,0.988,-0.556,0.456*
1,1,0.988,0.556,0.456*
%
%ADD88ROUNDEDRECTD88*%
G04:AMPARAMS|DCode=89|XSize=1.05mm|YSize=1.25mm|CornerRadius=0.525mm|HoleSize=0mm|Usage=FLASHONLY|Rotation=180.000|XOffset=0mm|YOffset=0mm|HoleType=Round|Shape=RoundedRectangle|*
%AMROUNDEDRECTD89*
21,1,1.050,0.200,0,0,180.0*
21,1,0.000,1.250,0,0,180.0*
1,1,1.050,0.000,0.100*
1,1,1.050,0.000,0.100*
1,1,1.050,0.000,-0.100*
1,1,1.050,0.000,-0.100*
%
%ADD89ROUNDEDRECTD89*%
%ADD90R,1.700X1.700*%
%ADD91C,1.500*%
%ADD92R,2.200X4.500*%
%ADD93R,5.000X2.200*%
%ADD94R,5.000X2.400*%
%ADD95C,1.020*%
%ADD96C,1.000*%
%ADD97C,0.550*%
%ADD98C,0.400*%
%ADD99C,0.700*%
%ADD100C,0.660*%
%ADD101C,1.016*%
%ADD102C,0.500*%
%ADD103C,1.600*%
%ADD104C,1.900*%
G04:AMPARAMS|DCode=105|XSize=2.524mm|YSize=2.524mm|CornerRadius=0mm|HoleSize=0mm|Usage=FLASHONLY|Rotation=0.000|XOffset=0mm|YOffset=0mm|HoleType=Round|Shape=Relief|Width=0.254mm|Gap=0.254mm|Entries=4|*
%AMTHD105*
7,0,0,2.524,2.016,0.254,45*
%
%ADD105THD105*%
%ADD106O,1.425X2.100*%
%ADD107O,1.250X1.450*%
%ADD108C,2.100*%
%ADD109C,3.600*%
%AMTHOVALD110*
21,1,1.700,2.824,0,0,270.0*
1,1,2.824,0.000,0.850*
1,1,2.824,0.000,-0.850*
21,0,1.700,2.316,0,0,270.0*
1,0,2.316,0.000,0.850*
1,0,2.316,0.000,-0.850*
4,0,4,-0.090,0.760,-1.088,1.759,-0.909,1.938,0.090,0.940,-0.090,0.760,0.0*
4,0,4,-0.090,-0.940,0.909,-1.938,1.088,-1.759,0.090,-0.760,-0.090,-0.940,0.0*
4,0,4,-0.090,0.940,0.909,1.938,1.088,1.759,0.090,0.760,-0.090,0.940,0.0*
4,0,4,-0.090,-0.760,-1.088,-1.759,-0.909,-1.938,0.090,-0.940,-0.090,-0.760,0.0*
%
%ADD110THOVALD110*%

%ADD111O,4.100X1.800*%
%AMTHOVALD112*
21,1,1.800,2.724,0,0,0.0*
1,1,2.724,-0.900,0.000*
1,1,2.724,0.900,0.000*
21,0,1.800,2.216,0,0,0.0*
1,0,2.216,-0.900,0.000*
1,0,2.216,0.900,0.000*
4,0,4,-0.810,-0.090,-1.773,-1.053,-1.953,-0.873,-0.990,0.090,-0.810,-0.090,0.0*
4,0,4,0.990,-0.090,1.953,0.873,1.773,1.053,0.810,0.090,0.990,-0.090,0.0*
4,0,4,-0.990,-0.090,-1.953,0.873,-1.773,1.053,-0.810,0.090,-0.990,-0.090,0.0*
4,0,4,0.810,-0.090,1.773,-1.053,1.953,-0.873,0.990,0.090,0.810,-0.090,0.0*
%
%ADD112THOVALD112*%

%ADD113C,1.620*%
%ADD114C,1.790*%
%ADD115C,0.850*%
%ADD116C,0.800*%
%ADD117C,0.930*%
%ADD118C,3.300*%
%ADD119O,1.900X3.600*%
%ADD120O,3.600X1.800*%
%ADD121C,0.950*%
D10*
X-88250Y-57600D02*
X-86775Y-59075D01*
X-43700Y-74700D02*
Y-66914D01*
X-45800Y-76800D02*
X-43700Y-74700D01*
X-36964Y-56225D02*
X-35555Y-57635D01*
Y-65641D02*
Y-57635D01*
X-35959Y-66045D02*
X-35555Y-65641D01*
X-35959Y-71176D02*
Y-66045D01*
Y-71176D02*
X-34225Y-72910D01*
X-58771Y-47200D02*
Y-42104D01*
X-61732Y-39143D02*
X-58771Y-42104D01*
X-61732Y-39143D02*
Y-23957D01*
X-55000Y-17225D01*
X-54325D01*
X-37900Y-103800D02*
X-36150Y-102050D01*
X-40347Y-103800D02*
X-37900D01*
X-41248Y-102900D02*
X-40347Y-103800D01*
X-36150Y-102050D02*
Y-97725D01*
X-55377Y-102900D02*
X-54103Y-104175D01*
X-53678Y-102900D02*
X-52978Y-103600D01*
X-43825Y-102173D02*
Y-96250D01*
X-45827Y-104175D02*
X-43825Y-102173D01*
X-54103Y-104175D02*
X-45827D01*
X-52978Y-103600D02*
X-47750D01*
X-40600Y-40107D02*
Y-37925D01*
X-40870Y-40377D02*
X-40600Y-40107D01*
X-40870Y-57580D02*
Y-40377D01*
X-40100Y-40200D02*
X-39650Y-40650D01*
X-40100Y-40200D02*
Y-37700D01*
X-40750Y-37050D02*
X-40100Y-37700D01*
X-40870Y-57580D02*
X-38889Y-59561D01*
X-41400Y-37125D02*
X-40600Y-37925D01*
X-41400Y-37125D02*
Y-36700D01*
X-41100Y-36400D01*
X-40425D01*
X-39750Y-37075D01*
X-4430Y-46510D02*
X-1650Y-49290D01*
Y-79290D02*
Y-49290D01*
X-4430Y-82070D02*
X-1650Y-79290D01*
X-3555Y-80700D02*
X-2325Y-79470D01*
Y-60025D01*
X-5670Y-56680D02*
X-2325Y-60025D01*
X-5670Y-56680D02*
Y-50350D01*
X-88250Y-29175D02*
X-87425Y-28350D01*
X-88250Y-57600D02*
Y-29175D01*
X-87425Y-28350D02*
X-83775D01*
X-17700Y-78025D02*
X-14925Y-80800D01*
X-17700Y-78025D02*
Y-69625D01*
X-45800Y-94484D02*
Y-76800D01*
X-50150Y-98834D02*
X-45800Y-94484D01*
X-43700Y-66914D02*
X-43500Y-66714D01*
X-34180Y-36830D02*
X-33525Y-36175D01*
X-34180Y-49953D02*
Y-36830D01*
Y-49953D02*
X-33745Y-50388D01*
X-35170Y-50363D02*
X-34735Y-50798D01*
X-35950Y-44750D02*
X-35170Y-45530D01*
Y-50363D02*
Y-45530D01*
X-36964Y-56225D02*
Y-47311D01*
X-37750Y-46525D02*
X-36964Y-47311D01*
X-31025Y-70508D02*
X-29725Y-71808D01*
Y-80848D02*
Y-71808D01*
Y-80848D02*
X-27037Y-83535D01*
X-31795Y-83656D02*
Y-72555D01*
X-33745Y-70605D02*
X-31795Y-72555D01*
X-33745Y-70605D02*
Y-50388D01*
X-32875Y-70549D02*
Y-69775D01*
Y-70549D02*
X-31140Y-72284D01*
X-34735Y-71473D02*
Y-50798D01*
X-32912Y-88012D02*
Y-73296D01*
X-34735Y-71473D02*
X-32912Y-73296D01*
X-34225Y-95800D02*
Y-72910D01*
X-31140Y-82883D02*
Y-72284D01*
X-36150Y-97725D02*
X-34225Y-95800D01*
X-31025Y-70508D02*
Y-61300D01*
X-31140Y-82883D02*
X-26912Y-87110D01*
X-26006D01*
X-27276Y-88175D02*
X-26698D01*
X-31795Y-83656D02*
X-27276Y-88175D01*
X-21903Y-91214D02*
X-19670D01*
X-26006Y-87110D02*
X-21903Y-91214D01*
X-43450Y-84265D02*
X-38889Y-79705D01*
X-43450Y-94425D02*
Y-84265D01*
X-38889Y-79705D02*
Y-59561D01*
X-38564Y-79839D02*
Y-58529D01*
X-42775Y-84050D02*
X-38564Y-79839D01*
X-42775Y-95200D02*
Y-84050D01*
X-45275Y-85475D02*
X-41127Y-81327D01*
X-45275Y-91825D02*
Y-85475D01*
Y-91825D02*
X-44400Y-92700D01*
X-47750Y-103600D02*
X-46450Y-102300D01*
Y-97425D01*
X-70100Y-98775D02*
X-67575Y-101300D01*
Y-106850D02*
Y-101300D01*
X-68450Y-107725D02*
X-67575Y-106850D01*
X-69600Y-107725D02*
X-68450D01*
X-77300Y-96975D02*
X-70100Y-104175D01*
X-80775Y-96975D02*
X-77300D01*
X-83775Y-93975D02*
X-80775Y-96975D01*
X-77425Y-97310D02*
X-71275Y-103460D01*
X-80940Y-97310D02*
X-77425D01*
X-71275Y-104680D02*
Y-103460D01*
X-84100Y-94150D02*
X-80940Y-97310D01*
X-84100Y-94150D02*
Y-88625D01*
X-83775Y-93975D02*
Y-88100D01*
X-25700Y-21629D02*
X-21139Y-26190D01*
X-25700Y-21629D02*
Y-17925D01*
X-26200Y-17425D02*
X-25700Y-17925D01*
X-39650Y-57443D02*
X-38564Y-58529D01*
X-39650Y-57443D02*
Y-40650D01*
X-44200Y-60600D02*
X-43825D01*
X-45215Y-61615D02*
X-44200Y-60600D01*
X-45215Y-62490D02*
Y-61615D01*
X-45225Y-62501D02*
X-45215Y-62490D01*
X-45225Y-63850D02*
Y-62501D01*
X-43500Y-63425D02*
X-42750Y-62675D01*
X-43500Y-66714D02*
Y-63425D01*
X-37450Y-80004D02*
Y-69650D01*
X-38550Y-81104D02*
X-37450Y-80004D01*
X-38550Y-81700D02*
Y-81104D01*
X-37125Y-62030D02*
Y-57000D01*
X-37475Y-56650D02*
X-37125Y-57000D01*
X-37475Y-56650D02*
Y-51751D01*
X-37125Y-62030D02*
X-36752Y-62403D01*
X-37227Y-45227D02*
Y-32123D01*
X-39100Y-30250D02*
X-37227Y-32123D01*
X-37750Y-46525D02*
Y-41500D01*
X-64178Y-80142D02*
Y-79554D01*
X-42752Y-59527D02*
Y-44852D01*
X-43825Y-60600D02*
X-42752Y-59527D01*
X-31875Y-29950D02*
X-25812Y-36013D01*
X-27037Y-83535D02*
X-25090D01*
X-22491Y-86134D01*
X-26698Y-88175D02*
X-26312Y-88561D01*
Y-88563D02*
X-22126Y-92750D01*
X-26312Y-88563D02*
Y-88561D01*
X-24325Y-72250D02*
Y-47475D01*
X-29300Y-61875D02*
Y-57225D01*
X-19775Y-92750D02*
X-15150Y-97375D01*
X-22126Y-92750D02*
X-19775D01*
X-71550Y-47675D02*
X-70800Y-46925D01*
X-71550Y-61625D02*
Y-47675D01*
X-75375Y-65450D02*
X-71550Y-61625D01*
X-75825Y-41375D02*
X-72950Y-44250D01*
Y-58425D02*
Y-44250D01*
X-70653Y-62067D02*
Y-59628D01*
X-37477Y-51753D02*
X-37475Y-51751D01*
X-38750Y-36275D02*
Y-34050D01*
X-32912Y-88012D02*
X-32900Y-88025D01*
X-70653Y-58697D02*
Y-51753D01*
X-81950Y-83100D02*
X-75375Y-76525D01*
Y-65450D01*
X-81797Y-84100D02*
X-73856Y-76158D01*
Y-65269D02*
X-70653Y-62067D01*
X-73856Y-76158D02*
Y-65269D01*
X-84433Y-84600D02*
X-81600D01*
X-73350Y-76350D01*
Y-68787D01*
X-69825Y-65262D01*
X-71616Y-69500D02*
X-67930Y-65814D01*
X-83200Y-90150D02*
X-81700Y-88650D01*
X-71616Y-75166D02*
Y-69500D01*
X-81700Y-85250D02*
X-71616Y-75166D01*
X-81700Y-88650D02*
Y-85250D01*
X-69825Y-65262D02*
Y-59525D01*
X-70653Y-58697D02*
X-69825Y-59525D01*
X-74775Y-76450D02*
Y-67250D01*
X-81925Y-83600D02*
X-74775Y-76450D01*
X-84433Y-83600D02*
X-81925D01*
X-74510Y-30750D02*
X-69303Y-35957D01*
Y-56603D02*
Y-35957D01*
X-74510Y-30750D02*
Y-24930D01*
X-73467Y-23887D01*
X-86775Y-88000D02*
Y-59075D01*
Y-88000D02*
X-85175Y-89600D01*
X-21139Y-26190D02*
X-19670D01*
X-26200Y-17425D02*
Y-16825D01*
X-25375Y-19975D02*
X-21700Y-23650D01*
X-19670D01*
X-25375Y-19975D02*
Y-17300D01*
X-25550Y-17125D02*
X-25375Y-17300D01*
X-25550Y-17125D02*
Y-16825D01*
X-67930Y-65814D02*
X-66750Y-64634D01*
Y-54550D01*
X-67175Y-54125D02*
X-66750Y-54550D01*
X-60200Y-24525D02*
X-60175Y-24550D01*
X-60200Y-38575D02*
Y-24525D01*
Y-38575D02*
X-57025Y-41750D01*
X-35125Y-29750D02*
X-34125Y-30750D01*
X-31950D01*
X-27442Y-35258D01*
Y-51755D02*
Y-35258D01*
X-27275Y-77950D02*
Y-71150D01*
X-22491Y-86134D02*
X-19670D01*
X-43825Y-96250D02*
X-42775Y-95200D01*
X-46450Y-97425D02*
X-43450Y-94425D01*
X-79475Y-45125D02*
Y-41525D01*
Y-45125D02*
X-78659Y-45942D01*
Y-51830D02*
Y-45942D01*
X-25450Y-75100D02*
X-24575Y-75975D01*
X-25450Y-75100D02*
Y-73375D01*
X-66241Y-66316D02*
Y-55634D01*
X-66425Y-55450D02*
X-66241Y-55634D01*
X-66425Y-55450D02*
Y-53950D01*
X-67125Y-67200D02*
X-66241Y-66316D01*
X-68575Y-67200D02*
X-67125D01*
X-70100Y-68725D02*
X-68575Y-67200D01*
X-70100Y-98775D02*
Y-68725D01*
X-21750Y-61194D02*
Y-43100D01*
Y-61194D02*
X-19670Y-63274D01*
X-37325Y-90250D02*
Y-85625D01*
Y-81175D01*
X-85175Y-87600D02*
X-84900Y-87325D01*
X-84550D01*
X-6970Y-49050D02*
X-5670Y-50350D01*
X-6970Y-84610D02*
X-5775Y-83415D01*
Y-81550D01*
X-4925Y-80700D01*
X-3555D01*
X-84550Y-87325D02*
X-83775Y-88100D01*
X-84625Y-88100D02*
X-84100Y-88625D01*
X-78659Y-41670D02*
X-77680D01*
X-74550Y-44800D01*
X-5665Y-45275D02*
X-4430Y-46510D01*
X-13285Y-45275D02*
X-5665D01*
X-19670Y-38890D02*
X-13285Y-45275D01*
X-13425Y-73175D02*
Y-61050D01*
X-13775Y-60700D02*
X-13425Y-61050D01*
X-78659Y-26430D02*
X-75825Y-29264D01*
X-19670Y-58194D02*
X-16050Y-61814D01*
Y-72990D02*
Y-61814D01*
Y-72990D02*
X-6970Y-82070D01*
X-65725Y-105600D02*
X-65025Y-106300D01*
X-65725Y-105600D02*
Y-82325D01*
X-75825Y-41375D02*
Y-29264D01*
X-66300Y-82175D02*
X-65875Y-81750D01*
X-66300Y-92124D02*
Y-82175D01*
X-67930Y-93754D02*
X-66300Y-92124D01*
X-65875Y-81750D02*
Y-54475D01*
Y-39050D01*
X-21631Y-83594D02*
X-19670D01*
X-27275Y-77950D02*
X-21631Y-83594D01*
X-25450Y-73375D02*
X-24325Y-72250D01*
X-41127Y-81327D02*
Y-63128D01*
X-74550Y-59200D02*
X-73625Y-60125D01*
X-74550Y-59200D02*
Y-44800D01*
X-33525Y-36175D02*
Y-34950D01*
X-15150Y-97375D02*
X-14125D01*
X-13425Y-98075D01*
X-70525Y-108650D02*
X-69600Y-107725D01*
X-40750Y-32050D02*
X-38750Y-34050D01*
X-40750Y-32050D02*
Y-26450D01*
D76*
X-26275Y-5075D02*
X-22400Y-8950D01*
X-29875Y-5075D02*
X-26275D01*
X-57925Y-6250D02*
X-41900D01*
X-38730Y-9420D01*
Y-10950D02*
Y-9420D01*
X-31600Y-5075D02*
X-29875D01*
X-36600Y-10075D02*
X-31600Y-5075D01*
X-74675Y-5200D02*
X-73450Y-3975D01*
X-60200D01*
X-57925Y-6250D01*
X-70850Y-5525D02*
X-64700D01*
X-60775Y-9450D01*
D77*
X-12595Y-73905D02*
Y-59074D01*
X-17307Y-54362D02*
X-12595Y-59074D01*
Y-73905D02*
X-6970Y-79530D01*
X-26009Y-55957D02*
Y-55314D01*
X-25810Y-55115D01*
Y-36015D01*
X-25812Y-36013D02*
X-25810Y-36015D01*
X-26675Y-60732D02*
Y-55435D01*
X-28015Y-62072D02*
X-26675Y-60732D01*
X-28015Y-69663D02*
Y-62072D01*
X-26325Y-55085D02*
Y-41275D01*
X-26675Y-55435D02*
X-26325Y-55085D01*
X-25800Y-66200D02*
X-25210D01*
X-24785Y-65775D01*
Y-48415D01*
X-35350Y-69775D02*
Y-69385D01*
X-35062Y-69098D01*
Y-51088D01*
X-35350Y-71322D02*
Y-69775D01*
X-58705Y-51728D02*
Y-47950D01*
X-61256Y-54278D02*
X-58705Y-51728D01*
X-65035Y-103990D02*
Y-35465D01*
X-46285Y-93335D02*
Y-68010D01*
X-51325Y-98375D02*
X-46285Y-93335D01*
X-51325Y-100199D02*
Y-98375D01*
Y-100199D02*
X-50150Y-101374D01*
X-52690Y-98834D02*
Y-97360D01*
X-62125Y-87925D02*
X-52690Y-97360D01*
X-62785Y-96359D02*
X-60310Y-98834D01*
X-62785Y-96359D02*
Y-76103D01*
X-58495Y-109030D02*
Y-103189D01*
X-60310Y-101374D02*
X-58495Y-103189D01*
X-61575Y-102325D02*
X-58825Y-105075D01*
Y-112625D02*
Y-105075D01*
X-60310Y-101374D02*
X-59125Y-100189D01*
Y-98175D01*
X-62455Y-94845D02*
X-59125Y-98175D01*
X-61575Y-100099D02*
X-60310Y-98834D01*
X-61575Y-102325D02*
Y-100099D01*
X-44250Y-65975D02*
Y-62025D01*
X-62125Y-87925D02*
Y-75758D01*
X-62925Y-74958D02*
X-62125Y-75758D01*
X-62925Y-74958D02*
Y-62625D01*
X-63680Y-75208D02*
X-62785Y-76103D01*
X-63350Y-75000D02*
X-62455Y-75895D01*
Y-94845D02*
Y-75895D01*
X-62350Y-62125D02*
Y-57650D01*
X-62925Y-62625D02*
X-62850D01*
X-62350Y-62125D01*
X-63680Y-62180D02*
X-63028Y-61528D01*
X-63680Y-75208D02*
Y-62180D01*
X-63350Y-62420D02*
X-62680Y-61750D01*
X-63350Y-75000D02*
Y-62420D01*
X-62680Y-61750D02*
Y-57513D01*
X-63028Y-61528D02*
Y-50727D01*
X-64178Y-79554D02*
Y-61628D01*
X-32458Y-85415D02*
X-23283Y-94590D01*
X-32458Y-85415D02*
Y-73288D01*
X-36177Y-37102D02*
X-34842Y-38436D01*
Y-50228D02*
Y-38436D01*
Y-50228D02*
X-34408Y-50663D01*
X-36467Y-42742D02*
X-36456Y-42752D01*
X-36452D01*
X-31950Y-70537D02*
X-30478Y-72009D01*
X-31950Y-70537D02*
Y-51874D01*
X-34408Y-71338D02*
X-32458Y-73288D01*
X-34408Y-71338D02*
Y-50663D01*
X-33425Y-96925D02*
Y-73247D01*
X-35350Y-71322D02*
X-33425Y-73247D01*
X-30478Y-81664D02*
Y-72009D01*
Y-81664D02*
X-26819Y-85323D01*
X-26863Y-87623D02*
X-26825D01*
X-25305Y-60179D02*
Y-30870D01*
Y-60179D02*
X-25300Y-60184D01*
X-24975Y-36750D02*
X-24734Y-36509D01*
X-24975Y-48225D02*
Y-36750D01*
Y-48225D02*
X-24785Y-48415D01*
X-23300Y-45295D02*
X-22575Y-46020D01*
X-23300Y-45295D02*
Y-38800D01*
X-23825Y-45237D02*
X-22920Y-46142D01*
X-23825Y-45237D02*
Y-39325D01*
X-24450Y-45079D02*
X-23250Y-46279D01*
X-24450Y-45079D02*
Y-39875D01*
X-23250Y-79936D02*
Y-46279D01*
X-22920Y-79764D02*
Y-46142D01*
X-22575Y-78539D02*
Y-46020D01*
X-32410Y-51414D02*
X-31950Y-51874D01*
X-32410Y-51414D02*
Y-43065D01*
X-36467Y-49683D02*
X-35062Y-51088D01*
X-22041Y-84684D02*
X-17916D01*
X-24852Y-81873D02*
X-22041Y-84684D01*
X-17916D02*
X-13475Y-89125D01*
X-26825Y-81873D02*
X-24852D01*
X-13475Y-89125D02*
X-8075D01*
X-5325Y-91875D01*
X-14892Y-90375D02*
X-9375D01*
X-17683Y-87584D02*
X-14892Y-90375D01*
X-24116Y-87584D02*
X-17683D01*
X-26377Y-85323D02*
X-24116Y-87584D01*
X-26819Y-85323D02*
X-26377D01*
X-26825Y-87623D02*
X-26787D01*
X-10217Y-98500D02*
X-5133D01*
X-10353Y-98170D02*
X-5970D01*
X-11227Y-99510D02*
X-10217Y-98500D01*
X-11363Y-99180D02*
X-10353Y-98170D01*
X-5970D02*
X-3425Y-95625D01*
X-5133Y-98500D02*
X-2883Y-96250D01*
X-12075Y-87200D02*
Y-86750D01*
X-18861Y-79964D02*
X-12075Y-86750D01*
X-21150Y-79964D02*
X-18861D01*
X-14960Y-86390D02*
X-13425Y-87925D01*
X-14960Y-86390D02*
Y-85136D01*
X-13800Y-86575D02*
Y-85829D01*
X-17592Y-82504D02*
X-14960Y-85136D01*
X-20682Y-82504D02*
X-17592D01*
X-2883Y-96250D02*
X-2000D01*
X-9375Y-90375D02*
X-7925Y-91825D01*
X-42875Y-66800D02*
Y-64478D01*
X-46285Y-68010D02*
X-44250Y-65975D01*
X-39702Y-31898D02*
X-37735Y-33865D01*
Y-40757D02*
Y-33865D01*
X-38575Y-41597D02*
X-37735Y-40757D01*
X-39702Y-31898D02*
Y-27576D01*
X-65025Y-105150D02*
X-64508Y-104633D01*
X-65025Y-107450D02*
X-64178Y-106603D01*
X-64705Y-80270D02*
X-64508Y-80467D01*
Y-104633D02*
Y-80467D01*
X-64178Y-106603D02*
Y-80142D01*
Y-61628D02*
X-63750Y-61200D01*
X-64705Y-80270D02*
Y-61688D01*
X-65035Y-103990D02*
X-65025Y-104000D01*
X-66350Y-34150D02*
X-65035Y-35465D01*
X-64400Y-61383D02*
Y-60425D01*
X-64705Y-61688D02*
X-64400Y-61383D01*
X-62500Y-57333D02*
Y-49575D01*
X-62680Y-57513D02*
X-62500Y-57333D01*
X-62350Y-57650D02*
X-61200Y-56500D01*
X-32975Y-42500D02*
X-32410Y-43065D01*
X-26787Y-87623D02*
X-22061Y-92349D01*
X-15651D01*
X-38575Y-47200D02*
Y-41597D01*
Y-47200D02*
X-38200Y-47575D01*
X-26825Y-89923D02*
X-23198Y-93550D01*
X-15651Y-92349D02*
X-11900Y-96100D01*
X-22575Y-78539D02*
X-21150Y-79964D01*
X-22920Y-79764D02*
X-20540Y-82144D01*
X-17485D02*
X-13800Y-85829D01*
X-20540Y-82144D02*
X-17485D01*
X-23250Y-79936D02*
X-20682Y-82504D01*
X-21725Y-40550D02*
X-20875Y-41400D01*
Y-51909D02*
Y-41400D01*
Y-51909D02*
X-19670Y-53114D01*
X-5325Y-93700D02*
Y-91875D01*
X-80200Y-59175D02*
X-77176Y-62199D01*
X-80200Y-59175D02*
Y-40672D01*
X-80625Y-62675D02*
X-77675Y-65625D01*
X-80625Y-62675D02*
Y-38556D01*
X-78659Y-36590D01*
X-77600Y-58275D02*
X-76600Y-59275D01*
X-77600Y-58275D02*
Y-45269D01*
X-78659Y-44210D02*
X-77600Y-45269D01*
X-76600Y-64425D02*
Y-59275D01*
X-75725Y-76325D02*
Y-64925D01*
X-78600Y-79200D02*
X-75725Y-76325D01*
X-79350Y-79200D02*
X-78600D01*
X-76250Y-23825D02*
X-75025Y-25050D01*
Y-41175D02*
Y-25050D01*
Y-41175D02*
X-70125Y-46075D01*
X-29375Y-63265D02*
X-28575Y-62465D01*
X-29375Y-68800D02*
Y-63265D01*
X-30100Y-69525D02*
X-29375Y-68800D01*
X-28575Y-62465D02*
Y-55475D01*
X-29150Y-54900D02*
X-28575Y-55475D01*
X-29150Y-54900D02*
Y-53150D01*
X-21205Y-59199D02*
X-19670Y-60734D01*
X-21205Y-59199D02*
Y-42520D01*
X-22450Y-41275D02*
X-21205Y-42520D01*
X-70125Y-57275D02*
Y-46075D01*
Y-57275D02*
X-69206Y-58194D01*
X-80200Y-40672D02*
X-78659Y-39130D01*
X-24734Y-36509D02*
Y-30725D01*
X-23800Y-72650D02*
Y-46875D01*
X-64400Y-60425D02*
Y-54625D01*
X-41725Y-62950D02*
X-41100Y-62325D01*
X-41725Y-66800D02*
Y-62950D01*
X-28200Y-27050D02*
Y-24500D01*
X-27675Y-23975D01*
Y-17375D01*
X-32050Y-13000D02*
X-27675Y-17375D01*
X-6970Y-74450D02*
X-5725Y-73205D01*
Y-71250D01*
X-6350Y-70625D02*
X-5725Y-71250D01*
X-14576Y-50574D02*
X-11350Y-53800D01*
X-19670Y-50574D02*
X-14576D01*
X-19670Y-53114D02*
X-13386D01*
X-12075Y-54425D01*
Y-66805D02*
Y-54425D01*
Y-66805D02*
X-6970Y-71910D01*
X-11350Y-66850D02*
Y-53800D01*
Y-66850D02*
X-7575Y-70625D01*
X-6350D01*
X-75725Y-64925D02*
X-72125Y-61325D01*
Y-54325D01*
X-73705Y-28970D02*
X-68525Y-34150D01*
X-66350D01*
X-14590Y-46510D02*
X-6970D01*
X-19670Y-41430D02*
X-14590Y-46510D01*
X-29150Y-53150D02*
Y-49000D01*
X-28625Y-48475D01*
Y-38525D01*
X-29575Y-37575D02*
X-28625Y-38525D01*
X-29575Y-37575D02*
Y-36400D01*
X-41760Y-58440D02*
X-41100Y-59100D01*
Y-62325D02*
Y-59100D01*
X-24575Y-73425D02*
X-23800Y-72650D01*
X-44775Y-82150D02*
Y-76400D01*
X-42530Y-74155D01*
Y-71021D01*
X-58825Y-112625D02*
X-55850Y-115600D01*
X-58495Y-109030D02*
X-52250Y-115275D01*
X-81250Y-21975D02*
X-80450Y-22775D01*
X-31325Y-10525D02*
X-30150D01*
X-29650Y-22675D02*
Y-17700D01*
X-32325Y-15025D02*
X-29650Y-17700D01*
X-32875Y-12075D02*
X-31325Y-10525D01*
X-32875Y-13000D02*
Y-12075D01*
Y-13000D02*
X-32325Y-13550D01*
Y-15025D02*
Y-13550D01*
X-25875Y-28725D02*
X-24734Y-29866D01*
X-26525Y-28725D02*
X-25875D01*
X-24734Y-30725D02*
Y-29866D01*
X-28200Y-27050D02*
X-26525Y-28725D01*
X-29650Y-26525D02*
X-26009Y-30166D01*
X-25305Y-30870D01*
X-69206Y-61998D02*
X-67930Y-63274D01*
X-69206Y-61998D02*
Y-58194D01*
X-42530Y-34980D02*
Y-25675D01*
X-29650Y-26525D02*
Y-22675D01*
X-36452Y-42752D02*
Y-38039D01*
X-36781Y-37710D02*
X-36452Y-38039D01*
X-36781Y-37710D02*
Y-31505D01*
X-36477Y-31201D01*
Y-23929D01*
X-36467Y-49683D02*
Y-42742D01*
X-23503Y-30005D02*
X-15855D01*
X-6970Y-38890D01*
X-14652Y-99510D02*
X-11227D01*
X-14515Y-99180D02*
X-11363D01*
X-19572Y-94590D02*
X-14652Y-99510D01*
X-23283Y-94590D02*
X-19572D01*
X-20145Y-93550D02*
X-14515Y-99180D01*
X-23198Y-93550D02*
X-20145D01*
X-41760Y-58440D02*
Y-40415D01*
X-42975Y-35425D02*
X-42530Y-34980D01*
X-42975Y-39200D02*
X-41760Y-40415D01*
X-42975Y-39200D02*
Y-35425D01*
X-81550Y-44100D02*
Y-30727D01*
X-80450Y-29627D01*
Y-22775D01*
X-42875Y-64478D02*
X-42235Y-63838D01*
Y-62423D01*
X-42267Y-62391D02*
X-42235Y-62423D01*
X-42267Y-62391D02*
Y-59074D01*
X-42237Y-59044D01*
Y-43723D01*
X-43750Y-42210D02*
Y-33180D01*
X-43765Y-33165D02*
X-43750Y-33180D01*
Y-42210D02*
X-42237Y-43723D01*
D80*
X-55850Y-51603D02*
Y-44175D01*
X-58700Y-54453D02*
X-55850Y-51603D01*
X-58700Y-58725D02*
Y-54453D01*
X-57250Y-42775D02*
X-55850Y-44175D01*
X-38725Y-102900D02*
Y-82525D01*
X-39050Y-82200D02*
X-38725Y-82525D01*
X-56995Y-58920D02*
X-56300Y-58225D01*
X-59822Y-61747D02*
X-58144Y-60069D01*
X-58748Y-59464D02*
X-58144Y-60069D01*
X-58748Y-59464D02*
X-58518Y-59235D01*
X-57914Y-59839D01*
X-57684Y-59609D01*
X-58289Y-59005D02*
X-57684Y-59609D01*
X-58289Y-59005D02*
X-58059Y-58775D01*
X-57454Y-59379D01*
X-57225Y-59150D01*
X-57829Y-58545D02*
X-57225Y-59150D01*
X-57829Y-58545D02*
X-57599Y-58315D01*
X-56995Y-58920D01*
X-46225Y-65575D02*
Y-64563D01*
X-45540D01*
Y-64238D01*
X-47125D02*
X-45540D01*
X-47125D02*
Y-63913D01*
X-45725D01*
Y-63588D01*
X-46995D02*
X-45725D01*
X-46995D02*
Y-63263D01*
X-46225D01*
Y-62776D01*
X-45727Y-62278D01*
X-47025Y-66375D02*
X-46225Y-65575D01*
X-52203Y-41562D02*
Y-39350D01*
X-53153Y-41562D02*
X-52203D01*
X-53153Y-41888D02*
Y-41562D01*
Y-41888D02*
X-51252D01*
Y-42213D02*
Y-41888D01*
X-53153Y-42213D02*
X-51252D01*
X-53153Y-42537D02*
Y-42213D01*
Y-42537D02*
X-51252D01*
Y-42862D02*
Y-42537D01*
X-53153Y-42862D02*
X-51252D01*
X-53153Y-43188D02*
Y-42862D01*
Y-43188D02*
X-51252D01*
Y-43513D02*
Y-43188D01*
X-53153Y-43513D02*
X-51252D01*
X-53153Y-43838D02*
Y-43513D01*
Y-43838D02*
X-51252D01*
Y-44162D02*
Y-43838D01*
X-53153Y-44162D02*
X-51252D01*
X-53153Y-44487D02*
Y-44162D01*
Y-44487D02*
X-51252D01*
Y-44812D02*
Y-44487D01*
X-53153Y-44812D02*
X-51252D01*
X-53153Y-45138D02*
Y-44812D01*
Y-45138D02*
X-52203D01*
Y-47003D02*
Y-45138D01*
X-44125Y-43325D02*
Y-40075D01*
X-44850Y-39350D02*
X-44125Y-40075D01*
X-52203Y-39350D02*
X-44850D01*
X-52350Y-50429D02*
Y-47150D01*
X-52203Y-47003D01*
X-45325Y-57649D02*
Y-57250D01*
X-44100Y-51300D02*
Y-45750D01*
X-44450Y-51300D02*
X-44100D01*
X-44450D02*
Y-46100D01*
X-44925Y-45625D02*
X-44450Y-46100D01*
X-48275Y-45625D02*
X-44925D01*
X-48925Y-46275D02*
X-48275Y-45625D01*
X-48925Y-46798D02*
Y-46275D01*
Y-46798D02*
X-48677Y-47045D01*
X-43800Y-58450D02*
Y-46100D01*
X-43475D01*
Y-58925D02*
Y-46100D01*
X-43750Y-59200D02*
X-43475Y-58925D01*
X-44250Y-58900D02*
X-43800Y-58450D01*
X-44250Y-59669D02*
Y-58900D01*
X-44375Y-59794D02*
X-44250Y-59669D01*
X-44725Y-45125D02*
X-44100Y-45750D01*
X-47100Y-45125D02*
X-44725D01*
X-48677Y-58802D02*
Y-47045D01*
X-47725Y-63144D02*
X-44375Y-59794D01*
X-43175Y-59332D02*
Y-45325D01*
X-44150Y-44350D02*
X-43175Y-45325D01*
X-58922Y-78435D02*
Y-62146D01*
X-59222Y-78853D02*
Y-62022D01*
X-59522Y-80303D02*
Y-61871D01*
X-59822Y-78347D02*
Y-61747D01*
X-48675Y-78875D02*
Y-75975D01*
X-49025D02*
X-48675D01*
X-49025Y-78775D02*
Y-75975D01*
X-49400Y-78775D02*
Y-75975D01*
X-49725D02*
X-49400D01*
X-49725Y-78250D02*
Y-75975D01*
X-47800Y-78525D02*
Y-73500D01*
X-48175Y-78525D02*
X-47800D01*
X-48175D02*
Y-74225D01*
X-47025Y-78525D02*
Y-66375D01*
X-47400Y-78525D02*
X-47025D01*
X-47400D02*
Y-73500D01*
X-48675Y-78875D02*
X-46700D01*
Y-66550D01*
X-49400Y-78775D02*
X-49025D01*
X-50050Y-78250D02*
X-49725D01*
X-50050D02*
Y-76075D01*
X-47800Y-73500D02*
X-47400D01*
X-48575Y-74225D02*
X-48175D01*
X-48575Y-75200D02*
Y-74225D01*
X-48625Y-75250D02*
X-48575Y-75200D01*
X-49625Y-79425D02*
X-46975D01*
X-50500Y-75625D02*
X-50050Y-76075D01*
X-52301Y-75625D02*
X-50500D01*
X-44750Y-63618D02*
Y-61592D01*
X-44725Y-64575D02*
X-44725Y-64575D01*
X-44725Y-64575D02*
Y-63643D01*
X-44750Y-63618D02*
X-44725Y-63643D01*
X-44750Y-61592D02*
X-44533Y-61375D01*
X-43250D01*
X-43025Y-61150D01*
Y-60250D01*
X-43000Y-60225D01*
X-42650D01*
Y-61525D02*
Y-60225D01*
X-43250Y-62125D02*
X-42650Y-61525D01*
X-58322Y-77304D02*
Y-76375D01*
X-58075Y-76128D01*
Y-75200D01*
X-58322Y-74953D02*
Y-62400D01*
Y-74953D02*
X-58075Y-75200D01*
X-58322Y-77304D02*
X-57001Y-78625D01*
X-54172D01*
X-53672Y-78125D01*
X-57422Y-72600D02*
Y-62773D01*
X-57722Y-74017D02*
Y-62648D01*
X-58022Y-74141D02*
Y-62524D01*
X-58622Y-77428D02*
Y-62276D01*
X-56922Y-71625D02*
X-56390D01*
X-57422Y-72600D02*
X-56447Y-73575D01*
X-58022Y-74141D02*
X-56988Y-75175D01*
X-57722Y-74017D02*
X-56864Y-74875D01*
X-58622Y-77428D02*
X-57125Y-78925D01*
X-57125D01*
X-56511Y-79539D01*
X-59222Y-78853D02*
X-57987Y-80088D01*
X-58922Y-78435D02*
X-58416Y-78941D01*
X-61425Y-79950D02*
X-59822Y-78347D01*
X-59522Y-80303D02*
X-58850Y-80975D01*
X-61425Y-80925D02*
Y-79950D01*
X-57422Y-62773D02*
X-51525Y-56876D01*
X-60875Y-67925D02*
Y-60900D01*
X-62050Y-69100D02*
X-60875Y-67925D01*
X-62450Y-69500D02*
X-62050Y-69100D01*
X-62450Y-73850D02*
Y-69500D01*
X-60875Y-60900D02*
X-58700Y-58725D01*
X-56988Y-75175D02*
X-56988D01*
X-56788Y-75375D01*
X-51525Y-50405D02*
Y-49775D01*
Y-50405D02*
X-51525Y-50405D01*
Y-56130D02*
Y-50405D01*
Y-56130D02*
X-51525Y-56130D01*
Y-56876D02*
Y-56130D01*
X-57722Y-62648D02*
X-51825Y-56751D01*
Y-56254D01*
X-51825Y-56254D02*
X-51825Y-56254D01*
X-51825Y-56254D02*
Y-50529D01*
X-52125Y-56379D02*
Y-50654D01*
Y-56379D02*
X-52125Y-56379D01*
Y-56627D02*
Y-56379D01*
X-58022Y-62524D02*
X-52125Y-56627D01*
X-58322Y-62400D02*
X-52425Y-56503D01*
X-58622Y-62276D02*
X-52725Y-56379D01*
X-58922Y-62146D02*
X-53100Y-56324D01*
X-59222Y-62022D02*
X-53650Y-56450D01*
X-59522Y-61871D02*
X-55750Y-58099D01*
X-52050Y-50304D02*
X-51825Y-50529D01*
X-51550Y-49750D02*
X-51525Y-49775D01*
X-55325Y-80075D02*
X-54172D01*
X-55861Y-79539D02*
X-55325Y-80075D01*
X-56511Y-79539D02*
X-55861D01*
X-52425Y-56254D02*
Y-50778D01*
Y-56254D02*
X-52425Y-56254D01*
Y-56503D02*
Y-56254D01*
X-54650Y-52850D02*
X-53650Y-53850D01*
Y-56450D02*
Y-53850D01*
X-56504Y-78125D02*
X-54647D01*
X-57700Y-76929D02*
X-56504Y-78125D01*
X-57700Y-76929D02*
Y-76925D01*
X-52350Y-75250D02*
X-48625D01*
X-55750Y-58099D02*
Y-55700D01*
X-56300Y-58225D02*
Y-55300D01*
X-52350Y-50429D02*
X-52125Y-50654D01*
X-60925Y-77525D02*
Y-75375D01*
X-62450Y-73850D02*
X-60925Y-75375D01*
X-51050Y-47249D02*
X-48226Y-44425D01*
X-51050Y-56825D02*
Y-47249D01*
X-48076Y-43850D02*
X-42925D01*
X-52050Y-47824D02*
X-48076Y-43850D01*
X-52050Y-50304D02*
Y-47824D01*
X-56788Y-75375D02*
X-56240D01*
X-56864Y-74875D02*
X-56447D01*
X-47777Y-48402D02*
X-46475Y-47100D01*
X-47777Y-59175D02*
Y-48402D01*
X-54875Y-71843D02*
X-53805Y-72912D01*
X-50935D01*
X-54875Y-71843D02*
Y-61925D01*
X-54550Y-69925D02*
Y-62024D01*
Y-69925D02*
X-53925Y-70550D01*
X-52675Y-68275D02*
X-51300Y-69650D01*
X-52675Y-68275D02*
X-52675D01*
X-55297Y-76325D02*
X-53001D01*
X-56447Y-77475D02*
X-55297Y-76325D01*
X-53001D02*
X-52301Y-75625D01*
X-56122Y-76025D02*
X-53125D01*
X-52350Y-75250D01*
X-38252Y-62473D02*
Y-58098D01*
Y-62473D02*
X-37625Y-63100D01*
X-39250Y-57100D02*
X-38252Y-58098D01*
X-39050Y-82200D02*
Y-81162D01*
X-37975Y-80087D01*
Y-63450D01*
X-37625Y-63100D01*
X-38750Y-38800D02*
Y-36275D01*
X-39250Y-57100D02*
Y-39300D01*
X-38750Y-38800D01*
X-46700Y-66550D02*
X-44725Y-64575D01*
X-49677Y-47520D02*
X-49652Y-47545D01*
Y-47772D02*
Y-47545D01*
Y-47772D02*
X-49325Y-48099D01*
X-49025Y-56925D02*
Y-47975D01*
X-54250Y-62150D02*
X-49025Y-56925D01*
X-54250Y-69160D02*
Y-62150D01*
X-49325Y-56799D02*
Y-48099D01*
X-54550Y-62024D02*
X-49325Y-56799D01*
X-54875Y-61925D02*
X-49625Y-56675D01*
X-49925Y-56551D02*
Y-49255D01*
X-55175Y-61801D02*
X-49925Y-56551D01*
X-55175Y-72250D02*
Y-61801D01*
X-55775Y-61550D02*
X-51050Y-56825D01*
X-52703Y-50500D02*
X-52425Y-50778D01*
X-53203Y-50425D02*
X-52725Y-50902D01*
Y-56379D02*
Y-50902D01*
X-50427Y-48752D02*
X-49925Y-49255D01*
X-50152Y-47752D02*
X-49625Y-48280D01*
X-49177Y-47823D02*
X-49025Y-47975D01*
X-49177Y-47823D02*
Y-47252D01*
X-49677Y-47520D02*
Y-46752D01*
X-49675Y-46750D01*
X-51474Y-60800D02*
X-50675D01*
X-53472Y-62798D02*
X-51474Y-60800D01*
X-53472Y-69225D02*
Y-62798D01*
X-52975Y-69475D02*
Y-62726D01*
X-51349Y-61100D02*
X-50551D01*
X-52975Y-62726D02*
X-51349Y-61100D01*
X-51225Y-61400D02*
X-50426D01*
X-52675Y-62850D02*
X-51225Y-61400D01*
X-52675Y-68275D02*
Y-62850D01*
X-48077Y-59051D02*
Y-48254D01*
X-50426Y-61400D02*
X-48077Y-59051D01*
X-48377Y-58927D02*
Y-47588D01*
X-50551Y-61100D02*
X-48377Y-58927D01*
X-52975Y-69475D02*
X-52600Y-69850D01*
X-50675Y-60800D02*
X-48677Y-58802D01*
X-50050Y-61448D02*
X-47777Y-59175D01*
X-50050Y-69825D02*
Y-61448D01*
Y-69825D02*
X-49800Y-70075D01*
X-49750Y-61572D02*
X-47477Y-59299D01*
X-49750Y-69650D02*
Y-61572D01*
Y-69650D02*
X-49500Y-69900D01*
X-47150Y-59396D02*
Y-53950D01*
X-49450Y-61696D02*
X-47150Y-59396D01*
X-49450Y-69425D02*
Y-61696D01*
X-48377Y-47588D02*
X-48202Y-47413D01*
Y-46702D01*
X-48077Y-48254D02*
X-47600Y-47776D01*
X-47150Y-53950D02*
X-46450Y-53250D01*
X-47600Y-47776D02*
Y-47200D01*
X-45925Y-56550D02*
X-45625Y-56250D01*
X-46250Y-61174D02*
Y-59068D01*
X-48025Y-72308D02*
Y-62949D01*
X-46250Y-61174D01*
X-48325Y-62824D02*
X-46550Y-61049D01*
X-48325Y-71901D02*
Y-62824D01*
X-48850Y-62925D02*
X-46850Y-60925D01*
X-48850Y-71250D02*
Y-62925D01*
X-48627Y-72204D02*
X-48325Y-71901D01*
X-49542Y-73825D02*
X-48025Y-72308D01*
X-47725Y-72452D02*
Y-63144D01*
X-49776Y-74504D02*
X-47725Y-72452D01*
X-44156Y-60000D02*
X-43843D01*
X-47425Y-63269D02*
X-44156Y-60000D01*
X-47425Y-72576D02*
Y-63269D01*
X-43843Y-60000D02*
X-43175Y-59332D01*
X-49150Y-71068D02*
Y-69725D01*
X-49450Y-69425D02*
X-49150Y-69725D01*
X-49500Y-70950D02*
Y-69900D01*
X-49800Y-70682D02*
Y-70075D01*
X-54250Y-69160D02*
X-52935Y-70475D01*
X-46250Y-59068D02*
X-45385Y-58203D01*
X-55175Y-72250D02*
X-54500Y-72925D01*
X-55475Y-71303D02*
Y-61676D01*
X-56447Y-72275D02*
X-55475Y-71303D01*
X-55775Y-71010D02*
Y-61550D01*
X-55995Y-71230D02*
X-55775Y-71010D01*
X-53203Y-50425D02*
Y-46252D01*
X-53879Y-74229D02*
X-53475Y-73825D01*
X-56803Y-74229D02*
X-53879D01*
X-53922Y-73500D02*
X-49675D01*
X-56240Y-75375D02*
X-55740Y-74875D01*
X-56922Y-76825D02*
X-56122Y-76025D01*
X-56850Y-54750D02*
X-56300Y-55300D01*
X-56390Y-71625D02*
X-55995Y-71230D01*
X-53328Y-74504D02*
X-49776D01*
X-53475Y-73825D02*
X-49542D01*
X-49127Y-71527D02*
X-48850Y-71250D01*
X-49127Y-72952D02*
Y-71527D01*
X-49675Y-73500D02*
X-49127Y-72952D01*
X-49724Y-74875D02*
X-47425Y-72576D01*
X-52850Y-74875D02*
X-49724D01*
X-45385Y-58203D02*
X-44652D01*
X-49900Y-71818D02*
X-49150Y-71068D01*
X-50825Y-72275D02*
X-49500Y-70950D01*
X-50743Y-71625D02*
X-49800Y-70682D01*
X-53467Y-80975D02*
X-50621Y-78129D01*
X-53475Y-69228D02*
X-53472Y-69225D01*
X-52935Y-70475D02*
X-50300D01*
X-55740Y-74875D02*
X-54172D01*
X-49900Y-72925D02*
Y-71818D01*
X-54050Y-71625D02*
X-50743D01*
X-49675Y-73500D02*
Y-73500D01*
X-53325Y-75350D02*
X-52850Y-74875D01*
X-55750Y-55700D02*
X-54328Y-54278D01*
X-85100Y-83100D02*
X-81950D01*
X-85100Y-84100D02*
X-81797D01*
X-52600Y-69875D02*
Y-69850D01*
X-5330Y-93695D02*
X-5325Y-93700D01*
X-53450Y-72275D02*
X-52675D01*
X-52675Y-72275D01*
X-50825D01*
X-55475Y-61676D02*
X-50475Y-56676D01*
Y-51250D01*
X-46850Y-60925D02*
Y-58750D01*
X-45925Y-57825D01*
Y-56550D01*
X-46550Y-61049D02*
Y-58874D01*
X-45325Y-57649D01*
X-47477Y-59299D02*
Y-48952D01*
X-45475Y-46950D01*
X-54650Y-44600D02*
X-54300Y-44250D01*
X-54650Y-52850D02*
Y-44600D01*
X-53775Y-52600D02*
X-53100Y-53275D01*
Y-56324D02*
Y-53275D01*
X-53775Y-47763D02*
Y-43750D01*
X-54350Y-47763D02*
X-53775D01*
X-54350Y-48088D02*
Y-47763D01*
Y-48088D02*
X-53775D01*
Y-48412D02*
Y-48088D01*
X-54350Y-48412D02*
X-53775D01*
X-54350Y-48737D02*
Y-48412D01*
Y-48737D02*
X-53775D01*
Y-49062D02*
Y-48737D01*
X-54350Y-49062D02*
X-53775D01*
X-54350Y-49388D02*
Y-49062D01*
Y-49388D02*
X-53775D01*
Y-49713D02*
Y-49388D01*
X-54350Y-49713D02*
X-53775D01*
X-54350Y-50037D02*
Y-49713D01*
Y-50037D02*
X-53775D01*
Y-50363D02*
Y-50037D01*
X-54350Y-50363D02*
X-53775D01*
X-54350Y-50688D02*
Y-50363D01*
Y-50688D02*
X-53775D01*
Y-52600D02*
Y-50688D01*
X-52703Y-50500D02*
Y-45727D01*
X-49625Y-56675D02*
Y-48280D01*
X-58850Y-80975D02*
X-58521D01*
X-57863D01*
Y-83348D02*
Y-80975D01*
Y-83348D02*
X-57205D01*
Y-80975D01*
X-53897D01*
X-53467D01*
X-48226Y-44425D02*
X-45752D01*
D81*
X-34510Y-50090D02*
Y-35593D01*
X-34552Y-35552D02*
X-34510Y-35593D01*
Y-50090D02*
X-34075Y-50525D01*
X-33850Y-37775D02*
X-33375Y-37300D01*
X-33850Y-49817D02*
Y-37775D01*
Y-49817D02*
X-33415Y-50252D01*
X-26866Y-84173D02*
X-26819D01*
X-30145Y-80894D02*
Y-71872D01*
X-31542Y-70474D02*
X-30145Y-71872D01*
Y-80894D02*
X-26866Y-84173D01*
X-31542Y-70474D02*
Y-52016D01*
X-34075Y-71200D02*
X-32125Y-73150D01*
X-34075Y-71200D02*
Y-50525D01*
X-32283Y-70674D02*
X-30810Y-72147D01*
X-32283Y-70674D02*
Y-52292D01*
X-30810Y-82488D02*
Y-72147D01*
Y-82488D02*
X-26825Y-86473D01*
X-22175Y-78175D02*
Y-45950D01*
X-22968Y-45158D02*
X-22175Y-45950D01*
X-22968Y-45158D02*
Y-40450D01*
X-22725Y-40208D01*
X-31100Y-51573D02*
Y-50375D01*
X-32050Y-49425D02*
X-31100Y-50375D01*
X-32050Y-49425D02*
Y-36125D01*
X-33415Y-51160D02*
X-32283Y-52292D01*
X-33415Y-51160D02*
Y-50252D01*
X-9068Y-89950D02*
X-7407Y-91611D01*
X-17574Y-87226D02*
X-17549Y-87251D01*
X-17545D01*
X-14846Y-89950D01*
X-9068D01*
X-8427Y-89575D02*
X-6500Y-91503D01*
X-13900Y-89575D02*
X-8427D01*
X-31542Y-52016D02*
X-31100Y-51573D01*
X-22584Y-85016D02*
X-18458D01*
X-13900Y-89575D01*
X-24577Y-83023D02*
X-22584Y-85016D01*
X-26825Y-83023D02*
X-24577D01*
X-7425Y-92525D02*
X-7407Y-92507D01*
Y-91611D01*
X-6500Y-92200D02*
Y-91503D01*
X-19217Y-87226D02*
X-17574D01*
X-26819Y-84173D02*
X-23765Y-87226D01*
X-19217D02*
X-19217Y-87226D01*
X-23765Y-87226D02*
X-19217D01*
X-22884Y-89766D02*
X-19217D01*
X-26174Y-86476D02*
X-22884Y-89766D01*
X-26823Y-86476D02*
X-26174D01*
X-4475Y-96007D02*
Y-95675D01*
X-5111Y-96643D02*
X-4475Y-96007D01*
X-5114Y-96643D02*
X-5111D01*
X-6309Y-97838D02*
X-5114Y-96643D01*
X-10491Y-97838D02*
X-6309D01*
X-11501Y-98848D02*
X-10491Y-97838D01*
X-26825Y-88773D02*
X-22473Y-93125D01*
X-26825Y-86473D02*
X-26823Y-86476D01*
X-19217Y-89766D02*
X-19215Y-89764D01*
X-17411D01*
X-14075Y-93100D01*
X-8350D01*
X-5325Y-96125D01*
X-2025Y-95300D02*
Y-94525D01*
X-7819Y-88731D02*
X-2025Y-94525D01*
X-9494Y-88731D02*
X-7819D01*
X-18619Y-79606D02*
X-9494Y-88731D01*
X-20744Y-79606D02*
X-18619D01*
X-22175Y-78175D02*
X-20744Y-79606D01*
X-22725Y-40208D02*
Y-38075D01*
X-28275Y-81573D02*
X-26825Y-83023D01*
X-28275Y-81573D02*
Y-72425D01*
X-30618Y-70082D02*
X-28275Y-72425D01*
X-30618Y-70082D02*
Y-61732D01*
X-31250Y-37375D02*
X-30507Y-38118D01*
X-30618Y-61732D02*
X-30507Y-61622D01*
Y-38118D01*
X-84000Y-87025D02*
X-82875D01*
X-85725Y-85300D02*
Y-41700D01*
Y-85300D02*
X-84000Y-87025D01*
X-42250Y-38075D02*
Y-35659D01*
X-38250Y-38075D02*
Y-33968D01*
X-40224Y-31994D02*
X-38250Y-33968D01*
X-41827Y-37498D02*
X-41250Y-38075D01*
X-41827Y-37498D02*
Y-36203D01*
X-41281Y-35657D01*
X-42250Y-35659D02*
X-41750Y-35159D01*
Y-24639D01*
X-44625Y-37975D02*
Y-36624D01*
X-45461Y-35788D02*
X-44625Y-36624D01*
X-44750Y-26489D02*
X-42230Y-23969D01*
X-44750Y-35550D02*
Y-26489D01*
X-45461Y-25930D02*
X-43500Y-23969D01*
X-45461Y-35788D02*
Y-25930D01*
X-41750Y-24639D02*
X-41527Y-24417D01*
X-41281Y-35657D02*
Y-24997D01*
X-40976Y-24692D01*
X-44770Y-23969D02*
X-43925Y-23123D01*
X-42054D01*
X-41527Y-23650D01*
Y-24417D02*
Y-23650D01*
X-46040Y-23969D02*
X-44781Y-22710D01*
X-41802D01*
X-40976Y-23536D01*
Y-24692D02*
Y-23536D01*
X-40960Y-19893D02*
X-40224Y-20630D01*
Y-31994D02*
Y-20630D01*
X-37150Y-27835D02*
Y-19893D01*
X-38368Y-29053D02*
X-37150Y-27835D01*
X-35880Y-27042D02*
Y-19893D01*
X-34610D02*
X-31064Y-23440D01*
X-29427Y-27823D02*
X-27625Y-29625D01*
X-31064Y-26614D02*
Y-23440D01*
Y-26614D02*
X-29854Y-27823D01*
X-29427D01*
X-35880Y-27042D02*
X-35484Y-27438D01*
X-31137D01*
X-28950Y-29625D01*
X-14377Y-98848D02*
X-11501D01*
X-22473Y-93125D02*
X-20100D01*
X-14377Y-98848D01*
X-27498Y-88773D02*
X-26825D01*
X-32125Y-84146D02*
Y-73150D01*
Y-84146D02*
X-27498Y-88773D01*
D85*
X-27442Y-51755D02*
D03*
X-6970Y-71910D02*
D03*
Y-74450D02*
D03*
Y-84610D02*
D03*
Y-82070D02*
D03*
X-4430D02*
D03*
X-6970Y-79530D02*
D03*
X-19670Y-58194D02*
D03*
Y-50574D02*
D03*
Y-53114D02*
D03*
Y-63274D02*
D03*
Y-60734D02*
D03*
Y-86134D02*
D03*
Y-83594D02*
D03*
Y-91214D02*
D03*
X-67930Y-65814D02*
D03*
Y-63274D02*
D03*
X-42530Y-71021D02*
D03*
X-50150Y-98834D02*
D03*
Y-101374D02*
D03*
X-52690Y-98834D02*
D03*
X-60310Y-101374D02*
D03*
Y-98834D02*
D03*
X-38730Y-10950D02*
D03*
X-6970Y-38890D02*
D03*
Y-49050D02*
D03*
Y-46510D02*
D03*
X-4430D02*
D03*
X-19670Y-23650D02*
D03*
Y-26190D02*
D03*
Y-38890D02*
D03*
Y-41430D02*
D03*
X-67930Y-93754D02*
D03*
D97*
X-17307Y-54362D02*
D03*
X-26009Y-55957D02*
D03*
X-25800Y-66200D02*
D03*
X-28015Y-69663D02*
D03*
X-35350Y-69775D02*
D03*
X-37450Y-69650D02*
D03*
X-58700Y-47950D02*
D03*
X-61256Y-54278D02*
D03*
X-58771Y-47200D02*
D03*
X-43765Y-33165D02*
D03*
X-38748Y-102900D02*
D03*
X-14925Y-80800D02*
D03*
X-46975Y-79425D02*
D03*
X-58075Y-75200D02*
D03*
X-56922Y-71625D02*
D03*
X-62050Y-69100D02*
D03*
X-57250Y-42775D02*
D03*
X-58850Y-80975D02*
D03*
X-54172Y-80075D02*
D03*
X-58416Y-78941D02*
D03*
X-57987Y-80088D02*
D03*
X-60925Y-77525D02*
D03*
X-26825Y-87623D02*
D03*
X-2025Y-95300D02*
D03*
X-4475Y-95675D02*
D03*
X-5325Y-93700D02*
D03*
X-3425Y-95625D02*
D03*
X-26325Y-41275D02*
D03*
X-42925Y-43850D02*
D03*
X-43750Y-59200D02*
D03*
X-46475Y-47100D02*
D03*
X-45475Y-46950D02*
D03*
X-45752Y-44427D02*
D03*
X-53450Y-72275D02*
D03*
X-44125Y-43325D02*
D03*
X-70653Y-51753D02*
D03*
Y-59628D02*
D03*
X-41248Y-102900D02*
D03*
X-53678D02*
D03*
X-55377D02*
D03*
X-44400Y-92700D02*
D03*
X-12075Y-87200D02*
D03*
X-44652Y-58203D02*
D03*
X-45625Y-56250D02*
D03*
X-50475Y-51250D02*
D03*
X-26825Y-91048D02*
D03*
X-13425Y-87925D02*
D03*
X-13800Y-86575D02*
D03*
X-48627Y-72204D02*
D03*
X-53925Y-70550D02*
D03*
X-50300Y-70475D02*
D03*
X-52600Y-69875D02*
D03*
X-51300Y-69650D02*
D03*
X-47100Y-45125D02*
D03*
X-51550Y-49750D02*
D03*
X-45325Y-57250D02*
D03*
X-50427Y-48752D02*
D03*
X-50922Y-72925D02*
D03*
X-46450Y-53250D02*
D03*
X-61425Y-80925D02*
D03*
X-29300Y-57225D02*
D03*
X-2000Y-96250D02*
D03*
X-36452Y-42752D02*
D03*
X-50152Y-47752D02*
D03*
X-49177Y-47252D02*
D03*
X-56447Y-72275D02*
D03*
Y-77475D02*
D03*
X-56803Y-74229D02*
D03*
X-53922Y-73500D02*
D03*
X-54500Y-72925D02*
D03*
X-56447Y-74875D02*
D03*
X-49675Y-46750D02*
D03*
X-52703Y-45727D02*
D03*
X-57700Y-76925D02*
D03*
X-45727Y-62278D02*
D03*
X-48202Y-46702D02*
D03*
X-45225Y-63850D02*
D03*
X-53203Y-46252D02*
D03*
X-53475Y-69228D02*
D03*
X-54050Y-71625D02*
D03*
X-37227Y-45227D02*
D03*
X-35950Y-44750D02*
D03*
X-39702Y-27576D02*
D03*
X-53325Y-75350D02*
D03*
X-54647Y-78125D02*
D03*
X-64178Y-79554D02*
D03*
X-63028Y-50727D02*
D03*
X-42752Y-44852D02*
D03*
X-42750Y-62675D02*
D03*
X-43250Y-62125D02*
D03*
X-37750Y-41500D02*
D03*
X-32875Y-69775D02*
D03*
X-33375Y-37300D02*
D03*
X-26825Y-86473D02*
D03*
Y-83023D02*
D03*
Y-88773D02*
D03*
X-42250Y-38075D02*
D03*
X-56922Y-76825D02*
D03*
X-36752Y-62403D02*
D03*
X-23825Y-39325D02*
D03*
X-23300Y-38800D02*
D03*
X-54328Y-54278D02*
D03*
X-24325Y-47475D02*
D03*
X-41250Y-38075D02*
D03*
X-39750Y-37075D02*
D03*
X-38550Y-81700D02*
D03*
X-38250Y-38075D02*
D03*
X-11900Y-96100D02*
D03*
X-6500Y-92200D02*
D03*
X-7925Y-91825D02*
D03*
X-72950Y-58425D02*
D03*
X-37477Y-51753D02*
D03*
X-26009Y-30166D02*
D03*
X-24734Y-30725D02*
D03*
X-56850Y-54750D02*
D03*
X-54300Y-44250D02*
D03*
X-53775Y-43750D02*
D03*
X-22400Y-8950D02*
D03*
X-60175Y-24550D02*
D03*
X-57025Y-41750D02*
D03*
X-30100Y-69525D02*
D03*
X-31025Y-61300D02*
D03*
X-29300Y-61875D02*
D03*
X-22450Y-41275D02*
D03*
X-36177Y-37102D02*
D03*
X-69303Y-56603D02*
D03*
X-76250Y-23825D02*
D03*
X-32975Y-42500D02*
D03*
X-32050Y-36125D02*
D03*
X-34552Y-35552D02*
D03*
X-79475Y-41525D02*
D03*
X-23800Y-46875D02*
D03*
X-33425Y-96925D02*
D03*
X-71275Y-104680D02*
D03*
X-21725Y-40550D02*
D03*
X-37625Y-63100D02*
D03*
X-66425Y-53950D02*
D03*
X-64400Y-54625D02*
D03*
X-40750Y-37050D02*
D03*
X-67175Y-54125D02*
D03*
X-21750Y-43100D02*
D03*
X-31875Y-29950D02*
D03*
X-41127Y-63128D02*
D03*
X-41725Y-66800D02*
D03*
X-42875Y-66800D02*
D03*
X-36600Y-10075D02*
D03*
X-74675Y-5200D02*
D03*
X-32050Y-13000D02*
D03*
X-37325Y-90250D02*
D03*
X-29650Y-22675D02*
D03*
X-7425Y-92525D02*
D03*
X-70100Y-104175D02*
D03*
X-29875Y-5075D02*
D03*
X-49625Y-79425D02*
D03*
X-50621Y-78129D02*
D03*
X-53672Y-78125D02*
D03*
X-26825Y-89923D02*
D03*
X-26819Y-84173D02*
D03*
Y-85323D02*
D03*
X-26825Y-81873D02*
D03*
X-85175Y-87600D02*
D03*
X-60775Y-9450D02*
D03*
X-30150Y-10525D02*
D03*
X-5325Y-96125D02*
D03*
X-85175Y-89600D02*
D03*
X-84625Y-88100D02*
D03*
X-37325Y-85625D02*
D03*
Y-81175D02*
D03*
X-56447Y-73575D02*
D03*
X-78659Y-26430D02*
D03*
X-73705Y-28970D02*
D03*
X-78659Y-39130D02*
D03*
Y-41670D02*
D03*
Y-44210D02*
D03*
Y-51830D02*
D03*
X-49900Y-72925D02*
D03*
X-53328Y-74504D02*
D03*
X-54172Y-74875D02*
D03*
X-61200Y-56500D02*
D03*
X-83775Y-28350D02*
D03*
X-82875Y-87025D02*
D03*
X-84433Y-83600D02*
D03*
X-74775Y-67250D02*
D03*
X-85100Y-84100D02*
D03*
Y-83100D02*
D03*
X-84433Y-84600D02*
D03*
X-70800Y-46925D02*
D03*
X-83200Y-90150D02*
D03*
X-86775Y-59075D02*
D03*
X-44250Y-62025D02*
D03*
X-77675Y-65625D02*
D03*
X-77176Y-62199D02*
D03*
X-55850Y-115600D02*
D03*
X-52250Y-115275D02*
D03*
X-65025Y-107450D02*
D03*
Y-106300D02*
D03*
Y-104000D02*
D03*
X-35125Y-29750D02*
D03*
X-24575Y-75975D02*
D03*
Y-73425D02*
D03*
X-79350Y-79200D02*
D03*
X-72125Y-54325D02*
D03*
X-76600Y-64425D02*
D03*
X-27625Y-29625D02*
D03*
X-28950D02*
D03*
X-29150Y-53150D02*
D03*
X-31250Y-37375D02*
D03*
X-17700Y-69650D02*
D03*
X-13425Y-73175D02*
D03*
X-13775Y-60700D02*
D03*
X-63750Y-61200D02*
D03*
X-64400Y-60425D02*
D03*
X-65725Y-82325D02*
D03*
X-65875Y-39050D02*
D03*
Y-54475D02*
D03*
X-27276Y-71150D02*
D03*
X-32900Y-88025D02*
D03*
X-62500Y-49575D02*
D03*
X-47600Y-47200D02*
D03*
X-44150Y-44350D02*
D03*
X-29575Y-36400D02*
D03*
X-38200Y-47575D02*
D03*
X-44750Y-35550D02*
D03*
X-25300Y-60184D02*
D03*
X-24450Y-39875D02*
D03*
X-22725Y-38075D02*
D03*
X-44625Y-37975D02*
D03*
X-44775Y-82150D02*
D03*
X-39100Y-30250D02*
D03*
X-81550Y-44100D02*
D03*
X-78661Y-36587D02*
D03*
X-65050Y-48475D02*
D03*
X-73625Y-60125D02*
D03*
X-65025Y-105150D02*
D03*
X-42530Y-25675D02*
D03*
X-33525Y-34950D02*
D03*
X-13425Y-98075D02*
D03*
X-70525Y-108650D02*
D03*
X-54325Y-17225D02*
D03*
X-81250Y-21975D02*
D03*
X-73467Y-23887D02*
D03*
X-70850Y-5525D02*
D03*
X-85725Y-41700D02*
D03*
X-40750Y-26450D02*
D03*
X-42230Y-23969D02*
D03*
X-43500D02*
D03*
X-46040D02*
D03*
X-44770D02*
D03*
X-40960Y-19893D02*
D03*
X-38368Y-29053D02*
D03*
X-37150Y-19893D02*
D03*
X-35880D02*
D03*
X-34610D02*
D03*
X-36477Y-23929D02*
D03*
X-23459Y-30014D02*
D03*
D98*
X-25550Y-16825D02*
D03*
X-26200D02*
D03*
M02*
