G04 Layer_Color=16711935*
%FSLAX44Y44*%
%MOMM*%
G71*
G01*
G75*
%ADD62C,0.1000*%
%ADD63C,0.0500*%
D62*
X1612500Y971250D02*
Y988750D01*
X1579000Y971250D02*
Y988750D01*
Y971250D02*
X1612500D01*
X1579000Y988750D02*
X1612500D01*
X1432500Y971250D02*
Y988750D01*
X1399000Y971250D02*
Y988750D01*
Y971250D02*
X1432500D01*
X1399000Y988750D02*
X1432500D01*
X1257500Y966250D02*
Y983750D01*
X1224000Y966250D02*
Y983750D01*
Y966250D02*
X1257500D01*
X1224000Y983750D02*
X1257500D01*
X1077500Y966250D02*
Y983750D01*
X1044000Y966250D02*
Y983750D01*
Y966250D02*
X1077500D01*
X1044000Y983750D02*
X1077500D01*
X1042500Y991250D02*
Y1008750D01*
X1076000Y991250D02*
Y1008750D01*
X1042500D02*
X1076000D01*
X1042500Y991250D02*
X1076000D01*
X867500Y961250D02*
Y978750D01*
X901000Y961250D02*
Y978750D01*
X867500D02*
X901000D01*
X867500Y961250D02*
X901000D01*
X687500D02*
Y978750D01*
X721000Y961250D02*
Y978750D01*
X687500D02*
X721000D01*
X687500Y961250D02*
X721000D01*
X507500D02*
Y978750D01*
X541000Y961250D02*
Y978750D01*
X507500D02*
X541000D01*
X507500Y961250D02*
X541000D01*
X327500Y966250D02*
Y983750D01*
X361000Y966250D02*
Y983750D01*
X327500D02*
X361000D01*
X327500Y966250D02*
X361000D01*
X1662500Y941250D02*
Y958750D01*
X1696000Y941250D02*
Y958750D01*
X1662500D02*
X1696000D01*
X1662500Y941250D02*
X1696000D01*
X1512500D02*
Y958750D01*
X1479000Y941250D02*
Y958750D01*
Y941250D02*
X1512500D01*
X1479000Y958750D02*
X1512500D01*
X1287500Y941250D02*
Y958750D01*
X1321000Y941250D02*
Y958750D01*
X1287500D02*
X1321000D01*
X1287500Y941250D02*
X1321000D01*
X1117500D02*
Y958750D01*
X1151000Y941250D02*
Y958750D01*
X1117500D02*
X1151000D01*
X1117500Y941250D02*
X1151000D01*
X962500Y921250D02*
Y938750D01*
X929000Y921250D02*
Y938750D01*
Y921250D02*
X962500D01*
X929000Y938750D02*
X962500D01*
X722500Y921250D02*
Y938750D01*
X689000Y921250D02*
Y938750D01*
Y921250D02*
X722500D01*
X689000Y938750D02*
X722500D01*
X1489850Y861100D02*
X1507350D01*
X1489850Y894600D02*
X1507350D01*
X1489850Y861100D02*
Y894600D01*
X1507350Y861100D02*
Y894600D01*
X1134250Y861100D02*
X1151750D01*
X1134250Y894600D02*
X1151750D01*
X1134250Y861100D02*
Y894600D01*
X1151750Y861100D02*
Y894600D01*
X852500Y821250D02*
Y838750D01*
X819000Y821250D02*
Y838750D01*
Y821250D02*
X852500D01*
X819000Y838750D02*
X852500D01*
X492500Y821250D02*
Y838750D01*
X459000Y821250D02*
Y838750D01*
Y821250D02*
X492500D01*
X459000Y838750D02*
X492500D01*
X1207500Y731250D02*
Y748750D01*
X1241000Y731250D02*
Y748750D01*
X1207500D02*
X1241000D01*
X1207500Y731250D02*
X1241000D01*
X1577500Y996250D02*
Y1013750D01*
X1611000Y996250D02*
Y1013750D01*
X1577500D02*
X1611000D01*
X1577500Y996250D02*
X1611000D01*
X1342500Y731250D02*
Y748750D01*
X1309000Y731250D02*
Y748750D01*
Y731250D02*
X1342500D01*
X1309000Y748750D02*
X1342500D01*
X631250Y717500D02*
X648750D01*
X631250Y751000D02*
X648750D01*
X631250Y717500D02*
Y751000D01*
X648750Y717500D02*
Y751000D01*
X1397500Y996250D02*
Y1013750D01*
X1431000Y996250D02*
Y1013750D01*
X1397500D02*
X1431000D01*
X1397500Y996250D02*
X1431000D01*
X1107500Y731250D02*
Y748750D01*
X1141000Y731250D02*
Y748750D01*
X1107500D02*
X1141000D01*
X1107500Y731250D02*
X1141000D01*
X1222500Y991250D02*
Y1008750D01*
X1256000Y991250D02*
Y1008750D01*
X1222500D02*
X1256000D01*
X1222500Y991250D02*
X1256000D01*
X1007500Y731250D02*
Y748750D01*
X1041000Y731250D02*
Y748750D01*
X1007500D02*
X1041000D01*
X1007500Y731250D02*
X1041000D01*
X907500D02*
Y748750D01*
X941000Y731250D02*
Y748750D01*
X907500D02*
X941000D01*
X907500Y731250D02*
X941000D01*
X902500Y991250D02*
Y1008750D01*
X869000Y991250D02*
Y1008750D01*
Y991250D02*
X902500D01*
X869000Y1008750D02*
X902500D01*
X722500Y991250D02*
Y1008750D01*
X689000Y991250D02*
Y1008750D01*
Y991250D02*
X722500D01*
X689000Y1008750D02*
X722500D01*
X542500Y991250D02*
Y1008750D01*
X509000Y991250D02*
Y1008750D01*
Y991250D02*
X542500D01*
X509000Y1008750D02*
X542500D01*
X362500Y991250D02*
Y1008750D01*
X329000Y991250D02*
Y1008750D01*
Y991250D02*
X362500D01*
X329000Y1008750D02*
X362500D01*
D63*
X479750Y608235D02*
X500250Y608240D01*
X479750Y608235D02*
X500250Y608240D01*
X479750Y591760D02*
X500250Y591765D01*
X479750Y591760D02*
X500250D01*
X473750Y591750D02*
Y608250D01*
Y591750D02*
X479750D01*
Y608250D01*
X473750D02*
X479750D01*
X500250Y591750D02*
X506250D01*
X500250D02*
Y608250D01*
X506250Y591750D02*
Y608250D01*
X500250D02*
X506250D01*
X1077750Y737260D02*
X1082250Y737265D01*
X1077750Y737260D02*
X1082250Y737265D01*
X1077750Y742735D02*
X1082250Y742740D01*
X1077750D02*
X1082250D01*
X1085250Y737250D02*
Y742750D01*
X1082250D02*
X1085250D01*
X1082250Y737250D02*
Y742750D01*
Y737250D02*
X1085250D01*
X1074750Y742750D02*
X1077750D01*
Y737250D02*
Y742750D01*
X1074750Y737250D02*
Y742750D01*
Y737250D02*
X1077750D01*
M02*
