M48
;Layer_Color=9474304
;FILE_FORMAT=4:4
METRIC,LZ
;TYPE=PLATED
T1F00S00C0.7112
T2F00S00C0.9200
T3F00S00C0.9652
T4F00S00C1.0160
T5F00S00C1.8000
T6F00S00C1.9000
T7F00S00C2.3000
T8F00S00C3.2000
%
T01
X0164592Y007473
X0134112Y00762
X011385Y00764214
X0106Y0074
X0096
X0062Y0075
X005654Y0063
X003315Y0102
X0051
X0055Y0089
X005Y008
X0069Y010206
X0087Y0095
X009Y00889
X0096Y0090412
X0106Y0095
X01045Y010212
X0112Y0092
X01143Y0084
X013Y0089868
X0125Y0095
X0135
X0145Y00956056
X01676654Y0092
X016935
T02
X01824999Y011365
X0185
X0187
X01894998
X01994999
X0202
X0204
X02064999
X02164999
X0219
X0221
X02234999
X02334999
X0236
X0238
X02404998
X02524999
X0255
X0257
X02594998
T03
X0162Y007473
Y007727
X0168
Y007473
X0157
Y007727
X0151
Y007473
X0199Y009873
Y010127
X0209
Y009873
X0219
Y010127
X0229
Y009873
X0252
Y010127
T04
X0054Y006
X005654
T05
X007952Y007112
Y007532
X007532
X007112
Y007112
X007532
X003732Y010756
Y011176
X004152
Y010756
X004572
Y011176
X00551
Y010756
X00593
X00635
Y011176
X00593
X007288
Y010756
X007708
Y011176
X008128
Y010756
X009066
X009486
X009906
Y011176
X009486
X009066
X010844
Y010756
X011264
X011684
Y011176
X011264
X012622
Y010756
X013042
X013462
Y011176
X013042
X0144
Y010756
X01482
X01524
Y011176
X01482
X016178
Y010756
X016598
X017018
Y011176
X016598
T06
X01225Y006096
X01267
X01309
X01351
Y006646
X01309
X01267
X01225
X01183
X01141
X01099
X01057
X01015
X00973
X00931
X00889
Y006096
X00931
X00973
X01015
X01057
X01099
X01141
X01183
T07
X017943Y011635
X01925699
X019643
X020957
X02134301
X022657
X023043
X02435699
X024943
X02625699
T08
X0268Y0059
X0223
X0174Y006
X007952Y006382
X007112
X003Y0061
Y0088
X003732Y011906
X004572
X00551
X00635
X007288
X008128
X009066
X009906
X010844
X011684
X012622
X013462
X0144
X01524
X016178
X017018
X0267Y009
X0268Y0122
X0029Y0121
M30
