G04 Layer_Color=32768*
%FSLAX44Y44*%
%MOMM*%
G71*
G01*
G75*
%ADD62C,0.1000*%
%ADD63C,0.0500*%
%ADD64C,0.5080*%
%ADD65C,0.2000*%
D62*
X1590750Y980000D02*
X1600750D01*
X1595750Y975000D02*
Y985000D01*
X1410750Y980000D02*
X1420750D01*
X1415750Y975000D02*
Y985000D01*
X1235750Y975000D02*
X1245750D01*
X1240750Y970000D02*
Y980000D01*
X1055750Y975000D02*
X1065750D01*
X1060750Y970000D02*
Y980000D01*
X1054250Y1000000D02*
X1064250D01*
X1059250Y995000D02*
Y1005000D01*
X879250Y970000D02*
X889250D01*
X884250Y965000D02*
Y975000D01*
X699250Y970000D02*
X709250D01*
X704250Y965000D02*
Y975000D01*
X519250Y970000D02*
X529250D01*
X524250Y965000D02*
Y975000D01*
X339250D02*
X349250D01*
X344250Y970000D02*
Y980000D01*
X1674250Y950000D02*
X1684250D01*
X1679250Y945000D02*
Y955000D01*
X1490750Y950000D02*
X1500750D01*
X1495750Y945000D02*
Y955000D01*
X1299250Y950000D02*
X1309250D01*
X1304250Y945000D02*
Y955000D01*
X1129250Y950000D02*
X1139250D01*
X1134250Y945000D02*
Y955000D01*
X940750Y930000D02*
X950750D01*
X945750Y925000D02*
Y935000D01*
X700750Y930000D02*
X710750D01*
X705750Y925000D02*
Y935000D01*
X1498600Y872850D02*
Y882850D01*
X1493600Y877850D02*
X1503600D01*
X1143000Y872850D02*
Y882850D01*
X1138000Y877850D02*
X1148000D01*
X830750Y830000D02*
X840750D01*
X835750Y825000D02*
Y835000D01*
X470750Y830000D02*
X480750D01*
X475750Y825000D02*
Y835000D01*
X1219250Y740000D02*
X1229250D01*
X1224250Y735000D02*
Y745000D01*
X1589250Y1005000D02*
X1599250D01*
X1594250Y1000000D02*
Y1010000D01*
X1320750Y740000D02*
X1330750D01*
X1325750Y735000D02*
Y745000D01*
X640000Y729250D02*
Y739250D01*
X635000Y734250D02*
X645000D01*
X1409250Y1005000D02*
X1419250D01*
X1414250Y1000000D02*
Y1010000D01*
X1119250Y740000D02*
X1129250D01*
X1124250Y735000D02*
Y745000D01*
X1234250Y1000000D02*
X1244250D01*
X1239250Y995000D02*
Y1005000D01*
X1019250Y740000D02*
X1029250D01*
X1024250Y735000D02*
Y745000D01*
X919250Y740000D02*
X929250D01*
X924250Y735000D02*
Y745000D01*
X880750Y1000000D02*
X890750D01*
X885750Y995000D02*
Y1005000D01*
X700750Y1000000D02*
X710750D01*
X705750Y995000D02*
Y1005000D01*
X520750Y1000000D02*
X530750D01*
X525750Y995000D02*
Y1005000D01*
X340750Y1000000D02*
X350750D01*
X345750Y995000D02*
Y1005000D01*
X467000Y589000D02*
X513000D01*
X467000Y611000D02*
X513000D01*
Y589000D02*
Y611000D01*
X467000Y589000D02*
Y611000D01*
X1090500Y734500D02*
Y745500D01*
X1069500Y734500D02*
Y745500D01*
Y734500D02*
X1090500D01*
X1069500Y745500D02*
X1090500D01*
D63*
X1618750Y968500D02*
Y991500D01*
X1572750Y968500D02*
Y991500D01*
Y968500D02*
X1618750D01*
X1572750Y991500D02*
X1618750D01*
X1438750Y968500D02*
Y991500D01*
X1392750Y968500D02*
Y991500D01*
Y968500D02*
X1438750D01*
X1392750Y991500D02*
X1438750D01*
X1263750Y963500D02*
Y986500D01*
X1217750Y963500D02*
Y986500D01*
Y963500D02*
X1263750D01*
X1217750Y986500D02*
X1263750D01*
X1083750Y963500D02*
Y986500D01*
X1037750Y963500D02*
Y986500D01*
Y963500D02*
X1083750D01*
X1037750Y986500D02*
X1083750D01*
X1036250Y988500D02*
Y1011500D01*
X1082250Y988500D02*
Y1011500D01*
X1036250D02*
X1082250D01*
X1036250Y988500D02*
X1082250D01*
X861250Y958500D02*
Y981500D01*
X907250Y958500D02*
Y981500D01*
X861250D02*
X907250D01*
X861250Y958500D02*
X907250D01*
X681250D02*
Y981500D01*
X727250Y958500D02*
Y981500D01*
X681250D02*
X727250D01*
X681250Y958500D02*
X727250D01*
X501250D02*
Y981500D01*
X547250Y958500D02*
Y981500D01*
X501250D02*
X547250D01*
X501250Y958500D02*
X547250D01*
X321250Y963500D02*
Y986500D01*
X367250Y963500D02*
Y986500D01*
X321250D02*
X367250D01*
X321250Y963500D02*
X367250D01*
X1656250Y938500D02*
Y961500D01*
X1702250Y938500D02*
Y961500D01*
X1656250D02*
X1702250D01*
X1656250Y938500D02*
X1702250D01*
X1518750D02*
Y961500D01*
X1472750Y938500D02*
Y961500D01*
Y938500D02*
X1518750D01*
X1472750Y961500D02*
X1518750D01*
X1281250Y938500D02*
Y961500D01*
X1327250Y938500D02*
Y961500D01*
X1281250D02*
X1327250D01*
X1281250Y938500D02*
X1327250D01*
X1111250D02*
Y961500D01*
X1157250Y938500D02*
Y961500D01*
X1111250D02*
X1157250D01*
X1111250Y938500D02*
X1157250D01*
X968750Y918500D02*
Y941500D01*
X922750Y918500D02*
Y941500D01*
Y918500D02*
X968750D01*
X922750Y941500D02*
X968750D01*
X728750Y918500D02*
Y941500D01*
X682750Y918500D02*
Y941500D01*
Y918500D02*
X728750D01*
X682750Y941500D02*
X728750D01*
X1487100Y854850D02*
X1510100D01*
X1487100Y900850D02*
X1510100D01*
X1487100Y854850D02*
Y900850D01*
X1510100Y854850D02*
Y900850D01*
X1131500Y854850D02*
X1154500D01*
X1131500Y900850D02*
X1154500D01*
X1131500Y854850D02*
Y900850D01*
X1154500Y854850D02*
Y900850D01*
X858750Y818500D02*
Y841500D01*
X812750Y818500D02*
Y841500D01*
Y818500D02*
X858750D01*
X812750Y841500D02*
X858750D01*
X498750Y818500D02*
Y841500D01*
X452750Y818500D02*
Y841500D01*
Y818500D02*
X498750D01*
X452750Y841500D02*
X498750D01*
X1201250Y728500D02*
Y751500D01*
X1247250Y728500D02*
Y751500D01*
X1201250D02*
X1247250D01*
X1201250Y728500D02*
X1247250D01*
X1571250Y993500D02*
Y1016500D01*
X1617250Y993500D02*
Y1016500D01*
X1571250D02*
X1617250D01*
X1571250Y993500D02*
X1617250D01*
X1348750Y728500D02*
Y751500D01*
X1302750Y728500D02*
Y751500D01*
Y728500D02*
X1348750D01*
X1302750Y751500D02*
X1348750D01*
X628500Y711250D02*
X651500D01*
X628500Y757250D02*
X651500D01*
X628500Y711250D02*
Y757250D01*
X651500Y711250D02*
Y757250D01*
X1391250Y993500D02*
Y1016500D01*
X1437250Y993500D02*
Y1016500D01*
X1391250D02*
X1437250D01*
X1391250Y993500D02*
X1437250D01*
X1101250Y728500D02*
Y751500D01*
X1147250Y728500D02*
Y751500D01*
X1101250D02*
X1147250D01*
X1101250Y728500D02*
X1147250D01*
X1216250Y988500D02*
Y1011500D01*
X1262250Y988500D02*
Y1011500D01*
X1216250D02*
X1262250D01*
X1216250Y988500D02*
X1262250D01*
X1001250Y728500D02*
Y751500D01*
X1047250Y728500D02*
Y751500D01*
X1001250D02*
X1047250D01*
X1001250Y728500D02*
X1047250D01*
X901250D02*
Y751500D01*
X947250Y728500D02*
Y751500D01*
X901250D02*
X947250D01*
X901250Y728500D02*
X947250D01*
X908750Y988500D02*
Y1011500D01*
X862750Y988500D02*
Y1011500D01*
Y988500D02*
X908750D01*
X862750Y1011500D02*
X908750D01*
X728750Y988500D02*
Y1011500D01*
X682750Y988500D02*
Y1011500D01*
Y988500D02*
X728750D01*
X682750Y1011500D02*
X728750D01*
X548750Y988500D02*
Y1011500D01*
X502750Y988500D02*
Y1011500D01*
Y988500D02*
X548750D01*
X502750Y1011500D02*
X548750D01*
X368750Y988500D02*
Y1011500D01*
X322750Y988500D02*
Y1011500D01*
Y988500D02*
X368750D01*
X322750Y1011500D02*
X368750D01*
D64*
X490000Y600000D02*
D03*
D65*
X1080000Y740000D02*
D03*
M02*
