G04 Layer_Color=65535*
%FSLAX44Y44*%
%MOMM*%
G71*
G01*
G75*
%ADD33C,0.1270*%
%ADD34C,0.1016*%
%ADD35C,0.2540*%
%ADD36C,0.2000*%
%ADD37C,0.0508*%
%ADD38C,0.4000*%
%ADD39C,0.1270*%
%ADD40C,0.2032*%
%ADD41C,0.2500*%
%ADD42C,0.1280*%
%ADD43R,1.4500X5.0750*%
D33*
X1926665Y1266250D02*
G03*
X1921400Y1260985I0J-5265D01*
G01*
X1927981Y1262301D02*
G03*
X1926007Y1260327I0J-1974D01*
G01*
X1793993D02*
G03*
X1792019Y1262301I-1974J0D01*
G01*
X1798600Y1260985D02*
G03*
X1793335Y1266250I-5265J0D01*
G01*
X2436665D02*
G03*
X2431400Y1260985I0J-5265D01*
G01*
X2437981Y1262301D02*
G03*
X2436007Y1260327I0J-1974D01*
G01*
X2303993D02*
G03*
X2302019Y1262301I-1974J0D01*
G01*
X2308600Y1260985D02*
G03*
X2303335Y1266250I-5265J0D01*
G01*
X2266665D02*
G03*
X2261400Y1260985I0J-5265D01*
G01*
X2267981Y1262301D02*
G03*
X2266007Y1260327I0J-1974D01*
G01*
X2133993D02*
G03*
X2132019Y1262301I-1974J0D01*
G01*
X2138600Y1260985D02*
G03*
X2133335Y1266250I-5265J0D01*
G01*
X2096665D02*
G03*
X2091400Y1260985I0J-5265D01*
G01*
X2097981Y1262301D02*
G03*
X2096007Y1260327I0J-1974D01*
G01*
X1963993D02*
G03*
X1962019Y1262301I-1974J0D01*
G01*
X1968600Y1260985D02*
G03*
X1963335Y1266250I-5265J0D01*
G01*
X2626665D02*
G03*
X2621400Y1260985I0J-5265D01*
G01*
X2627981Y1262301D02*
G03*
X2626007Y1260327I0J-1974D01*
G01*
X2493993D02*
G03*
X2492019Y1262301I-1974J0D01*
G01*
X2498600Y1260985D02*
G03*
X2493335Y1266250I-5265J0D01*
G01*
X1615551Y889000D02*
G03*
X1615550Y889250I-40751J0D01*
G01*
X1615551Y889000D02*
G03*
X1615551Y889000I-40751J0D01*
G01*
X1259951D02*
G03*
X1259950Y889250I-40751J0D01*
G01*
X1259951Y889000D02*
G03*
X1259951Y889000I-40751J0D01*
G01*
X878951D02*
G03*
X878950Y889250I-40751J0D01*
G01*
X878951Y889000D02*
G03*
X878951Y889000I-40751J0D01*
G01*
X523351D02*
G03*
X523350Y889250I-40751J0D01*
G01*
X523351Y889000D02*
G03*
X523351Y889000I-40751J0D01*
G01*
X1926665Y1266250D02*
X1932500D01*
X1916400Y1260984D02*
X1921400D01*
X1916400D02*
Y1266300D01*
X1927981Y1262300D02*
X1932500D01*
Y1266250D01*
X1925999Y1125300D02*
Y1260327D01*
X1793999Y1125300D02*
Y1260327D01*
X1787500Y1262300D02*
Y1266250D01*
Y1262300D02*
X1792019D01*
X1803600Y1260984D02*
Y1266300D01*
X1798600Y1260984D02*
X1803600D01*
X1787500Y1266250D02*
X1793335D01*
X1803600Y1266300D02*
X1916400D01*
X1793999Y1125300D02*
X1925999D01*
X2436665Y1266250D02*
X2442500D01*
X2426400Y1260984D02*
X2431400D01*
X2426400D02*
Y1266300D01*
X2437981Y1262300D02*
X2442500D01*
Y1266250D01*
X2435999Y1125300D02*
Y1260327D01*
X2303999Y1125300D02*
Y1260327D01*
X2297500Y1262300D02*
Y1266250D01*
Y1262300D02*
X2302019D01*
X2313600Y1260984D02*
Y1266300D01*
X2308600Y1260984D02*
X2313600D01*
X2297500Y1266250D02*
X2303335D01*
X2313600Y1266300D02*
X2426400D01*
X2303999Y1125300D02*
X2435999D01*
X2266665Y1266250D02*
X2272500D01*
X2256400Y1260984D02*
X2261400D01*
X2256400D02*
Y1266300D01*
X2267981Y1262300D02*
X2272500D01*
Y1266250D01*
X2265999Y1125300D02*
Y1260327D01*
X2133999Y1125300D02*
Y1260327D01*
X2127500Y1262300D02*
Y1266250D01*
Y1262300D02*
X2132019D01*
X2143600Y1260984D02*
Y1266300D01*
X2138600Y1260984D02*
X2143600D01*
X2127500Y1266250D02*
X2133335D01*
X2143600Y1266300D02*
X2256400D01*
X2133999Y1125300D02*
X2265999D01*
X2096665Y1266250D02*
X2102500D01*
X2086400Y1260984D02*
X2091400D01*
X2086400D02*
Y1266300D01*
X2097981Y1262300D02*
X2102500D01*
Y1266250D01*
X2095999Y1125300D02*
Y1260327D01*
X1963999Y1125300D02*
Y1260327D01*
X1957500Y1262300D02*
Y1266250D01*
Y1262300D02*
X1962019D01*
X1973600Y1260984D02*
Y1266300D01*
X1968600Y1260984D02*
X1973600D01*
X1957500Y1266250D02*
X1963335D01*
X1973600Y1266300D02*
X2086400D01*
X1963999Y1125300D02*
X2095999D01*
X2626665Y1266250D02*
X2632500D01*
X2616400Y1260984D02*
X2621400D01*
X2616400D02*
Y1266300D01*
X2627981Y1262300D02*
X2632500D01*
Y1266250D01*
X2625999Y1125300D02*
Y1260327D01*
X2493999Y1125300D02*
Y1260327D01*
X2487500Y1262300D02*
Y1266250D01*
Y1262300D02*
X2492019D01*
X2503600Y1260984D02*
Y1266300D01*
X2498600Y1260984D02*
X2503600D01*
X2487500Y1266250D02*
X2493335D01*
X2503600Y1266300D02*
X2616400D01*
X2493999Y1125300D02*
X2625999D01*
X485174Y608890D02*
X494826D01*
X484920Y591110D02*
X495080D01*
X1069500Y734500D02*
X1077500D01*
X1082500D02*
X1090500D01*
Y745500D01*
X1082500D02*
X1090500D01*
X1069500D02*
X1077500D01*
X1069500Y734500D02*
Y745500D01*
X2507300Y974600D02*
X2545400D01*
X2507300D02*
Y1025400D01*
X2545400D01*
Y974600D02*
Y1025400D01*
X2264600D02*
X2302700D01*
Y974600D02*
Y1025400D01*
X2264600Y974600D02*
X2302700D01*
X2264600D02*
Y1025400D01*
X2164600D02*
X2202700D01*
Y974600D02*
Y1025400D01*
X2164600Y974600D02*
X2202700D01*
X2164600D02*
Y1025400D01*
X2064600D02*
X2102700D01*
Y974600D02*
Y1025400D01*
X2064600Y974600D02*
X2102700D01*
X2064600D02*
Y1025400D01*
X1964600D02*
X2002700D01*
Y974600D02*
Y1025400D01*
X1964600Y974600D02*
X2002700D01*
X1964600D02*
Y1025400D01*
X1654600Y785400D02*
X1692700D01*
Y734600D02*
Y785400D01*
X1654600Y734600D02*
X1692700D01*
X1654600D02*
Y785400D01*
X1594600D02*
X1632700D01*
Y734600D02*
Y785400D01*
X1594600Y734600D02*
X1632700D01*
X1594600D02*
Y785400D01*
X1544600D02*
X1582700D01*
Y734600D02*
Y785400D01*
X1544600Y734600D02*
X1582700D01*
X1544600D02*
Y785400D01*
X1484600D02*
X1522700D01*
Y734600D02*
Y785400D01*
X1484600Y734600D02*
X1522700D01*
X1484600D02*
Y785400D01*
X1615550Y889250D02*
Y930500D01*
X1532550D02*
X1615550D01*
X1532550Y889000D02*
Y930500D01*
Y889000D02*
Y922000D01*
X1532800Y920500D02*
X1542800Y930500D01*
X1532550Y889000D02*
Y915500D01*
X1615550Y847500D02*
Y888750D01*
X1532550Y847500D02*
X1615550D01*
X1532550D02*
Y889000D01*
Y856000D02*
Y889000D01*
X1526050Y896750D02*
X1532550D01*
X1532800Y857500D02*
X1542800Y847500D01*
X1532550Y862500D02*
Y889000D01*
X1526050Y881250D02*
X1532550D01*
X1615550Y896750D02*
X1622300D01*
X1615550Y881250D02*
X1622300D01*
X1259950Y889250D02*
Y930500D01*
X1176950D02*
X1259950D01*
X1176950Y889000D02*
Y930500D01*
Y889000D02*
Y922000D01*
X1177200Y920500D02*
X1187200Y930500D01*
X1176950Y889000D02*
Y915500D01*
X1259950Y847500D02*
Y888750D01*
X1176950Y847500D02*
X1259950D01*
X1176950D02*
Y889000D01*
Y856000D02*
Y889000D01*
X1170450Y896750D02*
X1176950D01*
X1177200Y857500D02*
X1187200Y847500D01*
X1176950Y862500D02*
Y889000D01*
X1170450Y881250D02*
X1176950D01*
X1259950Y896750D02*
X1266700D01*
X1259950Y881250D02*
X1266700D01*
X878950Y889250D02*
Y930500D01*
X795950D02*
X878950D01*
X795950Y889000D02*
Y930500D01*
Y889000D02*
Y922000D01*
X796200Y920500D02*
X806200Y930500D01*
X795950Y889000D02*
Y915500D01*
X878950Y847500D02*
Y888750D01*
X795950Y847500D02*
X878950D01*
X795950D02*
Y889000D01*
Y856000D02*
Y889000D01*
X789450Y896750D02*
X795950D01*
X796200Y857500D02*
X806200Y847500D01*
X795950Y862500D02*
Y889000D01*
X789450Y881250D02*
X795950D01*
X878950Y896750D02*
X885700D01*
X878950Y881250D02*
X885700D01*
X523350Y889250D02*
Y930500D01*
X440350D02*
X523350D01*
X440350Y889000D02*
Y930500D01*
Y889000D02*
Y922000D01*
X440600Y920500D02*
X450600Y930500D01*
X440350Y889000D02*
Y915500D01*
X523350Y847500D02*
Y888750D01*
X440350Y847500D02*
X523350D01*
X440350D02*
Y889000D01*
Y856000D02*
Y889000D01*
X433850Y896750D02*
X440350D01*
X440600Y857500D02*
X450600Y847500D01*
X440350Y862500D02*
Y889000D01*
X433850Y881250D02*
X440350D01*
X523350Y896750D02*
X530100D01*
X523350Y881250D02*
X530100D01*
X1789678Y1114618D02*
X1787139D01*
X1788409D01*
Y1108270D01*
X1787139Y1107000D01*
X1785870D01*
X1784600Y1108270D01*
X1792218Y1107000D02*
X1794757D01*
X1793487D01*
Y1114618D01*
X1792218Y1113348D01*
X1803644Y1114618D02*
X1798566D01*
Y1110809D01*
X1801105Y1112078D01*
X1802374D01*
X1803644Y1110809D01*
Y1108270D01*
X1802374Y1107000D01*
X1799835D01*
X1798566Y1108270D01*
X2297478Y1114618D02*
X2294939D01*
X2296209D01*
Y1108270D01*
X2294939Y1107000D01*
X2293670D01*
X2292400Y1108270D01*
X2300018Y1107000D02*
X2302557D01*
X2301287D01*
Y1114618D01*
X2300018Y1113348D01*
X2310174Y1107000D02*
Y1114618D01*
X2306366Y1110809D01*
X2311444D01*
X2135278Y1114618D02*
X2132739D01*
X2134009D01*
Y1108270D01*
X2132739Y1107000D01*
X2131470D01*
X2130200Y1108270D01*
X2137818Y1107000D02*
X2140357D01*
X2139087D01*
Y1114618D01*
X2137818Y1113348D01*
X2144165D02*
X2145435Y1114618D01*
X2147974D01*
X2149244Y1113348D01*
Y1112078D01*
X2147974Y1110809D01*
X2146705D01*
X2147974D01*
X2149244Y1109539D01*
Y1108270D01*
X2147974Y1107000D01*
X2145435D01*
X2144165Y1108270D01*
X1963078Y1114618D02*
X1960539D01*
X1961809D01*
Y1108270D01*
X1960539Y1107000D01*
X1959270D01*
X1958000Y1108270D01*
X1965618Y1107000D02*
X1968157D01*
X1966887D01*
Y1114618D01*
X1965618Y1113348D01*
X1977044Y1107000D02*
X1971965D01*
X1977044Y1112078D01*
Y1113348D01*
X1975774Y1114618D01*
X1973235D01*
X1971965Y1113348D01*
X2490878Y1114618D02*
X2488339D01*
X2489609D01*
Y1108270D01*
X2488339Y1107000D01*
X2487070D01*
X2485800Y1108270D01*
X2493418Y1107000D02*
X2495957D01*
X2494687D01*
Y1114618D01*
X2493418Y1113348D01*
X2499765Y1107000D02*
X2502305D01*
X2501035D01*
Y1114618D01*
X2499765Y1113348D01*
X1580078Y961348D02*
X1578809Y962617D01*
X1576270D01*
X1575000Y961348D01*
Y956270D01*
X1576270Y955000D01*
X1578809D01*
X1580078Y956270D01*
X1582617Y955000D02*
X1585157D01*
X1583887D01*
Y962617D01*
X1582617Y961348D01*
X1588965D02*
X1590235Y962617D01*
X1592774D01*
X1594044Y961348D01*
Y956270D01*
X1592774Y955000D01*
X1590235D01*
X1588965Y956270D01*
Y961348D01*
X1400078D02*
X1398809Y962617D01*
X1396270D01*
X1395000Y961348D01*
Y956270D01*
X1396270Y955000D01*
X1398809D01*
X1400078Y956270D01*
X1402617D02*
X1403887Y955000D01*
X1406426D01*
X1407696Y956270D01*
Y961348D01*
X1406426Y962617D01*
X1403887D01*
X1402617Y961348D01*
Y960078D01*
X1403887Y958809D01*
X1407696D01*
X1220078Y956348D02*
X1218809Y957617D01*
X1216270D01*
X1215000Y956348D01*
Y951270D01*
X1216270Y950000D01*
X1218809D01*
X1220078Y951270D01*
X1222617Y956348D02*
X1223887Y957617D01*
X1226426D01*
X1227696Y956348D01*
Y955078D01*
X1226426Y953809D01*
X1227696Y952539D01*
Y951270D01*
X1226426Y950000D01*
X1223887D01*
X1222617Y951270D01*
Y952539D01*
X1223887Y953809D01*
X1222617Y955078D01*
Y956348D01*
X1223887Y953809D02*
X1226426D01*
X1045078Y961348D02*
X1043809Y962617D01*
X1041270D01*
X1040000Y961348D01*
Y956270D01*
X1041270Y955000D01*
X1043809D01*
X1045078Y956270D01*
X1047617Y962617D02*
X1052696D01*
Y961348D01*
X1047617Y956270D01*
Y955000D01*
X1045078Y1021348D02*
X1043809Y1022617D01*
X1041270D01*
X1040000Y1021348D01*
Y1016270D01*
X1041270Y1015000D01*
X1043809D01*
X1045078Y1016270D01*
X1047617Y1015000D02*
X1050157D01*
X1048887D01*
Y1022617D01*
X1047617Y1021348D01*
X1053966Y1022617D02*
X1059044D01*
Y1021348D01*
X1053966Y1016270D01*
Y1015000D01*
X865078Y946348D02*
X863809Y947617D01*
X861270D01*
X860000Y946348D01*
Y941270D01*
X861270Y940000D01*
X863809D01*
X865078Y941270D01*
X867617Y940000D02*
X870157D01*
X868887D01*
Y947617D01*
X867617Y946348D01*
X879044Y947617D02*
X873966D01*
Y943809D01*
X876505Y945078D01*
X877774D01*
X879044Y943809D01*
Y941270D01*
X877774Y940000D01*
X875235D01*
X873966Y941270D01*
X685078Y956348D02*
X683809Y957617D01*
X681270D01*
X680000Y956348D01*
Y951270D01*
X681270Y950000D01*
X683809D01*
X685078Y951270D01*
X687617Y950000D02*
X690157D01*
X688887D01*
Y957617D01*
X687617Y956348D01*
X697774Y950000D02*
Y957617D01*
X693966Y953809D01*
X699044D01*
X515078Y956348D02*
X513809Y957617D01*
X511270D01*
X510000Y956348D01*
Y951270D01*
X511270Y950000D01*
X513809D01*
X515078Y951270D01*
X517617Y950000D02*
X520157D01*
X518887D01*
Y957617D01*
X517617Y956348D01*
X523965D02*
X525235Y957617D01*
X527774D01*
X529044Y956348D01*
Y955078D01*
X527774Y953809D01*
X526505D01*
X527774D01*
X529044Y952539D01*
Y951270D01*
X527774Y950000D01*
X525235D01*
X523965Y951270D01*
X304878Y980748D02*
X303609Y982018D01*
X301070D01*
X299800Y980748D01*
Y975670D01*
X301070Y974400D01*
X303609D01*
X304878Y975670D01*
X307418Y974400D02*
X309957D01*
X308687D01*
Y982018D01*
X307418Y980748D01*
X318844Y974400D02*
X313766D01*
X318844Y979478D01*
Y980748D01*
X317574Y982018D01*
X315035D01*
X313766Y980748D01*
X1660078Y936348D02*
X1658809Y937617D01*
X1656270D01*
X1655000Y936348D01*
Y931270D01*
X1656270Y930000D01*
X1658809D01*
X1660078Y931270D01*
X1667696Y930000D02*
X1662617D01*
X1667696Y935078D01*
Y936348D01*
X1666426Y937617D01*
X1663887D01*
X1662617Y936348D01*
X1670235D02*
X1671505Y937617D01*
X1674044D01*
X1675313Y936348D01*
Y935078D01*
X1674044Y933809D01*
X1672774D01*
X1674044D01*
X1675313Y932539D01*
Y931270D01*
X1674044Y930000D01*
X1671505D01*
X1670235Y931270D01*
X1485078Y936348D02*
X1483809Y937617D01*
X1481270D01*
X1480000Y936348D01*
Y931270D01*
X1481270Y930000D01*
X1483809D01*
X1485078Y931270D01*
X1492696Y930000D02*
X1487617D01*
X1492696Y935078D01*
Y936348D01*
X1491426Y937617D01*
X1488887D01*
X1487617Y936348D01*
X1500313Y930000D02*
X1495235D01*
X1500313Y935078D01*
Y936348D01*
X1499044Y937617D01*
X1496505D01*
X1495235Y936348D01*
X1285078D02*
X1283809Y937617D01*
X1281270D01*
X1280000Y936348D01*
Y931270D01*
X1281270Y930000D01*
X1283809D01*
X1285078Y931270D01*
X1292696Y930000D02*
X1287617D01*
X1292696Y935078D01*
Y936348D01*
X1291426Y937617D01*
X1288887D01*
X1287617Y936348D01*
X1295235Y930000D02*
X1297774D01*
X1296505D01*
Y937617D01*
X1295235Y936348D01*
X1115078D02*
X1113809Y937617D01*
X1111270D01*
X1110000Y936348D01*
Y931270D01*
X1111270Y930000D01*
X1113809D01*
X1115078Y931270D01*
X1117617Y936348D02*
X1118887Y937617D01*
X1121426D01*
X1122696Y936348D01*
Y935078D01*
X1121426Y933809D01*
X1120157D01*
X1121426D01*
X1122696Y932539D01*
Y931270D01*
X1121426Y930000D01*
X1118887D01*
X1117617Y931270D01*
X1130313Y937617D02*
X1127774Y936348D01*
X1125235Y933809D01*
Y931270D01*
X1126505Y930000D01*
X1129044D01*
X1130313Y931270D01*
Y932539D01*
X1129044Y933809D01*
X1125235D01*
X925078Y956348D02*
X923809Y957617D01*
X921270D01*
X920000Y956348D01*
Y951270D01*
X921270Y950000D01*
X923809D01*
X925078Y951270D01*
X927618Y956348D02*
X928887Y957617D01*
X931426D01*
X932696Y956348D01*
Y955078D01*
X931426Y953809D01*
X930157D01*
X931426D01*
X932696Y952539D01*
Y951270D01*
X931426Y950000D01*
X928887D01*
X927618Y951270D01*
X939044Y950000D02*
Y957617D01*
X935235Y953809D01*
X940313D01*
X685078Y916348D02*
X683809Y917617D01*
X681270D01*
X680000Y916348D01*
Y911270D01*
X681270Y910000D01*
X683809D01*
X685078Y911270D01*
X687617Y916348D02*
X688887Y917617D01*
X691426D01*
X692696Y916348D01*
Y915078D01*
X691426Y913809D01*
X690157D01*
X691426D01*
X692696Y912539D01*
Y911270D01*
X691426Y910000D01*
X688887D01*
X687617Y911270D01*
X695235Y916348D02*
X696505Y917617D01*
X699044D01*
X700313Y916348D01*
Y915078D01*
X699044Y913809D01*
X697774D01*
X699044D01*
X700313Y912539D01*
Y911270D01*
X699044Y910000D01*
X696505D01*
X695235Y911270D01*
X1478278Y844548D02*
X1477009Y845817D01*
X1474470D01*
X1473200Y844548D01*
Y839470D01*
X1474470Y838200D01*
X1477009D01*
X1478278Y839470D01*
X1480818Y844548D02*
X1482087Y845817D01*
X1484626D01*
X1485896Y844548D01*
Y843278D01*
X1484626Y842009D01*
X1483357D01*
X1484626D01*
X1485896Y840739D01*
Y839470D01*
X1484626Y838200D01*
X1482087D01*
X1480818Y839470D01*
X1493513Y838200D02*
X1488435D01*
X1493513Y843278D01*
Y844548D01*
X1492244Y845817D01*
X1489705D01*
X1488435Y844548D01*
X1122678D02*
X1121409Y845817D01*
X1118870D01*
X1117600Y844548D01*
Y839470D01*
X1118870Y838200D01*
X1121409D01*
X1122678Y839470D01*
X1125218Y844548D02*
X1126487Y845817D01*
X1129026D01*
X1130296Y844548D01*
Y843278D01*
X1129026Y842009D01*
X1127757D01*
X1129026D01*
X1130296Y840739D01*
Y839470D01*
X1129026Y838200D01*
X1126487D01*
X1125218Y839470D01*
X1132835Y838200D02*
X1135374D01*
X1134105D01*
Y845817D01*
X1132835Y844548D01*
X845078Y816348D02*
X843809Y817617D01*
X841270D01*
X840000Y816348D01*
Y811270D01*
X841270Y810000D01*
X843809D01*
X845078Y811270D01*
X847617Y816348D02*
X848887Y817617D01*
X851426D01*
X852696Y816348D01*
Y815078D01*
X851426Y813809D01*
X850157D01*
X851426D01*
X852696Y812539D01*
Y811270D01*
X851426Y810000D01*
X848887D01*
X847617Y811270D01*
X855235Y816348D02*
X856505Y817617D01*
X859044D01*
X860313Y816348D01*
Y811270D01*
X859044Y810000D01*
X856505D01*
X855235Y811270D01*
Y816348D01*
X475078Y806348D02*
X473809Y807617D01*
X471270D01*
X470000Y806348D01*
Y801270D01*
X471270Y800000D01*
X473809D01*
X475078Y801270D01*
X482696Y800000D02*
X477617D01*
X482696Y805078D01*
Y806348D01*
X481426Y807617D01*
X478887D01*
X477617Y806348D01*
X485235Y801270D02*
X486505Y800000D01*
X489044D01*
X490313Y801270D01*
Y806348D01*
X489044Y807617D01*
X486505D01*
X485235Y806348D01*
Y805078D01*
X486505Y803809D01*
X490313D01*
X1207458Y764382D02*
X1206189Y765651D01*
X1203650D01*
X1202380Y764382D01*
Y759304D01*
X1203650Y758034D01*
X1206189D01*
X1207458Y759304D01*
X1215076Y758034D02*
X1209997D01*
X1215076Y763112D01*
Y764382D01*
X1213806Y765651D01*
X1211267D01*
X1209997Y764382D01*
X1217615D02*
X1218885Y765651D01*
X1221424D01*
X1222693Y764382D01*
Y763112D01*
X1221424Y761843D01*
X1222693Y760573D01*
Y759304D01*
X1221424Y758034D01*
X1218885D01*
X1217615Y759304D01*
Y760573D01*
X1218885Y761843D01*
X1217615Y763112D01*
Y764382D01*
X1218885Y761843D02*
X1221424D01*
X1577458Y1029382D02*
X1576189Y1030651D01*
X1573650D01*
X1572380Y1029382D01*
Y1024304D01*
X1573650Y1023034D01*
X1576189D01*
X1577458Y1024304D01*
X1585076Y1023034D02*
X1579998D01*
X1585076Y1028112D01*
Y1029382D01*
X1583806Y1030651D01*
X1581267D01*
X1579998Y1029382D01*
X1587615D02*
X1588885Y1030651D01*
X1591424D01*
X1592693Y1029382D01*
Y1024304D01*
X1591424Y1023034D01*
X1588885D01*
X1587615Y1024304D01*
Y1029382D01*
X1308700Y764538D02*
X1307431Y765807D01*
X1304892D01*
X1303622Y764538D01*
Y759460D01*
X1304892Y758190D01*
X1307431D01*
X1308700Y759460D01*
X1311239Y764538D02*
X1312509Y765807D01*
X1315048D01*
X1316318Y764538D01*
Y763268D01*
X1315048Y761999D01*
X1313779D01*
X1315048D01*
X1316318Y760729D01*
Y759460D01*
X1315048Y758190D01*
X1312509D01*
X1311239Y759460D01*
X1323935Y765807D02*
X1318857D01*
Y761999D01*
X1321396Y763268D01*
X1322666D01*
X1323935Y761999D01*
Y759460D01*
X1322666Y758190D01*
X1320127D01*
X1318857Y759460D01*
X634664Y770290D02*
X633395Y771560D01*
X630856D01*
X629586Y770290D01*
Y765212D01*
X630856Y763942D01*
X633395D01*
X634664Y765212D01*
X642282Y763942D02*
X637203D01*
X642282Y769020D01*
Y770290D01*
X641012Y771560D01*
X638473D01*
X637203Y770290D01*
X644821Y771560D02*
X649899D01*
Y770290D01*
X644821Y765212D01*
Y763942D01*
X1397458Y1029382D02*
X1396189Y1030651D01*
X1393650D01*
X1392380Y1029382D01*
Y1024304D01*
X1393650Y1023034D01*
X1396189D01*
X1397458Y1024304D01*
X1399998Y1023034D02*
X1402537D01*
X1401267D01*
Y1030651D01*
X1399998Y1029382D01*
X1406346Y1024304D02*
X1407615Y1023034D01*
X1410154D01*
X1411424Y1024304D01*
Y1029382D01*
X1410154Y1030651D01*
X1407615D01*
X1406346Y1029382D01*
Y1028112D01*
X1407615Y1026843D01*
X1411424D01*
X1107458Y764382D02*
X1106189Y765651D01*
X1103650D01*
X1102380Y764382D01*
Y759304D01*
X1103650Y758034D01*
X1106189D01*
X1107458Y759304D01*
X1115076Y758034D02*
X1109997D01*
X1115076Y763112D01*
Y764382D01*
X1113806Y765651D01*
X1111267D01*
X1109997Y764382D01*
X1122693Y765651D02*
X1120154Y764382D01*
X1117615Y761843D01*
Y759304D01*
X1118885Y758034D01*
X1121424D01*
X1122693Y759304D01*
Y760573D01*
X1121424Y761843D01*
X1117615D01*
X1222458Y1024382D02*
X1221189Y1025651D01*
X1218650D01*
X1217380Y1024382D01*
Y1019304D01*
X1218650Y1018034D01*
X1221189D01*
X1222458Y1019304D01*
X1224997Y1018034D02*
X1227537D01*
X1226267D01*
Y1025651D01*
X1224997Y1024382D01*
X1231346D02*
X1232615Y1025651D01*
X1235154D01*
X1236424Y1024382D01*
Y1023112D01*
X1235154Y1021843D01*
X1236424Y1020573D01*
Y1019304D01*
X1235154Y1018034D01*
X1232615D01*
X1231346Y1019304D01*
Y1020573D01*
X1232615Y1021843D01*
X1231346Y1023112D01*
Y1024382D01*
X1232615Y1021843D02*
X1235154D01*
X1007458Y764382D02*
X1006189Y765651D01*
X1003650D01*
X1002380Y764382D01*
Y759304D01*
X1003650Y758034D01*
X1006189D01*
X1007458Y759304D01*
X1015076Y758034D02*
X1009997D01*
X1015076Y763112D01*
Y764382D01*
X1013806Y765651D01*
X1011267D01*
X1009997Y764382D01*
X1022693Y765651D02*
X1017615D01*
Y761843D01*
X1020154Y763112D01*
X1021424D01*
X1022693Y761843D01*
Y759304D01*
X1021424Y758034D01*
X1018885D01*
X1017615Y759304D01*
X907458Y764382D02*
X906189Y765651D01*
X903650D01*
X902380Y764382D01*
Y759304D01*
X903650Y758034D01*
X906189D01*
X907458Y759304D01*
X915076Y758034D02*
X909997D01*
X915076Y763112D01*
Y764382D01*
X913806Y765651D01*
X911267D01*
X909997Y764382D01*
X921424Y758034D02*
Y765651D01*
X917615Y761843D01*
X922693D01*
X868706Y1024380D02*
X867437Y1025649D01*
X864898D01*
X863628Y1024380D01*
Y1019302D01*
X864898Y1018032D01*
X867437D01*
X868706Y1019302D01*
X875054Y1018032D02*
Y1025649D01*
X871245Y1021841D01*
X876324D01*
X688874Y1024380D02*
X687605Y1025649D01*
X685066D01*
X683796Y1024380D01*
Y1019302D01*
X685066Y1018032D01*
X687605D01*
X688874Y1019302D01*
X691414Y1024380D02*
X692683Y1025649D01*
X695222D01*
X696492Y1024380D01*
Y1023110D01*
X695222Y1021841D01*
X693953D01*
X695222D01*
X696492Y1020571D01*
Y1019302D01*
X695222Y1018032D01*
X692683D01*
X691414Y1019302D01*
X525078Y1026348D02*
X523809Y1027617D01*
X521270D01*
X520000Y1026348D01*
Y1021270D01*
X521270Y1020000D01*
X523809D01*
X525078Y1021270D01*
X532696Y1020000D02*
X527617D01*
X532696Y1025078D01*
Y1026348D01*
X531426Y1027617D01*
X528887D01*
X527617Y1026348D01*
X314278Y1006348D02*
X313009Y1007617D01*
X310470D01*
X309200Y1006348D01*
Y1001270D01*
X310470Y1000000D01*
X313009D01*
X314278Y1001270D01*
X316817Y1000000D02*
X319357D01*
X318087D01*
Y1007617D01*
X316817Y1006348D01*
X273584Y644036D02*
Y651654D01*
X277393D01*
X278662Y650384D01*
Y647845D01*
X277393Y646575D01*
X273584D01*
X281201Y650384D02*
X282471Y651654D01*
X285010D01*
X286280Y650384D01*
Y649114D01*
X285010Y647845D01*
X286280Y646575D01*
Y645306D01*
X285010Y644036D01*
X282471D01*
X281201Y645306D01*
Y646575D01*
X282471Y647845D01*
X281201Y649114D01*
Y650384D01*
X282471Y647845D02*
X285010D01*
X2653584Y1254036D02*
Y1261654D01*
X2657393D01*
X2658662Y1260384D01*
Y1257845D01*
X2657393Y1256575D01*
X2653584D01*
X2661201Y1261654D02*
X2666280D01*
Y1260384D01*
X2661201Y1255306D01*
Y1254036D01*
X2203584Y624036D02*
Y631654D01*
X2207393D01*
X2208662Y630384D01*
Y627845D01*
X2207393Y626575D01*
X2203584D01*
X2216280Y631654D02*
X2213741Y630384D01*
X2211201Y627845D01*
Y625306D01*
X2212471Y624036D01*
X2215010D01*
X2216280Y625306D01*
Y626575D01*
X2215010Y627845D01*
X2211201D01*
X2643584Y934036D02*
Y941654D01*
X2647393D01*
X2648662Y940384D01*
Y937845D01*
X2647393Y936575D01*
X2643584D01*
X2656280Y941654D02*
X2651201D01*
Y937845D01*
X2653741Y939114D01*
X2655010D01*
X2656280Y937845D01*
Y935306D01*
X2655010Y934036D01*
X2652471D01*
X2651201Y935306D01*
X1713584Y634036D02*
Y641654D01*
X1717393D01*
X1718662Y640384D01*
Y637845D01*
X1717393Y636575D01*
X1713584D01*
X1725010Y634036D02*
Y641654D01*
X1721201Y637845D01*
X1726280D01*
X263584Y1244036D02*
Y1251654D01*
X267393D01*
X268662Y1250384D01*
Y1247845D01*
X267393Y1246575D01*
X263584D01*
X271201Y1250384D02*
X272471Y1251654D01*
X275010D01*
X276280Y1250384D01*
Y1249114D01*
X275010Y1247845D01*
X273741D01*
X275010D01*
X276280Y1246575D01*
Y1245306D01*
X275010Y1244036D01*
X272471D01*
X271201Y1245306D01*
X2653584Y624036D02*
Y631654D01*
X2657393D01*
X2658662Y630384D01*
Y627845D01*
X2657393Y626575D01*
X2653584D01*
X2666280Y624036D02*
X2661201D01*
X2666280Y629114D01*
Y630384D01*
X2665010Y631654D01*
X2662471D01*
X2661201Y630384D01*
X273584Y914036D02*
Y921654D01*
X277393D01*
X278662Y920384D01*
Y917845D01*
X277393Y916575D01*
X273584D01*
X281201Y914036D02*
X283741D01*
X282471D01*
Y921654D01*
X281201Y920384D01*
X851406Y725676D02*
X848867D01*
X850137D01*
Y719328D01*
X848867Y718058D01*
X847598D01*
X846328Y719328D01*
X853945Y718058D02*
X856485D01*
X855215D01*
Y725676D01*
X853945Y724406D01*
X860294D02*
X861563Y725676D01*
X864102D01*
X865372Y724406D01*
Y719328D01*
X864102Y718058D01*
X861563D01*
X860294Y719328D01*
Y724406D01*
X673606Y811273D02*
X671067D01*
X672337D01*
Y804926D01*
X671067Y803656D01*
X669798D01*
X668528Y804926D01*
X676145D02*
X677415Y803656D01*
X679954D01*
X681224Y804926D01*
Y810004D01*
X679954Y811273D01*
X677415D01*
X676145Y810004D01*
Y808734D01*
X677415Y807465D01*
X681224D01*
X1579878Y1226817D02*
X1577339D01*
X1578609D01*
Y1220470D01*
X1577339Y1219200D01*
X1576070D01*
X1574800Y1220470D01*
X1582417Y1225548D02*
X1583687Y1226817D01*
X1586226D01*
X1587496Y1225548D01*
Y1224278D01*
X1586226Y1223009D01*
X1587496Y1221739D01*
Y1220470D01*
X1586226Y1219200D01*
X1583687D01*
X1582417Y1220470D01*
Y1221739D01*
X1583687Y1223009D01*
X1582417Y1224278D01*
Y1225548D01*
X1583687Y1223009D02*
X1586226D01*
X1402078Y1226817D02*
X1399539D01*
X1400809D01*
Y1220470D01*
X1399539Y1219200D01*
X1398270D01*
X1397000Y1220470D01*
X1404617Y1226817D02*
X1409696D01*
Y1225548D01*
X1404617Y1220470D01*
Y1219200D01*
X1224278Y1226817D02*
X1221739D01*
X1223009D01*
Y1220470D01*
X1221739Y1219200D01*
X1220470D01*
X1219200Y1220470D01*
X1231896Y1226817D02*
X1229357Y1225548D01*
X1226817Y1223009D01*
Y1220470D01*
X1228087Y1219200D01*
X1230626D01*
X1231896Y1220470D01*
Y1221739D01*
X1230626Y1223009D01*
X1226817D01*
X1046478Y1226817D02*
X1043939D01*
X1045209D01*
Y1220470D01*
X1043939Y1219200D01*
X1042670D01*
X1041400Y1220470D01*
X1054096Y1226817D02*
X1049017D01*
Y1223009D01*
X1051557Y1224278D01*
X1052826D01*
X1054096Y1223009D01*
Y1220470D01*
X1052826Y1219200D01*
X1050287D01*
X1049017Y1220470D01*
X868678Y1226817D02*
X866139D01*
X867409D01*
Y1220470D01*
X866139Y1219200D01*
X864870D01*
X863600Y1220470D01*
X875026Y1219200D02*
Y1226817D01*
X871217Y1223009D01*
X876296D01*
X690878Y1226817D02*
X688339D01*
X689609D01*
Y1220470D01*
X688339Y1219200D01*
X687070D01*
X685800Y1220470D01*
X693418Y1225548D02*
X694687Y1226817D01*
X697226D01*
X698496Y1225548D01*
Y1224278D01*
X697226Y1223009D01*
X695957D01*
X697226D01*
X698496Y1221739D01*
Y1220470D01*
X697226Y1219200D01*
X694687D01*
X693418Y1220470D01*
X513078Y1226817D02*
X510539D01*
X511809D01*
Y1220470D01*
X510539Y1219200D01*
X509270D01*
X508000Y1220470D01*
X520696Y1219200D02*
X515617D01*
X520696Y1224278D01*
Y1225548D01*
X519426Y1226817D01*
X516887D01*
X515617Y1225548D01*
X335278Y1226817D02*
X332739D01*
X334009D01*
Y1220470D01*
X332739Y1219200D01*
X331470D01*
X330200Y1220470D01*
X337817Y1219200D02*
X340357D01*
X339087D01*
Y1226817D01*
X337817Y1225548D01*
X467648Y617780D02*
Y625397D01*
X471457D01*
X472726Y624128D01*
Y621589D01*
X471457Y620319D01*
X467648D01*
X470187D02*
X472726Y617780D01*
X480344D02*
X475266D01*
X480344Y622858D01*
Y624128D01*
X479074Y625397D01*
X476535D01*
X475266Y624128D01*
X1070036Y752536D02*
Y760154D01*
X1073845D01*
X1075114Y758884D01*
Y756345D01*
X1073845Y755075D01*
X1070036D01*
X1072575D02*
X1075114Y752536D01*
X1077654D02*
X1080193D01*
X1078923D01*
Y760154D01*
X1077654Y758884D01*
X2508056Y1040079D02*
Y1032462D01*
Y1036271D01*
X2513134D01*
Y1040079D01*
Y1032462D01*
X2515674Y1033732D02*
X2516943Y1032462D01*
X2519482D01*
X2520752Y1033732D01*
Y1038810D01*
X2519482Y1040079D01*
X2516943D01*
X2515674Y1038810D01*
Y1037540D01*
X2516943Y1036271D01*
X2520752D01*
X2265108Y1039875D02*
Y1032258D01*
Y1036067D01*
X2270186D01*
Y1039875D01*
Y1032258D01*
X2272726Y1038606D02*
X2273995Y1039875D01*
X2276534D01*
X2277804Y1038606D01*
Y1037336D01*
X2276534Y1036067D01*
X2277804Y1034797D01*
Y1033528D01*
X2276534Y1032258D01*
X2273995D01*
X2272726Y1033528D01*
Y1034797D01*
X2273995Y1036067D01*
X2272726Y1037336D01*
Y1038606D01*
X2273995Y1036067D02*
X2276534D01*
X2165108Y1039875D02*
Y1032258D01*
Y1036067D01*
X2170186D01*
Y1039875D01*
Y1032258D01*
X2172726Y1039875D02*
X2177804D01*
Y1038606D01*
X2172726Y1033528D01*
Y1032258D01*
X2065362Y1039875D02*
Y1032258D01*
Y1036067D01*
X2070440D01*
Y1039875D01*
Y1032258D01*
X2078058Y1039875D02*
X2075519Y1038606D01*
X2072979Y1036067D01*
Y1033528D01*
X2074249Y1032258D01*
X2076788D01*
X2078058Y1033528D01*
Y1034797D01*
X2076788Y1036067D01*
X2072979D01*
X1965362Y1039875D02*
Y1032258D01*
Y1036067D01*
X1970440D01*
Y1039875D01*
Y1032258D01*
X1978058Y1039875D02*
X1972979D01*
Y1036067D01*
X1975519Y1037336D01*
X1976788D01*
X1978058Y1036067D01*
Y1033528D01*
X1976788Y1032258D01*
X1974249D01*
X1972979Y1033528D01*
X1655362Y799875D02*
Y792258D01*
Y796067D01*
X1660440D01*
Y799875D01*
Y792258D01*
X1666788D02*
Y799875D01*
X1662979Y796067D01*
X1668058D01*
X1595362Y799875D02*
Y792258D01*
Y796067D01*
X1600440D01*
Y799875D01*
Y792258D01*
X1602979Y798606D02*
X1604249Y799875D01*
X1606788D01*
X1608058Y798606D01*
Y797336D01*
X1606788Y796067D01*
X1605519D01*
X1606788D01*
X1608058Y794797D01*
Y793528D01*
X1606788Y792258D01*
X1604249D01*
X1602979Y793528D01*
X1545108Y799875D02*
Y792258D01*
Y796067D01*
X1550186D01*
Y799875D01*
Y792258D01*
X1557804D02*
X1552726D01*
X1557804Y797336D01*
Y798606D01*
X1556534Y799875D01*
X1553995D01*
X1552726Y798606D01*
X1485108Y799875D02*
Y792258D01*
Y796067D01*
X1490186D01*
Y799875D01*
Y792258D01*
X1492726D02*
X1495265D01*
X1493995D01*
Y799875D01*
X1492726Y798606D01*
X1630678Y947418D02*
X1625600D01*
Y943609D01*
X1628139D01*
X1625600D01*
Y939800D01*
X1633217Y946148D02*
X1634487Y947418D01*
X1637026D01*
X1638296Y946148D01*
Y944878D01*
X1637026Y943609D01*
X1638296Y942339D01*
Y941070D01*
X1637026Y939800D01*
X1634487D01*
X1633217Y941070D01*
Y942339D01*
X1634487Y943609D01*
X1633217Y944878D01*
Y946148D01*
X1634487Y943609D02*
X1637026D01*
X1452878Y947418D02*
X1447800D01*
Y943609D01*
X1450339D01*
X1447800D01*
Y939800D01*
X1455417Y947418D02*
X1460496D01*
Y946148D01*
X1455417Y941070D01*
Y939800D01*
X1365078Y962617D02*
X1360000D01*
Y958809D01*
X1362539D01*
X1360000D01*
Y955000D01*
X1372696Y962617D02*
X1370157Y961348D01*
X1367617Y958809D01*
Y956270D01*
X1368887Y955000D01*
X1371426D01*
X1372696Y956270D01*
Y957539D01*
X1371426Y958809D01*
X1367617D01*
X1095078Y1027617D02*
X1090000D01*
Y1023809D01*
X1092539D01*
X1090000D01*
Y1020000D01*
X1102696Y1027617D02*
X1097617D01*
Y1023809D01*
X1100157Y1025078D01*
X1101426D01*
X1102696Y1023809D01*
Y1021270D01*
X1101426Y1020000D01*
X1098887D01*
X1097617Y1021270D01*
X918878Y946817D02*
X913800D01*
Y943009D01*
X916339D01*
X913800D01*
Y939200D01*
X925226D02*
Y946817D01*
X921417Y943009D01*
X926496D01*
X741678Y947418D02*
X736600D01*
Y943609D01*
X739139D01*
X736600D01*
Y939800D01*
X744218Y946148D02*
X745487Y947418D01*
X748026D01*
X749296Y946148D01*
Y944878D01*
X748026Y943609D01*
X746757D01*
X748026D01*
X749296Y942339D01*
Y941070D01*
X748026Y939800D01*
X745487D01*
X744218Y941070D01*
X563878Y947418D02*
X558800D01*
Y943609D01*
X561339D01*
X558800D01*
Y939800D01*
X571496D02*
X566418D01*
X571496Y944878D01*
Y946148D01*
X570226Y947418D01*
X567687D01*
X566418Y946148D01*
X385078Y957617D02*
X380000D01*
Y953809D01*
X382539D01*
X380000D01*
Y950000D01*
X387617D02*
X390157D01*
X388887D01*
Y957617D01*
X387617Y956348D01*
X532046Y630925D02*
Y623308D01*
X535855D01*
X537124Y624578D01*
Y629656D01*
X535855Y630925D01*
X532046D01*
X539664Y623308D02*
X542203D01*
X540933D01*
Y630925D01*
X539664Y629656D01*
X1530856Y943862D02*
X1529587Y945132D01*
X1527048D01*
X1525778Y943862D01*
Y938784D01*
X1527048Y937514D01*
X1529587D01*
X1530856Y938784D01*
X1533396Y937514D02*
X1535935D01*
X1534665D01*
Y945132D01*
X1533396Y943862D01*
X1544822Y945132D02*
X1542283Y943862D01*
X1539743Y941323D01*
Y938784D01*
X1541013Y937514D01*
X1543552D01*
X1544822Y938784D01*
Y940053D01*
X1543552Y941323D01*
X1539743D01*
X1175256Y943862D02*
X1173987Y945132D01*
X1171448D01*
X1170178Y943862D01*
Y938784D01*
X1171448Y937514D01*
X1173987D01*
X1175256Y938784D01*
X1177795Y937514D02*
X1180335D01*
X1179065D01*
Y945132D01*
X1177795Y943862D01*
X1184144Y937514D02*
X1186683D01*
X1185413D01*
Y945132D01*
X1184144Y943862D01*
X794256D02*
X792987Y945132D01*
X790448D01*
X789178Y943862D01*
Y938784D01*
X790448Y937514D01*
X792987D01*
X794256Y938784D01*
X801874Y945132D02*
X799335Y943862D01*
X796796Y941323D01*
Y938784D01*
X798065Y937514D01*
X800604D01*
X801874Y938784D01*
Y940053D01*
X800604Y941323D01*
X796796D01*
X438656Y943862D02*
X437387Y945132D01*
X434848D01*
X433578Y943862D01*
Y938784D01*
X434848Y937514D01*
X437387D01*
X438656Y938784D01*
X446274Y945132D02*
X441195D01*
Y941323D01*
X443735Y942592D01*
X445004D01*
X446274Y941323D01*
Y938784D01*
X445004Y937514D01*
X442465D01*
X441195Y938784D01*
D34*
X1842350Y1253685D02*
G03*
X1840274Y1256280I-2939J-223D01*
G01*
X1840275Y1256278D02*
G03*
X1834564Y1256278I-2855J-9311D01*
G01*
X1834563Y1256280D02*
G03*
X1832487Y1253685I863J-2818D01*
G01*
X1879726Y1256280D02*
G03*
X1877650Y1253685I863J-2818D01*
G01*
X1885439Y1256278D02*
G03*
X1879728Y1256278I-2855J-9311D01*
G01*
X1887513Y1253685D02*
G03*
X1885437Y1256280I-2939J-223D01*
G01*
X2352350Y1253685D02*
G03*
X2350274Y1256280I-2939J-223D01*
G01*
X2350275Y1256278D02*
G03*
X2344564Y1256278I-2855J-9311D01*
G01*
X2344563Y1256280D02*
G03*
X2342487Y1253685I863J-2818D01*
G01*
X2389726Y1256280D02*
G03*
X2387650Y1253685I863J-2818D01*
G01*
X2395439Y1256278D02*
G03*
X2389728Y1256278I-2855J-9311D01*
G01*
X2397513Y1253685D02*
G03*
X2395437Y1256280I-2939J-223D01*
G01*
X2182350Y1253685D02*
G03*
X2180274Y1256280I-2939J-223D01*
G01*
X2180275Y1256278D02*
G03*
X2174564Y1256278I-2855J-9311D01*
G01*
X2174563Y1256280D02*
G03*
X2172487Y1253685I863J-2818D01*
G01*
X2219726Y1256280D02*
G03*
X2217650Y1253685I863J-2818D01*
G01*
X2225439Y1256278D02*
G03*
X2219728Y1256278I-2855J-9311D01*
G01*
X2227513Y1253685D02*
G03*
X2225437Y1256280I-2939J-223D01*
G01*
X2012350Y1253685D02*
G03*
X2010274Y1256280I-2939J-223D01*
G01*
X2010275Y1256278D02*
G03*
X2004564Y1256278I-2855J-9311D01*
G01*
X2004563Y1256280D02*
G03*
X2002487Y1253685I863J-2818D01*
G01*
X2049726Y1256280D02*
G03*
X2047650Y1253685I863J-2818D01*
G01*
X2055439Y1256278D02*
G03*
X2049728Y1256278I-2855J-9311D01*
G01*
X2057513Y1253685D02*
G03*
X2055437Y1256280I-2939J-223D01*
G01*
X2542350Y1253685D02*
G03*
X2540274Y1256280I-2939J-223D01*
G01*
X2540275Y1256278D02*
G03*
X2534564Y1256278I-2855J-9311D01*
G01*
X2534563Y1256280D02*
G03*
X2532487Y1253685I863J-2818D01*
G01*
X2579726Y1256280D02*
G03*
X2577650Y1253685I863J-2818D01*
G01*
X2585439Y1256278D02*
G03*
X2579727Y1256278I-2855J-9311D01*
G01*
X2587513Y1253685D02*
G03*
X2585438Y1256280I-2939J-223D01*
G01*
X567700Y600000D02*
G03*
X567700Y600000I-15000J0D01*
G01*
X1830411Y1226170D02*
X1832487D01*
X1835082Y1250051D01*
X1840274D01*
X1842870Y1226170D01*
X1844948D01*
X1842349Y1253686D02*
X1844948Y1226170D01*
X1830411D02*
X1832487Y1253686D01*
X1887513Y1226170D02*
X1889591D01*
X1884920Y1250051D02*
X1887513Y1226170D01*
X1879725Y1250051D02*
X1884920D01*
X1877132Y1226170D02*
X1879725Y1250051D01*
X1875054Y1226170D02*
X1877132D01*
X1875054D02*
X1877650Y1253686D01*
X1887513D02*
X1889591Y1226170D01*
X2340411D02*
X2342487D01*
X2345082Y1250051D01*
X2350274D01*
X2352870Y1226170D01*
X2354948D01*
X2352349Y1253686D02*
X2354948Y1226170D01*
X2340411D02*
X2342487Y1253686D01*
X2397513Y1226170D02*
X2399591D01*
X2394920Y1250051D02*
X2397513Y1226170D01*
X2389725Y1250051D02*
X2394920D01*
X2387132Y1226170D02*
X2389725Y1250051D01*
X2385054Y1226170D02*
X2387132D01*
X2385054D02*
X2387650Y1253686D01*
X2397513D02*
X2399591Y1226170D01*
X2170412D02*
X2172487D01*
X2175083Y1250051D01*
X2180275D01*
X2182870Y1226170D01*
X2184948D01*
X2182350Y1253686D02*
X2184948Y1226170D01*
X2170412D02*
X2172487Y1253686D01*
X2227513Y1226170D02*
X2229591D01*
X2224920Y1250051D02*
X2227513Y1226170D01*
X2219726Y1250051D02*
X2224920D01*
X2217133Y1226170D02*
X2219726Y1250051D01*
X2215055Y1226170D02*
X2217133D01*
X2215055D02*
X2217651Y1253686D01*
X2227513D02*
X2229591Y1226170D01*
X2000412D02*
X2002487D01*
X2005083Y1250051D01*
X2010274D01*
X2012870Y1226170D01*
X2014948D01*
X2012350Y1253686D02*
X2014948Y1226170D01*
X2000412D02*
X2002487Y1253686D01*
X2057513Y1226170D02*
X2059591D01*
X2054920Y1250051D02*
X2057513Y1226170D01*
X2049726Y1250051D02*
X2054920D01*
X2047132Y1226170D02*
X2049726Y1250051D01*
X2045055Y1226170D02*
X2047132D01*
X2045055D02*
X2047650Y1253686D01*
X2057513D02*
X2059591Y1226170D01*
X2530412D02*
X2532487D01*
X2535083Y1250051D01*
X2540274D01*
X2542870Y1226170D01*
X2544948D01*
X2542350Y1253686D02*
X2544948Y1226170D01*
X2530412D02*
X2532487Y1253686D01*
X2587513Y1226170D02*
X2589591D01*
X2584920Y1250051D02*
X2587513Y1226170D01*
X2579726Y1250051D02*
X2584920D01*
X2577132Y1226170D02*
X2579726Y1250051D01*
X2575055Y1226170D02*
X2577132D01*
X2575055D02*
X2577650Y1253686D01*
X2587513D02*
X2589591Y1226170D01*
X547620Y587300D02*
Y612700D01*
Y587300D02*
X557780Y600000D01*
Y587300D02*
Y600000D01*
X547620Y612700D02*
X557780Y600000D01*
Y612700D01*
X1540050Y900444D02*
X1545975D01*
X1543012Y903406D02*
Y897481D01*
X1184450Y900444D02*
X1190375D01*
X1187412Y903406D02*
Y897481D01*
X803450Y900444D02*
X809375D01*
X806412Y903406D02*
Y897481D01*
X447850Y900444D02*
X453775D01*
X450812Y903406D02*
Y897481D01*
D35*
X326401Y610000D02*
G03*
X326401Y610000I-26401J0D01*
G01*
X2706401Y1220000D02*
G03*
X2706401Y1220000I-26401J0D01*
G01*
X2256401Y590000D02*
G03*
X2256401Y590000I-26401J0D01*
G01*
X2696401Y900000D02*
G03*
X2696401Y900000I-26401J0D01*
G01*
X1766401Y600000D02*
G03*
X1766401Y600000I-26401J0D01*
G01*
X316401Y1210000D02*
G03*
X316401Y1210000I-26401J0D01*
G01*
X2706401Y590000D02*
G03*
X2706401Y590000I-26401J0D01*
G01*
X326401Y880000D02*
G03*
X326401Y880000I-26401J0D01*
G01*
X1621800Y965600D02*
X1737800D01*
X1621800D02*
Y1015600D01*
X1741800D01*
Y970600D02*
Y1015600D01*
Y969600D02*
Y970600D01*
X1737800Y965600D02*
X1741800Y969600D01*
X1444000Y965600D02*
X1560000D01*
X1444000D02*
Y1015600D01*
X1564000D01*
Y970600D02*
Y1015600D01*
Y969600D02*
Y970600D01*
X1560000Y965600D02*
X1564000Y969600D01*
X1266200Y965600D02*
X1382200D01*
X1266200D02*
Y1015600D01*
X1386200D01*
Y970600D02*
Y1015600D01*
Y969600D02*
Y970600D01*
X1382200Y965600D02*
X1386200Y969600D01*
X1088400Y965600D02*
X1204400D01*
X1088400D02*
Y1015600D01*
X1208400D01*
Y970600D02*
Y1015600D01*
Y969600D02*
Y970600D01*
X1204400Y965600D02*
X1208400Y969600D01*
X910000Y965000D02*
X1026000D01*
X910000D02*
Y1015000D01*
X1030000D01*
Y970000D02*
Y1015000D01*
Y969000D02*
Y970000D01*
X1026000Y965000D02*
X1030000Y969000D01*
X732800Y965600D02*
X848800D01*
X732800D02*
Y1015600D01*
X852800D01*
Y970600D02*
Y1015600D01*
Y969600D02*
Y970600D01*
X848800Y965600D02*
X852800Y969600D01*
X555000Y965600D02*
X671000D01*
X555000D02*
Y1015600D01*
X675000D01*
Y970600D02*
Y1015600D01*
Y969600D02*
Y970600D01*
X671000Y965600D02*
X675000Y969600D01*
X377200Y965600D02*
X493200D01*
X377200D02*
Y1015600D01*
X497200D01*
Y970600D02*
Y1015600D01*
Y969600D02*
Y970600D01*
X493200Y965600D02*
X497200Y969600D01*
D36*
X1591750Y972000D02*
X1599750D01*
X1591750Y988000D02*
X1599750D01*
X1411750Y972000D02*
X1419750D01*
X1411750Y988000D02*
X1419750D01*
X1236750Y967000D02*
X1244750D01*
X1236750Y983000D02*
X1244750D01*
X1056750Y967000D02*
X1064750D01*
X1056750Y983000D02*
X1064750D01*
X1055250Y1008000D02*
X1063250D01*
X1055250Y992000D02*
X1063250D01*
X880250Y978000D02*
X888250D01*
X880250Y962000D02*
X888250D01*
X700250Y978000D02*
X708250D01*
X700250Y962000D02*
X708250D01*
X520250Y978000D02*
X528250D01*
X520250Y962000D02*
X528250D01*
X340250Y983000D02*
X348250D01*
X340250Y967000D02*
X348250D01*
X1675250Y958000D02*
X1683250D01*
X1675250Y942000D02*
X1683250D01*
X1491750D02*
X1499750D01*
X1491750Y958000D02*
X1499750D01*
X1300250D02*
X1308250D01*
X1300250Y942000D02*
X1308250D01*
X1130250Y958000D02*
X1138250D01*
X1130250Y942000D02*
X1138250D01*
X941750Y922000D02*
X949750D01*
X941750Y938000D02*
X949750D01*
X701750Y922000D02*
X709750D01*
X701750Y938000D02*
X709750D01*
X1490600Y873850D02*
Y881850D01*
X1506600Y873850D02*
Y881850D01*
X1135000Y873850D02*
Y881850D01*
X1151000Y873850D02*
Y881850D01*
X831750Y822000D02*
X839750D01*
X831750Y838000D02*
X839750D01*
X471750Y822000D02*
X479750D01*
X471750Y838000D02*
X479750D01*
X1220250Y748000D02*
X1228250D01*
X1220250Y732000D02*
X1228250D01*
X1590250Y1013000D02*
X1598250D01*
X1590250Y997000D02*
X1598250D01*
X1321750Y732000D02*
X1329750D01*
X1321750Y748000D02*
X1329750D01*
X632000Y730250D02*
Y738250D01*
X648000Y730250D02*
Y738250D01*
X1410250Y1013000D02*
X1418250D01*
X1410250Y997000D02*
X1418250D01*
X1120250Y748000D02*
X1128250D01*
X1120250Y732000D02*
X1128250D01*
X1235250Y1008000D02*
X1243250D01*
X1235250Y992000D02*
X1243250D01*
X1020250Y748000D02*
X1028250D01*
X1020250Y732000D02*
X1028250D01*
X920250Y748000D02*
X928250D01*
X920250Y732000D02*
X928250D01*
X881750Y992000D02*
X889750D01*
X881750Y1008000D02*
X889750D01*
X701750Y992000D02*
X709750D01*
X701750Y1008000D02*
X709750D01*
X521750Y992000D02*
X529750D01*
X521750Y1008000D02*
X529750D01*
X341750Y992000D02*
X349750D01*
X341750Y1008000D02*
X349750D01*
D37*
X1618636Y968570D02*
Y991430D01*
X1572916D02*
X1618636D01*
X1572662Y991176D02*
X1572916Y991430D01*
X1572662Y968824D02*
Y991176D01*
X1572916Y968570D02*
X1618636D01*
X1572662Y968824D02*
X1572916Y968570D01*
X1438636D02*
Y991430D01*
X1392916D02*
X1438636D01*
X1392662Y991176D02*
X1392916Y991430D01*
X1392662Y968824D02*
Y991176D01*
X1392916Y968570D02*
X1438636D01*
X1392662Y968824D02*
X1392916Y968570D01*
X1263636Y963570D02*
Y986430D01*
X1217916D02*
X1263636D01*
X1217662Y986176D02*
X1217916Y986430D01*
X1217662Y963824D02*
Y986176D01*
X1217916Y963570D02*
X1263636D01*
X1217662Y963824D02*
X1217916Y963570D01*
X1083636D02*
Y986430D01*
X1037916D02*
X1083636D01*
X1037662Y986176D02*
X1037916Y986430D01*
X1037662Y963824D02*
Y986176D01*
X1037916Y963570D02*
X1083636D01*
X1037662Y963824D02*
X1037916Y963570D01*
X1036364Y988570D02*
Y1011430D01*
Y988570D02*
X1082084D01*
X1082338Y988824D01*
Y1011176D01*
X1036364Y1011430D02*
X1082084D01*
X1082338Y1011176D01*
X861364Y958570D02*
Y981430D01*
Y958570D02*
X907084D01*
X907338Y958824D01*
Y981176D01*
X861364Y981430D02*
X907084D01*
X907338Y981176D01*
X681364Y958570D02*
Y981430D01*
Y958570D02*
X727084D01*
X727338Y958824D01*
Y981176D01*
X681364Y981430D02*
X727084D01*
X727338Y981176D01*
X501364Y958570D02*
Y981430D01*
Y958570D02*
X547084D01*
X547338Y958824D01*
Y981176D01*
X501364Y981430D02*
X547084D01*
X547338Y981176D01*
X321364Y963570D02*
Y986430D01*
Y963570D02*
X367084D01*
X367338Y963824D01*
Y986176D01*
X321364Y986430D02*
X367084D01*
X367338Y986176D01*
X1656364Y938570D02*
Y961430D01*
Y938570D02*
X1702084D01*
X1702338Y938824D01*
Y961176D01*
X1656364Y961430D02*
X1702084D01*
X1702338Y961176D01*
X1518636Y938570D02*
Y961430D01*
X1472916D02*
X1518636D01*
X1472662Y961176D02*
X1472916Y961430D01*
X1472662Y938824D02*
Y961176D01*
X1472916Y938570D02*
X1518636D01*
X1472662Y938824D02*
X1472916Y938570D01*
X1281364D02*
Y961430D01*
Y938570D02*
X1327084D01*
X1327338Y938824D01*
Y961176D01*
X1281364Y961430D02*
X1327084D01*
X1327338Y961176D01*
X1111364Y938570D02*
Y961430D01*
Y938570D02*
X1157084D01*
X1157338Y938824D01*
Y961176D01*
X1111364Y961430D02*
X1157084D01*
X1157338Y961176D01*
X968636Y918570D02*
Y941430D01*
X922916D02*
X968636D01*
X922662Y941176D02*
X922916Y941430D01*
X922662Y918824D02*
Y941176D01*
X922916Y918570D02*
X968636D01*
X922662Y918824D02*
X922916Y918570D01*
X728636D02*
Y941430D01*
X682916D02*
X728636D01*
X682662Y941176D02*
X682916Y941430D01*
X682662Y918824D02*
Y941176D01*
X682916Y918570D02*
X728636D01*
X682662Y918824D02*
X682916Y918570D01*
X1487170Y854964D02*
X1510030D01*
Y900684D01*
X1509776Y900938D02*
X1510030Y900684D01*
X1487424Y900938D02*
X1509776D01*
X1487170Y854964D02*
Y900684D01*
X1487424Y900938D01*
X1131570Y854964D02*
X1154430D01*
Y900684D01*
X1154176Y900938D02*
X1154430Y900684D01*
X1131824Y900938D02*
X1154176D01*
X1131570Y854964D02*
Y900684D01*
X1131824Y900938D01*
X858636Y818570D02*
Y841430D01*
X812916D02*
X858636D01*
X812662Y841176D02*
X812916Y841430D01*
X812662Y818824D02*
Y841176D01*
X812916Y818570D02*
X858636D01*
X812662Y818824D02*
X812916Y818570D01*
X498636D02*
Y841430D01*
X452916D02*
X498636D01*
X452662Y841176D02*
X452916Y841430D01*
X452662Y818824D02*
Y841176D01*
X452916Y818570D02*
X498636D01*
X452662Y818824D02*
X452916Y818570D01*
X1201364Y728570D02*
Y751430D01*
Y728570D02*
X1247084D01*
X1247338Y728824D01*
Y751176D01*
X1201364Y751430D02*
X1247084D01*
X1247338Y751176D01*
X1571364Y993570D02*
Y1016430D01*
Y993570D02*
X1617084D01*
X1617338Y993824D01*
Y1016176D01*
X1571364Y1016430D02*
X1617084D01*
X1617338Y1016176D01*
X1348636Y728570D02*
Y751430D01*
X1302916D02*
X1348636D01*
X1302662Y751176D02*
X1302916Y751430D01*
X1302662Y728824D02*
Y751176D01*
X1302916Y728570D02*
X1348636D01*
X1302662Y728824D02*
X1302916Y728570D01*
X628570Y711364D02*
X651430D01*
Y757084D01*
X651176Y757338D02*
X651430Y757084D01*
X628824Y757338D02*
X651176D01*
X628570Y711364D02*
Y757084D01*
X628824Y757338D01*
X1391364Y993570D02*
Y1016430D01*
Y993570D02*
X1437084D01*
X1437338Y993824D01*
Y1016176D01*
X1391364Y1016430D02*
X1437084D01*
X1437338Y1016176D01*
X1101364Y728570D02*
Y751430D01*
Y728570D02*
X1147084D01*
X1147338Y728824D01*
Y751176D01*
X1101364Y751430D02*
X1147084D01*
X1147338Y751176D01*
X1216364Y988570D02*
Y1011430D01*
Y988570D02*
X1262084D01*
X1262338Y988824D01*
Y1011176D01*
X1216364Y1011430D02*
X1262084D01*
X1262338Y1011176D01*
X1001364Y728570D02*
Y751430D01*
Y728570D02*
X1047084D01*
X1047338Y728824D01*
Y751176D01*
X1001364Y751430D02*
X1047084D01*
X1047338Y751176D01*
X901364Y728570D02*
Y751430D01*
Y728570D02*
X947084D01*
X947338Y728824D01*
Y751176D01*
X901364Y751430D02*
X947084D01*
X947338Y751176D01*
X908636Y988570D02*
Y1011430D01*
X862916D02*
X908636D01*
X862662Y1011176D02*
X862916Y1011430D01*
X862662Y988824D02*
Y1011176D01*
X862916Y988570D02*
X908636D01*
X862662Y988824D02*
X862916Y988570D01*
X728636D02*
Y1011430D01*
X682916D02*
X728636D01*
X682662Y1011176D02*
X682916Y1011430D01*
X682662Y988824D02*
Y1011176D01*
X682916Y988570D02*
X728636D01*
X682662Y988824D02*
X682916Y988570D01*
X548636D02*
Y1011430D01*
X502916D02*
X548636D01*
X502662Y1011176D02*
X502916Y1011430D01*
X502662Y988824D02*
Y1011176D01*
X502916Y988570D02*
X548636D01*
X502662Y988824D02*
X502916Y988570D01*
X368636D02*
Y1011430D01*
X322916D02*
X368636D01*
X322662Y1011176D02*
X322916Y1011430D01*
X322662Y988824D02*
Y1011176D01*
X322916Y988570D02*
X368636D01*
X322662Y988824D02*
X322916Y988570D01*
D38*
X847000Y567600D02*
Y709600D01*
X1393000D01*
Y567600D02*
Y709600D01*
X847000Y567600D02*
X1393000D01*
X669200Y571200D02*
X837200D01*
Y795200D01*
X669200D02*
X837200D01*
X669200Y571200D02*
Y795200D01*
X1575800Y1257600D02*
X1743800D01*
X1575800Y1033600D02*
Y1257600D01*
Y1033600D02*
X1743800D01*
Y1257600D01*
X1398000D02*
X1566000D01*
X1398000Y1033600D02*
Y1257600D01*
Y1033600D02*
X1566000D01*
Y1257600D01*
X1220200D02*
X1388200D01*
X1220200Y1033600D02*
Y1257600D01*
Y1033600D02*
X1388200D01*
Y1257600D01*
X1042400D02*
X1210400D01*
X1042400Y1033600D02*
Y1257600D01*
Y1033600D02*
X1210400D01*
Y1257600D01*
X864600D02*
X1032600D01*
X864600Y1033600D02*
Y1257600D01*
Y1033600D02*
X1032600D01*
Y1257600D01*
X686800D02*
X854800D01*
X686800Y1033600D02*
Y1257600D01*
Y1033600D02*
X854800D01*
Y1257600D01*
X509000D02*
X677000D01*
X509000Y1033600D02*
Y1257600D01*
Y1033600D02*
X677000D01*
Y1257600D01*
X331200D02*
X499200D01*
X331200Y1033600D02*
Y1257600D01*
Y1033600D02*
X499200D01*
Y1257600D01*
D39*
X1615550Y889250D02*
D03*
X1532550Y922000D02*
D03*
X1615550Y888750D02*
D03*
X1532550Y856000D02*
D03*
X1259950Y889250D02*
D03*
X1176950Y922000D02*
D03*
X1259950Y888750D02*
D03*
X1176950Y856000D02*
D03*
X878950Y889250D02*
D03*
X795950Y922000D02*
D03*
X878950Y888750D02*
D03*
X795950Y856000D02*
D03*
X523350Y889250D02*
D03*
X440350Y922000D02*
D03*
X523350Y888750D02*
D03*
X440350Y856000D02*
D03*
D40*
X2052032Y718697D02*
X2062029D01*
X2065361Y722029D01*
X2062029Y725361D01*
X2055364D01*
X2052032Y728693D01*
X2055364Y732026D01*
X2065361D01*
X2072025D02*
Y722029D01*
X2075358Y718697D01*
X2085355D01*
Y732026D01*
X2092019Y712032D02*
Y732026D01*
X2102016D01*
X2105348Y728693D01*
Y722029D01*
X2102016Y718697D01*
X2092019D01*
X2112013Y712032D02*
Y732026D01*
X2122009D01*
X2125342Y728693D01*
Y722029D01*
X2122009Y718697D01*
X2112013D01*
X2135338D02*
X2142003D01*
X2145335Y722029D01*
Y728693D01*
X2142003Y732026D01*
X2135338D01*
X2132006Y728693D01*
Y722029D01*
X2135338Y718697D01*
X2152000Y732026D02*
Y718697D01*
Y725361D01*
X2155332Y728693D01*
X2158664Y732026D01*
X2161997D01*
X2175326Y735358D02*
Y732026D01*
X2171993D01*
X2178658D01*
X2175326D01*
Y722029D01*
X2178658Y718697D01*
X2198651Y725361D02*
Y728693D01*
X2195319D01*
Y725361D01*
X2198651D01*
X2201984Y728693D01*
Y735358D01*
X2198651Y738690D01*
X2191987D01*
X2188655Y735358D01*
Y722029D01*
X2191987Y718697D01*
X2201984D01*
X2208648D02*
Y732026D01*
X2218645D01*
X2221977Y728693D01*
Y718697D01*
X2238638D02*
X2231974D01*
X2228642Y722029D01*
Y728693D01*
X2231974Y732026D01*
X2238638D01*
X2241971Y728693D01*
Y725361D01*
X2228642D01*
X2248635Y732026D02*
Y722029D01*
X2251968Y718697D01*
X2261964D01*
Y732026D01*
X2268629D02*
Y718697D01*
Y725361D01*
X2271961Y728693D01*
X2275293Y732026D01*
X2278626D01*
X2291955D02*
X2298619D01*
X2301951Y728693D01*
Y718697D01*
X2291955D01*
X2288622Y722029D01*
X2291955Y725361D01*
X2301951D01*
X2308616Y718697D02*
X2315280D01*
X2311948D01*
Y738690D01*
X2308616D01*
X2338606Y732026D02*
X2328609D01*
X2325277Y728693D01*
Y722029D01*
X2328609Y718697D01*
X2338606D01*
X2345271D02*
X2351935D01*
X2348603D01*
Y738690D01*
X2345271D01*
X2365264Y718697D02*
X2371929D01*
X2375261Y722029D01*
Y728693D01*
X2371929Y732026D01*
X2365264D01*
X2361932Y728693D01*
Y722029D01*
X2365264Y718697D01*
X2381926Y732026D02*
Y722029D01*
X2385258Y718697D01*
X2395255D01*
Y732026D01*
X2415248Y738690D02*
Y718697D01*
X2405251D01*
X2401919Y722029D01*
Y728693D01*
X2405251Y732026D01*
X2415248D01*
X2435242D02*
X2425245D01*
X2421913Y728693D01*
Y722029D01*
X2425245Y718697D01*
X2435242D01*
X2445239D02*
X2451903D01*
X2455235Y722029D01*
Y728693D01*
X2451903Y732026D01*
X2445239D01*
X2441906Y728693D01*
Y722029D01*
X2445239Y718697D01*
X2461900D02*
Y732026D01*
X2465232D01*
X2468564Y728693D01*
Y718697D01*
Y728693D01*
X2471897Y732026D01*
X2475229Y728693D01*
Y718697D01*
X2481893Y712032D02*
Y732026D01*
X2491890D01*
X2495222Y728693D01*
Y722029D01*
X2491890Y718697D01*
X2481893D01*
X2501887Y732026D02*
Y722029D01*
X2505219Y718697D01*
X2515216D01*
Y732026D01*
X2525213Y735358D02*
Y732026D01*
X2521881D01*
X2528545D01*
X2525213D01*
Y722029D01*
X2528545Y718697D01*
X2538542D02*
X2545206D01*
X2541874D01*
Y732026D01*
X2538542D01*
X2555203Y718697D02*
Y732026D01*
X2565200D01*
X2568532Y728693D01*
Y718697D01*
X2581861Y712032D02*
X2585193D01*
X2588526Y715364D01*
Y732026D01*
X2578529D01*
X2575197Y728693D01*
Y722029D01*
X2578529Y718697D01*
X2588526D01*
X2595190D02*
Y722029D01*
X2598523D01*
Y718697D01*
X2595190D01*
X2625181Y732026D02*
X2615184D01*
X2611852Y728693D01*
Y722029D01*
X2615184Y718697D01*
X2625181D01*
X2635177D02*
X2641842D01*
X2645174Y722029D01*
Y728693D01*
X2641842Y732026D01*
X2635177D01*
X2631845Y728693D01*
Y722029D01*
X2635177Y718697D01*
X2651839D02*
Y732026D01*
X2655171D01*
X2658503Y728693D01*
Y718697D01*
Y728693D01*
X2661835Y732026D01*
X2665168Y728693D01*
Y718697D01*
D41*
X2052500Y777495D02*
Y767498D01*
X2057498Y762500D01*
X2062497Y767498D01*
Y777495D01*
X2074993Y762500D02*
X2069994D01*
X2067495Y764999D01*
Y769997D01*
X2069994Y772497D01*
X2074993D01*
X2077492Y769997D01*
Y767498D01*
X2067495D01*
X2082490Y772497D02*
Y762500D01*
Y767498D01*
X2084989Y769997D01*
X2087489Y772497D01*
X2089988D01*
X2097485Y762500D02*
X2104983D01*
X2107482Y764999D01*
X2104983Y767498D01*
X2099985D01*
X2097485Y769997D01*
X2099985Y772497D01*
X2107482D01*
X2112480Y762500D02*
X2117479D01*
X2114980D01*
Y772497D01*
X2112480D01*
X2127476Y762500D02*
X2132474D01*
X2134973Y764999D01*
Y769997D01*
X2132474Y772497D01*
X2127476D01*
X2124977Y769997D01*
Y764999D01*
X2127476Y762500D01*
X2139972D02*
Y772497D01*
X2147469D01*
X2149968Y769997D01*
Y762500D01*
X2169962D02*
X2174960D01*
X2172461D01*
Y777495D01*
X2169962Y774996D01*
X2182458Y762500D02*
Y764999D01*
X2184957D01*
Y762500D01*
X2182458D01*
X2194954Y774996D02*
X2197453Y777495D01*
X2202451D01*
X2204951Y774996D01*
Y764999D01*
X2202451Y762500D01*
X2197453D01*
X2194954Y764999D01*
Y774996D01*
X2212448Y772497D02*
X2217447D01*
X2219946Y769997D01*
Y762500D01*
X2212448D01*
X2209949Y764999D01*
X2212448Y767498D01*
X2219946D01*
X2052500Y862494D02*
X2065829Y842500D01*
Y862494D02*
X2052500Y842500D01*
X2072493Y862494D02*
Y842500D01*
X2082490D01*
X2085822Y845832D01*
Y849165D01*
X2082490Y852497D01*
X2072493D01*
X2082490D01*
X2085822Y855829D01*
Y859161D01*
X2082490Y862494D01*
X2072493D01*
X2092487Y855829D02*
Y842500D01*
Y849165D01*
X2095819Y852497D01*
X2099152Y855829D01*
X2102484D01*
X2122477Y842500D02*
X2115813D01*
X2112481Y845832D01*
Y852497D01*
X2115813Y855829D01*
X2122477D01*
X2125810Y852497D01*
Y849165D01*
X2112481D01*
X2135806Y855829D02*
X2142471D01*
X2145803Y852497D01*
Y842500D01*
X2135806D01*
X2132474Y845832D01*
X2135806Y849165D01*
X2145803D01*
X2152468Y842500D02*
Y862494D01*
Y849165D02*
X2162464Y855829D01*
X2152468Y849165D02*
X2162464Y842500D01*
X2192455D02*
Y855829D01*
X2199119Y862494D01*
X2205784Y855829D01*
Y842500D01*
Y852497D01*
X2192455D01*
X2212448Y862494D02*
X2225777D01*
X2219113D01*
Y842500D01*
X2232442Y862494D02*
X2245771Y842500D01*
Y862494D02*
X2232442Y842500D01*
X2272429D02*
Y862494D01*
X2282426D01*
X2285758Y859161D01*
Y852497D01*
X2282426Y849165D01*
X2272429D01*
X2295755Y842500D02*
X2302419D01*
X2305752Y845832D01*
Y852497D01*
X2302419Y855829D01*
X2295755D01*
X2292423Y852497D01*
Y845832D01*
X2295755Y842500D01*
X2312416Y855829D02*
Y845832D01*
X2315748Y842500D01*
X2319081Y845832D01*
X2322413Y842500D01*
X2325745Y845832D01*
Y855829D01*
X2342407Y842500D02*
X2335742D01*
X2332410Y845832D01*
Y852497D01*
X2335742Y855829D01*
X2342407D01*
X2345739Y852497D01*
Y849165D01*
X2332410D01*
X2352403Y855829D02*
Y842500D01*
Y849165D01*
X2355736Y852497D01*
X2359068Y855829D01*
X2362400D01*
X2050000Y800000D02*
Y819994D01*
X2063329Y800000D01*
Y819994D01*
X2079990Y800000D02*
X2073326D01*
X2069993Y803332D01*
Y809997D01*
X2073326Y813329D01*
X2079990D01*
X2083323Y809997D01*
Y806665D01*
X2069993D01*
X2089987Y813329D02*
Y803332D01*
X2093319Y800000D01*
X2103316D01*
Y813329D01*
X2109981D02*
Y800000D01*
Y806665D01*
X2113313Y809997D01*
X2116645Y813329D01*
X2119977D01*
X2133306D02*
X2139971D01*
X2143303Y809997D01*
Y800000D01*
X2133306D01*
X2129974Y803332D01*
X2133306Y806665D01*
X2143303D01*
X2149968Y800000D02*
X2156632D01*
X2153300D01*
Y819994D01*
X2149968D01*
X2199952Y816661D02*
X2196619Y819994D01*
X2189955D01*
X2186623Y816661D01*
Y803332D01*
X2189955Y800000D01*
X2196619D01*
X2199952Y803332D01*
X2206616Y800000D02*
X2213281D01*
X2209948D01*
Y819994D01*
X2206616D01*
X2226610Y800000D02*
X2233274D01*
X2236606Y803332D01*
Y809997D01*
X2233274Y813329D01*
X2226610D01*
X2223277Y809997D01*
Y803332D01*
X2226610Y800000D01*
X2243271Y813329D02*
Y803332D01*
X2246603Y800000D01*
X2256600D01*
Y813329D01*
X2276594Y819994D02*
Y800000D01*
X2266597D01*
X2263265Y803332D01*
Y809997D01*
X2266597Y813329D01*
X2276594D01*
X2316581Y816661D02*
X2313248Y819994D01*
X2306584D01*
X2303252Y816661D01*
Y803332D01*
X2306584Y800000D01*
X2313248D01*
X2316581Y803332D01*
X2326577Y800000D02*
X2333242D01*
X2336574Y803332D01*
Y809997D01*
X2333242Y813329D01*
X2326577D01*
X2323245Y809997D01*
Y803332D01*
X2326577Y800000D01*
X2343239D02*
Y813329D01*
X2346571D01*
X2349903Y809997D01*
Y800000D01*
Y809997D01*
X2353236Y813329D01*
X2356568Y809997D01*
Y800000D01*
X2363232Y793335D02*
Y813329D01*
X2373229D01*
X2376561Y809997D01*
Y803332D01*
X2373229Y800000D01*
X2363232D01*
X2383226Y813329D02*
Y803332D01*
X2386558Y800000D01*
X2396555D01*
Y813329D01*
X2406552Y816661D02*
Y813329D01*
X2403219D01*
X2409884D01*
X2406552D01*
Y803332D01*
X2409884Y800000D01*
X2419881D02*
X2426545D01*
X2423213D01*
Y813329D01*
X2419881D01*
X2436542Y800000D02*
Y813329D01*
X2446539D01*
X2449871Y809997D01*
Y800000D01*
X2463200Y793335D02*
X2466532D01*
X2469865Y796668D01*
Y813329D01*
X2459868D01*
X2456536Y809997D01*
Y803332D01*
X2459868Y800000D01*
X2469865D01*
X2496523D02*
Y819994D01*
X2506519D01*
X2509852Y816661D01*
Y809997D01*
X2506519Y806665D01*
X2496523D01*
X2519849Y816661D02*
Y813329D01*
X2516516D01*
X2523181D01*
X2519849D01*
Y803332D01*
X2523181Y800000D01*
X2543174D02*
X2536510D01*
X2533178Y803332D01*
Y809997D01*
X2536510Y813329D01*
X2543174D01*
X2546507Y809997D01*
Y806665D01*
X2533178D01*
X2573165Y819994D02*
Y800000D01*
X2586494D01*
X2596490Y816661D02*
Y813329D01*
X2593158D01*
X2599823D01*
X2596490D01*
Y803332D01*
X2599823Y800000D01*
X2623148Y819994D02*
Y800000D01*
X2613152D01*
X2609820Y803332D01*
Y809997D01*
X2613152Y813329D01*
X2623148D01*
D42*
X742865Y575203D02*
X736200D01*
Y580202D01*
X739532D01*
X736200D01*
Y585200D01*
X746197Y578535D02*
Y585200D01*
Y581868D01*
X747863Y580202D01*
X749529Y578535D01*
X751195D01*
X757860Y585200D02*
X761192D01*
X762858Y583534D01*
Y580202D01*
X761192Y578535D01*
X757860D01*
X756194Y580202D01*
Y583534D01*
X757860Y585200D01*
X766190D02*
Y578535D01*
X771189D01*
X772855Y580202D01*
Y585200D01*
X777853Y576869D02*
Y578535D01*
X776187D01*
X779519D01*
X777853D01*
Y583534D01*
X779519Y585200D01*
X1670135Y1253597D02*
X1676800D01*
Y1248598D01*
X1673468D01*
X1676800D01*
Y1243600D01*
X1666803Y1250265D02*
Y1243600D01*
Y1246932D01*
X1665137Y1248598D01*
X1663471Y1250265D01*
X1661805D01*
X1655140Y1243600D02*
X1651808D01*
X1650142Y1245266D01*
Y1248598D01*
X1651808Y1250265D01*
X1655140D01*
X1656806Y1248598D01*
Y1245266D01*
X1655140Y1243600D01*
X1646810D02*
Y1250265D01*
X1641811D01*
X1640145Y1248598D01*
Y1243600D01*
X1635147Y1251931D02*
Y1250265D01*
X1636813D01*
X1633481D01*
X1635147D01*
Y1245266D01*
X1633481Y1243600D01*
X1492336Y1253597D02*
X1499000D01*
Y1248598D01*
X1495668D01*
X1499000D01*
Y1243600D01*
X1489003Y1250265D02*
Y1243600D01*
Y1246932D01*
X1487337Y1248598D01*
X1485671Y1250265D01*
X1484005D01*
X1477340Y1243600D02*
X1474008D01*
X1472342Y1245266D01*
Y1248598D01*
X1474008Y1250265D01*
X1477340D01*
X1479006Y1248598D01*
Y1245266D01*
X1477340Y1243600D01*
X1469010D02*
Y1250265D01*
X1464011D01*
X1462345Y1248598D01*
Y1243600D01*
X1457347Y1251931D02*
Y1250265D01*
X1459013D01*
X1455681D01*
X1457347D01*
Y1245266D01*
X1455681Y1243600D01*
X1314536Y1253597D02*
X1321200D01*
Y1248598D01*
X1317868D01*
X1321200D01*
Y1243600D01*
X1311203Y1250265D02*
Y1243600D01*
Y1246932D01*
X1309537Y1248598D01*
X1307871Y1250265D01*
X1306205D01*
X1299540Y1243600D02*
X1296208D01*
X1294542Y1245266D01*
Y1248598D01*
X1296208Y1250265D01*
X1299540D01*
X1301206Y1248598D01*
Y1245266D01*
X1299540Y1243600D01*
X1291210D02*
Y1250265D01*
X1286211D01*
X1284545Y1248598D01*
Y1243600D01*
X1279547Y1251931D02*
Y1250265D01*
X1281213D01*
X1277881D01*
X1279547D01*
Y1245266D01*
X1277881Y1243600D01*
X1136736Y1253597D02*
X1143400D01*
Y1248598D01*
X1140068D01*
X1143400D01*
Y1243600D01*
X1133403Y1250265D02*
Y1243600D01*
Y1246932D01*
X1131737Y1248598D01*
X1130071Y1250265D01*
X1128405D01*
X1121740Y1243600D02*
X1118408D01*
X1116742Y1245266D01*
Y1248598D01*
X1118408Y1250265D01*
X1121740D01*
X1123406Y1248598D01*
Y1245266D01*
X1121740Y1243600D01*
X1113410D02*
Y1250265D01*
X1108411D01*
X1106745Y1248598D01*
Y1243600D01*
X1101747Y1251931D02*
Y1250265D01*
X1103413D01*
X1100081D01*
X1101747D01*
Y1245266D01*
X1100081Y1243600D01*
X958935Y1253597D02*
X965600D01*
Y1248598D01*
X962268D01*
X965600D01*
Y1243600D01*
X955603Y1250265D02*
Y1243600D01*
Y1246932D01*
X953937Y1248598D01*
X952271Y1250265D01*
X950605D01*
X943940Y1243600D02*
X940608D01*
X938942Y1245266D01*
Y1248598D01*
X940608Y1250265D01*
X943940D01*
X945606Y1248598D01*
Y1245266D01*
X943940Y1243600D01*
X935610D02*
Y1250265D01*
X930611D01*
X928945Y1248598D01*
Y1243600D01*
X923947Y1251931D02*
Y1250265D01*
X925613D01*
X922281D01*
X923947D01*
Y1245266D01*
X922281Y1243600D01*
X781135Y1253597D02*
X787800D01*
Y1248598D01*
X784468D01*
X787800D01*
Y1243600D01*
X777803Y1250265D02*
Y1243600D01*
Y1246932D01*
X776137Y1248598D01*
X774471Y1250265D01*
X772805D01*
X766140Y1243600D02*
X762808D01*
X761142Y1245266D01*
Y1248598D01*
X762808Y1250265D01*
X766140D01*
X767806Y1248598D01*
Y1245266D01*
X766140Y1243600D01*
X757810D02*
Y1250265D01*
X752811D01*
X751145Y1248598D01*
Y1243600D01*
X746147Y1251931D02*
Y1250265D01*
X747813D01*
X744481D01*
X746147D01*
Y1245266D01*
X744481Y1243600D01*
X603335Y1253597D02*
X610000D01*
Y1248598D01*
X606668D01*
X610000D01*
Y1243600D01*
X600003Y1250265D02*
Y1243600D01*
Y1246932D01*
X598337Y1248598D01*
X596671Y1250265D01*
X595005D01*
X588340Y1243600D02*
X585008D01*
X583342Y1245266D01*
Y1248598D01*
X585008Y1250265D01*
X588340D01*
X590006Y1248598D01*
Y1245266D01*
X588340Y1243600D01*
X580010D02*
Y1250265D01*
X575011D01*
X573345Y1248598D01*
Y1243600D01*
X568347Y1251931D02*
Y1250265D01*
X570013D01*
X566681D01*
X568347D01*
Y1245266D01*
X566681Y1243600D01*
X425536Y1253597D02*
X432200D01*
Y1248598D01*
X428868D01*
X432200D01*
Y1243600D01*
X422203Y1250265D02*
Y1243600D01*
Y1246932D01*
X420537Y1248598D01*
X418871Y1250265D01*
X417205D01*
X410540Y1243600D02*
X407208D01*
X405542Y1245266D01*
Y1248598D01*
X407208Y1250265D01*
X410540D01*
X412206Y1248598D01*
Y1245266D01*
X410540Y1243600D01*
X402210D02*
Y1250265D01*
X397211D01*
X395545Y1248598D01*
Y1243600D01*
X390547Y1251931D02*
Y1250265D01*
X392213D01*
X388881D01*
X390547D01*
Y1245266D01*
X388881Y1243600D01*
D43*
X1596800Y889875D02*
D03*
X1241200D02*
D03*
X860200D02*
D03*
X504600D02*
D03*
M02*
